ISO-10303-21;
HEADER;
/* Generated by software containing ST-Developer
 * from STEP Tools, Inc. (www.steptools.com) 
 */

FILE_DESCRIPTION(
/* description */ ('',
'CAx-IF Rec.Pracs.---Representation and Presentation of Product Manufa
cturing Information (PMI)---4.0---2014-10-13'),
/* implementation_level */ '2;1');

FILE_NAME(
/* name */ 'AltarCap v3.step',
/* time_stamp */ '2025-09-01T19:36:16-07:00',
/* author */ (''),
/* organization */ (''),
/* preprocessor_version */ 'ST-DEVELOPER v20',
/* originating_system */ 'Autodesk Translation Framework v13.20.0.188',

/* authorisation */ '');

FILE_SCHEMA (('AP242_MANAGED_MODEL_BASED_3D_ENGINEERING_MIM_LF { 1 0 10303 442 1 1 4 }'));
ENDSEC;

DATA;
#10=MECHANICAL_DESIGN_GEOMETRIC_PRESENTATION_REPRESENTATION('',(#13),#1263);
#11=SHAPE_REPRESENTATION_RELATIONSHIP('SRR','None',#1270,#12);
#12=ADVANCED_BREP_SHAPE_REPRESENTATION('',(#14),#1262);
#13=STYLED_ITEM('',(#1279),#14);
#14=MANIFOLD_SOLID_BREP('Body1',#719);
#15=TOROIDAL_SURFACE('',#780,2.,1.);
#16=TOROIDAL_SURFACE('',#786,2.,1.);
#17=TOROIDAL_SURFACE('',#791,2.,1.);
#18=TOROIDAL_SURFACE('',#796,2.,1.);
#19=FACE_BOUND('',#140,.T.);
#20=FACE_BOUND('',#155,.T.);
#21=FACE_BOUND('',#156,.T.);
#22=FACE_BOUND('',#162,.T.);
#23=CYLINDRICAL_SURFACE('',#747,0.25);
#24=CYLINDRICAL_SURFACE('',#752,0.25);
#25=CYLINDRICAL_SURFACE('',#757,0.25);
#26=CYLINDRICAL_SURFACE('',#762,0.25);
#27=CYLINDRICAL_SURFACE('',#764,0.5);
#28=CYLINDRICAL_SURFACE('',#767,0.5);
#29=CYLINDRICAL_SURFACE('',#774,0.5);
#30=CYLINDRICAL_SURFACE('',#777,0.5);
#31=CYLINDRICAL_SURFACE('',#784,1.);
#32=CYLINDRICAL_SURFACE('',#789,1.);
#33=CYLINDRICAL_SURFACE('',#794,1.);
#34=CYLINDRICAL_SURFACE('',#799,1.);
#35=CIRCLE('',#743,0.250000000000001);
#36=CIRCLE('',#744,0.25);
#37=CIRCLE('',#745,0.25);
#38=CIRCLE('',#746,0.5);
#39=CIRCLE('',#748,0.25);
#40=CIRCLE('',#749,0.25);
#41=CIRCLE('',#750,0.5);
#42=CIRCLE('',#751,0.25);
#43=CIRCLE('',#753,0.25);
#44=CIRCLE('',#754,0.25);
#45=CIRCLE('',#755,0.5);
#46=CIRCLE('',#756,0.25);
#47=CIRCLE('',#758,0.25);
#48=CIRCLE('',#759,0.25);
#49=CIRCLE('',#760,0.5);
#50=CIRCLE('',#761,0.25);
#51=CIRCLE('',#765,0.5);
#52=CIRCLE('',#768,0.5);
#53=CIRCLE('',#770,3.);
#54=CIRCLE('',#771,3.);
#55=CIRCLE('',#772,3.);
#56=CIRCLE('',#773,3.);
#57=CIRCLE('',#775,0.5);
#58=CIRCLE('',#778,0.5);
#59=CIRCLE('',#781,1.);
#60=CIRCLE('',#782,1.);
#61=CIRCLE('',#783,2.);
#62=CIRCLE('',#785,1.);
#63=CIRCLE('',#787,1.);
#64=CIRCLE('',#788,2.);
#65=CIRCLE('',#790,1.);
#66=CIRCLE('',#792,1.);
#67=CIRCLE('',#793,2.);
#68=CIRCLE('',#795,1.);
#69=CIRCLE('',#797,1.);
#70=CIRCLE('',#798,2.);
#71=(
BOUNDED_SURFACE()
B_SPLINE_SURFACE(2,2,((#1072,#1073,#1074),(#1075,#1076,#1077),(#1078,#1079,
#1080)),.UNSPECIFIED.,.F.,.F.,.F.)
B_SPLINE_SURFACE_WITH_KNOTS((3,3),(3,3),(-1.5707963267949,0.),(-3.14159265358979,
-1.5707963267949),.UNSPECIFIED.)
GEOMETRIC_REPRESENTATION_ITEM()
RATIONAL_B_SPLINE_SURFACE(((1.,0.707106781186548,1.),(0.70710678118654,
0.499999999999995,0.70710678118654),(1.,0.707106781186548,1.)))
REPRESENTATION_ITEM('')
SURFACE()
);
#72=(
BOUNDED_SURFACE()
B_SPLINE_SURFACE(2,2,((#1095,#1096,#1097),(#1098,#1099,#1100),(#1101,#1102,
#1103)),.UNSPECIFIED.,.F.,.F.,.F.)
B_SPLINE_SURFACE_WITH_KNOTS((3,3),(3,3),(-1.5707963267949,0.),(-1.5707963267949,
0.),.UNSPECIFIED.)
GEOMETRIC_REPRESENTATION_ITEM()
RATIONAL_B_SPLINE_SURFACE(((1.,0.707106781186548,1.),(0.70710678118654,
0.499999999999995,0.70710678118654),(1.,0.707106781186548,1.)))
REPRESENTATION_ITEM('')
SURFACE()
);
#73=(
BOUNDED_SURFACE()
B_SPLINE_SURFACE(2,2,((#1115,#1116,#1117),(#1118,#1119,#1120),(#1121,#1122,
#1123)),.UNSPECIFIED.,.F.,.F.,.F.)
B_SPLINE_SURFACE_WITH_KNOTS((3,3),(3,3),(-1.5707963267949,0.),(0.,1.5707963267949),
 .UNSPECIFIED.)
GEOMETRIC_REPRESENTATION_ITEM()
RATIONAL_B_SPLINE_SURFACE(((1.,0.707106781186548,1.),(0.70710678118654,
0.499999999999995,0.70710678118654),(1.,0.707106781186548,1.)))
REPRESENTATION_ITEM('')
SURFACE()
);
#74=(
BOUNDED_SURFACE()
B_SPLINE_SURFACE(2,2,((#1135,#1136,#1137),(#1138,#1139,#1140),(#1141,#1142,
#1143)),.UNSPECIFIED.,.F.,.F.,.F.)
B_SPLINE_SURFACE_WITH_KNOTS((3,3),(3,3),(-1.5707963267949,0.),(1.5707963267949,
3.14159265358979),.UNSPECIFIED.)
GEOMETRIC_REPRESENTATION_ITEM()
RATIONAL_B_SPLINE_SURFACE(((1.,0.707106781186548,1.),(0.70710678118654,
0.499999999999995,0.70710678118654),(1.,0.707106781186548,1.)))
REPRESENTATION_ITEM('')
SURFACE()
);
#75=FACE_OUTER_BOUND('',#117,.T.);
#76=FACE_OUTER_BOUND('',#118,.T.);
#77=FACE_OUTER_BOUND('',#119,.T.);
#78=FACE_OUTER_BOUND('',#120,.T.);
#79=FACE_OUTER_BOUND('',#121,.T.);
#80=FACE_OUTER_BOUND('',#122,.T.);
#81=FACE_OUTER_BOUND('',#123,.T.);
#82=FACE_OUTER_BOUND('',#124,.T.);
#83=FACE_OUTER_BOUND('',#125,.T.);
#84=FACE_OUTER_BOUND('',#126,.T.);
#85=FACE_OUTER_BOUND('',#127,.T.);
#86=FACE_OUTER_BOUND('',#128,.T.);
#87=FACE_OUTER_BOUND('',#129,.T.);
#88=FACE_OUTER_BOUND('',#130,.T.);
#89=FACE_OUTER_BOUND('',#131,.T.);
#90=FACE_OUTER_BOUND('',#132,.T.);
#91=FACE_OUTER_BOUND('',#133,.T.);
#92=FACE_OUTER_BOUND('',#134,.T.);
#93=FACE_OUTER_BOUND('',#135,.T.);
#94=FACE_OUTER_BOUND('',#136,.T.);
#95=FACE_OUTER_BOUND('',#137,.T.);
#96=FACE_OUTER_BOUND('',#138,.T.);
#97=FACE_OUTER_BOUND('',#139,.T.);
#98=FACE_OUTER_BOUND('',#141,.T.);
#99=FACE_OUTER_BOUND('',#142,.T.);
#100=FACE_OUTER_BOUND('',#143,.T.);
#101=FACE_OUTER_BOUND('',#144,.T.);
#102=FACE_OUTER_BOUND('',#145,.T.);
#103=FACE_OUTER_BOUND('',#146,.T.);
#104=FACE_OUTER_BOUND('',#147,.T.);
#105=FACE_OUTER_BOUND('',#148,.T.);
#106=FACE_OUTER_BOUND('',#149,.T.);
#107=FACE_OUTER_BOUND('',#150,.T.);
#108=FACE_OUTER_BOUND('',#151,.T.);
#109=FACE_OUTER_BOUND('',#152,.T.);
#110=FACE_OUTER_BOUND('',#153,.T.);
#111=FACE_OUTER_BOUND('',#154,.T.);
#112=FACE_OUTER_BOUND('',#157,.T.);
#113=FACE_OUTER_BOUND('',#158,.T.);
#114=FACE_OUTER_BOUND('',#159,.T.);
#115=FACE_OUTER_BOUND('',#160,.T.);
#116=FACE_OUTER_BOUND('',#161,.T.);
#117=EDGE_LOOP('',(#455,#456,#457,#458));
#118=EDGE_LOOP('',(#459,#460,#461,#462));
#119=EDGE_LOOP('',(#463,#464,#465,#466));
#120=EDGE_LOOP('',(#467,#468,#469,#470));
#121=EDGE_LOOP('',(#471,#472,#473,#474));
#122=EDGE_LOOP('',(#475,#476,#477,#478));
#123=EDGE_LOOP('',(#479,#480,#481,#482));
#124=EDGE_LOOP('',(#483,#484,#485,#486));
#125=EDGE_LOOP('',(#487,#488,#489,#490));
#126=EDGE_LOOP('',(#491,#492,#493,#494));
#127=EDGE_LOOP('',(#495,#496,#497,#498));
#128=EDGE_LOOP('',(#499,#500,#501,#502));
#129=EDGE_LOOP('',(#503,#504,#505,#506));
#130=EDGE_LOOP('',(#507,#508,#509,#510));
#131=EDGE_LOOP('',(#511,#512,#513,#514));
#132=EDGE_LOOP('',(#515,#516,#517,#518));
#133=EDGE_LOOP('',(#519,#520,#521,#522));
#134=EDGE_LOOP('',(#523,#524,#525,#526));
#135=EDGE_LOOP('',(#527,#528,#529,#530));
#136=EDGE_LOOP('',(#531,#532,#533,#534));
#137=EDGE_LOOP('',(#535,#536,#537,#538));
#138=EDGE_LOOP('',(#539,#540,#541,#542));
#139=EDGE_LOOP('',(#543,#544,#545,#546,#547,#548,#549,#550));
#140=EDGE_LOOP('',(#551,#552,#553,#554,#555,#556,#557,#558));
#141=EDGE_LOOP('',(#559,#560,#561,#562));
#142=EDGE_LOOP('',(#563,#564,#565,#566));
#143=EDGE_LOOP('',(#567,#568,#569,#570));
#144=EDGE_LOOP('',(#571,#572,#573,#574));
#145=EDGE_LOOP('',(#575,#576,#577,#578));
#146=EDGE_LOOP('',(#579,#580,#581,#582));
#147=EDGE_LOOP('',(#583,#584,#585,#586));
#148=EDGE_LOOP('',(#587,#588,#589,#590));
#149=EDGE_LOOP('',(#591,#592,#593,#594));
#150=EDGE_LOOP('',(#595,#596,#597,#598));
#151=EDGE_LOOP('',(#599,#600,#601,#602));
#152=EDGE_LOOP('',(#603,#604,#605,#606));
#153=EDGE_LOOP('',(#607,#608,#609,#610,#611,#612,#613,#614));
#154=EDGE_LOOP('',(#615,#616,#617,#618));
#155=EDGE_LOOP('',(#619,#620,#621,#622));
#156=EDGE_LOOP('',(#623,#624,#625,#626));
#157=EDGE_LOOP('',(#627,#628,#629,#630));
#158=EDGE_LOOP('',(#631,#632,#633,#634));
#159=EDGE_LOOP('',(#635,#636,#637,#638));
#160=EDGE_LOOP('',(#639,#640,#641,#642));
#161=EDGE_LOOP('',(#643,#644,#645,#646,#647,#648,#649,#650));
#162=EDGE_LOOP('',(#651,#652,#653,#654));
#163=LINE('',#1025,#227);
#164=LINE('',#1027,#228);
#165=LINE('',#1029,#229);
#166=LINE('',#1030,#230);
#167=LINE('',#1033,#231);
#168=LINE('',#1035,#232);
#169=LINE('',#1036,#233);
#170=LINE('',#1039,#234);
#171=LINE('',#1041,#235);
#172=LINE('',#1042,#236);
#173=LINE('',#1044,#237);
#174=LINE('',#1045,#238);
#175=LINE('',#1050,#239);
#176=LINE('',#1052,#240);
#177=LINE('',#1054,#241);
#178=LINE('',#1055,#242);
#179=LINE('',#1058,#243);
#180=LINE('',#1060,#244);
#181=LINE('',#1061,#245);
#182=LINE('',#1064,#246);
#183=LINE('',#1066,#247);
#184=LINE('',#1067,#248);
#185=LINE('',#1069,#249);
#186=LINE('',#1070,#250);
#187=LINE('',#1093,#251);
#188=LINE('',#1094,#252);
#189=LINE('',#1113,#253);
#190=LINE('',#1114,#254);
#191=LINE('',#1133,#255);
#192=LINE('',#1134,#256);
#193=LINE('',#1150,#257);
#194=LINE('',#1151,#258);
#195=LINE('',#1154,#259);
#196=LINE('',#1156,#260);
#197=LINE('',#1157,#261);
#198=LINE('',#1160,#262);
#199=LINE('',#1164,#263);
#200=LINE('',#1165,#264);
#201=LINE('',#1168,#265);
#202=LINE('',#1173,#266);
#203=LINE('',#1177,#267);
#204=LINE('',#1181,#268);
#205=LINE('',#1185,#269);
#206=LINE('',#1190,#270);
#207=LINE('',#1193,#271);
#208=LINE('',#1194,#272);
#209=LINE('',#1197,#273);
#210=LINE('',#1200,#274);
#211=LINE('',#1210,#275);
#212=LINE('',#1218,#276);
#213=LINE('',#1226,#277);
#214=LINE('',#1232,#278);
#215=LINE('',#1237,#279);
#216=LINE('',#1239,#280);
#217=LINE('',#1241,#281);
#218=LINE('',#1242,#282);
#219=LINE('',#1246,#283);
#220=LINE('',#1247,#284);
#221=LINE('',#1248,#285);
#222=LINE('',#1251,#286);
#223=LINE('',#1252,#287);
#224=LINE('',#1255,#288);
#225=LINE('',#1256,#289);
#226=LINE('',#1258,#290);
#227=VECTOR('',#811,10.);
#228=VECTOR('',#812,10.);
#229=VECTOR('',#813,10.);
#230=VECTOR('',#814,10.);
#231=VECTOR('',#817,10.);
#232=VECTOR('',#818,10.);
#233=VECTOR('',#819,10.);
#234=VECTOR('',#822,10.);
#235=VECTOR('',#823,10.);
#236=VECTOR('',#824,10.);
#237=VECTOR('',#827,10.);
#238=VECTOR('',#828,10.);
#239=VECTOR('',#833,10.);
#240=VECTOR('',#834,10.);
#241=VECTOR('',#835,10.);
#242=VECTOR('',#836,10.);
#243=VECTOR('',#839,10.);
#244=VECTOR('',#840,10.);
#245=VECTOR('',#841,10.);
#246=VECTOR('',#844,10.);
#247=VECTOR('',#845,10.);
#248=VECTOR('',#846,10.);
#249=VECTOR('',#849,10.);
#250=VECTOR('',#850,10.);
#251=VECTOR('',#865,10.);
#252=VECTOR('',#866,10.);
#253=VECTOR('',#877,10.);
#254=VECTOR('',#878,10.);
#255=VECTOR('',#889,10.);
#256=VECTOR('',#890,10.);
#257=VECTOR('',#899,10.);
#258=VECTOR('',#900,10.);
#259=VECTOR('',#903,10.);
#260=VECTOR('',#904,10.);
#261=VECTOR('',#905,10.);
#262=VECTOR('',#908,10.);
#263=VECTOR('',#913,10.);
#264=VECTOR('',#914,10.);
#265=VECTOR('',#917,10.);
#266=VECTOR('',#922,10.);
#267=VECTOR('',#925,10.);
#268=VECTOR('',#928,10.);
#269=VECTOR('',#931,10.);
#270=VECTOR('',#938,10.);
#271=VECTOR('',#941,10.);
#272=VECTOR('',#942,10.);
#273=VECTOR('',#945,10.);
#274=VECTOR('',#950,10.);
#275=VECTOR('',#963,10.);
#276=VECTOR('',#974,10.);
#277=VECTOR('',#985,10.);
#278=VECTOR('',#994,10.);
#279=VECTOR('',#999,10.);
#280=VECTOR('',#1000,10.);
#281=VECTOR('',#1001,10.);
#282=VECTOR('',#1002,10.);
#283=VECTOR('',#1005,10.);
#284=VECTOR('',#1006,10.);
#285=VECTOR('',#1007,10.);
#286=VECTOR('',#1010,10.);
#287=VECTOR('',#1011,10.);
#288=VECTOR('',#1014,10.);
#289=VECTOR('',#1015,10.);
#290=VECTOR('',#1018,10.);
#291=VERTEX_POINT('',#1023);
#292=VERTEX_POINT('',#1024);
#293=VERTEX_POINT('',#1026);
#294=VERTEX_POINT('',#1028);
#295=VERTEX_POINT('',#1032);
#296=VERTEX_POINT('',#1034);
#297=VERTEX_POINT('',#1038);
#298=VERTEX_POINT('',#1040);
#299=VERTEX_POINT('',#1048);
#300=VERTEX_POINT('',#1049);
#301=VERTEX_POINT('',#1051);
#302=VERTEX_POINT('',#1053);
#303=VERTEX_POINT('',#1057);
#304=VERTEX_POINT('',#1059);
#305=VERTEX_POINT('',#1063);
#306=VERTEX_POINT('',#1065);
#307=VERTEX_POINT('',#1081);
#308=VERTEX_POINT('',#1082);
#309=VERTEX_POINT('',#1084);
#310=VERTEX_POINT('',#1086);
#311=VERTEX_POINT('',#1090);
#312=VERTEX_POINT('',#1091);
#313=VERTEX_POINT('',#1104);
#314=VERTEX_POINT('',#1105);
#315=VERTEX_POINT('',#1110);
#316=VERTEX_POINT('',#1111);
#317=VERTEX_POINT('',#1124);
#318=VERTEX_POINT('',#1125);
#319=VERTEX_POINT('',#1130);
#320=VERTEX_POINT('',#1131);
#321=VERTEX_POINT('',#1144);
#322=VERTEX_POINT('',#1145);
#323=VERTEX_POINT('',#1153);
#324=VERTEX_POINT('',#1155);
#325=VERTEX_POINT('',#1159);
#326=VERTEX_POINT('',#1163);
#327=VERTEX_POINT('',#1167);
#328=VERTEX_POINT('',#1171);
#329=VERTEX_POINT('',#1172);
#330=VERTEX_POINT('',#1174);
#331=VERTEX_POINT('',#1176);
#332=VERTEX_POINT('',#1178);
#333=VERTEX_POINT('',#1180);
#334=VERTEX_POINT('',#1182);
#335=VERTEX_POINT('',#1184);
#336=VERTEX_POINT('',#1188);
#337=VERTEX_POINT('',#1192);
#338=VERTEX_POINT('',#1196);
#339=VERTEX_POINT('',#1202);
#340=VERTEX_POINT('',#1204);
#341=VERTEX_POINT('',#1208);
#342=VERTEX_POINT('',#1212);
#343=VERTEX_POINT('',#1216);
#344=VERTEX_POINT('',#1220);
#345=VERTEX_POINT('',#1224);
#346=VERTEX_POINT('',#1228);
#347=VERTEX_POINT('',#1235);
#348=VERTEX_POINT('',#1236);
#349=VERTEX_POINT('',#1238);
#350=VERTEX_POINT('',#1240);
#351=VERTEX_POINT('',#1244);
#352=VERTEX_POINT('',#1245);
#353=VERTEX_POINT('',#1250);
#354=VERTEX_POINT('',#1254);
#355=EDGE_CURVE('',#291,#292,#163,.T.);
#356=EDGE_CURVE('',#292,#293,#164,.T.);
#357=EDGE_CURVE('',#294,#293,#165,.T.);
#358=EDGE_CURVE('',#291,#294,#166,.T.);
#359=EDGE_CURVE('',#295,#291,#167,.T.);
#360=EDGE_CURVE('',#296,#294,#168,.T.);
#361=EDGE_CURVE('',#295,#296,#169,.T.);
#362=EDGE_CURVE('',#297,#295,#170,.T.);
#363=EDGE_CURVE('',#298,#296,#171,.T.);
#364=EDGE_CURVE('',#297,#298,#172,.T.);
#365=EDGE_CURVE('',#292,#297,#173,.T.);
#366=EDGE_CURVE('',#293,#298,#174,.T.);
#367=EDGE_CURVE('',#299,#300,#175,.T.);
#368=EDGE_CURVE('',#300,#301,#176,.T.);
#369=EDGE_CURVE('',#302,#301,#177,.T.);
#370=EDGE_CURVE('',#299,#302,#178,.T.);
#371=EDGE_CURVE('',#303,#299,#179,.T.);
#372=EDGE_CURVE('',#304,#302,#180,.T.);
#373=EDGE_CURVE('',#303,#304,#181,.T.);
#374=EDGE_CURVE('',#305,#303,#182,.T.);
#375=EDGE_CURVE('',#306,#304,#183,.T.);
#376=EDGE_CURVE('',#305,#306,#184,.T.);
#377=EDGE_CURVE('',#300,#305,#185,.T.);
#378=EDGE_CURVE('',#301,#306,#186,.T.);
#379=EDGE_CURVE('',#307,#308,#35,.T.);
#380=EDGE_CURVE('',#308,#309,#36,.T.);
#381=EDGE_CURVE('',#309,#310,#37,.T.);
#382=EDGE_CURVE('',#310,#307,#38,.T.);
#383=EDGE_CURVE('',#311,#312,#39,.T.);
#384=EDGE_CURVE('',#312,#310,#187,.T.);
#385=EDGE_CURVE('',#309,#311,#188,.T.);
#386=EDGE_CURVE('',#313,#314,#40,.T.);
#387=EDGE_CURVE('',#314,#312,#41,.T.);
#388=EDGE_CURVE('',#311,#313,#42,.T.);
#389=EDGE_CURVE('',#315,#316,#43,.T.);
#390=EDGE_CURVE('',#316,#314,#189,.T.);
#391=EDGE_CURVE('',#313,#315,#190,.T.);
#392=EDGE_CURVE('',#317,#318,#44,.T.);
#393=EDGE_CURVE('',#318,#316,#45,.T.);
#394=EDGE_CURVE('',#315,#317,#46,.T.);
#395=EDGE_CURVE('',#319,#320,#47,.T.);
#396=EDGE_CURVE('',#320,#318,#191,.T.);
#397=EDGE_CURVE('',#317,#319,#192,.T.);
#398=EDGE_CURVE('',#321,#322,#48,.T.);
#399=EDGE_CURVE('',#322,#320,#49,.T.);
#400=EDGE_CURVE('',#319,#321,#50,.T.);
#401=EDGE_CURVE('',#321,#308,#193,.T.);
#402=EDGE_CURVE('',#307,#322,#194,.T.);
#403=EDGE_CURVE('',#323,#320,#195,.T.);
#404=EDGE_CURVE('',#323,#324,#196,.T.);
#405=EDGE_CURVE('',#318,#324,#197,.T.);
#406=EDGE_CURVE('',#322,#325,#198,.T.);
#407=EDGE_CURVE('',#325,#323,#51,.T.);
#408=EDGE_CURVE('',#326,#307,#199,.T.);
#409=EDGE_CURVE('',#326,#325,#200,.T.);
#410=EDGE_CURVE('',#310,#327,#201,.T.);
#411=EDGE_CURVE('',#327,#326,#52,.T.);
#412=EDGE_CURVE('',#328,#329,#202,.T.);
#413=EDGE_CURVE('',#330,#329,#53,.T.);
#414=EDGE_CURVE('',#330,#331,#203,.T.);
#415=EDGE_CURVE('',#332,#331,#54,.T.);
#416=EDGE_CURVE('',#332,#333,#204,.T.);
#417=EDGE_CURVE('',#334,#333,#55,.T.);
#418=EDGE_CURVE('',#334,#335,#205,.T.);
#419=EDGE_CURVE('',#328,#335,#56,.T.);
#420=EDGE_CURVE('',#324,#336,#57,.T.);
#421=EDGE_CURVE('',#336,#316,#206,.T.);
#422=EDGE_CURVE('',#337,#312,#207,.T.);
#423=EDGE_CURVE('',#337,#327,#208,.T.);
#424=EDGE_CURVE('',#314,#338,#209,.T.);
#425=EDGE_CURVE('',#338,#337,#58,.T.);
#426=EDGE_CURVE('',#336,#338,#210,.T.);
#427=EDGE_CURVE('',#339,#328,#59,.T.);
#428=EDGE_CURVE('',#335,#340,#60,.T.);
#429=EDGE_CURVE('',#340,#339,#61,.T.);
#430=EDGE_CURVE('',#334,#341,#62,.T.);
#431=EDGE_CURVE('',#341,#340,#211,.T.);
#432=EDGE_CURVE('',#333,#342,#63,.T.);
#433=EDGE_CURVE('',#342,#341,#64,.T.);
#434=EDGE_CURVE('',#332,#343,#65,.T.);
#435=EDGE_CURVE('',#343,#342,#212,.T.);
#436=EDGE_CURVE('',#331,#344,#66,.T.);
#437=EDGE_CURVE('',#344,#343,#67,.T.);
#438=EDGE_CURVE('',#330,#345,#68,.T.);
#439=EDGE_CURVE('',#345,#344,#213,.T.);
#440=EDGE_CURVE('',#329,#346,#69,.T.);
#441=EDGE_CURVE('',#346,#345,#70,.T.);
#442=EDGE_CURVE('',#339,#346,#214,.T.);
#443=EDGE_CURVE('',#347,#348,#215,.T.);
#444=EDGE_CURVE('',#348,#349,#216,.T.);
#445=EDGE_CURVE('',#349,#350,#217,.T.);
#446=EDGE_CURVE('',#350,#347,#218,.T.);
#447=EDGE_CURVE('',#351,#352,#219,.T.);
#448=EDGE_CURVE('',#352,#348,#220,.T.);
#449=EDGE_CURVE('',#351,#347,#221,.T.);
#450=EDGE_CURVE('',#353,#351,#222,.T.);
#451=EDGE_CURVE('',#353,#350,#223,.T.);
#452=EDGE_CURVE('',#354,#353,#224,.T.);
#453=EDGE_CURVE('',#354,#349,#225,.T.);
#454=EDGE_CURVE('',#352,#354,#226,.T.);
#455=ORIENTED_EDGE('',*,*,#355,.T.);
#456=ORIENTED_EDGE('',*,*,#356,.T.);
#457=ORIENTED_EDGE('',*,*,#357,.F.);
#458=ORIENTED_EDGE('',*,*,#358,.F.);
#459=ORIENTED_EDGE('',*,*,#359,.T.);
#460=ORIENTED_EDGE('',*,*,#358,.T.);
#461=ORIENTED_EDGE('',*,*,#360,.F.);
#462=ORIENTED_EDGE('',*,*,#361,.F.);
#463=ORIENTED_EDGE('',*,*,#362,.T.);
#464=ORIENTED_EDGE('',*,*,#361,.T.);
#465=ORIENTED_EDGE('',*,*,#363,.F.);
#466=ORIENTED_EDGE('',*,*,#364,.F.);
#467=ORIENTED_EDGE('',*,*,#365,.T.);
#468=ORIENTED_EDGE('',*,*,#364,.T.);
#469=ORIENTED_EDGE('',*,*,#366,.F.);
#470=ORIENTED_EDGE('',*,*,#356,.F.);
#471=ORIENTED_EDGE('',*,*,#365,.F.);
#472=ORIENTED_EDGE('',*,*,#355,.F.);
#473=ORIENTED_EDGE('',*,*,#359,.F.);
#474=ORIENTED_EDGE('',*,*,#362,.F.);
#475=ORIENTED_EDGE('',*,*,#367,.T.);
#476=ORIENTED_EDGE('',*,*,#368,.T.);
#477=ORIENTED_EDGE('',*,*,#369,.F.);
#478=ORIENTED_EDGE('',*,*,#370,.F.);
#479=ORIENTED_EDGE('',*,*,#371,.T.);
#480=ORIENTED_EDGE('',*,*,#370,.T.);
#481=ORIENTED_EDGE('',*,*,#372,.F.);
#482=ORIENTED_EDGE('',*,*,#373,.F.);
#483=ORIENTED_EDGE('',*,*,#374,.T.);
#484=ORIENTED_EDGE('',*,*,#373,.T.);
#485=ORIENTED_EDGE('',*,*,#375,.F.);
#486=ORIENTED_EDGE('',*,*,#376,.F.);
#487=ORIENTED_EDGE('',*,*,#377,.T.);
#488=ORIENTED_EDGE('',*,*,#376,.T.);
#489=ORIENTED_EDGE('',*,*,#378,.F.);
#490=ORIENTED_EDGE('',*,*,#368,.F.);
#491=ORIENTED_EDGE('',*,*,#377,.F.);
#492=ORIENTED_EDGE('',*,*,#367,.F.);
#493=ORIENTED_EDGE('',*,*,#371,.F.);
#494=ORIENTED_EDGE('',*,*,#374,.F.);
#495=ORIENTED_EDGE('',*,*,#379,.T.);
#496=ORIENTED_EDGE('',*,*,#380,.T.);
#497=ORIENTED_EDGE('',*,*,#381,.T.);
#498=ORIENTED_EDGE('',*,*,#382,.T.);
#499=ORIENTED_EDGE('',*,*,#383,.T.);
#500=ORIENTED_EDGE('',*,*,#384,.T.);
#501=ORIENTED_EDGE('',*,*,#381,.F.);
#502=ORIENTED_EDGE('',*,*,#385,.T.);
#503=ORIENTED_EDGE('',*,*,#386,.T.);
#504=ORIENTED_EDGE('',*,*,#387,.T.);
#505=ORIENTED_EDGE('',*,*,#383,.F.);
#506=ORIENTED_EDGE('',*,*,#388,.T.);
#507=ORIENTED_EDGE('',*,*,#389,.T.);
#508=ORIENTED_EDGE('',*,*,#390,.T.);
#509=ORIENTED_EDGE('',*,*,#386,.F.);
#510=ORIENTED_EDGE('',*,*,#391,.T.);
#511=ORIENTED_EDGE('',*,*,#392,.T.);
#512=ORIENTED_EDGE('',*,*,#393,.T.);
#513=ORIENTED_EDGE('',*,*,#389,.F.);
#514=ORIENTED_EDGE('',*,*,#394,.T.);
#515=ORIENTED_EDGE('',*,*,#395,.T.);
#516=ORIENTED_EDGE('',*,*,#396,.T.);
#517=ORIENTED_EDGE('',*,*,#392,.F.);
#518=ORIENTED_EDGE('',*,*,#397,.T.);
#519=ORIENTED_EDGE('',*,*,#398,.T.);
#520=ORIENTED_EDGE('',*,*,#399,.T.);
#521=ORIENTED_EDGE('',*,*,#395,.F.);
#522=ORIENTED_EDGE('',*,*,#400,.T.);
#523=ORIENTED_EDGE('',*,*,#398,.F.);
#524=ORIENTED_EDGE('',*,*,#401,.T.);
#525=ORIENTED_EDGE('',*,*,#379,.F.);
#526=ORIENTED_EDGE('',*,*,#402,.T.);
#527=ORIENTED_EDGE('',*,*,#396,.F.);
#528=ORIENTED_EDGE('',*,*,#403,.F.);
#529=ORIENTED_EDGE('',*,*,#404,.T.);
#530=ORIENTED_EDGE('',*,*,#405,.F.);
#531=ORIENTED_EDGE('',*,*,#399,.F.);
#532=ORIENTED_EDGE('',*,*,#406,.T.);
#533=ORIENTED_EDGE('',*,*,#407,.T.);
#534=ORIENTED_EDGE('',*,*,#403,.T.);
#535=ORIENTED_EDGE('',*,*,#402,.F.);
#536=ORIENTED_EDGE('',*,*,#408,.F.);
#537=ORIENTED_EDGE('',*,*,#409,.T.);
#538=ORIENTED_EDGE('',*,*,#406,.F.);
#539=ORIENTED_EDGE('',*,*,#382,.F.);
#540=ORIENTED_EDGE('',*,*,#410,.T.);
#541=ORIENTED_EDGE('',*,*,#411,.T.);
#542=ORIENTED_EDGE('',*,*,#408,.T.);
#543=ORIENTED_EDGE('',*,*,#380,.F.);
#544=ORIENTED_EDGE('',*,*,#401,.F.);
#545=ORIENTED_EDGE('',*,*,#400,.F.);
#546=ORIENTED_EDGE('',*,*,#397,.F.);
#547=ORIENTED_EDGE('',*,*,#394,.F.);
#548=ORIENTED_EDGE('',*,*,#391,.F.);
#549=ORIENTED_EDGE('',*,*,#388,.F.);
#550=ORIENTED_EDGE('',*,*,#385,.F.);
#551=ORIENTED_EDGE('',*,*,#412,.T.);
#552=ORIENTED_EDGE('',*,*,#413,.F.);
#553=ORIENTED_EDGE('',*,*,#414,.T.);
#554=ORIENTED_EDGE('',*,*,#415,.F.);
#555=ORIENTED_EDGE('',*,*,#416,.T.);
#556=ORIENTED_EDGE('',*,*,#417,.F.);
#557=ORIENTED_EDGE('',*,*,#418,.T.);
#558=ORIENTED_EDGE('',*,*,#419,.F.);
#559=ORIENTED_EDGE('',*,*,#393,.F.);
#560=ORIENTED_EDGE('',*,*,#405,.T.);
#561=ORIENTED_EDGE('',*,*,#420,.T.);
#562=ORIENTED_EDGE('',*,*,#421,.T.);
#563=ORIENTED_EDGE('',*,*,#384,.F.);
#564=ORIENTED_EDGE('',*,*,#422,.F.);
#565=ORIENTED_EDGE('',*,*,#423,.T.);
#566=ORIENTED_EDGE('',*,*,#410,.F.);
#567=ORIENTED_EDGE('',*,*,#387,.F.);
#568=ORIENTED_EDGE('',*,*,#424,.T.);
#569=ORIENTED_EDGE('',*,*,#425,.T.);
#570=ORIENTED_EDGE('',*,*,#422,.T.);
#571=ORIENTED_EDGE('',*,*,#390,.F.);
#572=ORIENTED_EDGE('',*,*,#421,.F.);
#573=ORIENTED_EDGE('',*,*,#426,.T.);
#574=ORIENTED_EDGE('',*,*,#424,.F.);
#575=ORIENTED_EDGE('',*,*,#427,.T.);
#576=ORIENTED_EDGE('',*,*,#419,.T.);
#577=ORIENTED_EDGE('',*,*,#428,.T.);
#578=ORIENTED_EDGE('',*,*,#429,.T.);
#579=ORIENTED_EDGE('',*,*,#430,.T.);
#580=ORIENTED_EDGE('',*,*,#431,.T.);
#581=ORIENTED_EDGE('',*,*,#428,.F.);
#582=ORIENTED_EDGE('',*,*,#418,.F.);
#583=ORIENTED_EDGE('',*,*,#430,.F.);
#584=ORIENTED_EDGE('',*,*,#417,.T.);
#585=ORIENTED_EDGE('',*,*,#432,.T.);
#586=ORIENTED_EDGE('',*,*,#433,.T.);
#587=ORIENTED_EDGE('',*,*,#434,.T.);
#588=ORIENTED_EDGE('',*,*,#435,.T.);
#589=ORIENTED_EDGE('',*,*,#432,.F.);
#590=ORIENTED_EDGE('',*,*,#416,.F.);
#591=ORIENTED_EDGE('',*,*,#434,.F.);
#592=ORIENTED_EDGE('',*,*,#415,.T.);
#593=ORIENTED_EDGE('',*,*,#436,.T.);
#594=ORIENTED_EDGE('',*,*,#437,.T.);
#595=ORIENTED_EDGE('',*,*,#438,.T.);
#596=ORIENTED_EDGE('',*,*,#439,.T.);
#597=ORIENTED_EDGE('',*,*,#436,.F.);
#598=ORIENTED_EDGE('',*,*,#414,.F.);
#599=ORIENTED_EDGE('',*,*,#438,.F.);
#600=ORIENTED_EDGE('',*,*,#413,.T.);
#601=ORIENTED_EDGE('',*,*,#440,.T.);
#602=ORIENTED_EDGE('',*,*,#441,.T.);
#603=ORIENTED_EDGE('',*,*,#427,.F.);
#604=ORIENTED_EDGE('',*,*,#442,.T.);
#605=ORIENTED_EDGE('',*,*,#440,.F.);
#606=ORIENTED_EDGE('',*,*,#412,.F.);
#607=ORIENTED_EDGE('',*,*,#429,.F.);
#608=ORIENTED_EDGE('',*,*,#431,.F.);
#609=ORIENTED_EDGE('',*,*,#433,.F.);
#610=ORIENTED_EDGE('',*,*,#435,.F.);
#611=ORIENTED_EDGE('',*,*,#437,.F.);
#612=ORIENTED_EDGE('',*,*,#439,.F.);
#613=ORIENTED_EDGE('',*,*,#441,.F.);
#614=ORIENTED_EDGE('',*,*,#442,.F.);
#615=ORIENTED_EDGE('',*,*,#443,.T.);
#616=ORIENTED_EDGE('',*,*,#444,.T.);
#617=ORIENTED_EDGE('',*,*,#445,.T.);
#618=ORIENTED_EDGE('',*,*,#446,.T.);
#619=ORIENTED_EDGE('',*,*,#357,.T.);
#620=ORIENTED_EDGE('',*,*,#366,.T.);
#621=ORIENTED_EDGE('',*,*,#363,.T.);
#622=ORIENTED_EDGE('',*,*,#360,.T.);
#623=ORIENTED_EDGE('',*,*,#369,.T.);
#624=ORIENTED_EDGE('',*,*,#378,.T.);
#625=ORIENTED_EDGE('',*,*,#375,.T.);
#626=ORIENTED_EDGE('',*,*,#372,.T.);
#627=ORIENTED_EDGE('',*,*,#447,.T.);
#628=ORIENTED_EDGE('',*,*,#448,.T.);
#629=ORIENTED_EDGE('',*,*,#443,.F.);
#630=ORIENTED_EDGE('',*,*,#449,.F.);
#631=ORIENTED_EDGE('',*,*,#450,.T.);
#632=ORIENTED_EDGE('',*,*,#449,.T.);
#633=ORIENTED_EDGE('',*,*,#446,.F.);
#634=ORIENTED_EDGE('',*,*,#451,.F.);
#635=ORIENTED_EDGE('',*,*,#452,.T.);
#636=ORIENTED_EDGE('',*,*,#451,.T.);
#637=ORIENTED_EDGE('',*,*,#445,.F.);
#638=ORIENTED_EDGE('',*,*,#453,.F.);
#639=ORIENTED_EDGE('',*,*,#454,.T.);
#640=ORIENTED_EDGE('',*,*,#453,.T.);
#641=ORIENTED_EDGE('',*,*,#444,.F.);
#642=ORIENTED_EDGE('',*,*,#448,.F.);
#643=ORIENTED_EDGE('',*,*,#420,.F.);
#644=ORIENTED_EDGE('',*,*,#404,.F.);
#645=ORIENTED_EDGE('',*,*,#407,.F.);
#646=ORIENTED_EDGE('',*,*,#409,.F.);
#647=ORIENTED_EDGE('',*,*,#411,.F.);
#648=ORIENTED_EDGE('',*,*,#423,.F.);
#649=ORIENTED_EDGE('',*,*,#425,.F.);
#650=ORIENTED_EDGE('',*,*,#426,.F.);
#651=ORIENTED_EDGE('',*,*,#454,.F.);
#652=ORIENTED_EDGE('',*,*,#447,.F.);
#653=ORIENTED_EDGE('',*,*,#450,.F.);
#654=ORIENTED_EDGE('',*,*,#452,.F.);
#655=PLANE('',#733);
#656=PLANE('',#734);
#657=PLANE('',#735);
#658=PLANE('',#736);
#659=PLANE('',#737);
#660=PLANE('',#738);
#661=PLANE('',#739);
#662=PLANE('',#740);
#663=PLANE('',#741);
#664=PLANE('',#742);
#665=PLANE('',#763);
#666=PLANE('',#766);
#667=PLANE('',#769);
#668=PLANE('',#776);
#669=PLANE('',#779);
#670=PLANE('',#800);
#671=PLANE('',#801);
#672=PLANE('',#802);
#673=PLANE('',#803);
#674=PLANE('',#804);
#675=PLANE('',#805);
#676=PLANE('',#806);
#677=ADVANCED_FACE('',(#75),#655,.T.);
#678=ADVANCED_FACE('',(#76),#656,.T.);
#679=ADVANCED_FACE('',(#77),#657,.T.);
#680=ADVANCED_FACE('',(#78),#658,.T.);
#681=ADVANCED_FACE('',(#79),#659,.F.);
#682=ADVANCED_FACE('',(#80),#660,.T.);
#683=ADVANCED_FACE('',(#81),#661,.T.);
#684=ADVANCED_FACE('',(#82),#662,.T.);
#685=ADVANCED_FACE('',(#83),#663,.T.);
#686=ADVANCED_FACE('',(#84),#664,.F.);
#687=ADVANCED_FACE('',(#85),#71,.F.);
#688=ADVANCED_FACE('',(#86),#23,.T.);
#689=ADVANCED_FACE('',(#87),#72,.F.);
#690=ADVANCED_FACE('',(#88),#24,.T.);
#691=ADVANCED_FACE('',(#89),#73,.F.);
#692=ADVANCED_FACE('',(#90),#25,.T.);
#693=ADVANCED_FACE('',(#91),#74,.F.);
#694=ADVANCED_FACE('',(#92),#26,.T.);
#695=ADVANCED_FACE('',(#93),#665,.T.);
#696=ADVANCED_FACE('',(#94),#27,.T.);
#697=ADVANCED_FACE('',(#95),#666,.T.);
#698=ADVANCED_FACE('',(#96),#28,.T.);
#699=ADVANCED_FACE('',(#97,#19),#667,.T.);
#700=ADVANCED_FACE('',(#98),#29,.T.);
#701=ADVANCED_FACE('',(#99),#668,.T.);
#702=ADVANCED_FACE('',(#100),#30,.T.);
#703=ADVANCED_FACE('',(#101),#669,.T.);
#704=ADVANCED_FACE('',(#102),#15,.F.);
#705=ADVANCED_FACE('',(#103),#31,.F.);
#706=ADVANCED_FACE('',(#104),#16,.F.);
#707=ADVANCED_FACE('',(#105),#32,.F.);
#708=ADVANCED_FACE('',(#106),#17,.F.);
#709=ADVANCED_FACE('',(#107),#33,.F.);
#710=ADVANCED_FACE('',(#108),#18,.F.);
#711=ADVANCED_FACE('',(#109),#34,.F.);
#712=ADVANCED_FACE('',(#110),#670,.F.);
#713=ADVANCED_FACE('',(#111,#20,#21),#671,.F.);
#714=ADVANCED_FACE('',(#112),#672,.T.);
#715=ADVANCED_FACE('',(#113),#673,.T.);
#716=ADVANCED_FACE('',(#114),#674,.T.);
#717=ADVANCED_FACE('',(#115),#675,.T.);
#718=ADVANCED_FACE('',(#116,#22),#676,.F.);
#719=CLOSED_SHELL('',(#677,#678,#679,#680,#681,#682,#683,#684,#685,#686,
#687,#688,#689,#690,#691,#692,#693,#694,#695,#696,#697,#698,#699,#700,#701,
#702,#703,#704,#705,#706,#707,#708,#709,#710,#711,#712,#713,#714,#715,#716,
#717,#718));
#720=DERIVED_UNIT_ELEMENT(#722,1.);
#721=DERIVED_UNIT_ELEMENT(#1265,-3.);
#722=(
MASS_UNIT()
NAMED_UNIT(*)
SI_UNIT(.KILO.,.GRAM.)
);
#723=DERIVED_UNIT((#720,#721));
#724=MEASURE_REPRESENTATION_ITEM('density measure',
POSITIVE_RATIO_MEASURE(7850.),#723);
#725=PROPERTY_DEFINITION_REPRESENTATION(#730,#727);
#726=PROPERTY_DEFINITION_REPRESENTATION(#731,#728);
#727=REPRESENTATION('material name',(#729),#1262);
#728=REPRESENTATION('density',(#724),#1262);
#729=DESCRIPTIVE_REPRESENTATION_ITEM('Steel','Steel');
#730=PROPERTY_DEFINITION('material property','material name',#1272);
#731=PROPERTY_DEFINITION('material property','density of part',#1272);
#732=AXIS2_PLACEMENT_3D('',#1021,#807,#808);
#733=AXIS2_PLACEMENT_3D('',#1022,#809,#810);
#734=AXIS2_PLACEMENT_3D('',#1031,#815,#816);
#735=AXIS2_PLACEMENT_3D('',#1037,#820,#821);
#736=AXIS2_PLACEMENT_3D('',#1043,#825,#826);
#737=AXIS2_PLACEMENT_3D('',#1046,#829,#830);
#738=AXIS2_PLACEMENT_3D('',#1047,#831,#832);
#739=AXIS2_PLACEMENT_3D('',#1056,#837,#838);
#740=AXIS2_PLACEMENT_3D('',#1062,#842,#843);
#741=AXIS2_PLACEMENT_3D('',#1068,#847,#848);
#742=AXIS2_PLACEMENT_3D('',#1071,#851,#852);
#743=AXIS2_PLACEMENT_3D('',#1083,#853,#854);
#744=AXIS2_PLACEMENT_3D('',#1085,#855,#856);
#745=AXIS2_PLACEMENT_3D('',#1087,#857,#858);
#746=AXIS2_PLACEMENT_3D('',#1088,#859,#860);
#747=AXIS2_PLACEMENT_3D('',#1089,#861,#862);
#748=AXIS2_PLACEMENT_3D('',#1092,#863,#864);
#749=AXIS2_PLACEMENT_3D('',#1106,#867,#868);
#750=AXIS2_PLACEMENT_3D('',#1107,#869,#870);
#751=AXIS2_PLACEMENT_3D('',#1108,#871,#872);
#752=AXIS2_PLACEMENT_3D('',#1109,#873,#874);
#753=AXIS2_PLACEMENT_3D('',#1112,#875,#876);
#754=AXIS2_PLACEMENT_3D('',#1126,#879,#880);
#755=AXIS2_PLACEMENT_3D('',#1127,#881,#882);
#756=AXIS2_PLACEMENT_3D('',#1128,#883,#884);
#757=AXIS2_PLACEMENT_3D('',#1129,#885,#886);
#758=AXIS2_PLACEMENT_3D('',#1132,#887,#888);
#759=AXIS2_PLACEMENT_3D('',#1146,#891,#892);
#760=AXIS2_PLACEMENT_3D('',#1147,#893,#894);
#761=AXIS2_PLACEMENT_3D('',#1148,#895,#896);
#762=AXIS2_PLACEMENT_3D('',#1149,#897,#898);
#763=AXIS2_PLACEMENT_3D('',#1152,#901,#902);
#764=AXIS2_PLACEMENT_3D('',#1158,#906,#907);
#765=AXIS2_PLACEMENT_3D('',#1161,#909,#910);
#766=AXIS2_PLACEMENT_3D('',#1162,#911,#912);
#767=AXIS2_PLACEMENT_3D('',#1166,#915,#916);
#768=AXIS2_PLACEMENT_3D('',#1169,#918,#919);
#769=AXIS2_PLACEMENT_3D('',#1170,#920,#921);
#770=AXIS2_PLACEMENT_3D('',#1175,#923,#924);
#771=AXIS2_PLACEMENT_3D('',#1179,#926,#927);
#772=AXIS2_PLACEMENT_3D('',#1183,#929,#930);
#773=AXIS2_PLACEMENT_3D('',#1186,#932,#933);
#774=AXIS2_PLACEMENT_3D('',#1187,#934,#935);
#775=AXIS2_PLACEMENT_3D('',#1189,#936,#937);
#776=AXIS2_PLACEMENT_3D('',#1191,#939,#940);
#777=AXIS2_PLACEMENT_3D('',#1195,#943,#944);
#778=AXIS2_PLACEMENT_3D('',#1198,#946,#947);
#779=AXIS2_PLACEMENT_3D('',#1199,#948,#949);
#780=AXIS2_PLACEMENT_3D('',#1201,#951,#952);
#781=AXIS2_PLACEMENT_3D('',#1203,#953,#954);
#782=AXIS2_PLACEMENT_3D('',#1205,#955,#956);
#783=AXIS2_PLACEMENT_3D('',#1206,#957,#958);
#784=AXIS2_PLACEMENT_3D('',#1207,#959,#960);
#785=AXIS2_PLACEMENT_3D('',#1209,#961,#962);
#786=AXIS2_PLACEMENT_3D('',#1211,#964,#965);
#787=AXIS2_PLACEMENT_3D('',#1213,#966,#967);
#788=AXIS2_PLACEMENT_3D('',#1214,#968,#969);
#789=AXIS2_PLACEMENT_3D('',#1215,#970,#971);
#790=AXIS2_PLACEMENT_3D('',#1217,#972,#973);
#791=AXIS2_PLACEMENT_3D('',#1219,#975,#976);
#792=AXIS2_PLACEMENT_3D('',#1221,#977,#978);
#793=AXIS2_PLACEMENT_3D('',#1222,#979,#980);
#794=AXIS2_PLACEMENT_3D('',#1223,#981,#982);
#795=AXIS2_PLACEMENT_3D('',#1225,#983,#984);
#796=AXIS2_PLACEMENT_3D('',#1227,#986,#987);
#797=AXIS2_PLACEMENT_3D('',#1229,#988,#989);
#798=AXIS2_PLACEMENT_3D('',#1230,#990,#991);
#799=AXIS2_PLACEMENT_3D('',#1231,#992,#993);
#800=AXIS2_PLACEMENT_3D('',#1233,#995,#996);
#801=AXIS2_PLACEMENT_3D('',#1234,#997,#998);
#802=AXIS2_PLACEMENT_3D('',#1243,#1003,#1004);
#803=AXIS2_PLACEMENT_3D('',#1249,#1008,#1009);
#804=AXIS2_PLACEMENT_3D('',#1253,#1012,#1013);
#805=AXIS2_PLACEMENT_3D('',#1257,#1016,#1017);
#806=AXIS2_PLACEMENT_3D('',#1259,#1019,#1020);
#807=DIRECTION('axis',(0.,0.,1.));
#808=DIRECTION('refdir',(1.,0.,0.));
#809=DIRECTION('center_axis',(-1.,0.,0.));
#810=DIRECTION('ref_axis',(0.,-1.,0.));
#811=DIRECTION('',(0.,-1.,0.));
#812=DIRECTION('',(0.,0.,1.));
#813=DIRECTION('',(0.,-1.,0.));
#814=DIRECTION('',(0.,0.,1.));
#815=DIRECTION('center_axis',(0.,1.,0.));
#816=DIRECTION('ref_axis',(-1.,0.,0.));
#817=DIRECTION('',(-1.,0.,0.));
#818=DIRECTION('',(-1.,0.,0.));
#819=DIRECTION('',(0.,0.,1.));
#820=DIRECTION('center_axis',(1.,0.,0.));
#821=DIRECTION('ref_axis',(0.,1.,0.));
#822=DIRECTION('',(0.,1.,0.));
#823=DIRECTION('',(0.,1.,0.));
#824=DIRECTION('',(0.,0.,1.));
#825=DIRECTION('center_axis',(0.,-1.,0.));
#826=DIRECTION('ref_axis',(1.,0.,0.));
#827=DIRECTION('',(1.,0.,0.));
#828=DIRECTION('',(1.,0.,0.));
#829=DIRECTION('center_axis',(0.,0.,1.));
#830=DIRECTION('ref_axis',(1.,0.,0.));
#831=DIRECTION('center_axis',(1.,0.,0.));
#832=DIRECTION('ref_axis',(0.,1.,0.));
#833=DIRECTION('',(0.,1.,0.));
#834=DIRECTION('',(0.,0.,1.));
#835=DIRECTION('',(0.,1.,0.));
#836=DIRECTION('',(0.,0.,1.));
#837=DIRECTION('center_axis',(0.,-1.,0.));
#838=DIRECTION('ref_axis',(1.,0.,0.));
#839=DIRECTION('',(1.,0.,0.));
#840=DIRECTION('',(1.,0.,0.));
#841=DIRECTION('',(0.,0.,1.));
#842=DIRECTION('center_axis',(-1.,0.,0.));
#843=DIRECTION('ref_axis',(0.,-1.,0.));
#844=DIRECTION('',(0.,-1.,0.));
#845=DIRECTION('',(0.,-1.,0.));
#846=DIRECTION('',(0.,0.,1.));
#847=DIRECTION('center_axis',(0.,1.,0.));
#848=DIRECTION('ref_axis',(-1.,0.,0.));
#849=DIRECTION('',(-1.,0.,0.));
#850=DIRECTION('',(-1.,0.,0.));
#851=DIRECTION('center_axis',(0.,0.,1.));
#852=DIRECTION('ref_axis',(1.,0.,0.));
#853=DIRECTION('center_axis',(0.,-1.,0.));
#854=DIRECTION('ref_axis',(1.,0.,0.));
#855=DIRECTION('center_axis',(0.,0.,-1.));
#856=DIRECTION('ref_axis',(0.707106781186548,-0.707106781186548,0.));
#857=DIRECTION('center_axis',(1.,0.,0.));
#858=DIRECTION('ref_axis',(0.,0.,1.));
#859=DIRECTION('center_axis',(0.,0.,1.));
#860=DIRECTION('ref_axis',(0.707106781186548,-0.707106781186548,0.));
#861=DIRECTION('center_axis',(1.,0.,0.));
#862=DIRECTION('ref_axis',(0.,-0.707106781186546,0.707106781186549));
#863=DIRECTION('center_axis',(1.,0.,0.));
#864=DIRECTION('ref_axis',(0.,0.,1.));
#865=DIRECTION('',(1.,0.,0.));
#866=DIRECTION('',(-1.,0.,0.));
#867=DIRECTION('center_axis',(0.,-1.,0.));
#868=DIRECTION('ref_axis',(0.,0.,1.));
#869=DIRECTION('center_axis',(0.,0.,1.));
#870=DIRECTION('ref_axis',(-0.707106781186548,-0.707106781186548,0.));
#871=DIRECTION('center_axis',(0.,0.,-1.));
#872=DIRECTION('ref_axis',(-0.707106781186548,-0.707106781186548,0.));
#873=DIRECTION('center_axis',(0.,-1.,0.));
#874=DIRECTION('ref_axis',(-0.707106781186546,0.,0.707106781186549));
#875=DIRECTION('center_axis',(0.,-1.,0.));
#876=DIRECTION('ref_axis',(0.,0.,1.));
#877=DIRECTION('',(0.,-1.,0.));
#878=DIRECTION('',(0.,1.,0.));
#879=DIRECTION('center_axis',(-1.,0.,0.));
#880=DIRECTION('ref_axis',(0.,0.,1.));
#881=DIRECTION('center_axis',(0.,0.,1.));
#882=DIRECTION('ref_axis',(-0.707106781186548,0.707106781186548,0.));
#883=DIRECTION('center_axis',(0.,0.,-1.));
#884=DIRECTION('ref_axis',(-0.707106781186548,0.707106781186548,0.));
#885=DIRECTION('center_axis',(-1.,0.,0.));
#886=DIRECTION('ref_axis',(0.,0.707106781186546,0.707106781186549));
#887=DIRECTION('center_axis',(-1.,0.,0.));
#888=DIRECTION('ref_axis',(0.,0.,1.));
#889=DIRECTION('',(-1.,0.,0.));
#890=DIRECTION('',(1.,0.,0.));
#891=DIRECTION('center_axis',(0.,1.,0.));
#892=DIRECTION('ref_axis',(0.,0.,1.));
#893=DIRECTION('center_axis',(0.,0.,1.));
#894=DIRECTION('ref_axis',(0.707106781186548,0.707106781186548,0.));
#895=DIRECTION('center_axis',(0.,0.,-1.));
#896=DIRECTION('ref_axis',(0.707106781186548,0.707106781186548,0.));
#897=DIRECTION('center_axis',(0.,1.,0.));
#898=DIRECTION('ref_axis',(0.707106781186546,0.,0.707106781186549));
#899=DIRECTION('',(0.,-1.,0.));
#900=DIRECTION('',(0.,1.,0.));
#901=DIRECTION('center_axis',(0.,1.,0.));
#902=DIRECTION('ref_axis',(-1.,0.,0.));
#903=DIRECTION('',(0.,0.,1.));
#904=DIRECTION('',(-1.,0.,0.));
#905=DIRECTION('',(0.,0.,-1.));
#906=DIRECTION('center_axis',(0.,0.,1.));
#907=DIRECTION('ref_axis',(0.707106781186548,0.707106781186548,0.));
#908=DIRECTION('',(0.,0.,-1.));
#909=DIRECTION('center_axis',(0.,0.,1.));
#910=DIRECTION('ref_axis',(0.707106781186548,0.707106781186548,0.));
#911=DIRECTION('center_axis',(1.,0.,0.));
#912=DIRECTION('ref_axis',(0.,1.,0.));
#913=DIRECTION('',(0.,0.,1.));
#914=DIRECTION('',(0.,1.,0.));
#915=DIRECTION('center_axis',(0.,0.,1.));
#916=DIRECTION('ref_axis',(0.707106781186548,-0.707106781186548,0.));
#917=DIRECTION('',(0.,0.,-1.));
#918=DIRECTION('center_axis',(0.,0.,1.));
#919=DIRECTION('ref_axis',(0.707106781186548,-0.707106781186548,0.));
#920=DIRECTION('center_axis',(0.,0.,1.));
#921=DIRECTION('ref_axis',(1.,0.,0.));
#922=DIRECTION('',(0.,-1.,0.));
#923=DIRECTION('center_axis',(0.,0.,1.));
#924=DIRECTION('ref_axis',(0.707106781186548,-0.707106781186548,0.));
#925=DIRECTION('',(-1.,0.,0.));
#926=DIRECTION('center_axis',(0.,0.,1.));
#927=DIRECTION('ref_axis',(-0.707106781186548,-0.707106781186548,0.));
#928=DIRECTION('',(0.,1.,0.));
#929=DIRECTION('center_axis',(0.,0.,1.));
#930=DIRECTION('ref_axis',(-0.707106781186548,0.707106781186548,0.));
#931=DIRECTION('',(1.,0.,0.));
#932=DIRECTION('center_axis',(0.,0.,1.));
#933=DIRECTION('ref_axis',(0.707106781186548,0.707106781186548,0.));
#934=DIRECTION('center_axis',(0.,0.,1.));
#935=DIRECTION('ref_axis',(-0.707106781186548,0.707106781186548,0.));
#936=DIRECTION('center_axis',(0.,0.,1.));
#937=DIRECTION('ref_axis',(-0.707106781186548,0.707106781186548,0.));
#938=DIRECTION('',(0.,0.,1.));
#939=DIRECTION('center_axis',(0.,-1.,0.));
#940=DIRECTION('ref_axis',(1.,0.,0.));
#941=DIRECTION('',(0.,0.,1.));
#942=DIRECTION('',(1.,0.,0.));
#943=DIRECTION('center_axis',(0.,0.,1.));
#944=DIRECTION('ref_axis',(-0.707106781186548,-0.707106781186548,0.));
#945=DIRECTION('',(0.,0.,-1.));
#946=DIRECTION('center_axis',(0.,0.,1.));
#947=DIRECTION('ref_axis',(-0.707106781186548,-0.707106781186548,0.));
#948=DIRECTION('center_axis',(-1.,0.,0.));
#949=DIRECTION('ref_axis',(0.,-1.,0.));
#950=DIRECTION('',(0.,-1.,0.));
#951=DIRECTION('center_axis',(0.,0.,1.));
#952=DIRECTION('ref_axis',(1.,0.,0.));
#953=DIRECTION('center_axis',(0.,-1.,0.));
#954=DIRECTION('ref_axis',(0.,0.,-1.));
#955=DIRECTION('center_axis',(-1.,0.,0.));
#956=DIRECTION('ref_axis',(0.,1.,0.));
#957=DIRECTION('center_axis',(0.,0.,-1.));
#958=DIRECTION('ref_axis',(0.707106781186548,0.707106781186548,0.));
#959=DIRECTION('center_axis',(1.,0.,0.));
#960=DIRECTION('ref_axis',(0.,0.707106781186547,-0.707106781186548));
#961=DIRECTION('center_axis',(-1.,0.,0.));
#962=DIRECTION('ref_axis',(0.,1.,0.));
#963=DIRECTION('',(1.,0.,0.));
#964=DIRECTION('center_axis',(0.,0.,1.));
#965=DIRECTION('ref_axis',(1.,0.,0.));
#966=DIRECTION('center_axis',(0.,-1.,0.));
#967=DIRECTION('ref_axis',(-1.,0.,0.));
#968=DIRECTION('center_axis',(0.,0.,-1.));
#969=DIRECTION('ref_axis',(-0.707106781186548,0.707106781186548,0.));
#970=DIRECTION('center_axis',(0.,1.,0.));
#971=DIRECTION('ref_axis',(-0.707106781186548,0.,-0.707106781186547));
#972=DIRECTION('center_axis',(0.,-1.,0.));
#973=DIRECTION('ref_axis',(-1.,0.,0.));
#974=DIRECTION('',(0.,1.,0.));
#975=DIRECTION('center_axis',(0.,0.,1.));
#976=DIRECTION('ref_axis',(1.,0.,0.));
#977=DIRECTION('center_axis',(1.,0.,0.));
#978=DIRECTION('ref_axis',(0.,-1.,0.));
#979=DIRECTION('center_axis',(0.,0.,-1.));
#980=DIRECTION('ref_axis',(-0.707106781186548,-0.707106781186548,0.));
#981=DIRECTION('center_axis',(-1.,0.,0.));
#982=DIRECTION('ref_axis',(0.,-0.707106781186547,-0.707106781186548));
#983=DIRECTION('center_axis',(1.,0.,0.));
#984=DIRECTION('ref_axis',(0.,-1.,0.));
#985=DIRECTION('',(-1.,0.,0.));
#986=DIRECTION('center_axis',(0.,0.,1.));
#987=DIRECTION('ref_axis',(1.,0.,0.));
#988=DIRECTION('center_axis',(0.,1.,0.));
#989=DIRECTION('ref_axis',(1.,0.,0.));
#990=DIRECTION('center_axis',(0.,0.,-1.));
#991=DIRECTION('ref_axis',(0.707106781186548,-0.707106781186548,0.));
#992=DIRECTION('center_axis',(0.,-1.,0.));
#993=DIRECTION('ref_axis',(0.707106781186547,0.,-0.707106781186548));
#994=DIRECTION('',(0.,-1.,0.));
#995=DIRECTION('center_axis',(0.,0.,-1.));
#996=DIRECTION('ref_axis',(-1.,0.,0.));
#997=DIRECTION('center_axis',(0.,0.,1.));
#998=DIRECTION('ref_axis',(-1.,0.,0.));
#999=DIRECTION('',(0.,1.,0.));
#1000=DIRECTION('',(1.,0.,0.));
#1001=DIRECTION('',(0.,-1.,0.));
#1002=DIRECTION('',(-1.,0.,0.));
#1003=DIRECTION('center_axis',(1.,0.,0.));
#1004=DIRECTION('ref_axis',(0.,1.,0.));
#1005=DIRECTION('',(0.,1.,0.));
#1006=DIRECTION('',(0.,0.,1.));
#1007=DIRECTION('',(0.,0.,1.));
#1008=DIRECTION('center_axis',(0.,1.,0.));
#1009=DIRECTION('ref_axis',(-1.,0.,0.));
#1010=DIRECTION('',(-1.,0.,0.));
#1011=DIRECTION('',(0.,0.,1.));
#1012=DIRECTION('center_axis',(-1.,0.,0.));
#1013=DIRECTION('ref_axis',(0.,-1.,0.));
#1014=DIRECTION('',(0.,-1.,0.));
#1015=DIRECTION('',(0.,0.,1.));
#1016=DIRECTION('center_axis',(0.,-1.,0.));
#1017=DIRECTION('ref_axis',(1.,0.,0.));
#1018=DIRECTION('',(1.,0.,0.));
#1019=DIRECTION('center_axis',(0.,0.,1.));
#1020=DIRECTION('ref_axis',(1.,0.,0.));
#1021=CARTESIAN_POINT('',(0.,0.,0.));
#1022=CARTESIAN_POINT('Origin',(-3.425,1.475,0.));
#1023=CARTESIAN_POINT('',(-3.425,1.475,0.));
#1024=CARTESIAN_POINT('',(-3.425,-1.475,0.));
#1025=CARTESIAN_POINT('',(-3.425,1.475,0.));
#1026=CARTESIAN_POINT('',(-3.425,-1.475,3.));
#1027=CARTESIAN_POINT('',(-3.425,-1.475,0.));
#1028=CARTESIAN_POINT('',(-3.425,1.475,3.));
#1029=CARTESIAN_POINT('',(-3.425,0.7375,3.));
#1030=CARTESIAN_POINT('',(-3.425,1.475,0.));
#1031=CARTESIAN_POINT('Origin',(-2.275,1.475,0.));
#1032=CARTESIAN_POINT('',(-2.275,1.475,0.));
#1033=CARTESIAN_POINT('',(-2.275,1.475,0.));
#1034=CARTESIAN_POINT('',(-2.275,1.475,3.));
#1035=CARTESIAN_POINT('',(-1.1375,1.475,3.));
#1036=CARTESIAN_POINT('',(-2.275,1.475,0.));
#1037=CARTESIAN_POINT('Origin',(-2.275,-1.475,0.));
#1038=CARTESIAN_POINT('',(-2.275,-1.475,0.));
#1039=CARTESIAN_POINT('',(-2.275,-1.475,0.));
#1040=CARTESIAN_POINT('',(-2.275,-1.475,3.));
#1041=CARTESIAN_POINT('',(-2.275,-0.7375,3.));
#1042=CARTESIAN_POINT('',(-2.275,-1.475,0.));
#1043=CARTESIAN_POINT('Origin',(-3.425,-1.475,0.));
#1044=CARTESIAN_POINT('',(-3.425,-1.475,0.));
#1045=CARTESIAN_POINT('',(-1.7125,-1.475,3.));
#1046=CARTESIAN_POINT('Origin',(-2.85,0.,0.));
#1047=CARTESIAN_POINT('Origin',(3.425,-1.425,0.));
#1048=CARTESIAN_POINT('',(3.425,-1.425,0.));
#1049=CARTESIAN_POINT('',(3.425,1.425,0.));
#1050=CARTESIAN_POINT('',(3.425,-1.425,0.));
#1051=CARTESIAN_POINT('',(3.425,1.425,3.));
#1052=CARTESIAN_POINT('',(3.425,1.425,0.));
#1053=CARTESIAN_POINT('',(3.425,-1.425,3.));
#1054=CARTESIAN_POINT('',(3.425,-0.7125,3.));
#1055=CARTESIAN_POINT('',(3.425,-1.425,0.));
#1056=CARTESIAN_POINT('Origin',(2.275,-1.425,0.));
#1057=CARTESIAN_POINT('',(2.275,-1.425,0.));
#1058=CARTESIAN_POINT('',(2.275,-1.425,0.));
#1059=CARTESIAN_POINT('',(2.275,-1.425,3.));
#1060=CARTESIAN_POINT('',(1.1375,-1.425,3.));
#1061=CARTESIAN_POINT('',(2.275,-1.425,0.));
#1062=CARTESIAN_POINT('Origin',(2.275,1.425,0.));
#1063=CARTESIAN_POINT('',(2.275,1.425,0.));
#1064=CARTESIAN_POINT('',(2.275,1.425,0.));
#1065=CARTESIAN_POINT('',(2.275,1.425,3.));
#1066=CARTESIAN_POINT('',(2.275,0.7125,3.));
#1067=CARTESIAN_POINT('',(2.275,1.425,0.));
#1068=CARTESIAN_POINT('Origin',(3.425,1.425,0.));
#1069=CARTESIAN_POINT('',(3.425,1.425,0.));
#1070=CARTESIAN_POINT('',(1.7125,1.425,3.));
#1071=CARTESIAN_POINT('Origin',(2.85,0.,0.));
#1072=CARTESIAN_POINT('Ctrl Pts',(9.025,-8.775,5.));
#1073=CARTESIAN_POINT('Ctrl Pts',(9.025,-9.025,5.));
#1074=CARTESIAN_POINT('Ctrl Pts',(8.775,-9.025,5.));
#1075=CARTESIAN_POINT('Ctrl Pts',(9.275,-8.775,5.));
#1076=CARTESIAN_POINT('Ctrl Pts',(9.275,-9.275,5.));
#1077=CARTESIAN_POINT('Ctrl Pts',(8.775,-9.275,5.));
#1078=CARTESIAN_POINT('Ctrl Pts',(9.275,-8.775,4.75));
#1079=CARTESIAN_POINT('Ctrl Pts',(9.275,-9.275,4.75));
#1080=CARTESIAN_POINT('Ctrl Pts',(8.775,-9.275,4.75));
#1081=CARTESIAN_POINT('',(9.275,-8.775,4.75));
#1082=CARTESIAN_POINT('',(9.025,-8.775,5.));
#1083=CARTESIAN_POINT('Origin',(9.025,-8.775,4.75));
#1084=CARTESIAN_POINT('',(8.775,-9.025,5.));
#1085=CARTESIAN_POINT('Origin',(8.775,-8.775,5.));
#1086=CARTESIAN_POINT('',(8.775,-9.275,4.75));
#1087=CARTESIAN_POINT('Origin',(8.775,-9.025,4.75));
#1088=CARTESIAN_POINT('Origin',(8.775,-8.775,4.75));
#1089=CARTESIAN_POINT('Origin',(-4.6375,-9.025,4.75));
#1090=CARTESIAN_POINT('',(-8.775,-9.025,5.));
#1091=CARTESIAN_POINT('',(-8.775,-9.275,4.75));
#1092=CARTESIAN_POINT('Origin',(-8.775,-9.025,4.75));
#1093=CARTESIAN_POINT('',(-4.6375,-9.275,4.75));
#1094=CARTESIAN_POINT('',(-4.6375,-9.025,5.));
#1095=CARTESIAN_POINT('Ctrl Pts',(-8.775,-9.025,5.));
#1096=CARTESIAN_POINT('Ctrl Pts',(-9.025,-9.025,5.));
#1097=CARTESIAN_POINT('Ctrl Pts',(-9.025,-8.775,5.));
#1098=CARTESIAN_POINT('Ctrl Pts',(-8.775,-9.275,5.));
#1099=CARTESIAN_POINT('Ctrl Pts',(-9.275,-9.275,5.));
#1100=CARTESIAN_POINT('Ctrl Pts',(-9.275,-8.775,5.));
#1101=CARTESIAN_POINT('Ctrl Pts',(-8.775,-9.275,4.75));
#1102=CARTESIAN_POINT('Ctrl Pts',(-9.275,-9.275,4.75));
#1103=CARTESIAN_POINT('Ctrl Pts',(-9.275,-8.775,4.75));
#1104=CARTESIAN_POINT('',(-9.025,-8.775,5.));
#1105=CARTESIAN_POINT('',(-9.275,-8.775,4.75));
#1106=CARTESIAN_POINT('Origin',(-9.025,-8.775,4.75));
#1107=CARTESIAN_POINT('Origin',(-8.775,-8.775,4.75));
#1108=CARTESIAN_POINT('Origin',(-8.775,-8.775,5.));
#1109=CARTESIAN_POINT('Origin',(-9.025,4.6375,4.75));
#1110=CARTESIAN_POINT('',(-9.025,8.775,5.));
#1111=CARTESIAN_POINT('',(-9.275,8.775,4.75));
#1112=CARTESIAN_POINT('Origin',(-9.025,8.775,4.75));
#1113=CARTESIAN_POINT('',(-9.275,4.6375,4.75));
#1114=CARTESIAN_POINT('',(-9.025,4.6375,5.));
#1115=CARTESIAN_POINT('Ctrl Pts',(-9.025,8.775,5.));
#1116=CARTESIAN_POINT('Ctrl Pts',(-9.025,9.025,5.));
#1117=CARTESIAN_POINT('Ctrl Pts',(-8.775,9.025,5.));
#1118=CARTESIAN_POINT('Ctrl Pts',(-9.275,8.775,5.));
#1119=CARTESIAN_POINT('Ctrl Pts',(-9.275,9.275,5.));
#1120=CARTESIAN_POINT('Ctrl Pts',(-8.775,9.275,5.));
#1121=CARTESIAN_POINT('Ctrl Pts',(-9.275,8.775,4.75));
#1122=CARTESIAN_POINT('Ctrl Pts',(-9.275,9.275,4.75));
#1123=CARTESIAN_POINT('Ctrl Pts',(-8.775,9.275,4.75));
#1124=CARTESIAN_POINT('',(-8.775,9.025,5.));
#1125=CARTESIAN_POINT('',(-8.775,9.275,4.75));
#1126=CARTESIAN_POINT('Origin',(-8.775,9.025,4.75));
#1127=CARTESIAN_POINT('Origin',(-8.775,8.775,4.75));
#1128=CARTESIAN_POINT('Origin',(-8.775,8.775,5.));
#1129=CARTESIAN_POINT('Origin',(4.6375,9.025,4.75));
#1130=CARTESIAN_POINT('',(8.775,9.025,5.));
#1131=CARTESIAN_POINT('',(8.775,9.275,4.75));
#1132=CARTESIAN_POINT('Origin',(8.775,9.025,4.75));
#1133=CARTESIAN_POINT('',(4.6375,9.275,4.75));
#1134=CARTESIAN_POINT('',(4.6375,9.025,5.));
#1135=CARTESIAN_POINT('Ctrl Pts',(8.775,9.025,5.));
#1136=CARTESIAN_POINT('Ctrl Pts',(9.025,9.025,5.));
#1137=CARTESIAN_POINT('Ctrl Pts',(9.025,8.775,5.));
#1138=CARTESIAN_POINT('Ctrl Pts',(8.775,9.275,5.));
#1139=CARTESIAN_POINT('Ctrl Pts',(9.275,9.275,5.));
#1140=CARTESIAN_POINT('Ctrl Pts',(9.275,8.775,5.));
#1141=CARTESIAN_POINT('Ctrl Pts',(8.775,9.275,4.75));
#1142=CARTESIAN_POINT('Ctrl Pts',(9.275,9.275,4.75));
#1143=CARTESIAN_POINT('Ctrl Pts',(9.275,8.775,4.75));
#1144=CARTESIAN_POINT('',(9.025,8.775,5.));
#1145=CARTESIAN_POINT('',(9.275,8.775,4.75));
#1146=CARTESIAN_POINT('Origin',(9.025,8.775,4.75));
#1147=CARTESIAN_POINT('Origin',(8.775,8.775,4.75));
#1148=CARTESIAN_POINT('Origin',(8.775,8.775,5.));
#1149=CARTESIAN_POINT('Origin',(9.025,-4.6375,4.75));
#1150=CARTESIAN_POINT('',(9.025,-4.6375,5.));
#1151=CARTESIAN_POINT('',(9.275,-4.6375,4.75));
#1152=CARTESIAN_POINT('Origin',(9.275,9.275,0.));
#1153=CARTESIAN_POINT('',(8.775,9.275,0.));
#1154=CARTESIAN_POINT('',(8.775,9.275,0.));
#1155=CARTESIAN_POINT('',(-8.775,9.275,0.));
#1156=CARTESIAN_POINT('',(9.275,9.275,0.));
#1157=CARTESIAN_POINT('',(-8.775,9.275,0.));
#1158=CARTESIAN_POINT('Origin',(8.775,8.775,0.));
#1159=CARTESIAN_POINT('',(9.275,8.775,0.));
#1160=CARTESIAN_POINT('',(9.275,8.775,0.));
#1161=CARTESIAN_POINT('Origin',(8.775,8.775,0.));
#1162=CARTESIAN_POINT('Origin',(9.275,-9.275,0.));
#1163=CARTESIAN_POINT('',(9.275,-8.775,0.));
#1164=CARTESIAN_POINT('',(9.275,-8.775,0.));
#1165=CARTESIAN_POINT('',(9.275,-9.275,0.));
#1166=CARTESIAN_POINT('Origin',(8.775,-8.775,0.));
#1167=CARTESIAN_POINT('',(8.775,-9.275,0.));
#1168=CARTESIAN_POINT('',(8.775,-9.275,0.));
#1169=CARTESIAN_POINT('Origin',(8.775,-8.775,0.));
#1170=CARTESIAN_POINT('Origin',(1.11022302462516E-15,0.,5.));
#1171=CARTESIAN_POINT('',(8.275,5.275,5.));
#1172=CARTESIAN_POINT('',(8.275,-5.275,5.));
#1173=CARTESIAN_POINT('',(8.275,4.1375,5.));
#1174=CARTESIAN_POINT('',(5.275,-8.275,5.));
#1175=CARTESIAN_POINT('Origin',(5.275,-5.275,5.));
#1176=CARTESIAN_POINT('',(-5.275,-8.275,5.));
#1177=CARTESIAN_POINT('',(4.1375,-8.275,5.));
#1178=CARTESIAN_POINT('',(-8.275,-5.275,5.));
#1179=CARTESIAN_POINT('Origin',(-5.275,-5.275,5.));
#1180=CARTESIAN_POINT('',(-8.275,5.275,5.));
#1181=CARTESIAN_POINT('',(-8.275,-4.1375,5.));
#1182=CARTESIAN_POINT('',(-5.275,8.275,5.));
#1183=CARTESIAN_POINT('Origin',(-5.275,5.275,5.));
#1184=CARTESIAN_POINT('',(5.275,8.275,5.));
#1185=CARTESIAN_POINT('',(-4.1375,8.275,5.));
#1186=CARTESIAN_POINT('Origin',(5.275,5.275,5.));
#1187=CARTESIAN_POINT('Origin',(-8.775,8.775,0.));
#1188=CARTESIAN_POINT('',(-9.275,8.775,0.));
#1189=CARTESIAN_POINT('Origin',(-8.775,8.775,0.));
#1190=CARTESIAN_POINT('',(-9.275,8.775,0.));
#1191=CARTESIAN_POINT('Origin',(-9.275,-9.275,0.));
#1192=CARTESIAN_POINT('',(-8.775,-9.275,0.));
#1193=CARTESIAN_POINT('',(-8.775,-9.275,0.));
#1194=CARTESIAN_POINT('',(-9.275,-9.275,0.));
#1195=CARTESIAN_POINT('Origin',(-8.775,-8.775,0.));
#1196=CARTESIAN_POINT('',(-9.275,-8.775,0.));
#1197=CARTESIAN_POINT('',(-9.275,-8.775,0.));
#1198=CARTESIAN_POINT('Origin',(-8.775,-8.775,0.));
#1199=CARTESIAN_POINT('Origin',(-9.275,9.275,0.));
#1200=CARTESIAN_POINT('',(-9.275,9.275,0.));
#1201=CARTESIAN_POINT('Origin',(5.275,5.275,5.));
#1202=CARTESIAN_POINT('',(7.275,5.275,4.));
#1203=CARTESIAN_POINT('Origin',(7.275,5.275,5.));
#1204=CARTESIAN_POINT('',(5.275,7.275,4.));
#1205=CARTESIAN_POINT('Origin',(5.275,7.275,5.));
#1206=CARTESIAN_POINT('Origin',(5.275,5.275,4.));
#1207=CARTESIAN_POINT('Origin',(-4.1375,7.275,5.));
#1208=CARTESIAN_POINT('',(-5.275,7.275,4.));
#1209=CARTESIAN_POINT('Origin',(-5.275,7.275,5.));
#1210=CARTESIAN_POINT('',(-4.1375,7.275,4.));
#1211=CARTESIAN_POINT('Origin',(-5.275,5.275,5.));
#1212=CARTESIAN_POINT('',(-7.275,5.275,4.));
#1213=CARTESIAN_POINT('Origin',(-7.275,5.275,5.));
#1214=CARTESIAN_POINT('Origin',(-5.275,5.275,4.));
#1215=CARTESIAN_POINT('Origin',(-7.275,-4.1375,5.));
#1216=CARTESIAN_POINT('',(-7.275,-5.275,4.));
#1217=CARTESIAN_POINT('Origin',(-7.275,-5.275,5.));
#1218=CARTESIAN_POINT('',(-7.275,-4.1375,4.));
#1219=CARTESIAN_POINT('Origin',(-5.275,-5.275,5.));
#1220=CARTESIAN_POINT('',(-5.275,-7.275,4.));
#1221=CARTESIAN_POINT('Origin',(-5.275,-7.275,5.));
#1222=CARTESIAN_POINT('Origin',(-5.275,-5.275,4.));
#1223=CARTESIAN_POINT('Origin',(4.1375,-7.275,5.));
#1224=CARTESIAN_POINT('',(5.275,-7.275,4.));
#1225=CARTESIAN_POINT('Origin',(5.275,-7.275,5.));
#1226=CARTESIAN_POINT('',(4.1375,-7.275,4.));
#1227=CARTESIAN_POINT('Origin',(5.275,-5.275,5.));
#1228=CARTESIAN_POINT('',(7.275,-5.275,4.));
#1229=CARTESIAN_POINT('Origin',(7.275,-5.275,5.));
#1230=CARTESIAN_POINT('Origin',(5.275,-5.275,4.));
#1231=CARTESIAN_POINT('Origin',(7.275,4.1375,5.));
#1232=CARTESIAN_POINT('',(7.275,4.1375,4.));
#1233=CARTESIAN_POINT('Origin',(0.,0.,4.));
#1234=CARTESIAN_POINT('Origin',(1.11022302462516E-15,0.,3.));
#1235=CARTESIAN_POINT('',(-8.275,-8.275,3.));
#1236=CARTESIAN_POINT('',(-8.275,8.275,3.));
#1237=CARTESIAN_POINT('',(-8.275,8.275,3.));
#1238=CARTESIAN_POINT('',(8.275,8.275,3.));
#1239=CARTESIAN_POINT('',(8.275,8.275,3.));
#1240=CARTESIAN_POINT('',(8.275,-8.275,3.));
#1241=CARTESIAN_POINT('',(8.275,-8.275,3.));
#1242=CARTESIAN_POINT('',(-8.275,-8.275,3.));
#1243=CARTESIAN_POINT('Origin',(-8.275,-8.275,0.));
#1244=CARTESIAN_POINT('',(-8.275,-8.275,0.));
#1245=CARTESIAN_POINT('',(-8.275,8.275,0.));
#1246=CARTESIAN_POINT('',(-8.275,8.275,0.));
#1247=CARTESIAN_POINT('',(-8.275,8.275,0.));
#1248=CARTESIAN_POINT('',(-8.275,-8.275,0.));
#1249=CARTESIAN_POINT('Origin',(8.275,-8.275,0.));
#1250=CARTESIAN_POINT('',(8.275,-8.275,0.));
#1251=CARTESIAN_POINT('',(-8.275,-8.275,0.));
#1252=CARTESIAN_POINT('',(8.275,-8.275,0.));
#1253=CARTESIAN_POINT('Origin',(8.275,8.275,0.));
#1254=CARTESIAN_POINT('',(8.275,8.275,0.));
#1255=CARTESIAN_POINT('',(8.275,-8.275,0.));
#1256=CARTESIAN_POINT('',(8.275,8.275,0.));
#1257=CARTESIAN_POINT('Origin',(-8.275,8.275,0.));
#1258=CARTESIAN_POINT('',(8.275,8.275,0.));
#1259=CARTESIAN_POINT('Origin',(0.,0.,0.));
#1260=UNCERTAINTY_MEASURE_WITH_UNIT(LENGTH_MEASURE(0.01),#1264,
'DISTANCE_ACCURACY_VALUE',
'Maximum model space distance between geometric entities at asserted c
onnectivities');
#1261=UNCERTAINTY_MEASURE_WITH_UNIT(LENGTH_MEASURE(0.01),#1264,
'DISTANCE_ACCURACY_VALUE',
'Maximum model space distance between geometric entities at asserted c
onnectivities');
#1262=(
GEOMETRIC_REPRESENTATION_CONTEXT(3)
GLOBAL_UNCERTAINTY_ASSIGNED_CONTEXT((#1260))
GLOBAL_UNIT_ASSIGNED_CONTEXT((#1264,#1266,#1267))
REPRESENTATION_CONTEXT('','3D')
);
#1263=(
GEOMETRIC_REPRESENTATION_CONTEXT(3)
GLOBAL_UNCERTAINTY_ASSIGNED_CONTEXT((#1261))
GLOBAL_UNIT_ASSIGNED_CONTEXT((#1264,#1266,#1267))
REPRESENTATION_CONTEXT('','3D')
);
#1264=(
LENGTH_UNIT()
NAMED_UNIT(*)
SI_UNIT(.MILLI.,.METRE.)
);
#1265=(
LENGTH_UNIT()
NAMED_UNIT(*)
SI_UNIT($,.METRE.)
);
#1266=(
NAMED_UNIT(*)
PLANE_ANGLE_UNIT()
SI_UNIT($,.RADIAN.)
);
#1267=(
NAMED_UNIT(*)
SI_UNIT($,.STERADIAN.)
SOLID_ANGLE_UNIT()
);
#1268=SHAPE_DEFINITION_REPRESENTATION(#1269,#1270);
#1269=PRODUCT_DEFINITION_SHAPE('',$,#1272);
#1270=SHAPE_REPRESENTATION('',(#732),#1262);
#1271=PRODUCT_DEFINITION_CONTEXT('part definition',#1276,'design');
#1272=PRODUCT_DEFINITION('AltarCap','AltarCap v2',#1273,#1271);
#1273=PRODUCT_DEFINITION_FORMATION('',$,#1278);
#1274=PRODUCT_RELATED_PRODUCT_CATEGORY('AltarCap v2','AltarCap v2',(#1278));
#1275=APPLICATION_PROTOCOL_DEFINITION('international standard',
'ap242_managed_model_based_3d_engineering',2011,#1276);
#1276=APPLICATION_CONTEXT('Managed model based 3d engineering');
#1277=PRODUCT_CONTEXT('part definition',#1276,'mechanical');
#1278=PRODUCT('AltarCap','AltarCap v2',$,(#1277));
#1279=PRESENTATION_STYLE_ASSIGNMENT((#1280));
#1280=SURFACE_STYLE_USAGE(.BOTH.,#1281);
#1281=SURFACE_SIDE_STYLE('',(#1282));
#1282=SURFACE_STYLE_FILL_AREA(#1283);
#1283=FILL_AREA_STYLE('Steel - Satin',(#1284));
#1284=FILL_AREA_STYLE_COLOUR('Steel - Satin',#1285);
#1285=COLOUR_RGB('Steel - Satin',0.627450980392157,0.627450980392157,0.627450980392157);
ENDSEC;
END-ISO-10303-21;
