ISO-10303-21;
HEADER;
/* Generated by software containing ST-Developer
 * from STEP Tools, Inc. (www.steptools.com) 
 */

FILE_DESCRIPTION(
/* description */ ('',
'CAx-IF Rec.Pracs.---Representation and Presentation of Product Manufa
cturing Information (PMI)---4.0---2014-10-13'),
/* implementation_level */ '2;1');

FILE_NAME(
/* name */ 'AltarCap v2.step',
/* time_stamp */ '2025-09-02T17:51:00-07:00',
/* author */ (''),
/* organization */ (''),
/* preprocessor_version */ 'ST-DEVELOPER v20',
/* originating_system */ 'Autodesk Translation Framework v13.20.0.188',

/* authorisation */ '');

FILE_SCHEMA (('AP242_MANAGED_MODEL_BASED_3D_ENGINEERING_MIM_LF { 1 0 10303 442 1 1 4 }'));
ENDSEC;

DATA;
#10=MECHANICAL_DESIGN_GEOMETRIC_PRESENTATION_REPRESENTATION('',(#13),#1517);
#11=SHAPE_REPRESENTATION_RELATIONSHIP('SRR','None',#1524,#12);
#12=ADVANCED_BREP_SHAPE_REPRESENTATION('',(#14),#1516);
#13=STYLED_ITEM('',(#1533),#14);
#14=MANIFOLD_SOLID_BREP('Body1',#857);
#15=FACE_BOUND('',#308,.T.);
#16=FACE_BOUND('',#309,.T.);
#17=FACE_BOUND('',#315,.T.);
#18=(
BOUNDED_SURFACE()
B_SPLINE_SURFACE(2,2,((#1353,#1354,#1355),(#1356,#1357,#1358),(#1359,#1360,
#1361)),.UNSPECIFIED.,.F.,.F.,.F.)
B_SPLINE_SURFACE_WITH_KNOTS((3,3),(3,3),(-1.5707963267949,0.),(-3.14159265358979,
-1.5707963267949),.UNSPECIFIED.)
GEOMETRIC_REPRESENTATION_ITEM()
RATIONAL_B_SPLINE_SURFACE(((1.,0.707106781186548,1.),(0.70710678118654,
0.499999999999995,0.70710678118654),(1.,0.707106781186548,1.)))
REPRESENTATION_ITEM('')
SURFACE()
);
#19=(
BOUNDED_SURFACE()
B_SPLINE_SURFACE(2,2,((#1371,#1372,#1373),(#1374,#1375,#1376),(#1377,#1378,
#1379)),.UNSPECIFIED.,.F.,.F.,.F.)
B_SPLINE_SURFACE_WITH_KNOTS((3,3),(3,3),(-1.5707963267949,0.),(-1.5707963267949,
0.),.UNSPECIFIED.)
GEOMETRIC_REPRESENTATION_ITEM()
RATIONAL_B_SPLINE_SURFACE(((1.,0.707106781186548,1.),(0.70710678118654,
0.499999999999995,0.70710678118654),(1.,0.707106781186548,1.)))
REPRESENTATION_ITEM('')
SURFACE()
);
#20=(
BOUNDED_SURFACE()
B_SPLINE_SURFACE(2,2,((#1387,#1388,#1389),(#1390,#1391,#1392),(#1393,#1394,
#1395)),.UNSPECIFIED.,.F.,.F.,.F.)
B_SPLINE_SURFACE_WITH_KNOTS((3,3),(3,3),(-1.5707963267949,0.),(0.,1.5707963267949),
 .UNSPECIFIED.)
GEOMETRIC_REPRESENTATION_ITEM()
RATIONAL_B_SPLINE_SURFACE(((1.,0.707106781186548,1.),(0.70710678118654,
0.499999999999995,0.70710678118654),(1.,0.707106781186548,1.)))
REPRESENTATION_ITEM('')
SURFACE()
);
#21=(
BOUNDED_SURFACE()
B_SPLINE_SURFACE(2,2,((#1405,#1406,#1407),(#1408,#1409,#1410),(#1411,#1412,
#1413)),.UNSPECIFIED.,.F.,.F.,.F.)
B_SPLINE_SURFACE_WITH_KNOTS((3,3),(3,3),(-1.5707963267949,0.),(1.5707963267949,
3.14159265358979),.UNSPECIFIED.)
GEOMETRIC_REPRESENTATION_ITEM()
RATIONAL_B_SPLINE_SURFACE(((1.,0.707106781186548,1.),(0.70710678118654,
0.499999999999995,0.70710678118654),(1.,0.707106781186548,1.)))
REPRESENTATION_ITEM('')
SURFACE()
);
#22=PLANE('',#895);
#23=PLANE('',#897);
#24=PLANE('',#899);
#25=PLANE('',#901);
#26=PLANE('',#902);
#27=PLANE('',#903);
#28=PLANE('',#904);
#29=PLANE('',#905);
#30=PLANE('',#906);
#31=PLANE('',#907);
#32=PLANE('',#908);
#33=PLANE('',#909);
#34=PLANE('',#910);
#35=PLANE('',#928);
#36=PLANE('',#931);
#37=PLANE('',#934);
#38=PLANE('',#955);
#39=PLANE('',#958);
#40=PLANE('',#961);
#41=PLANE('',#962);
#42=PLANE('',#963);
#43=PLANE('',#964);
#44=PLANE('',#965);
#45=PLANE('',#966);
#46=PLANE('',#967);
#47=LINE('',#1250,#119);
#48=LINE('',#1251,#120);
#49=LINE('',#1262,#121);
#50=LINE('',#1263,#122);
#51=LINE('',#1274,#123);
#52=LINE('',#1275,#124);
#53=LINE('',#1283,#125);
#54=LINE('',#1284,#126);
#55=LINE('',#1287,#127);
#56=LINE('',#1290,#128);
#57=LINE('',#1293,#129);
#58=LINE('',#1296,#130);
#59=LINE('',#1299,#131);
#60=LINE('',#1302,#132);
#61=LINE('',#1306,#133);
#62=LINE('',#1308,#134);
#63=LINE('',#1310,#135);
#64=LINE('',#1311,#136);
#65=LINE('',#1314,#137);
#66=LINE('',#1316,#138);
#67=LINE('',#1317,#139);
#68=LINE('',#1320,#140);
#69=LINE('',#1322,#141);
#70=LINE('',#1323,#142);
#71=LINE('',#1325,#143);
#72=LINE('',#1326,#144);
#73=LINE('',#1331,#145);
#74=LINE('',#1333,#146);
#75=LINE('',#1335,#147);
#76=LINE('',#1336,#148);
#77=LINE('',#1339,#149);
#78=LINE('',#1341,#150);
#79=LINE('',#1342,#151);
#80=LINE('',#1345,#152);
#81=LINE('',#1347,#153);
#82=LINE('',#1348,#154);
#83=LINE('',#1350,#155);
#84=LINE('',#1351,#156);
#85=LINE('',#1370,#157);
#86=LINE('',#1386,#158);
#87=LINE('',#1403,#159);
#88=LINE('',#1404,#160);
#89=LINE('',#1420,#161);
#90=LINE('',#1421,#162);
#91=LINE('',#1424,#163);
#92=LINE('',#1426,#164);
#93=LINE('',#1427,#165);
#94=LINE('',#1430,#166);
#95=LINE('',#1434,#167);
#96=LINE('',#1435,#168);
#97=LINE('',#1438,#169);
#98=LINE('',#1450,#170);
#99=LINE('',#1458,#171);
#100=LINE('',#1466,#172);
#101=LINE('',#1472,#173);
#102=LINE('',#1477,#174);
#103=LINE('',#1480,#175);
#104=LINE('',#1481,#176);
#105=LINE('',#1484,#177);
#106=LINE('',#1487,#178);
#107=LINE('',#1491,#179);
#108=LINE('',#1493,#180);
#109=LINE('',#1495,#181);
#110=LINE('',#1496,#182);
#111=LINE('',#1500,#183);
#112=LINE('',#1501,#184);
#113=LINE('',#1502,#185);
#114=LINE('',#1505,#186);
#115=LINE('',#1506,#187);
#116=LINE('',#1509,#188);
#117=LINE('',#1510,#189);
#118=LINE('',#1512,#190);
#119=VECTOR('',#984,10.);
#120=VECTOR('',#985,10.);
#121=VECTOR('',#998,10.);
#122=VECTOR('',#999,10.);
#123=VECTOR('',#1012,10.);
#124=VECTOR('',#1013,10.);
#125=VECTOR('',#1024,10.);
#126=VECTOR('',#1025,10.);
#127=VECTOR('',#1028,10.);
#128=VECTOR('',#1031,10.);
#129=VECTOR('',#1034,10.);
#130=VECTOR('',#1037,10.);
#131=VECTOR('',#1040,10.);
#132=VECTOR('',#1043,10.);
#133=VECTOR('',#1046,10.);
#134=VECTOR('',#1047,10.);
#135=VECTOR('',#1048,10.);
#136=VECTOR('',#1049,10.);
#137=VECTOR('',#1052,10.);
#138=VECTOR('',#1053,10.);
#139=VECTOR('',#1054,10.);
#140=VECTOR('',#1057,10.);
#141=VECTOR('',#1058,10.);
#142=VECTOR('',#1059,10.);
#143=VECTOR('',#1062,10.);
#144=VECTOR('',#1063,10.);
#145=VECTOR('',#1068,10.);
#146=VECTOR('',#1069,10.);
#147=VECTOR('',#1070,10.);
#148=VECTOR('',#1071,10.);
#149=VECTOR('',#1074,10.);
#150=VECTOR('',#1075,10.);
#151=VECTOR('',#1076,10.);
#152=VECTOR('',#1079,10.);
#153=VECTOR('',#1080,10.);
#154=VECTOR('',#1081,10.);
#155=VECTOR('',#1084,10.);
#156=VECTOR('',#1085,10.);
#157=VECTOR('',#1098,10.);
#158=VECTOR('',#1107,10.);
#159=VECTOR('',#1116,10.);
#160=VECTOR('',#1117,10.);
#161=VECTOR('',#1126,10.);
#162=VECTOR('',#1127,10.);
#163=VECTOR('',#1130,10.);
#164=VECTOR('',#1131,10.);
#165=VECTOR('',#1132,10.);
#166=VECTOR('',#1135,10.);
#167=VECTOR('',#1140,10.);
#168=VECTOR('',#1141,10.);
#169=VECTOR('',#1144,10.);
#170=VECTOR('',#1161,10.);
#171=VECTOR('',#1172,10.);
#172=VECTOR('',#1183,10.);
#173=VECTOR('',#1192,10.);
#174=VECTOR('',#1199,10.);
#175=VECTOR('',#1202,10.);
#176=VECTOR('',#1203,10.);
#177=VECTOR('',#1206,10.);
#178=VECTOR('',#1211,10.);
#179=VECTOR('',#1214,10.);
#180=VECTOR('',#1215,10.);
#181=VECTOR('',#1216,10.);
#182=VECTOR('',#1217,10.);
#183=VECTOR('',#1220,10.);
#184=VECTOR('',#1221,10.);
#185=VECTOR('',#1222,10.);
#186=VECTOR('',#1225,10.);
#187=VECTOR('',#1226,10.);
#188=VECTOR('',#1229,10.);
#189=VECTOR('',#1230,10.);
#190=VECTOR('',#1233,10.);
#191=CYLINDRICAL_SURFACE('',#876,0.75);
#192=CYLINDRICAL_SURFACE('',#882,0.75);
#193=CYLINDRICAL_SURFACE('',#888,0.75);
#194=CYLINDRICAL_SURFACE('',#894,0.75);
#195=CYLINDRICAL_SURFACE('',#914,0.25);
#196=CYLINDRICAL_SURFACE('',#918,0.25);
#197=CYLINDRICAL_SURFACE('',#922,0.25);
#198=CYLINDRICAL_SURFACE('',#927,0.25);
#199=CYLINDRICAL_SURFACE('',#929,0.5);
#200=CYLINDRICAL_SURFACE('',#932,0.5);
#201=CYLINDRICAL_SURFACE('',#939,0.25);
#202=CYLINDRICAL_SURFACE('',#944,0.25);
#203=CYLINDRICAL_SURFACE('',#949,0.25);
#204=CYLINDRICAL_SURFACE('',#954,0.25);
#205=CYLINDRICAL_SURFACE('',#956,0.5);
#206=CYLINDRICAL_SURFACE('',#959,0.5);
#207=FACE_OUTER_BOUND('',#260,.T.);
#208=FACE_OUTER_BOUND('',#261,.T.);
#209=FACE_OUTER_BOUND('',#262,.T.);
#210=FACE_OUTER_BOUND('',#263,.T.);
#211=FACE_OUTER_BOUND('',#264,.T.);
#212=FACE_OUTER_BOUND('',#265,.T.);
#213=FACE_OUTER_BOUND('',#266,.T.);
#214=FACE_OUTER_BOUND('',#267,.T.);
#215=FACE_OUTER_BOUND('',#268,.T.);
#216=FACE_OUTER_BOUND('',#269,.T.);
#217=FACE_OUTER_BOUND('',#270,.T.);
#218=FACE_OUTER_BOUND('',#271,.T.);
#219=FACE_OUTER_BOUND('',#272,.T.);
#220=FACE_OUTER_BOUND('',#273,.T.);
#221=FACE_OUTER_BOUND('',#274,.T.);
#222=FACE_OUTER_BOUND('',#275,.T.);
#223=FACE_OUTER_BOUND('',#276,.T.);
#224=FACE_OUTER_BOUND('',#277,.T.);
#225=FACE_OUTER_BOUND('',#278,.T.);
#226=FACE_OUTER_BOUND('',#279,.T.);
#227=FACE_OUTER_BOUND('',#280,.T.);
#228=FACE_OUTER_BOUND('',#281,.T.);
#229=FACE_OUTER_BOUND('',#282,.T.);
#230=FACE_OUTER_BOUND('',#283,.T.);
#231=FACE_OUTER_BOUND('',#284,.T.);
#232=FACE_OUTER_BOUND('',#285,.T.);
#233=FACE_OUTER_BOUND('',#286,.T.);
#234=FACE_OUTER_BOUND('',#287,.T.);
#235=FACE_OUTER_BOUND('',#288,.T.);
#236=FACE_OUTER_BOUND('',#289,.T.);
#237=FACE_OUTER_BOUND('',#290,.T.);
#238=FACE_OUTER_BOUND('',#291,.T.);
#239=FACE_OUTER_BOUND('',#292,.T.);
#240=FACE_OUTER_BOUND('',#293,.T.);
#241=FACE_OUTER_BOUND('',#294,.T.);
#242=FACE_OUTER_BOUND('',#295,.T.);
#243=FACE_OUTER_BOUND('',#296,.T.);
#244=FACE_OUTER_BOUND('',#297,.T.);
#245=FACE_OUTER_BOUND('',#298,.T.);
#246=FACE_OUTER_BOUND('',#299,.T.);
#247=FACE_OUTER_BOUND('',#300,.T.);
#248=FACE_OUTER_BOUND('',#301,.T.);
#249=FACE_OUTER_BOUND('',#302,.T.);
#250=FACE_OUTER_BOUND('',#303,.T.);
#251=FACE_OUTER_BOUND('',#304,.T.);
#252=FACE_OUTER_BOUND('',#305,.T.);
#253=FACE_OUTER_BOUND('',#306,.T.);
#254=FACE_OUTER_BOUND('',#307,.T.);
#255=FACE_OUTER_BOUND('',#310,.T.);
#256=FACE_OUTER_BOUND('',#311,.T.);
#257=FACE_OUTER_BOUND('',#312,.T.);
#258=FACE_OUTER_BOUND('',#313,.T.);
#259=FACE_OUTER_BOUND('',#314,.T.);
#260=EDGE_LOOP('',(#556,#557,#558,#559));
#261=EDGE_LOOP('',(#560,#561,#562,#563));
#262=EDGE_LOOP('',(#564,#565,#566,#567));
#263=EDGE_LOOP('',(#568,#569,#570,#571));
#264=EDGE_LOOP('',(#572,#573,#574,#575));
#265=EDGE_LOOP('',(#576,#577,#578,#579));
#266=EDGE_LOOP('',(#580,#581,#582,#583));
#267=EDGE_LOOP('',(#584,#585,#586,#587));
#268=EDGE_LOOP('',(#588,#589,#590,#591));
#269=EDGE_LOOP('',(#592,#593,#594,#595));
#270=EDGE_LOOP('',(#596,#597,#598,#599));
#271=EDGE_LOOP('',(#600,#601,#602,#603));
#272=EDGE_LOOP('',(#604,#605,#606,#607));
#273=EDGE_LOOP('',(#608,#609,#610,#611));
#274=EDGE_LOOP('',(#612,#613,#614,#615));
#275=EDGE_LOOP('',(#616,#617,#618,#619));
#276=EDGE_LOOP('',(#620,#621,#622,#623));
#277=EDGE_LOOP('',(#624,#625,#626,#627));
#278=EDGE_LOOP('',(#628,#629,#630,#631));
#279=EDGE_LOOP('',(#632,#633,#634,#635));
#280=EDGE_LOOP('',(#636,#637,#638,#639));
#281=EDGE_LOOP('',(#640,#641,#642,#643));
#282=EDGE_LOOP('',(#644,#645,#646,#647,#648,#649));
#283=EDGE_LOOP('',(#650,#651,#652,#653));
#284=EDGE_LOOP('',(#654,#655,#656,#657,#658,#659));
#285=EDGE_LOOP('',(#660,#661,#662,#663));
#286=EDGE_LOOP('',(#664,#665,#666,#667,#668,#669));
#287=EDGE_LOOP('',(#670,#671,#672,#673));
#288=EDGE_LOOP('',(#674,#675,#676,#677,#678,#679));
#289=EDGE_LOOP('',(#680,#681,#682,#683));
#290=EDGE_LOOP('',(#684,#685,#686,#687));
#291=EDGE_LOOP('',(#688,#689,#690,#691));
#292=EDGE_LOOP('',(#692,#693,#694,#695));
#293=EDGE_LOOP('',(#696,#697,#698,#699));
#294=EDGE_LOOP('',(#700,#701,#702,#703));
#295=EDGE_LOOP('',(#704,#705,#706,#707));
#296=EDGE_LOOP('',(#708,#709,#710,#711));
#297=EDGE_LOOP('',(#712,#713,#714,#715));
#298=EDGE_LOOP('',(#716,#717,#718,#719));
#299=EDGE_LOOP('',(#720,#721,#722,#723));
#300=EDGE_LOOP('',(#724,#725,#726,#727));
#301=EDGE_LOOP('',(#728,#729,#730,#731));
#302=EDGE_LOOP('',(#732,#733,#734,#735,#736,#737,#738,#739));
#303=EDGE_LOOP('',(#740,#741,#742,#743));
#304=EDGE_LOOP('',(#744,#745,#746,#747));
#305=EDGE_LOOP('',(#748,#749,#750,#751));
#306=EDGE_LOOP('',(#752,#753,#754,#755));
#307=EDGE_LOOP('',(#756,#757,#758,#759));
#308=EDGE_LOOP('',(#760,#761,#762,#763));
#309=EDGE_LOOP('',(#764,#765,#766,#767));
#310=EDGE_LOOP('',(#768,#769,#770,#771));
#311=EDGE_LOOP('',(#772,#773,#774,#775));
#312=EDGE_LOOP('',(#776,#777,#778,#779));
#313=EDGE_LOOP('',(#780,#781,#782,#783));
#314=EDGE_LOOP('',(#784,#785,#786,#787,#788,#789,#790,#791));
#315=EDGE_LOOP('',(#792,#793,#794,#795));
#316=CIRCLE('',#872,0.75);
#317=CIRCLE('',#873,3.75);
#318=CIRCLE('',#874,0.75);
#319=CIRCLE('',#875,3.);
#320=CIRCLE('',#877,0.75);
#321=CIRCLE('',#879,3.75);
#322=CIRCLE('',#880,0.75);
#323=CIRCLE('',#881,3.);
#324=CIRCLE('',#883,0.75);
#325=CIRCLE('',#885,3.75);
#326=CIRCLE('',#886,0.75);
#327=CIRCLE('',#887,3.);
#328=CIRCLE('',#889,0.75);
#329=CIRCLE('',#891,3.75);
#330=CIRCLE('',#892,0.75);
#331=CIRCLE('',#893,3.);
#332=CIRCLE('',#896,0.25);
#333=CIRCLE('',#898,0.25);
#334=CIRCLE('',#900,0.25);
#335=CIRCLE('',#911,0.250000000000001);
#336=CIRCLE('',#912,0.25);
#337=CIRCLE('',#913,0.5);
#338=CIRCLE('',#915,0.25);
#339=CIRCLE('',#916,0.25);
#340=CIRCLE('',#917,0.5);
#341=CIRCLE('',#919,0.25);
#342=CIRCLE('',#920,0.25);
#343=CIRCLE('',#921,0.5);
#344=CIRCLE('',#923,0.25);
#345=CIRCLE('',#924,0.25);
#346=CIRCLE('',#925,0.5);
#347=CIRCLE('',#926,0.25);
#348=CIRCLE('',#930,0.5);
#349=CIRCLE('',#933,0.5);
#350=CIRCLE('',#936,0.250000000000001);
#351=CIRCLE('',#937,2.75);
#352=CIRCLE('',#938,0.25);
#353=CIRCLE('',#940,0.25);
#354=CIRCLE('',#942,0.25);
#355=CIRCLE('',#943,2.75);
#356=CIRCLE('',#945,0.25);
#357=CIRCLE('',#947,0.25);
#358=CIRCLE('',#948,2.75);
#359=CIRCLE('',#950,0.25);
#360=CIRCLE('',#952,0.25);
#361=CIRCLE('',#953,2.75);
#362=CIRCLE('',#957,0.5);
#363=CIRCLE('',#960,0.5);
#364=VERTEX_POINT('',#1238);
#365=VERTEX_POINT('',#1239);
#366=VERTEX_POINT('',#1241);
#367=VERTEX_POINT('',#1243);
#368=VERTEX_POINT('',#1247);
#369=VERTEX_POINT('',#1248);
#370=VERTEX_POINT('',#1253);
#371=VERTEX_POINT('',#1255);
#372=VERTEX_POINT('',#1259);
#373=VERTEX_POINT('',#1260);
#374=VERTEX_POINT('',#1265);
#375=VERTEX_POINT('',#1267);
#376=VERTEX_POINT('',#1271);
#377=VERTEX_POINT('',#1272);
#378=VERTEX_POINT('',#1277);
#379=VERTEX_POINT('',#1279);
#380=VERTEX_POINT('',#1286);
#381=VERTEX_POINT('',#1288);
#382=VERTEX_POINT('',#1292);
#383=VERTEX_POINT('',#1294);
#384=VERTEX_POINT('',#1298);
#385=VERTEX_POINT('',#1300);
#386=VERTEX_POINT('',#1304);
#387=VERTEX_POINT('',#1305);
#388=VERTEX_POINT('',#1307);
#389=VERTEX_POINT('',#1309);
#390=VERTEX_POINT('',#1313);
#391=VERTEX_POINT('',#1315);
#392=VERTEX_POINT('',#1319);
#393=VERTEX_POINT('',#1321);
#394=VERTEX_POINT('',#1329);
#395=VERTEX_POINT('',#1330);
#396=VERTEX_POINT('',#1332);
#397=VERTEX_POINT('',#1334);
#398=VERTEX_POINT('',#1338);
#399=VERTEX_POINT('',#1340);
#400=VERTEX_POINT('',#1344);
#401=VERTEX_POINT('',#1346);
#402=VERTEX_POINT('',#1362);
#403=VERTEX_POINT('',#1364);
#404=VERTEX_POINT('',#1368);
#405=VERTEX_POINT('',#1380);
#406=VERTEX_POINT('',#1384);
#407=VERTEX_POINT('',#1396);
#408=VERTEX_POINT('',#1400);
#409=VERTEX_POINT('',#1401);
#410=VERTEX_POINT('',#1414);
#411=VERTEX_POINT('',#1415);
#412=VERTEX_POINT('',#1423);
#413=VERTEX_POINT('',#1425);
#414=VERTEX_POINT('',#1429);
#415=VERTEX_POINT('',#1433);
#416=VERTEX_POINT('',#1437);
#417=VERTEX_POINT('',#1442);
#418=VERTEX_POINT('',#1444);
#419=VERTEX_POINT('',#1448);
#420=VERTEX_POINT('',#1452);
#421=VERTEX_POINT('',#1456);
#422=VERTEX_POINT('',#1460);
#423=VERTEX_POINT('',#1464);
#424=VERTEX_POINT('',#1468);
#425=VERTEX_POINT('',#1475);
#426=VERTEX_POINT('',#1479);
#427=VERTEX_POINT('',#1483);
#428=VERTEX_POINT('',#1489);
#429=VERTEX_POINT('',#1490);
#430=VERTEX_POINT('',#1492);
#431=VERTEX_POINT('',#1494);
#432=VERTEX_POINT('',#1498);
#433=VERTEX_POINT('',#1499);
#434=VERTEX_POINT('',#1504);
#435=VERTEX_POINT('',#1508);
#436=EDGE_CURVE('',#364,#365,#316,.T.);
#437=EDGE_CURVE('',#365,#366,#317,.T.);
#438=EDGE_CURVE('',#366,#367,#318,.T.);
#439=EDGE_CURVE('',#364,#367,#319,.T.);
#440=EDGE_CURVE('',#368,#369,#320,.T.);
#441=EDGE_CURVE('',#367,#369,#47,.T.);
#442=EDGE_CURVE('',#368,#366,#48,.T.);
#443=EDGE_CURVE('',#368,#370,#321,.T.);
#444=EDGE_CURVE('',#370,#371,#322,.T.);
#445=EDGE_CURVE('',#369,#371,#323,.T.);
#446=EDGE_CURVE('',#372,#373,#324,.T.);
#447=EDGE_CURVE('',#371,#373,#49,.T.);
#448=EDGE_CURVE('',#372,#370,#50,.T.);
#449=EDGE_CURVE('',#372,#374,#325,.T.);
#450=EDGE_CURVE('',#374,#375,#326,.T.);
#451=EDGE_CURVE('',#373,#375,#327,.T.);
#452=EDGE_CURVE('',#376,#377,#328,.T.);
#453=EDGE_CURVE('',#375,#377,#51,.T.);
#454=EDGE_CURVE('',#376,#374,#52,.T.);
#455=EDGE_CURVE('',#376,#378,#329,.T.);
#456=EDGE_CURVE('',#378,#379,#330,.T.);
#457=EDGE_CURVE('',#377,#379,#331,.T.);
#458=EDGE_CURVE('',#379,#364,#53,.T.);
#459=EDGE_CURVE('',#365,#378,#54,.T.);
#460=EDGE_CURVE('',#380,#365,#55,.T.);
#461=EDGE_CURVE('',#381,#380,#332,.T.);
#462=EDGE_CURVE('',#366,#381,#56,.T.);
#463=EDGE_CURVE('',#382,#368,#57,.T.);
#464=EDGE_CURVE('',#383,#382,#333,.T.);
#465=EDGE_CURVE('',#370,#383,#58,.T.);
#466=EDGE_CURVE('',#384,#376,#59,.T.);
#467=EDGE_CURVE('',#385,#384,#334,.T.);
#468=EDGE_CURVE('',#378,#385,#60,.T.);
#469=EDGE_CURVE('',#386,#387,#61,.T.);
#470=EDGE_CURVE('',#387,#388,#62,.T.);
#471=EDGE_CURVE('',#389,#388,#63,.T.);
#472=EDGE_CURVE('',#386,#389,#64,.T.);
#473=EDGE_CURVE('',#390,#386,#65,.T.);
#474=EDGE_CURVE('',#391,#389,#66,.T.);
#475=EDGE_CURVE('',#390,#391,#67,.T.);
#476=EDGE_CURVE('',#392,#390,#68,.T.);
#477=EDGE_CURVE('',#393,#391,#69,.T.);
#478=EDGE_CURVE('',#392,#393,#70,.T.);
#479=EDGE_CURVE('',#387,#392,#71,.T.);
#480=EDGE_CURVE('',#388,#393,#72,.T.);
#481=EDGE_CURVE('',#394,#395,#73,.T.);
#482=EDGE_CURVE('',#395,#396,#74,.T.);
#483=EDGE_CURVE('',#397,#396,#75,.T.);
#484=EDGE_CURVE('',#394,#397,#76,.T.);
#485=EDGE_CURVE('',#398,#394,#77,.T.);
#486=EDGE_CURVE('',#399,#397,#78,.T.);
#487=EDGE_CURVE('',#398,#399,#79,.T.);
#488=EDGE_CURVE('',#400,#398,#80,.T.);
#489=EDGE_CURVE('',#401,#399,#81,.T.);
#490=EDGE_CURVE('',#400,#401,#82,.T.);
#491=EDGE_CURVE('',#395,#400,#83,.T.);
#492=EDGE_CURVE('',#396,#401,#84,.T.);
#493=EDGE_CURVE('',#402,#383,#335,.T.);
#494=EDGE_CURVE('',#382,#403,#336,.T.);
#495=EDGE_CURVE('',#403,#402,#337,.T.);
#496=EDGE_CURVE('',#381,#404,#338,.T.);
#497=EDGE_CURVE('',#404,#403,#85,.T.);
#498=EDGE_CURVE('',#380,#405,#339,.T.);
#499=EDGE_CURVE('',#405,#404,#340,.T.);
#500=EDGE_CURVE('',#385,#406,#341,.T.);
#501=EDGE_CURVE('',#406,#405,#86,.T.);
#502=EDGE_CURVE('',#384,#407,#342,.T.);
#503=EDGE_CURVE('',#407,#406,#343,.T.);
#504=EDGE_CURVE('',#408,#409,#344,.T.);
#505=EDGE_CURVE('',#409,#407,#87,.T.);
#506=EDGE_CURVE('',#374,#408,#88,.T.);
#507=EDGE_CURVE('',#410,#411,#345,.T.);
#508=EDGE_CURVE('',#411,#409,#346,.T.);
#509=EDGE_CURVE('',#408,#410,#347,.T.);
#510=EDGE_CURVE('',#410,#372,#89,.T.);
#511=EDGE_CURVE('',#402,#411,#90,.T.);
#512=EDGE_CURVE('',#412,#409,#91,.T.);
#513=EDGE_CURVE('',#412,#413,#92,.T.);
#514=EDGE_CURVE('',#407,#413,#93,.T.);
#515=EDGE_CURVE('',#411,#414,#94,.T.);
#516=EDGE_CURVE('',#414,#412,#348,.T.);
#517=EDGE_CURVE('',#415,#402,#95,.T.);
#518=EDGE_CURVE('',#415,#414,#96,.T.);
#519=EDGE_CURVE('',#403,#416,#97,.T.);
#520=EDGE_CURVE('',#416,#415,#349,.T.);
#521=EDGE_CURVE('',#371,#417,#350,.T.);
#522=EDGE_CURVE('',#417,#418,#351,.T.);
#523=EDGE_CURVE('',#418,#369,#352,.T.);
#524=EDGE_CURVE('',#419,#367,#353,.T.);
#525=EDGE_CURVE('',#418,#419,#98,.T.);
#526=EDGE_CURVE('',#420,#364,#354,.T.);
#527=EDGE_CURVE('',#419,#420,#355,.T.);
#528=EDGE_CURVE('',#421,#379,#356,.T.);
#529=EDGE_CURVE('',#420,#421,#99,.T.);
#530=EDGE_CURVE('',#422,#377,#357,.T.);
#531=EDGE_CURVE('',#421,#422,#358,.T.);
#532=EDGE_CURVE('',#423,#375,#359,.T.);
#533=EDGE_CURVE('',#422,#423,#100,.T.);
#534=EDGE_CURVE('',#424,#373,#360,.T.);
#535=EDGE_CURVE('',#423,#424,#361,.T.);
#536=EDGE_CURVE('',#424,#417,#101,.T.);
#537=EDGE_CURVE('',#413,#425,#362,.T.);
#538=EDGE_CURVE('',#425,#406,#102,.T.);
#539=EDGE_CURVE('',#426,#404,#103,.T.);
#540=EDGE_CURVE('',#426,#416,#104,.T.);
#541=EDGE_CURVE('',#405,#427,#105,.T.);
#542=EDGE_CURVE('',#427,#426,#363,.T.);
#543=EDGE_CURVE('',#425,#427,#106,.T.);
#544=EDGE_CURVE('',#428,#429,#107,.T.);
#545=EDGE_CURVE('',#429,#430,#108,.T.);
#546=EDGE_CURVE('',#430,#431,#109,.T.);
#547=EDGE_CURVE('',#431,#428,#110,.T.);
#548=EDGE_CURVE('',#432,#433,#111,.T.);
#549=EDGE_CURVE('',#433,#429,#112,.T.);
#550=EDGE_CURVE('',#432,#428,#113,.T.);
#551=EDGE_CURVE('',#434,#432,#114,.T.);
#552=EDGE_CURVE('',#434,#431,#115,.T.);
#553=EDGE_CURVE('',#435,#434,#116,.T.);
#554=EDGE_CURVE('',#435,#430,#117,.T.);
#555=EDGE_CURVE('',#433,#435,#118,.T.);
#556=ORIENTED_EDGE('',*,*,#436,.T.);
#557=ORIENTED_EDGE('',*,*,#437,.T.);
#558=ORIENTED_EDGE('',*,*,#438,.T.);
#559=ORIENTED_EDGE('',*,*,#439,.F.);
#560=ORIENTED_EDGE('',*,*,#440,.T.);
#561=ORIENTED_EDGE('',*,*,#441,.F.);
#562=ORIENTED_EDGE('',*,*,#438,.F.);
#563=ORIENTED_EDGE('',*,*,#442,.F.);
#564=ORIENTED_EDGE('',*,*,#440,.F.);
#565=ORIENTED_EDGE('',*,*,#443,.T.);
#566=ORIENTED_EDGE('',*,*,#444,.T.);
#567=ORIENTED_EDGE('',*,*,#445,.F.);
#568=ORIENTED_EDGE('',*,*,#446,.T.);
#569=ORIENTED_EDGE('',*,*,#447,.F.);
#570=ORIENTED_EDGE('',*,*,#444,.F.);
#571=ORIENTED_EDGE('',*,*,#448,.F.);
#572=ORIENTED_EDGE('',*,*,#446,.F.);
#573=ORIENTED_EDGE('',*,*,#449,.T.);
#574=ORIENTED_EDGE('',*,*,#450,.T.);
#575=ORIENTED_EDGE('',*,*,#451,.F.);
#576=ORIENTED_EDGE('',*,*,#452,.T.);
#577=ORIENTED_EDGE('',*,*,#453,.F.);
#578=ORIENTED_EDGE('',*,*,#450,.F.);
#579=ORIENTED_EDGE('',*,*,#454,.F.);
#580=ORIENTED_EDGE('',*,*,#452,.F.);
#581=ORIENTED_EDGE('',*,*,#455,.T.);
#582=ORIENTED_EDGE('',*,*,#456,.T.);
#583=ORIENTED_EDGE('',*,*,#457,.F.);
#584=ORIENTED_EDGE('',*,*,#436,.F.);
#585=ORIENTED_EDGE('',*,*,#458,.F.);
#586=ORIENTED_EDGE('',*,*,#456,.F.);
#587=ORIENTED_EDGE('',*,*,#459,.F.);
#588=ORIENTED_EDGE('',*,*,#437,.F.);
#589=ORIENTED_EDGE('',*,*,#460,.F.);
#590=ORIENTED_EDGE('',*,*,#461,.F.);
#591=ORIENTED_EDGE('',*,*,#462,.F.);
#592=ORIENTED_EDGE('',*,*,#443,.F.);
#593=ORIENTED_EDGE('',*,*,#463,.F.);
#594=ORIENTED_EDGE('',*,*,#464,.F.);
#595=ORIENTED_EDGE('',*,*,#465,.F.);
#596=ORIENTED_EDGE('',*,*,#455,.F.);
#597=ORIENTED_EDGE('',*,*,#466,.F.);
#598=ORIENTED_EDGE('',*,*,#467,.F.);
#599=ORIENTED_EDGE('',*,*,#468,.F.);
#600=ORIENTED_EDGE('',*,*,#469,.T.);
#601=ORIENTED_EDGE('',*,*,#470,.T.);
#602=ORIENTED_EDGE('',*,*,#471,.F.);
#603=ORIENTED_EDGE('',*,*,#472,.F.);
#604=ORIENTED_EDGE('',*,*,#473,.T.);
#605=ORIENTED_EDGE('',*,*,#472,.T.);
#606=ORIENTED_EDGE('',*,*,#474,.F.);
#607=ORIENTED_EDGE('',*,*,#475,.F.);
#608=ORIENTED_EDGE('',*,*,#476,.T.);
#609=ORIENTED_EDGE('',*,*,#475,.T.);
#610=ORIENTED_EDGE('',*,*,#477,.F.);
#611=ORIENTED_EDGE('',*,*,#478,.F.);
#612=ORIENTED_EDGE('',*,*,#479,.T.);
#613=ORIENTED_EDGE('',*,*,#478,.T.);
#614=ORIENTED_EDGE('',*,*,#480,.F.);
#615=ORIENTED_EDGE('',*,*,#470,.F.);
#616=ORIENTED_EDGE('',*,*,#479,.F.);
#617=ORIENTED_EDGE('',*,*,#469,.F.);
#618=ORIENTED_EDGE('',*,*,#473,.F.);
#619=ORIENTED_EDGE('',*,*,#476,.F.);
#620=ORIENTED_EDGE('',*,*,#481,.T.);
#621=ORIENTED_EDGE('',*,*,#482,.T.);
#622=ORIENTED_EDGE('',*,*,#483,.F.);
#623=ORIENTED_EDGE('',*,*,#484,.F.);
#624=ORIENTED_EDGE('',*,*,#485,.T.);
#625=ORIENTED_EDGE('',*,*,#484,.T.);
#626=ORIENTED_EDGE('',*,*,#486,.F.);
#627=ORIENTED_EDGE('',*,*,#487,.F.);
#628=ORIENTED_EDGE('',*,*,#488,.T.);
#629=ORIENTED_EDGE('',*,*,#487,.T.);
#630=ORIENTED_EDGE('',*,*,#489,.F.);
#631=ORIENTED_EDGE('',*,*,#490,.F.);
#632=ORIENTED_EDGE('',*,*,#491,.T.);
#633=ORIENTED_EDGE('',*,*,#490,.T.);
#634=ORIENTED_EDGE('',*,*,#492,.F.);
#635=ORIENTED_EDGE('',*,*,#482,.F.);
#636=ORIENTED_EDGE('',*,*,#491,.F.);
#637=ORIENTED_EDGE('',*,*,#481,.F.);
#638=ORIENTED_EDGE('',*,*,#485,.F.);
#639=ORIENTED_EDGE('',*,*,#488,.F.);
#640=ORIENTED_EDGE('',*,*,#493,.T.);
#641=ORIENTED_EDGE('',*,*,#464,.T.);
#642=ORIENTED_EDGE('',*,*,#494,.T.);
#643=ORIENTED_EDGE('',*,*,#495,.T.);
#644=ORIENTED_EDGE('',*,*,#496,.T.);
#645=ORIENTED_EDGE('',*,*,#497,.T.);
#646=ORIENTED_EDGE('',*,*,#494,.F.);
#647=ORIENTED_EDGE('',*,*,#463,.T.);
#648=ORIENTED_EDGE('',*,*,#442,.T.);
#649=ORIENTED_EDGE('',*,*,#462,.T.);
#650=ORIENTED_EDGE('',*,*,#498,.T.);
#651=ORIENTED_EDGE('',*,*,#499,.T.);
#652=ORIENTED_EDGE('',*,*,#496,.F.);
#653=ORIENTED_EDGE('',*,*,#461,.T.);
#654=ORIENTED_EDGE('',*,*,#500,.T.);
#655=ORIENTED_EDGE('',*,*,#501,.T.);
#656=ORIENTED_EDGE('',*,*,#498,.F.);
#657=ORIENTED_EDGE('',*,*,#460,.T.);
#658=ORIENTED_EDGE('',*,*,#459,.T.);
#659=ORIENTED_EDGE('',*,*,#468,.T.);
#660=ORIENTED_EDGE('',*,*,#502,.T.);
#661=ORIENTED_EDGE('',*,*,#503,.T.);
#662=ORIENTED_EDGE('',*,*,#500,.F.);
#663=ORIENTED_EDGE('',*,*,#467,.T.);
#664=ORIENTED_EDGE('',*,*,#504,.T.);
#665=ORIENTED_EDGE('',*,*,#505,.T.);
#666=ORIENTED_EDGE('',*,*,#502,.F.);
#667=ORIENTED_EDGE('',*,*,#466,.T.);
#668=ORIENTED_EDGE('',*,*,#454,.T.);
#669=ORIENTED_EDGE('',*,*,#506,.T.);
#670=ORIENTED_EDGE('',*,*,#507,.T.);
#671=ORIENTED_EDGE('',*,*,#508,.T.);
#672=ORIENTED_EDGE('',*,*,#504,.F.);
#673=ORIENTED_EDGE('',*,*,#509,.T.);
#674=ORIENTED_EDGE('',*,*,#507,.F.);
#675=ORIENTED_EDGE('',*,*,#510,.T.);
#676=ORIENTED_EDGE('',*,*,#448,.T.);
#677=ORIENTED_EDGE('',*,*,#465,.T.);
#678=ORIENTED_EDGE('',*,*,#493,.F.);
#679=ORIENTED_EDGE('',*,*,#511,.T.);
#680=ORIENTED_EDGE('',*,*,#505,.F.);
#681=ORIENTED_EDGE('',*,*,#512,.F.);
#682=ORIENTED_EDGE('',*,*,#513,.T.);
#683=ORIENTED_EDGE('',*,*,#514,.F.);
#684=ORIENTED_EDGE('',*,*,#508,.F.);
#685=ORIENTED_EDGE('',*,*,#515,.T.);
#686=ORIENTED_EDGE('',*,*,#516,.T.);
#687=ORIENTED_EDGE('',*,*,#512,.T.);
#688=ORIENTED_EDGE('',*,*,#511,.F.);
#689=ORIENTED_EDGE('',*,*,#517,.F.);
#690=ORIENTED_EDGE('',*,*,#518,.T.);
#691=ORIENTED_EDGE('',*,*,#515,.F.);
#692=ORIENTED_EDGE('',*,*,#495,.F.);
#693=ORIENTED_EDGE('',*,*,#519,.T.);
#694=ORIENTED_EDGE('',*,*,#520,.T.);
#695=ORIENTED_EDGE('',*,*,#517,.T.);
#696=ORIENTED_EDGE('',*,*,#449,.F.);
#697=ORIENTED_EDGE('',*,*,#510,.F.);
#698=ORIENTED_EDGE('',*,*,#509,.F.);
#699=ORIENTED_EDGE('',*,*,#506,.F.);
#700=ORIENTED_EDGE('',*,*,#521,.T.);
#701=ORIENTED_EDGE('',*,*,#522,.T.);
#702=ORIENTED_EDGE('',*,*,#523,.T.);
#703=ORIENTED_EDGE('',*,*,#445,.T.);
#704=ORIENTED_EDGE('',*,*,#524,.T.);
#705=ORIENTED_EDGE('',*,*,#441,.T.);
#706=ORIENTED_EDGE('',*,*,#523,.F.);
#707=ORIENTED_EDGE('',*,*,#525,.T.);
#708=ORIENTED_EDGE('',*,*,#526,.T.);
#709=ORIENTED_EDGE('',*,*,#439,.T.);
#710=ORIENTED_EDGE('',*,*,#524,.F.);
#711=ORIENTED_EDGE('',*,*,#527,.T.);
#712=ORIENTED_EDGE('',*,*,#528,.T.);
#713=ORIENTED_EDGE('',*,*,#458,.T.);
#714=ORIENTED_EDGE('',*,*,#526,.F.);
#715=ORIENTED_EDGE('',*,*,#529,.T.);
#716=ORIENTED_EDGE('',*,*,#530,.T.);
#717=ORIENTED_EDGE('',*,*,#457,.T.);
#718=ORIENTED_EDGE('',*,*,#528,.F.);
#719=ORIENTED_EDGE('',*,*,#531,.T.);
#720=ORIENTED_EDGE('',*,*,#532,.T.);
#721=ORIENTED_EDGE('',*,*,#453,.T.);
#722=ORIENTED_EDGE('',*,*,#530,.F.);
#723=ORIENTED_EDGE('',*,*,#533,.T.);
#724=ORIENTED_EDGE('',*,*,#534,.T.);
#725=ORIENTED_EDGE('',*,*,#451,.T.);
#726=ORIENTED_EDGE('',*,*,#532,.F.);
#727=ORIENTED_EDGE('',*,*,#535,.T.);
#728=ORIENTED_EDGE('',*,*,#534,.F.);
#729=ORIENTED_EDGE('',*,*,#536,.T.);
#730=ORIENTED_EDGE('',*,*,#521,.F.);
#731=ORIENTED_EDGE('',*,*,#447,.T.);
#732=ORIENTED_EDGE('',*,*,#522,.F.);
#733=ORIENTED_EDGE('',*,*,#536,.F.);
#734=ORIENTED_EDGE('',*,*,#535,.F.);
#735=ORIENTED_EDGE('',*,*,#533,.F.);
#736=ORIENTED_EDGE('',*,*,#531,.F.);
#737=ORIENTED_EDGE('',*,*,#529,.F.);
#738=ORIENTED_EDGE('',*,*,#527,.F.);
#739=ORIENTED_EDGE('',*,*,#525,.F.);
#740=ORIENTED_EDGE('',*,*,#503,.F.);
#741=ORIENTED_EDGE('',*,*,#514,.T.);
#742=ORIENTED_EDGE('',*,*,#537,.T.);
#743=ORIENTED_EDGE('',*,*,#538,.T.);
#744=ORIENTED_EDGE('',*,*,#497,.F.);
#745=ORIENTED_EDGE('',*,*,#539,.F.);
#746=ORIENTED_EDGE('',*,*,#540,.T.);
#747=ORIENTED_EDGE('',*,*,#519,.F.);
#748=ORIENTED_EDGE('',*,*,#499,.F.);
#749=ORIENTED_EDGE('',*,*,#541,.T.);
#750=ORIENTED_EDGE('',*,*,#542,.T.);
#751=ORIENTED_EDGE('',*,*,#539,.T.);
#752=ORIENTED_EDGE('',*,*,#501,.F.);
#753=ORIENTED_EDGE('',*,*,#538,.F.);
#754=ORIENTED_EDGE('',*,*,#543,.T.);
#755=ORIENTED_EDGE('',*,*,#541,.F.);
#756=ORIENTED_EDGE('',*,*,#544,.T.);
#757=ORIENTED_EDGE('',*,*,#545,.T.);
#758=ORIENTED_EDGE('',*,*,#546,.T.);
#759=ORIENTED_EDGE('',*,*,#547,.T.);
#760=ORIENTED_EDGE('',*,*,#471,.T.);
#761=ORIENTED_EDGE('',*,*,#480,.T.);
#762=ORIENTED_EDGE('',*,*,#477,.T.);
#763=ORIENTED_EDGE('',*,*,#474,.T.);
#764=ORIENTED_EDGE('',*,*,#483,.T.);
#765=ORIENTED_EDGE('',*,*,#492,.T.);
#766=ORIENTED_EDGE('',*,*,#489,.T.);
#767=ORIENTED_EDGE('',*,*,#486,.T.);
#768=ORIENTED_EDGE('',*,*,#548,.T.);
#769=ORIENTED_EDGE('',*,*,#549,.T.);
#770=ORIENTED_EDGE('',*,*,#544,.F.);
#771=ORIENTED_EDGE('',*,*,#550,.F.);
#772=ORIENTED_EDGE('',*,*,#551,.T.);
#773=ORIENTED_EDGE('',*,*,#550,.T.);
#774=ORIENTED_EDGE('',*,*,#547,.F.);
#775=ORIENTED_EDGE('',*,*,#552,.F.);
#776=ORIENTED_EDGE('',*,*,#553,.T.);
#777=ORIENTED_EDGE('',*,*,#552,.T.);
#778=ORIENTED_EDGE('',*,*,#546,.F.);
#779=ORIENTED_EDGE('',*,*,#554,.F.);
#780=ORIENTED_EDGE('',*,*,#555,.T.);
#781=ORIENTED_EDGE('',*,*,#554,.T.);
#782=ORIENTED_EDGE('',*,*,#545,.F.);
#783=ORIENTED_EDGE('',*,*,#549,.F.);
#784=ORIENTED_EDGE('',*,*,#537,.F.);
#785=ORIENTED_EDGE('',*,*,#513,.F.);
#786=ORIENTED_EDGE('',*,*,#516,.F.);
#787=ORIENTED_EDGE('',*,*,#518,.F.);
#788=ORIENTED_EDGE('',*,*,#520,.F.);
#789=ORIENTED_EDGE('',*,*,#540,.F.);
#790=ORIENTED_EDGE('',*,*,#542,.F.);
#791=ORIENTED_EDGE('',*,*,#543,.F.);
#792=ORIENTED_EDGE('',*,*,#555,.F.);
#793=ORIENTED_EDGE('',*,*,#548,.F.);
#794=ORIENTED_EDGE('',*,*,#551,.F.);
#795=ORIENTED_EDGE('',*,*,#553,.F.);
#796=TOROIDAL_SURFACE('',#871,3.75,0.75);
#797=TOROIDAL_SURFACE('',#878,3.75,0.75);
#798=TOROIDAL_SURFACE('',#884,3.75,0.75);
#799=TOROIDAL_SURFACE('',#890,3.75,0.75);
#800=TOROIDAL_SURFACE('',#935,2.75,0.25);
#801=TOROIDAL_SURFACE('',#941,2.75,0.25);
#802=TOROIDAL_SURFACE('',#946,2.75,0.25);
#803=TOROIDAL_SURFACE('',#951,2.75,0.25);
#804=ADVANCED_FACE('',(#207),#796,.F.);
#805=ADVANCED_FACE('',(#208),#191,.F.);
#806=ADVANCED_FACE('',(#209),#797,.F.);
#807=ADVANCED_FACE('',(#210),#192,.F.);
#808=ADVANCED_FACE('',(#211),#798,.F.);
#809=ADVANCED_FACE('',(#212),#193,.F.);
#810=ADVANCED_FACE('',(#213),#799,.F.);
#811=ADVANCED_FACE('',(#214),#194,.F.);
#812=ADVANCED_FACE('',(#215),#22,.T.);
#813=ADVANCED_FACE('',(#216),#23,.T.);
#814=ADVANCED_FACE('',(#217),#24,.T.);
#815=ADVANCED_FACE('',(#218),#25,.T.);
#816=ADVANCED_FACE('',(#219),#26,.T.);
#817=ADVANCED_FACE('',(#220),#27,.T.);
#818=ADVANCED_FACE('',(#221),#28,.T.);
#819=ADVANCED_FACE('',(#222),#29,.F.);
#820=ADVANCED_FACE('',(#223),#30,.T.);
#821=ADVANCED_FACE('',(#224),#31,.T.);
#822=ADVANCED_FACE('',(#225),#32,.T.);
#823=ADVANCED_FACE('',(#226),#33,.T.);
#824=ADVANCED_FACE('',(#227),#34,.F.);
#825=ADVANCED_FACE('',(#228),#18,.F.);
#826=ADVANCED_FACE('',(#229),#195,.T.);
#827=ADVANCED_FACE('',(#230),#19,.F.);
#828=ADVANCED_FACE('',(#231),#196,.T.);
#829=ADVANCED_FACE('',(#232),#20,.F.);
#830=ADVANCED_FACE('',(#233),#197,.T.);
#831=ADVANCED_FACE('',(#234),#21,.F.);
#832=ADVANCED_FACE('',(#235),#198,.T.);
#833=ADVANCED_FACE('',(#236),#35,.T.);
#834=ADVANCED_FACE('',(#237),#199,.T.);
#835=ADVANCED_FACE('',(#238),#36,.T.);
#836=ADVANCED_FACE('',(#239),#200,.T.);
#837=ADVANCED_FACE('',(#240),#37,.T.);
#838=ADVANCED_FACE('',(#241),#800,.T.);
#839=ADVANCED_FACE('',(#242),#201,.T.);
#840=ADVANCED_FACE('',(#243),#801,.T.);
#841=ADVANCED_FACE('',(#244),#202,.T.);
#842=ADVANCED_FACE('',(#245),#802,.T.);
#843=ADVANCED_FACE('',(#246),#203,.T.);
#844=ADVANCED_FACE('',(#247),#803,.T.);
#845=ADVANCED_FACE('',(#248),#204,.T.);
#846=ADVANCED_FACE('',(#249),#38,.T.);
#847=ADVANCED_FACE('',(#250),#205,.T.);
#848=ADVANCED_FACE('',(#251),#39,.T.);
#849=ADVANCED_FACE('',(#252),#206,.T.);
#850=ADVANCED_FACE('',(#253),#40,.T.);
#851=ADVANCED_FACE('',(#254,#15,#16),#41,.F.);
#852=ADVANCED_FACE('',(#255),#42,.T.);
#853=ADVANCED_FACE('',(#256),#43,.T.);
#854=ADVANCED_FACE('',(#257),#44,.T.);
#855=ADVANCED_FACE('',(#258),#45,.T.);
#856=ADVANCED_FACE('',(#259,#17),#46,.F.);
#857=CLOSED_SHELL('',(#804,#805,#806,#807,#808,#809,#810,#811,#812,#813,
#814,#815,#816,#817,#818,#819,#820,#821,#822,#823,#824,#825,#826,#827,#828,
#829,#830,#831,#832,#833,#834,#835,#836,#837,#838,#839,#840,#841,#842,#843,
#844,#845,#846,#847,#848,#849,#850,#851,#852,#853,#854,#855,#856));
#858=DERIVED_UNIT_ELEMENT(#860,1.);
#859=DERIVED_UNIT_ELEMENT(#1519,-3.);
#860=(
MASS_UNIT()
NAMED_UNIT(*)
SI_UNIT(.KILO.,.GRAM.)
);
#861=DERIVED_UNIT((#858,#859));
#862=MEASURE_REPRESENTATION_ITEM('density measure',
POSITIVE_RATIO_MEASURE(7850.),#861);
#863=PROPERTY_DEFINITION_REPRESENTATION(#868,#865);
#864=PROPERTY_DEFINITION_REPRESENTATION(#869,#866);
#865=REPRESENTATION('material name',(#867),#1516);
#866=REPRESENTATION('density',(#862),#1516);
#867=DESCRIPTIVE_REPRESENTATION_ITEM('Steel','Steel');
#868=PROPERTY_DEFINITION('material property','material name',#1526);
#869=PROPERTY_DEFINITION('material property','density of part',#1526);
#870=AXIS2_PLACEMENT_3D('',#1236,#968,#969);
#871=AXIS2_PLACEMENT_3D('',#1237,#970,#971);
#872=AXIS2_PLACEMENT_3D('',#1240,#972,#973);
#873=AXIS2_PLACEMENT_3D('',#1242,#974,#975);
#874=AXIS2_PLACEMENT_3D('',#1244,#976,#977);
#875=AXIS2_PLACEMENT_3D('',#1245,#978,#979);
#876=AXIS2_PLACEMENT_3D('',#1246,#980,#981);
#877=AXIS2_PLACEMENT_3D('',#1249,#982,#983);
#878=AXIS2_PLACEMENT_3D('',#1252,#986,#987);
#879=AXIS2_PLACEMENT_3D('',#1254,#988,#989);
#880=AXIS2_PLACEMENT_3D('',#1256,#990,#991);
#881=AXIS2_PLACEMENT_3D('',#1257,#992,#993);
#882=AXIS2_PLACEMENT_3D('',#1258,#994,#995);
#883=AXIS2_PLACEMENT_3D('',#1261,#996,#997);
#884=AXIS2_PLACEMENT_3D('',#1264,#1000,#1001);
#885=AXIS2_PLACEMENT_3D('',#1266,#1002,#1003);
#886=AXIS2_PLACEMENT_3D('',#1268,#1004,#1005);
#887=AXIS2_PLACEMENT_3D('',#1269,#1006,#1007);
#888=AXIS2_PLACEMENT_3D('',#1270,#1008,#1009);
#889=AXIS2_PLACEMENT_3D('',#1273,#1010,#1011);
#890=AXIS2_PLACEMENT_3D('',#1276,#1014,#1015);
#891=AXIS2_PLACEMENT_3D('',#1278,#1016,#1017);
#892=AXIS2_PLACEMENT_3D('',#1280,#1018,#1019);
#893=AXIS2_PLACEMENT_3D('',#1281,#1020,#1021);
#894=AXIS2_PLACEMENT_3D('',#1282,#1022,#1023);
#895=AXIS2_PLACEMENT_3D('',#1285,#1026,#1027);
#896=AXIS2_PLACEMENT_3D('',#1289,#1029,#1030);
#897=AXIS2_PLACEMENT_3D('',#1291,#1032,#1033);
#898=AXIS2_PLACEMENT_3D('',#1295,#1035,#1036);
#899=AXIS2_PLACEMENT_3D('',#1297,#1038,#1039);
#900=AXIS2_PLACEMENT_3D('',#1301,#1041,#1042);
#901=AXIS2_PLACEMENT_3D('',#1303,#1044,#1045);
#902=AXIS2_PLACEMENT_3D('',#1312,#1050,#1051);
#903=AXIS2_PLACEMENT_3D('',#1318,#1055,#1056);
#904=AXIS2_PLACEMENT_3D('',#1324,#1060,#1061);
#905=AXIS2_PLACEMENT_3D('',#1327,#1064,#1065);
#906=AXIS2_PLACEMENT_3D('',#1328,#1066,#1067);
#907=AXIS2_PLACEMENT_3D('',#1337,#1072,#1073);
#908=AXIS2_PLACEMENT_3D('',#1343,#1077,#1078);
#909=AXIS2_PLACEMENT_3D('',#1349,#1082,#1083);
#910=AXIS2_PLACEMENT_3D('',#1352,#1086,#1087);
#911=AXIS2_PLACEMENT_3D('',#1363,#1088,#1089);
#912=AXIS2_PLACEMENT_3D('',#1365,#1090,#1091);
#913=AXIS2_PLACEMENT_3D('',#1366,#1092,#1093);
#914=AXIS2_PLACEMENT_3D('',#1367,#1094,#1095);
#915=AXIS2_PLACEMENT_3D('',#1369,#1096,#1097);
#916=AXIS2_PLACEMENT_3D('',#1381,#1099,#1100);
#917=AXIS2_PLACEMENT_3D('',#1382,#1101,#1102);
#918=AXIS2_PLACEMENT_3D('',#1383,#1103,#1104);
#919=AXIS2_PLACEMENT_3D('',#1385,#1105,#1106);
#920=AXIS2_PLACEMENT_3D('',#1397,#1108,#1109);
#921=AXIS2_PLACEMENT_3D('',#1398,#1110,#1111);
#922=AXIS2_PLACEMENT_3D('',#1399,#1112,#1113);
#923=AXIS2_PLACEMENT_3D('',#1402,#1114,#1115);
#924=AXIS2_PLACEMENT_3D('',#1416,#1118,#1119);
#925=AXIS2_PLACEMENT_3D('',#1417,#1120,#1121);
#926=AXIS2_PLACEMENT_3D('',#1418,#1122,#1123);
#927=AXIS2_PLACEMENT_3D('',#1419,#1124,#1125);
#928=AXIS2_PLACEMENT_3D('',#1422,#1128,#1129);
#929=AXIS2_PLACEMENT_3D('',#1428,#1133,#1134);
#930=AXIS2_PLACEMENT_3D('',#1431,#1136,#1137);
#931=AXIS2_PLACEMENT_3D('',#1432,#1138,#1139);
#932=AXIS2_PLACEMENT_3D('',#1436,#1142,#1143);
#933=AXIS2_PLACEMENT_3D('',#1439,#1145,#1146);
#934=AXIS2_PLACEMENT_3D('',#1440,#1147,#1148);
#935=AXIS2_PLACEMENT_3D('',#1441,#1149,#1150);
#936=AXIS2_PLACEMENT_3D('',#1443,#1151,#1152);
#937=AXIS2_PLACEMENT_3D('',#1445,#1153,#1154);
#938=AXIS2_PLACEMENT_3D('',#1446,#1155,#1156);
#939=AXIS2_PLACEMENT_3D('',#1447,#1157,#1158);
#940=AXIS2_PLACEMENT_3D('',#1449,#1159,#1160);
#941=AXIS2_PLACEMENT_3D('',#1451,#1162,#1163);
#942=AXIS2_PLACEMENT_3D('',#1453,#1164,#1165);
#943=AXIS2_PLACEMENT_3D('',#1454,#1166,#1167);
#944=AXIS2_PLACEMENT_3D('',#1455,#1168,#1169);
#945=AXIS2_PLACEMENT_3D('',#1457,#1170,#1171);
#946=AXIS2_PLACEMENT_3D('',#1459,#1173,#1174);
#947=AXIS2_PLACEMENT_3D('',#1461,#1175,#1176);
#948=AXIS2_PLACEMENT_3D('',#1462,#1177,#1178);
#949=AXIS2_PLACEMENT_3D('',#1463,#1179,#1180);
#950=AXIS2_PLACEMENT_3D('',#1465,#1181,#1182);
#951=AXIS2_PLACEMENT_3D('',#1467,#1184,#1185);
#952=AXIS2_PLACEMENT_3D('',#1469,#1186,#1187);
#953=AXIS2_PLACEMENT_3D('',#1470,#1188,#1189);
#954=AXIS2_PLACEMENT_3D('',#1471,#1190,#1191);
#955=AXIS2_PLACEMENT_3D('',#1473,#1193,#1194);
#956=AXIS2_PLACEMENT_3D('',#1474,#1195,#1196);
#957=AXIS2_PLACEMENT_3D('',#1476,#1197,#1198);
#958=AXIS2_PLACEMENT_3D('',#1478,#1200,#1201);
#959=AXIS2_PLACEMENT_3D('',#1482,#1204,#1205);
#960=AXIS2_PLACEMENT_3D('',#1485,#1207,#1208);
#961=AXIS2_PLACEMENT_3D('',#1486,#1209,#1210);
#962=AXIS2_PLACEMENT_3D('',#1488,#1212,#1213);
#963=AXIS2_PLACEMENT_3D('',#1497,#1218,#1219);
#964=AXIS2_PLACEMENT_3D('',#1503,#1223,#1224);
#965=AXIS2_PLACEMENT_3D('',#1507,#1227,#1228);
#966=AXIS2_PLACEMENT_3D('',#1511,#1231,#1232);
#967=AXIS2_PLACEMENT_3D('',#1513,#1234,#1235);
#968=DIRECTION('axis',(0.,0.,1.));
#969=DIRECTION('refdir',(1.,0.,0.));
#970=DIRECTION('center_axis',(0.,0.,1.));
#971=DIRECTION('ref_axis',(1.,0.,0.));
#972=DIRECTION('center_axis',(0.,1.,0.));
#973=DIRECTION('ref_axis',(1.,0.,0.));
#974=DIRECTION('center_axis',(0.,0.,1.));
#975=DIRECTION('ref_axis',(-0.707106781186547,-0.707106781186547,0.));
#976=DIRECTION('center_axis',(1.,0.,0.));
#977=DIRECTION('ref_axis',(0.,0.,-1.));
#978=DIRECTION('center_axis',(0.,0.,1.));
#979=DIRECTION('ref_axis',(-0.707106781186548,-0.707106781186548,0.));
#980=DIRECTION('center_axis',(-1.,0.,0.));
#981=DIRECTION('ref_axis',(0.,0.707106781186547,-0.707106781186547));
#982=DIRECTION('center_axis',(1.,0.,0.));
#983=DIRECTION('ref_axis',(0.,0.,-1.));
#984=DIRECTION('',(1.,0.,0.));
#985=DIRECTION('',(-1.,0.,0.));
#986=DIRECTION('center_axis',(0.,0.,1.));
#987=DIRECTION('ref_axis',(1.,0.,0.));
#988=DIRECTION('center_axis',(0.,0.,1.));
#989=DIRECTION('ref_axis',(0.707106781186547,-0.707106781186547,0.));
#990=DIRECTION('center_axis',(0.,1.,0.));
#991=DIRECTION('ref_axis',(0.,0.,-1.));
#992=DIRECTION('center_axis',(0.,0.,1.));
#993=DIRECTION('ref_axis',(0.707106781186548,-0.707106781186548,0.));
#994=DIRECTION('center_axis',(0.,-1.,0.));
#995=DIRECTION('ref_axis',(-0.707106781186547,0.,-0.707106781186547));
#996=DIRECTION('center_axis',(0.,1.,0.));
#997=DIRECTION('ref_axis',(0.,0.,-1.));
#998=DIRECTION('',(0.,1.,0.));
#999=DIRECTION('',(0.,-1.,0.));
#1000=DIRECTION('center_axis',(0.,0.,1.));
#1001=DIRECTION('ref_axis',(1.,0.,0.));
#1002=DIRECTION('center_axis',(0.,0.,1.));
#1003=DIRECTION('ref_axis',(0.707106781186547,0.707106781186547,0.));
#1004=DIRECTION('center_axis',(-1.,0.,0.));
#1005=DIRECTION('ref_axis',(0.,0.,-1.));
#1006=DIRECTION('center_axis',(0.,0.,1.));
#1007=DIRECTION('ref_axis',(0.707106781186548,0.707106781186548,0.));
#1008=DIRECTION('center_axis',(1.,0.,0.));
#1009=DIRECTION('ref_axis',(0.,-0.707106781186547,-0.707106781186547));
#1010=DIRECTION('center_axis',(-1.,0.,0.));
#1011=DIRECTION('ref_axis',(0.,0.,-1.));
#1012=DIRECTION('',(-1.,0.,0.));
#1013=DIRECTION('',(1.,0.,0.));
#1014=DIRECTION('center_axis',(0.,0.,1.));
#1015=DIRECTION('ref_axis',(1.,0.,0.));
#1016=DIRECTION('center_axis',(0.,0.,1.));
#1017=DIRECTION('ref_axis',(-0.707106781186548,0.707106781186547,0.));
#1018=DIRECTION('center_axis',(0.,-1.,0.));
#1019=DIRECTION('ref_axis',(2.96059473233375E-15,0.,-1.));
#1020=DIRECTION('center_axis',(0.,0.,1.));
#1021=DIRECTION('ref_axis',(-0.707106781186548,0.707106781186547,0.));
#1022=DIRECTION('center_axis',(0.,1.,0.));
#1023=DIRECTION('ref_axis',(0.707106781186549,0.,-0.707106781186546));
#1024=DIRECTION('',(0.,-1.,0.));
#1025=DIRECTION('',(0.,1.,0.));
#1026=DIRECTION('center_axis',(0.,0.,1.));
#1027=DIRECTION('ref_axis',(1.,0.,0.));
#1028=DIRECTION('',(0.,1.,0.));
#1029=DIRECTION('center_axis',(0.,0.,-1.));
#1030=DIRECTION('ref_axis',(-0.707106781186548,-0.707106781186548,0.));
#1031=DIRECTION('',(-1.,0.,0.));
#1032=DIRECTION('center_axis',(0.,0.,1.));
#1033=DIRECTION('ref_axis',(1.,0.,0.));
#1034=DIRECTION('',(-1.,0.,0.));
#1035=DIRECTION('center_axis',(0.,0.,-1.));
#1036=DIRECTION('ref_axis',(0.707106781186548,-0.707106781186548,0.));
#1037=DIRECTION('',(0.,-1.,0.));
#1038=DIRECTION('center_axis',(0.,0.,1.));
#1039=DIRECTION('ref_axis',(1.,0.,0.));
#1040=DIRECTION('',(1.,0.,0.));
#1041=DIRECTION('center_axis',(0.,0.,-1.));
#1042=DIRECTION('ref_axis',(-0.707106781186548,0.707106781186548,0.));
#1043=DIRECTION('',(0.,1.,0.));
#1044=DIRECTION('center_axis',(-1.,0.,0.));
#1045=DIRECTION('ref_axis',(0.,-1.,0.));
#1046=DIRECTION('',(0.,-1.,0.));
#1047=DIRECTION('',(0.,0.,1.));
#1048=DIRECTION('',(0.,-1.,0.));
#1049=DIRECTION('',(0.,0.,1.));
#1050=DIRECTION('center_axis',(0.,1.,0.));
#1051=DIRECTION('ref_axis',(-1.,0.,0.));
#1052=DIRECTION('',(-1.,0.,0.));
#1053=DIRECTION('',(-1.,0.,0.));
#1054=DIRECTION('',(0.,0.,1.));
#1055=DIRECTION('center_axis',(1.,0.,0.));
#1056=DIRECTION('ref_axis',(0.,1.,0.));
#1057=DIRECTION('',(0.,1.,0.));
#1058=DIRECTION('',(0.,1.,0.));
#1059=DIRECTION('',(0.,0.,1.));
#1060=DIRECTION('center_axis',(0.,-1.,0.));
#1061=DIRECTION('ref_axis',(1.,0.,0.));
#1062=DIRECTION('',(1.,0.,0.));
#1063=DIRECTION('',(1.,0.,0.));
#1064=DIRECTION('center_axis',(0.,0.,1.));
#1065=DIRECTION('ref_axis',(1.,0.,0.));
#1066=DIRECTION('center_axis',(1.,0.,0.));
#1067=DIRECTION('ref_axis',(0.,1.,0.));
#1068=DIRECTION('',(0.,1.,0.));
#1069=DIRECTION('',(0.,0.,1.));
#1070=DIRECTION('',(0.,1.,0.));
#1071=DIRECTION('',(0.,0.,1.));
#1072=DIRECTION('center_axis',(0.,-1.,0.));
#1073=DIRECTION('ref_axis',(1.,0.,0.));
#1074=DIRECTION('',(1.,0.,0.));
#1075=DIRECTION('',(1.,0.,0.));
#1076=DIRECTION('',(0.,0.,1.));
#1077=DIRECTION('center_axis',(-1.,0.,0.));
#1078=DIRECTION('ref_axis',(0.,-1.,0.));
#1079=DIRECTION('',(0.,-1.,0.));
#1080=DIRECTION('',(0.,-1.,0.));
#1081=DIRECTION('',(0.,0.,1.));
#1082=DIRECTION('center_axis',(0.,1.,0.));
#1083=DIRECTION('ref_axis',(-1.,0.,0.));
#1084=DIRECTION('',(-1.,0.,0.));
#1085=DIRECTION('',(-1.,0.,0.));
#1086=DIRECTION('center_axis',(0.,0.,1.));
#1087=DIRECTION('ref_axis',(1.,0.,0.));
#1088=DIRECTION('center_axis',(0.,-1.,0.));
#1089=DIRECTION('ref_axis',(1.,0.,0.));
#1090=DIRECTION('center_axis',(1.,0.,0.));
#1091=DIRECTION('ref_axis',(0.,0.,1.));
#1092=DIRECTION('center_axis',(0.,0.,1.));
#1093=DIRECTION('ref_axis',(0.707106781186548,-0.707106781186548,0.));
#1094=DIRECTION('center_axis',(1.,0.,0.));
#1095=DIRECTION('ref_axis',(0.,-0.707106781186546,0.707106781186549));
#1096=DIRECTION('center_axis',(1.,0.,0.));
#1097=DIRECTION('ref_axis',(0.,0.,1.));
#1098=DIRECTION('',(1.,0.,0.));
#1099=DIRECTION('center_axis',(0.,-1.,0.));
#1100=DIRECTION('ref_axis',(0.,0.,1.));
#1101=DIRECTION('center_axis',(0.,0.,1.));
#1102=DIRECTION('ref_axis',(-0.707106781186548,-0.707106781186548,0.));
#1103=DIRECTION('center_axis',(0.,-1.,0.));
#1104=DIRECTION('ref_axis',(-0.707106781186546,0.,0.707106781186549));
#1105=DIRECTION('center_axis',(0.,-1.,0.));
#1106=DIRECTION('ref_axis',(0.,0.,1.));
#1107=DIRECTION('',(0.,-1.,0.));
#1108=DIRECTION('center_axis',(-1.,0.,0.));
#1109=DIRECTION('ref_axis',(0.,0.,1.));
#1110=DIRECTION('center_axis',(0.,0.,1.));
#1111=DIRECTION('ref_axis',(-0.707106781186548,0.707106781186548,0.));
#1112=DIRECTION('center_axis',(-1.,0.,0.));
#1113=DIRECTION('ref_axis',(0.,0.707106781186546,0.707106781186549));
#1114=DIRECTION('center_axis',(-1.,0.,0.));
#1115=DIRECTION('ref_axis',(0.,0.,1.));
#1116=DIRECTION('',(-1.,0.,0.));
#1117=DIRECTION('',(1.,0.,0.));
#1118=DIRECTION('center_axis',(0.,1.,0.));
#1119=DIRECTION('ref_axis',(0.,0.,1.));
#1120=DIRECTION('center_axis',(0.,0.,1.));
#1121=DIRECTION('ref_axis',(0.707106781186548,0.707106781186548,0.));
#1122=DIRECTION('center_axis',(0.,0.,-1.));
#1123=DIRECTION('ref_axis',(0.707106781186548,0.707106781186548,0.));
#1124=DIRECTION('center_axis',(0.,1.,0.));
#1125=DIRECTION('ref_axis',(0.707106781186546,0.,0.707106781186549));
#1126=DIRECTION('',(0.,-1.,0.));
#1127=DIRECTION('',(0.,1.,0.));
#1128=DIRECTION('center_axis',(0.,1.,0.));
#1129=DIRECTION('ref_axis',(-1.,0.,0.));
#1130=DIRECTION('',(0.,0.,1.));
#1131=DIRECTION('',(-1.,0.,0.));
#1132=DIRECTION('',(0.,0.,-1.));
#1133=DIRECTION('center_axis',(0.,0.,1.));
#1134=DIRECTION('ref_axis',(0.707106781186548,0.707106781186548,0.));
#1135=DIRECTION('',(0.,0.,-1.));
#1136=DIRECTION('center_axis',(0.,0.,1.));
#1137=DIRECTION('ref_axis',(0.707106781186548,0.707106781186548,0.));
#1138=DIRECTION('center_axis',(1.,0.,0.));
#1139=DIRECTION('ref_axis',(0.,1.,0.));
#1140=DIRECTION('',(0.,0.,1.));
#1141=DIRECTION('',(0.,1.,0.));
#1142=DIRECTION('center_axis',(0.,0.,1.));
#1143=DIRECTION('ref_axis',(0.707106781186548,-0.707106781186548,0.));
#1144=DIRECTION('',(0.,0.,-1.));
#1145=DIRECTION('center_axis',(0.,0.,1.));
#1146=DIRECTION('ref_axis',(0.707106781186548,-0.707106781186548,0.));
#1147=DIRECTION('center_axis',(0.,0.,1.));
#1148=DIRECTION('ref_axis',(1.,0.,0.));
#1149=DIRECTION('center_axis',(0.,0.,-1.));
#1150=DIRECTION('ref_axis',(-1.,0.,0.));
#1151=DIRECTION('center_axis',(0.,-1.,0.));
#1152=DIRECTION('ref_axis',(1.,0.,0.));
#1153=DIRECTION('center_axis',(0.,0.,-1.));
#1154=DIRECTION('ref_axis',(0.707106781186548,-0.707106781186548,0.));
#1155=DIRECTION('center_axis',(1.,0.,0.));
#1156=DIRECTION('ref_axis',(0.,0.,1.));
#1157=DIRECTION('center_axis',(1.,0.,0.));
#1158=DIRECTION('ref_axis',(0.,-0.707106781186551,0.707106781186544));
#1159=DIRECTION('center_axis',(1.,0.,0.));
#1160=DIRECTION('ref_axis',(0.,0.,1.));
#1161=DIRECTION('',(-1.,0.,0.));
#1162=DIRECTION('center_axis',(0.,0.,-1.));
#1163=DIRECTION('ref_axis',(-1.,0.,0.));
#1164=DIRECTION('center_axis',(0.,-1.,0.));
#1165=DIRECTION('ref_axis',(0.,0.,1.));
#1166=DIRECTION('center_axis',(0.,0.,-1.));
#1167=DIRECTION('ref_axis',(-0.707106781186548,-0.707106781186548,0.));
#1168=DIRECTION('center_axis',(0.,-1.,0.));
#1169=DIRECTION('ref_axis',(-0.707106781186548,0.,0.707106781186548));
#1170=DIRECTION('center_axis',(0.,-1.,0.));
#1171=DIRECTION('ref_axis',(0.,0.,1.));
#1172=DIRECTION('',(0.,1.,0.));
#1173=DIRECTION('center_axis',(0.,0.,-1.));
#1174=DIRECTION('ref_axis',(-1.,0.,0.));
#1175=DIRECTION('center_axis',(-1.,0.,0.));
#1176=DIRECTION('ref_axis',(0.,0.,1.));
#1177=DIRECTION('center_axis',(0.,0.,-1.));
#1178=DIRECTION('ref_axis',(-0.707106781186548,0.707106781186547,0.));
#1179=DIRECTION('center_axis',(-1.,0.,0.));
#1180=DIRECTION('ref_axis',(0.,0.707106781186551,0.707106781186544));
#1181=DIRECTION('center_axis',(-1.,0.,0.));
#1182=DIRECTION('ref_axis',(0.,0.,1.));
#1183=DIRECTION('',(1.,0.,0.));
#1184=DIRECTION('center_axis',(0.,0.,-1.));
#1185=DIRECTION('ref_axis',(-1.,0.,0.));
#1186=DIRECTION('center_axis',(0.,1.,0.));
#1187=DIRECTION('ref_axis',(0.,0.,1.));
#1188=DIRECTION('center_axis',(0.,0.,-1.));
#1189=DIRECTION('ref_axis',(0.707106781186548,0.707106781186548,0.));
#1190=DIRECTION('center_axis',(0.,1.,0.));
#1191=DIRECTION('ref_axis',(0.707106781186551,0.,0.707106781186544));
#1192=DIRECTION('',(0.,-1.,0.));
#1193=DIRECTION('center_axis',(0.,0.,1.));
#1194=DIRECTION('ref_axis',(1.,0.,0.));
#1195=DIRECTION('center_axis',(0.,0.,1.));
#1196=DIRECTION('ref_axis',(-0.707106781186548,0.707106781186548,0.));
#1197=DIRECTION('center_axis',(0.,0.,1.));
#1198=DIRECTION('ref_axis',(-0.707106781186548,0.707106781186548,0.));
#1199=DIRECTION('',(0.,0.,1.));
#1200=DIRECTION('center_axis',(0.,-1.,0.));
#1201=DIRECTION('ref_axis',(1.,0.,0.));
#1202=DIRECTION('',(0.,0.,1.));
#1203=DIRECTION('',(1.,0.,0.));
#1204=DIRECTION('center_axis',(0.,0.,1.));
#1205=DIRECTION('ref_axis',(-0.707106781186548,-0.707106781186548,0.));
#1206=DIRECTION('',(0.,0.,-1.));
#1207=DIRECTION('center_axis',(0.,0.,1.));
#1208=DIRECTION('ref_axis',(-0.707106781186548,-0.707106781186548,0.));
#1209=DIRECTION('center_axis',(-1.,0.,0.));
#1210=DIRECTION('ref_axis',(0.,-1.,0.));
#1211=DIRECTION('',(0.,-1.,0.));
#1212=DIRECTION('center_axis',(0.,0.,1.));
#1213=DIRECTION('ref_axis',(-1.,0.,0.));
#1214=DIRECTION('',(0.,1.,0.));
#1215=DIRECTION('',(1.,0.,0.));
#1216=DIRECTION('',(0.,-1.,0.));
#1217=DIRECTION('',(-1.,0.,0.));
#1218=DIRECTION('center_axis',(1.,0.,0.));
#1219=DIRECTION('ref_axis',(0.,1.,0.));
#1220=DIRECTION('',(0.,1.,0.));
#1221=DIRECTION('',(0.,0.,1.));
#1222=DIRECTION('',(0.,0.,1.));
#1223=DIRECTION('center_axis',(0.,1.,0.));
#1224=DIRECTION('ref_axis',(-1.,0.,0.));
#1225=DIRECTION('',(-1.,0.,0.));
#1226=DIRECTION('',(0.,0.,1.));
#1227=DIRECTION('center_axis',(-1.,0.,0.));
#1228=DIRECTION('ref_axis',(0.,-1.,0.));
#1229=DIRECTION('',(0.,-1.,0.));
#1230=DIRECTION('',(0.,0.,1.));
#1231=DIRECTION('center_axis',(0.,-1.,0.));
#1232=DIRECTION('ref_axis',(1.,0.,0.));
#1233=DIRECTION('',(1.,0.,0.));
#1234=DIRECTION('center_axis',(0.,0.,1.));
#1235=DIRECTION('ref_axis',(1.,0.,0.));
#1236=CARTESIAN_POINT('',(0.,0.,0.));
#1237=CARTESIAN_POINT('Origin',(-5.275,-5.275,5.75));
#1238=CARTESIAN_POINT('',(-8.275,-5.275,5.75));
#1239=CARTESIAN_POINT('',(-9.025,-5.275,5.));
#1240=CARTESIAN_POINT('Origin',(-9.025,-5.275,5.75));
#1241=CARTESIAN_POINT('',(-5.275,-9.025,5.));
#1242=CARTESIAN_POINT('Origin',(-5.275,-5.275,5.));
#1243=CARTESIAN_POINT('',(-5.275,-8.275,5.75));
#1244=CARTESIAN_POINT('Origin',(-5.275,-9.025,5.75));
#1245=CARTESIAN_POINT('Origin',(-5.275,-5.275,5.75));
#1246=CARTESIAN_POINT('Origin',(-4.1375,-9.025,5.75));
#1247=CARTESIAN_POINT('',(5.275,-9.025,5.));
#1248=CARTESIAN_POINT('',(5.275,-8.275,5.75));
#1249=CARTESIAN_POINT('Origin',(5.275,-9.025,5.75));
#1250=CARTESIAN_POINT('',(-4.1375,-8.275,5.75));
#1251=CARTESIAN_POINT('',(-4.6375,-9.025,5.));
#1252=CARTESIAN_POINT('Origin',(5.275,-5.275,5.75));
#1253=CARTESIAN_POINT('',(9.025,-5.275,5.));
#1254=CARTESIAN_POINT('Origin',(5.275,-5.275,5.));
#1255=CARTESIAN_POINT('',(8.275,-5.275,5.75));
#1256=CARTESIAN_POINT('Origin',(9.025,-5.275,5.75));
#1257=CARTESIAN_POINT('Origin',(5.275,-5.275,5.75));
#1258=CARTESIAN_POINT('Origin',(9.025,-4.1375,5.75));
#1259=CARTESIAN_POINT('',(9.025,5.275,5.));
#1260=CARTESIAN_POINT('',(8.275,5.275,5.75));
#1261=CARTESIAN_POINT('Origin',(9.025,5.275,5.75));
#1262=CARTESIAN_POINT('',(8.275,-4.1375,5.75));
#1263=CARTESIAN_POINT('',(9.025,-4.6375,5.));
#1264=CARTESIAN_POINT('Origin',(5.275,5.275,5.75));
#1265=CARTESIAN_POINT('',(5.275,9.025,5.));
#1266=CARTESIAN_POINT('Origin',(5.275,5.275,5.));
#1267=CARTESIAN_POINT('',(5.275,8.275,5.75));
#1268=CARTESIAN_POINT('Origin',(5.275,9.025,5.75));
#1269=CARTESIAN_POINT('Origin',(5.275,5.275,5.75));
#1270=CARTESIAN_POINT('Origin',(4.1375,9.025,5.75));
#1271=CARTESIAN_POINT('',(-5.275,9.025,5.));
#1272=CARTESIAN_POINT('',(-5.275,8.275,5.75));
#1273=CARTESIAN_POINT('Origin',(-5.275,9.025,5.75));
#1274=CARTESIAN_POINT('',(4.1375,8.275,5.75));
#1275=CARTESIAN_POINT('',(4.6375,9.025,5.));
#1276=CARTESIAN_POINT('Origin',(-5.275,5.275,5.75));
#1277=CARTESIAN_POINT('',(-9.025,5.275,5.));
#1278=CARTESIAN_POINT('Origin',(-5.275,5.275,5.));
#1279=CARTESIAN_POINT('',(-8.275,5.275,5.75));
#1280=CARTESIAN_POINT('Origin',(-9.025,5.275,5.75));
#1281=CARTESIAN_POINT('Origin',(-5.275,5.275,5.75));
#1282=CARTESIAN_POINT('Origin',(-9.025,4.1375,5.75));
#1283=CARTESIAN_POINT('',(-8.275,4.1375,5.75));
#1284=CARTESIAN_POINT('',(-9.025,4.6375,5.));
#1285=CARTESIAN_POINT('Origin',(1.11022302462516E-15,0.,5.));
#1286=CARTESIAN_POINT('',(-9.025,-8.775,5.));
#1287=CARTESIAN_POINT('',(-9.025,4.6375,5.));
#1288=CARTESIAN_POINT('',(-8.775,-9.025,5.));
#1289=CARTESIAN_POINT('Origin',(-8.775,-8.775,5.));
#1290=CARTESIAN_POINT('',(-4.6375,-9.025,5.));
#1291=CARTESIAN_POINT('Origin',(1.11022302462516E-15,0.,5.));
#1292=CARTESIAN_POINT('',(8.775,-9.025,5.));
#1293=CARTESIAN_POINT('',(-4.6375,-9.025,5.));
#1294=CARTESIAN_POINT('',(9.025,-8.775,5.));
#1295=CARTESIAN_POINT('Origin',(8.775,-8.775,5.));
#1296=CARTESIAN_POINT('',(9.025,-4.6375,5.));
#1297=CARTESIAN_POINT('Origin',(1.11022302462516E-15,0.,5.));
#1298=CARTESIAN_POINT('',(-8.775,9.025,5.));
#1299=CARTESIAN_POINT('',(4.6375,9.025,5.));
#1300=CARTESIAN_POINT('',(-9.025,8.775,5.));
#1301=CARTESIAN_POINT('Origin',(-8.775,8.775,5.));
#1302=CARTESIAN_POINT('',(-9.025,4.6375,5.));
#1303=CARTESIAN_POINT('Origin',(-3.425,1.475,0.));
#1304=CARTESIAN_POINT('',(-3.425,1.475,0.));
#1305=CARTESIAN_POINT('',(-3.425,-1.475,0.));
#1306=CARTESIAN_POINT('',(-3.425,1.475,0.));
#1307=CARTESIAN_POINT('',(-3.425,-1.475,3.));
#1308=CARTESIAN_POINT('',(-3.425,-1.475,0.));
#1309=CARTESIAN_POINT('',(-3.425,1.475,3.));
#1310=CARTESIAN_POINT('',(-3.425,0.7375,3.));
#1311=CARTESIAN_POINT('',(-3.425,1.475,0.));
#1312=CARTESIAN_POINT('Origin',(-2.275,1.475,0.));
#1313=CARTESIAN_POINT('',(-2.275,1.475,0.));
#1314=CARTESIAN_POINT('',(-2.275,1.475,0.));
#1315=CARTESIAN_POINT('',(-2.275,1.475,3.));
#1316=CARTESIAN_POINT('',(-1.1375,1.475,3.));
#1317=CARTESIAN_POINT('',(-2.275,1.475,0.));
#1318=CARTESIAN_POINT('Origin',(-2.275,-1.475,0.));
#1319=CARTESIAN_POINT('',(-2.275,-1.475,0.));
#1320=CARTESIAN_POINT('',(-2.275,-1.475,0.));
#1321=CARTESIAN_POINT('',(-2.275,-1.475,3.));
#1322=CARTESIAN_POINT('',(-2.275,-0.7375,3.));
#1323=CARTESIAN_POINT('',(-2.275,-1.475,0.));
#1324=CARTESIAN_POINT('Origin',(-3.425,-1.475,0.));
#1325=CARTESIAN_POINT('',(-3.425,-1.475,0.));
#1326=CARTESIAN_POINT('',(-1.7125,-1.475,3.));
#1327=CARTESIAN_POINT('Origin',(-2.85,0.,0.));
#1328=CARTESIAN_POINT('Origin',(3.425,-1.425,0.));
#1329=CARTESIAN_POINT('',(3.425,-1.425,0.));
#1330=CARTESIAN_POINT('',(3.425,1.425,0.));
#1331=CARTESIAN_POINT('',(3.425,-1.425,0.));
#1332=CARTESIAN_POINT('',(3.425,1.425,3.));
#1333=CARTESIAN_POINT('',(3.425,1.425,0.));
#1334=CARTESIAN_POINT('',(3.425,-1.425,3.));
#1335=CARTESIAN_POINT('',(3.425,-0.7125,3.));
#1336=CARTESIAN_POINT('',(3.425,-1.425,0.));
#1337=CARTESIAN_POINT('Origin',(2.275,-1.425,0.));
#1338=CARTESIAN_POINT('',(2.275,-1.425,0.));
#1339=CARTESIAN_POINT('',(2.275,-1.425,0.));
#1340=CARTESIAN_POINT('',(2.275,-1.425,3.));
#1341=CARTESIAN_POINT('',(1.1375,-1.425,3.));
#1342=CARTESIAN_POINT('',(2.275,-1.425,0.));
#1343=CARTESIAN_POINT('Origin',(2.275,1.425,0.));
#1344=CARTESIAN_POINT('',(2.275,1.425,0.));
#1345=CARTESIAN_POINT('',(2.275,1.425,0.));
#1346=CARTESIAN_POINT('',(2.275,1.425,3.));
#1347=CARTESIAN_POINT('',(2.275,0.7125,3.));
#1348=CARTESIAN_POINT('',(2.275,1.425,0.));
#1349=CARTESIAN_POINT('Origin',(3.425,1.425,0.));
#1350=CARTESIAN_POINT('',(3.425,1.425,0.));
#1351=CARTESIAN_POINT('',(1.7125,1.425,3.));
#1352=CARTESIAN_POINT('Origin',(2.85,0.,0.));
#1353=CARTESIAN_POINT('Ctrl Pts',(9.025,-8.775,5.));
#1354=CARTESIAN_POINT('Ctrl Pts',(9.025,-9.025,5.));
#1355=CARTESIAN_POINT('Ctrl Pts',(8.775,-9.025,5.));
#1356=CARTESIAN_POINT('Ctrl Pts',(9.275,-8.775,5.));
#1357=CARTESIAN_POINT('Ctrl Pts',(9.275,-9.275,5.));
#1358=CARTESIAN_POINT('Ctrl Pts',(8.775,-9.275,5.));
#1359=CARTESIAN_POINT('Ctrl Pts',(9.275,-8.775,4.75));
#1360=CARTESIAN_POINT('Ctrl Pts',(9.275,-9.275,4.75));
#1361=CARTESIAN_POINT('Ctrl Pts',(8.775,-9.275,4.75));
#1362=CARTESIAN_POINT('',(9.275,-8.775,4.75));
#1363=CARTESIAN_POINT('Origin',(9.025,-8.775,4.75));
#1364=CARTESIAN_POINT('',(8.775,-9.275,4.75));
#1365=CARTESIAN_POINT('Origin',(8.775,-9.025,4.75));
#1366=CARTESIAN_POINT('Origin',(8.775,-8.775,4.75));
#1367=CARTESIAN_POINT('Origin',(-4.6375,-9.025,4.75));
#1368=CARTESIAN_POINT('',(-8.775,-9.275,4.75));
#1369=CARTESIAN_POINT('Origin',(-8.775,-9.025,4.75));
#1370=CARTESIAN_POINT('',(-4.6375,-9.275,4.75));
#1371=CARTESIAN_POINT('Ctrl Pts',(-8.775,-9.025,5.));
#1372=CARTESIAN_POINT('Ctrl Pts',(-9.025,-9.025,5.));
#1373=CARTESIAN_POINT('Ctrl Pts',(-9.025,-8.775,5.));
#1374=CARTESIAN_POINT('Ctrl Pts',(-8.775,-9.275,5.));
#1375=CARTESIAN_POINT('Ctrl Pts',(-9.275,-9.275,5.));
#1376=CARTESIAN_POINT('Ctrl Pts',(-9.275,-8.775,5.));
#1377=CARTESIAN_POINT('Ctrl Pts',(-8.775,-9.275,4.75));
#1378=CARTESIAN_POINT('Ctrl Pts',(-9.275,-9.275,4.75));
#1379=CARTESIAN_POINT('Ctrl Pts',(-9.275,-8.775,4.75));
#1380=CARTESIAN_POINT('',(-9.275,-8.775,4.75));
#1381=CARTESIAN_POINT('Origin',(-9.025,-8.775,4.75));
#1382=CARTESIAN_POINT('Origin',(-8.775,-8.775,4.75));
#1383=CARTESIAN_POINT('Origin',(-9.025,4.6375,4.75));
#1384=CARTESIAN_POINT('',(-9.275,8.775,4.75));
#1385=CARTESIAN_POINT('Origin',(-9.025,8.775,4.75));
#1386=CARTESIAN_POINT('',(-9.275,4.6375,4.75));
#1387=CARTESIAN_POINT('Ctrl Pts',(-9.025,8.775,5.));
#1388=CARTESIAN_POINT('Ctrl Pts',(-9.025,9.025,5.));
#1389=CARTESIAN_POINT('Ctrl Pts',(-8.775,9.025,5.));
#1390=CARTESIAN_POINT('Ctrl Pts',(-9.275,8.775,5.));
#1391=CARTESIAN_POINT('Ctrl Pts',(-9.275,9.275,5.));
#1392=CARTESIAN_POINT('Ctrl Pts',(-8.775,9.275,5.));
#1393=CARTESIAN_POINT('Ctrl Pts',(-9.275,8.775,4.75));
#1394=CARTESIAN_POINT('Ctrl Pts',(-9.275,9.275,4.75));
#1395=CARTESIAN_POINT('Ctrl Pts',(-8.775,9.275,4.75));
#1396=CARTESIAN_POINT('',(-8.775,9.275,4.75));
#1397=CARTESIAN_POINT('Origin',(-8.775,9.025,4.75));
#1398=CARTESIAN_POINT('Origin',(-8.775,8.775,4.75));
#1399=CARTESIAN_POINT('Origin',(4.6375,9.025,4.75));
#1400=CARTESIAN_POINT('',(8.775,9.025,5.));
#1401=CARTESIAN_POINT('',(8.775,9.275,4.75));
#1402=CARTESIAN_POINT('Origin',(8.775,9.025,4.75));
#1403=CARTESIAN_POINT('',(4.6375,9.275,4.75));
#1404=CARTESIAN_POINT('',(4.6375,9.025,5.));
#1405=CARTESIAN_POINT('Ctrl Pts',(8.775,9.025,5.));
#1406=CARTESIAN_POINT('Ctrl Pts',(9.025,9.025,5.));
#1407=CARTESIAN_POINT('Ctrl Pts',(9.025,8.775,5.));
#1408=CARTESIAN_POINT('Ctrl Pts',(8.775,9.275,5.));
#1409=CARTESIAN_POINT('Ctrl Pts',(9.275,9.275,5.));
#1410=CARTESIAN_POINT('Ctrl Pts',(9.275,8.775,5.));
#1411=CARTESIAN_POINT('Ctrl Pts',(8.775,9.275,4.75));
#1412=CARTESIAN_POINT('Ctrl Pts',(9.275,9.275,4.75));
#1413=CARTESIAN_POINT('Ctrl Pts',(9.275,8.775,4.75));
#1414=CARTESIAN_POINT('',(9.025,8.775,5.));
#1415=CARTESIAN_POINT('',(9.275,8.775,4.75));
#1416=CARTESIAN_POINT('Origin',(9.025,8.775,4.75));
#1417=CARTESIAN_POINT('Origin',(8.775,8.775,4.75));
#1418=CARTESIAN_POINT('Origin',(8.775,8.775,5.));
#1419=CARTESIAN_POINT('Origin',(9.025,-4.6375,4.75));
#1420=CARTESIAN_POINT('',(9.025,-4.6375,5.));
#1421=CARTESIAN_POINT('',(9.275,-4.6375,4.75));
#1422=CARTESIAN_POINT('Origin',(9.275,9.275,0.));
#1423=CARTESIAN_POINT('',(8.775,9.275,0.));
#1424=CARTESIAN_POINT('',(8.775,9.275,0.));
#1425=CARTESIAN_POINT('',(-8.775,9.275,0.));
#1426=CARTESIAN_POINT('',(9.275,9.275,0.));
#1427=CARTESIAN_POINT('',(-8.775,9.275,0.));
#1428=CARTESIAN_POINT('Origin',(8.775,8.775,0.));
#1429=CARTESIAN_POINT('',(9.275,8.775,0.));
#1430=CARTESIAN_POINT('',(9.275,8.775,0.));
#1431=CARTESIAN_POINT('Origin',(8.775,8.775,0.));
#1432=CARTESIAN_POINT('Origin',(9.275,-9.275,0.));
#1433=CARTESIAN_POINT('',(9.275,-8.775,0.));
#1434=CARTESIAN_POINT('',(9.275,-8.775,0.));
#1435=CARTESIAN_POINT('',(9.275,-9.275,0.));
#1436=CARTESIAN_POINT('Origin',(8.775,-8.775,0.));
#1437=CARTESIAN_POINT('',(8.775,-9.275,0.));
#1438=CARTESIAN_POINT('',(8.775,-9.275,0.));
#1439=CARTESIAN_POINT('Origin',(8.775,-8.775,0.));
#1440=CARTESIAN_POINT('Origin',(1.11022302462516E-15,0.,5.));
#1441=CARTESIAN_POINT('Origin',(5.275,-5.275,5.75));
#1442=CARTESIAN_POINT('',(8.025,-5.275,6.));
#1443=CARTESIAN_POINT('Origin',(8.025,-5.275,5.75));
#1444=CARTESIAN_POINT('',(5.275,-8.025,6.));
#1445=CARTESIAN_POINT('Origin',(5.275,-5.275,6.));
#1446=CARTESIAN_POINT('Origin',(5.275,-8.025,5.75));
#1447=CARTESIAN_POINT('Origin',(-4.1375,-8.025,5.75));
#1448=CARTESIAN_POINT('',(-5.275,-8.025,6.));
#1449=CARTESIAN_POINT('Origin',(-5.275,-8.025,5.75));
#1450=CARTESIAN_POINT('',(-4.1375,-8.025,6.));
#1451=CARTESIAN_POINT('Origin',(-5.275,-5.275,5.75));
#1452=CARTESIAN_POINT('',(-8.025,-5.275,6.));
#1453=CARTESIAN_POINT('Origin',(-8.025,-5.275,5.75));
#1454=CARTESIAN_POINT('Origin',(-5.275,-5.275,6.));
#1455=CARTESIAN_POINT('Origin',(-8.025,4.1375,5.75));
#1456=CARTESIAN_POINT('',(-8.025,5.275,6.));
#1457=CARTESIAN_POINT('Origin',(-8.025,5.275,5.75));
#1458=CARTESIAN_POINT('',(-8.025,4.1375,6.));
#1459=CARTESIAN_POINT('Origin',(-5.275,5.275,5.75));
#1460=CARTESIAN_POINT('',(-5.275,8.025,6.));
#1461=CARTESIAN_POINT('Origin',(-5.275,8.025,5.75));
#1462=CARTESIAN_POINT('Origin',(-5.275,5.275,6.));
#1463=CARTESIAN_POINT('Origin',(4.1375,8.025,5.75));
#1464=CARTESIAN_POINT('',(5.275,8.025,6.));
#1465=CARTESIAN_POINT('Origin',(5.275,8.025,5.75));
#1466=CARTESIAN_POINT('',(4.1375,8.025,6.));
#1467=CARTESIAN_POINT('Origin',(5.275,5.275,5.75));
#1468=CARTESIAN_POINT('',(8.025,5.275,6.));
#1469=CARTESIAN_POINT('Origin',(8.025,5.275,5.75));
#1470=CARTESIAN_POINT('Origin',(5.275,5.275,6.));
#1471=CARTESIAN_POINT('Origin',(8.025,-4.1375,5.75));
#1472=CARTESIAN_POINT('',(8.025,-4.1375,6.));
#1473=CARTESIAN_POINT('Origin',(0.,0.,6.));
#1474=CARTESIAN_POINT('Origin',(-8.775,8.775,0.));
#1475=CARTESIAN_POINT('',(-9.275,8.775,0.));
#1476=CARTESIAN_POINT('Origin',(-8.775,8.775,0.));
#1477=CARTESIAN_POINT('',(-9.275,8.775,0.));
#1478=CARTESIAN_POINT('Origin',(-9.275,-9.275,0.));
#1479=CARTESIAN_POINT('',(-8.775,-9.275,0.));
#1480=CARTESIAN_POINT('',(-8.775,-9.275,0.));
#1481=CARTESIAN_POINT('',(-9.275,-9.275,0.));
#1482=CARTESIAN_POINT('Origin',(-8.775,-8.775,0.));
#1483=CARTESIAN_POINT('',(-9.275,-8.775,0.));
#1484=CARTESIAN_POINT('',(-9.275,-8.775,0.));
#1485=CARTESIAN_POINT('Origin',(-8.775,-8.775,0.));
#1486=CARTESIAN_POINT('Origin',(-9.275,9.275,0.));
#1487=CARTESIAN_POINT('',(-9.275,9.275,0.));
#1488=CARTESIAN_POINT('Origin',(1.11022302462516E-15,0.,3.));
#1489=CARTESIAN_POINT('',(-8.275,-8.275,3.));
#1490=CARTESIAN_POINT('',(-8.275,8.275,3.));
#1491=CARTESIAN_POINT('',(-8.275,8.275,3.));
#1492=CARTESIAN_POINT('',(8.275,8.275,3.));
#1493=CARTESIAN_POINT('',(8.275,8.275,3.));
#1494=CARTESIAN_POINT('',(8.275,-8.275,3.));
#1495=CARTESIAN_POINT('',(8.275,-8.275,3.));
#1496=CARTESIAN_POINT('',(-8.275,-8.275,3.));
#1497=CARTESIAN_POINT('Origin',(-8.275,-8.275,0.));
#1498=CARTESIAN_POINT('',(-8.275,-8.275,0.));
#1499=CARTESIAN_POINT('',(-8.275,8.275,0.));
#1500=CARTESIAN_POINT('',(-8.275,8.275,0.));
#1501=CARTESIAN_POINT('',(-8.275,8.275,0.));
#1502=CARTESIAN_POINT('',(-8.275,-8.275,0.));
#1503=CARTESIAN_POINT('Origin',(8.275,-8.275,0.));
#1504=CARTESIAN_POINT('',(8.275,-8.275,0.));
#1505=CARTESIAN_POINT('',(-8.275,-8.275,0.));
#1506=CARTESIAN_POINT('',(8.275,-8.275,0.));
#1507=CARTESIAN_POINT('Origin',(8.275,8.275,0.));
#1508=CARTESIAN_POINT('',(8.275,8.275,0.));
#1509=CARTESIAN_POINT('',(8.275,-8.275,0.));
#1510=CARTESIAN_POINT('',(8.275,8.275,0.));
#1511=CARTESIAN_POINT('Origin',(-8.275,8.275,0.));
#1512=CARTESIAN_POINT('',(8.275,8.275,0.));
#1513=CARTESIAN_POINT('Origin',(0.,0.,0.));
#1514=UNCERTAINTY_MEASURE_WITH_UNIT(LENGTH_MEASURE(0.01),#1518,
'DISTANCE_ACCURACY_VALUE',
'Maximum model space distance between geometric entities at asserted c
onnectivities');
#1515=UNCERTAINTY_MEASURE_WITH_UNIT(LENGTH_MEASURE(0.01),#1518,
'DISTANCE_ACCURACY_VALUE',
'Maximum model space distance between geometric entities at asserted c
onnectivities');
#1516=(
GEOMETRIC_REPRESENTATION_CONTEXT(3)
GLOBAL_UNCERTAINTY_ASSIGNED_CONTEXT((#1514))
GLOBAL_UNIT_ASSIGNED_CONTEXT((#1518,#1520,#1521))
REPRESENTATION_CONTEXT('','3D')
);
#1517=(
GEOMETRIC_REPRESENTATION_CONTEXT(3)
GLOBAL_UNCERTAINTY_ASSIGNED_CONTEXT((#1515))
GLOBAL_UNIT_ASSIGNED_CONTEXT((#1518,#1520,#1521))
REPRESENTATION_CONTEXT('','3D')
);
#1518=(
LENGTH_UNIT()
NAMED_UNIT(*)
SI_UNIT(.MILLI.,.METRE.)
);
#1519=(
LENGTH_UNIT()
NAMED_UNIT(*)
SI_UNIT($,.METRE.)
);
#1520=(
NAMED_UNIT(*)
PLANE_ANGLE_UNIT()
SI_UNIT($,.RADIAN.)
);
#1521=(
NAMED_UNIT(*)
SI_UNIT($,.STERADIAN.)
SOLID_ANGLE_UNIT()
);
#1522=SHAPE_DEFINITION_REPRESENTATION(#1523,#1524);
#1523=PRODUCT_DEFINITION_SHAPE('',$,#1526);
#1524=SHAPE_REPRESENTATION('',(#870),#1516);
#1525=PRODUCT_DEFINITION_CONTEXT('part definition',#1530,'design');
#1526=PRODUCT_DEFINITION('AltarCap','AltarCap v2',#1527,#1525);
#1527=PRODUCT_DEFINITION_FORMATION('',$,#1532);
#1528=PRODUCT_RELATED_PRODUCT_CATEGORY('AltarCap v2','AltarCap v2',(#1532));
#1529=APPLICATION_PROTOCOL_DEFINITION('international standard',
'ap242_managed_model_based_3d_engineering',2011,#1530);
#1530=APPLICATION_CONTEXT('Managed model based 3d engineering');
#1531=PRODUCT_CONTEXT('part definition',#1530,'mechanical');
#1532=PRODUCT('AltarCap','AltarCap v2',$,(#1531));
#1533=PRESENTATION_STYLE_ASSIGNMENT((#1534));
#1534=SURFACE_STYLE_USAGE(.BOTH.,#1535);
#1535=SURFACE_SIDE_STYLE('',(#1536));
#1536=SURFACE_STYLE_FILL_AREA(#1537);
#1537=FILL_AREA_STYLE('Steel - Satin',(#1538));
#1538=FILL_AREA_STYLE_COLOUR('Steel - Satin',#1539);
#1539=COLOUR_RGB('Steel - Satin',0.627450980392157,0.627450980392157,0.627450980392157);
ENDSEC;
END-ISO-10303-21;
