ISO-10303-21;
HEADER;
/* Generated by software containing ST-Developer
 * from STEP Tools, Inc. (www.steptools.com) 
 */

FILE_DESCRIPTION(
/* description */ ('',
'CAx-IF Rec.Pracs.---Representation and Presentation of Product Manufa
cturing Information (PMI)---4.0---2014-10-13'),
/* implementation_level */ '2;1');

FILE_NAME(
/* name */ 'OrthusKeycapAlt.step',
/* time_stamp */ '2025-08-30T14:42:42-07:00',
/* author */ (''),
/* organization */ (''),
/* preprocessor_version */ 'ST-DEVELOPER v20',
/* originating_system */ 'Autodesk Translation Framework v13.20.0.188',

/* authorisation */ '');

FILE_SCHEMA (('AP242_MANAGED_MODEL_BASED_3D_ENGINEERING_MIM_LF { 1 0 10303 442 1 1 4 }'));
ENDSEC;

DATA;
#10=MECHANICAL_DESIGN_GEOMETRIC_PRESENTATION_REPRESENTATION('',(#13),#1661);
#11=SHAPE_REPRESENTATION_RELATIONSHIP('SRR','None',#1668,#12);
#12=ADVANCED_BREP_SHAPE_REPRESENTATION('',(#14),#1660);
#13=STYLED_ITEM('',(#1677),#14);
#14=MANIFOLD_SOLID_BREP('Body2',#800);
#15=FACE_BOUND('',#129,.T.);
#16=FACE_BOUND('',#151,.T.);
#17=FACE_BOUND('',#152,.T.);
#18=PLANE('',#838);
#19=PLANE('',#841);
#20=PLANE('',#844);
#21=PLANE('',#847);
#22=PLANE('',#850);
#23=PLANE('',#855);
#24=PLANE('',#856);
#25=PLANE('',#857);
#26=PLANE('',#858);
#27=PLANE('',#859);
#28=PLANE('',#860);
#29=PLANE('',#861);
#30=PLANE('',#862);
#31=PLANE('',#863);
#32=PLANE('',#864);
#33=PLANE('',#865);
#34=PLANE('',#866);
#35=PLANE('',#869);
#36=PLANE('',#872);
#37=PLANE('',#875);
#38=PLANE('',#878);
#39=PLANE('',#879);
#40=ELLIPSE('',#819,0.250363000314611,0.25);
#41=ELLIPSE('',#820,0.500181598948356,0.5);
#42=ELLIPSE('',#824,0.25036300031461,0.25);
#43=ELLIPSE('',#825,0.500181598948356,0.5);
#44=ELLIPSE('',#830,0.25036300031461,0.25);
#45=ELLIPSE('',#831,0.500181598948356,0.5);
#46=ELLIPSE('',#835,0.25036300031461,0.25);
#47=ELLIPSE('',#836,0.500181598948356,0.5);
#48=B_SPLINE_SURFACE_WITH_KNOTS('',3,3,((#1175,#1176,#1177,#1178,#1179),
(#1180,#1181,#1182,#1183,#1184),(#1185,#1186,#1187,#1188,#1189),(#1190,
#1191,#1192,#1193,#1194),(#1195,#1196,#1197,#1198,#1199)),.UNSPECIFIED.,
 .F.,.F.,.F.,(4,1,4),(4,1,4),(0.,0.5,1.),(-1.57079632679489,-0.785398163397597,
-3.02585606185039E-13),.UNSPECIFIED.);
#49=B_SPLINE_SURFACE_WITH_KNOTS('',3,3,((#1211,#1212,#1213,#1214,#1215),
(#1216,#1217,#1218,#1219,#1220),(#1221,#1222,#1223,#1224,#1225),(#1226,
#1227,#1228,#1229,#1230),(#1231,#1232,#1233,#1234,#1235)),.UNSPECIFIED.,
 .F.,.F.,.F.,(4,1,4),(4,1,4),(0.,0.5,1.),(-2.34309320718193E-17,0.785398163397449,
1.5707963267949),.UNSPECIFIED.);
#50=B_SPLINE_SURFACE_WITH_KNOTS('',3,3,((#1262,#1263,#1264,#1265),(#1266,
#1267,#1268,#1269),(#1270,#1271,#1272,#1273),(#1274,#1275,#1276,#1277),
(#1278,#1279,#1280,#1281)),.UNSPECIFIED.,.F.,.F.,.F.,(4,1,4),(4,4),(0.,
0.5,1.),(-4.37851763112572E-17,0.71657045361654),.UNSPECIFIED.);
#51=B_SPLINE_SURFACE_WITH_KNOTS('',3,3,((#1295,#1296,#1297,#1298),(#1299,
#1300,#1301,#1302),(#1303,#1304,#1305,#1306),(#1307,#1308,#1309,#1310),
(#1311,#1312,#1313,#1314)),.UNSPECIFIED.,.F.,.F.,.F.,(4,1,4),(4,4),(0.,
0.5,1.),(0.,0.716570397981958),.UNSPECIFIED.);
#52=B_SPLINE_SURFACE_WITH_KNOTS('',3,3,((#1361,#1362,#1363,#1364),(#1365,
#1366,#1367,#1368),(#1369,#1370,#1371,#1372),(#1373,#1374,#1375,#1376),
(#1377,#1378,#1379,#1380)),.UNSPECIFIED.,.F.,.F.,.F.,(4,1,4),(4,4),(0.,
0.5,1.),(-2.39739261126445E-5,0.716570424089871),.UNSPECIFIED.);
#53=B_SPLINE_SURFACE_WITH_KNOTS('',3,3,((#1392,#1393,#1394,#1395),(#1396,
#1397,#1398,#1399),(#1400,#1401,#1402,#1403),(#1404,#1405,#1406,#1407),
(#1408,#1409,#1410,#1411)),.UNSPECIFIED.,.F.,.F.,.F.,(4,1,4),(4,4),(0.,
0.5,1.),(0.,0.716594421265301),.UNSPECIFIED.);
#54=B_SPLINE_SURFACE_WITH_KNOTS('',3,3,((#1420,#1421,#1422,#1423,#1424),
(#1425,#1426,#1427,#1428,#1429),(#1430,#1431,#1432,#1433,#1434),(#1435,
#1436,#1437,#1438,#1439),(#1440,#1441,#1442,#1443,#1444)),.UNSPECIFIED.,
 .F.,.F.,.F.,(4,1,4),(4,1,4),(0.,0.5,1.),(-1.57079632679747,-0.785398163398731,
5.51575373687512E-15),.UNSPECIFIED.);
#55=B_SPLINE_SURFACE_WITH_KNOTS('',3,3,((#1456,#1457,#1458,#1459,#1460),
(#1461,#1462,#1463,#1464,#1465),(#1466,#1467,#1468,#1469,#1470),(#1471,
#1472,#1473,#1474,#1475),(#1476,#1477,#1478,#1479,#1480)),.UNSPECIFIED.,
 .F.,.F.,.F.,(4,1,4),(4,1,4),(0.,0.5,1.),(-3.310833802008E-13,0.785398163395986,
1.5707963267923),.UNSPECIFIED.);
#56=B_SPLINE_SURFACE_WITH_KNOTS('',3,3,((#1509,#1510,#1511,#1512),(#1513,
#1514,#1515,#1516),(#1517,#1518,#1519,#1520),(#1521,#1522,#1523,#1524)),
 .UNSPECIFIED.,.F.,.F.,.F.,(4,4),(4,4),(0.,1.),(0.0127516143339686,0.985826376588413),
 .UNSPECIFIED.);
#57=B_SPLINE_SURFACE_WITH_KNOTS('',3,3,((#1527,#1528,#1529,#1530),(#1531,
#1532,#1533,#1534),(#1535,#1536,#1537,#1538),(#1539,#1540,#1541,#1542)),
 .UNSPECIFIED.,.F.,.F.,.F.,(4,4),(4,4),(0.,1.),(0.0127516146322753,0.98582637660324),
 .UNSPECIFIED.);
#58=FACE_OUTER_BOUND('',#104,.T.);
#59=FACE_OUTER_BOUND('',#105,.T.);
#60=FACE_OUTER_BOUND('',#106,.T.);
#61=FACE_OUTER_BOUND('',#107,.T.);
#62=FACE_OUTER_BOUND('',#108,.T.);
#63=FACE_OUTER_BOUND('',#109,.T.);
#64=FACE_OUTER_BOUND('',#110,.T.);
#65=FACE_OUTER_BOUND('',#111,.T.);
#66=FACE_OUTER_BOUND('',#112,.T.);
#67=FACE_OUTER_BOUND('',#113,.T.);
#68=FACE_OUTER_BOUND('',#114,.T.);
#69=FACE_OUTER_BOUND('',#115,.T.);
#70=FACE_OUTER_BOUND('',#116,.T.);
#71=FACE_OUTER_BOUND('',#117,.T.);
#72=FACE_OUTER_BOUND('',#118,.T.);
#73=FACE_OUTER_BOUND('',#119,.T.);
#74=FACE_OUTER_BOUND('',#120,.T.);
#75=FACE_OUTER_BOUND('',#121,.T.);
#76=FACE_OUTER_BOUND('',#122,.T.);
#77=FACE_OUTER_BOUND('',#123,.T.);
#78=FACE_OUTER_BOUND('',#124,.T.);
#79=FACE_OUTER_BOUND('',#125,.T.);
#80=FACE_OUTER_BOUND('',#126,.T.);
#81=FACE_OUTER_BOUND('',#127,.T.);
#82=FACE_OUTER_BOUND('',#128,.T.);
#83=FACE_OUTER_BOUND('',#130,.T.);
#84=FACE_OUTER_BOUND('',#131,.T.);
#85=FACE_OUTER_BOUND('',#132,.T.);
#86=FACE_OUTER_BOUND('',#133,.T.);
#87=FACE_OUTER_BOUND('',#134,.T.);
#88=FACE_OUTER_BOUND('',#135,.T.);
#89=FACE_OUTER_BOUND('',#136,.T.);
#90=FACE_OUTER_BOUND('',#137,.T.);
#91=FACE_OUTER_BOUND('',#138,.T.);
#92=FACE_OUTER_BOUND('',#139,.T.);
#93=FACE_OUTER_BOUND('',#140,.T.);
#94=FACE_OUTER_BOUND('',#141,.T.);
#95=FACE_OUTER_BOUND('',#142,.T.);
#96=FACE_OUTER_BOUND('',#143,.T.);
#97=FACE_OUTER_BOUND('',#144,.T.);
#98=FACE_OUTER_BOUND('',#145,.T.);
#99=FACE_OUTER_BOUND('',#146,.T.);
#100=FACE_OUTER_BOUND('',#147,.T.);
#101=FACE_OUTER_BOUND('',#148,.T.);
#102=FACE_OUTER_BOUND('',#149,.T.);
#103=FACE_OUTER_BOUND('',#150,.T.);
#104=EDGE_LOOP('',(#514,#515,#516,#517,#518));
#105=EDGE_LOOP('',(#519,#520,#521,#522));
#106=EDGE_LOOP('',(#523,#524,#525,#526));
#107=EDGE_LOOP('',(#527,#528,#529,#530));
#108=EDGE_LOOP('',(#531,#532,#533,#534));
#109=EDGE_LOOP('',(#535,#536,#537,#538,#539));
#110=EDGE_LOOP('',(#540,#541,#542,#543,#544));
#111=EDGE_LOOP('',(#545,#546,#547,#548,#549));
#112=EDGE_LOOP('',(#550,#551,#552,#553));
#113=EDGE_LOOP('',(#554,#555,#556,#557));
#114=EDGE_LOOP('',(#558,#559,#560,#561));
#115=EDGE_LOOP('',(#562,#563,#564,#565));
#116=EDGE_LOOP('',(#566,#567,#568,#569));
#117=EDGE_LOOP('',(#570,#571,#572,#573));
#118=EDGE_LOOP('',(#574,#575,#576,#577,#578,#579,#580));
#119=EDGE_LOOP('',(#581,#582,#583,#584));
#120=EDGE_LOOP('',(#585,#586,#587,#588));
#121=EDGE_LOOP('',(#589,#590,#591,#592));
#122=EDGE_LOOP('',(#593,#594,#595,#596,#597,#598,#599));
#123=EDGE_LOOP('',(#600,#601,#602,#603,#604));
#124=EDGE_LOOP('',(#605,#606,#607,#608,#609));
#125=EDGE_LOOP('',(#610,#611,#612,#613));
#126=EDGE_LOOP('',(#614,#615,#616,#617));
#127=EDGE_LOOP('',(#618,#619,#620,#621));
#128=EDGE_LOOP('',(#622,#623,#624,#625,#626,#627,#628,#629));
#129=EDGE_LOOP('',(#630,#631,#632,#633,#634,#635,#636,#637));
#130=EDGE_LOOP('',(#638,#639,#640,#641));
#131=EDGE_LOOP('',(#642,#643,#644,#645));
#132=EDGE_LOOP('',(#646,#647,#648,#649));
#133=EDGE_LOOP('',(#650,#651,#652,#653));
#134=EDGE_LOOP('',(#654,#655,#656,#657));
#135=EDGE_LOOP('',(#658,#659,#660,#661));
#136=EDGE_LOOP('',(#662,#663,#664,#665));
#137=EDGE_LOOP('',(#666,#667,#668,#669));
#138=EDGE_LOOP('',(#670,#671,#672,#673));
#139=EDGE_LOOP('',(#674,#675,#676,#677));
#140=EDGE_LOOP('',(#678,#679,#680,#681,#682,#683,#684));
#141=EDGE_LOOP('',(#685,#686,#687,#688));
#142=EDGE_LOOP('',(#689,#690,#691,#692));
#143=EDGE_LOOP('',(#693,#694,#695,#696));
#144=EDGE_LOOP('',(#697,#698,#699,#700));
#145=EDGE_LOOP('',(#701,#702,#703,#704));
#146=EDGE_LOOP('',(#705,#706,#707,#708));
#147=EDGE_LOOP('',(#709,#710,#711,#712));
#148=EDGE_LOOP('',(#713,#714,#715,#716));
#149=EDGE_LOOP('',(#717,#718,#719,#720,#721,#722,#723));
#150=EDGE_LOOP('',(#724,#725,#726,#727,#728,#729,#730,#731));
#151=EDGE_LOOP('',(#732,#733,#734,#735));
#152=EDGE_LOOP('',(#736,#737,#738,#739));
#153=B_SPLINE_CURVE_WITH_KNOTS('',3,(#1096,#1097,#1098,#1099,#1100,#1101,
#1102,#1103,#1104,#1105,#1106,#1107,#1108,#1109,#1110,#1111,#1112,#1113,
#1114,#1115,#1116,#1117,#1118,#1119,#1120,#1121,#1122,#1123,#1124,#1125,
#1126,#1127,#1128,#1129,#1130,#1131,#1132),.UNSPECIFIED.,.F.,.F.,(4,3,3,
3,3,3,3,3,3,3,3,3,4),(-0.0406829357434258,-0.0358446271185012,-0.0310063184935765,
-0.0261472764675507,-0.0212882344415249,-0.0202983964121845,-0.0155612791977186,
-0.0114719044174962,-0.00669197163872859,-0.00573868939148174,-0.000999290716177121,
0.,0.000190166381388391),.UNSPECIFIED.);
#154=B_SPLINE_CURVE_WITH_KNOTS('',3,(#1141,#1142,#1143,#1144,#1145,#1146,
#1147,#1148,#1149,#1150,#1151,#1152,#1153,#1154,#1155,#1156,#1157,#1158,
#1159,#1160,#1161,#1162,#1163,#1164,#1165,#1166,#1167,#1168,#1169,#1170,
#1171,#1172,#1173,#1174),.UNSPECIFIED.,.F.,.F.,(4,3,3,3,3,3,3,3,3,3,3,4),
(-0.0380647219359488,-0.033224388463552,-0.0283840549911551,-0.0236339527071741,
-0.0190212266280129,-0.0186423433126188,-0.0139879690283939,-0.00921125260062481,
-0.00879587465917082,-0.00403021634482349,0.,0.000178041507992484),
 .UNSPECIFIED.);
#155=B_SPLINE_CURVE_WITH_KNOTS('',3,(#1247,#1248,#1249,#1250,#1251,#1252,
#1253,#1254,#1255,#1256,#1257,#1258,#1259,#1260),.UNSPECIFIED.,.F.,.F.,
(4,2,2,2,2,2,4),(-0.0408583926446431,-0.0406682947004649,-0.0349316705501114,
-0.0292005187973925,-0.0193877214881861,-0.00967313480226999,0.),
 .UNSPECIFIED.);
#156=B_SPLINE_CURVE_WITH_KNOTS('',3,(#1284,#1285,#1286,#1287),
 .UNSPECIFIED.,.F.,.F.,(4,4),(-4.37851763112572E-17,0.71657045361654),
 .UNSPECIFIED.);
#157=B_SPLINE_CURVE_WITH_KNOTS('',3,(#1290,#1291,#1292,#1293),
 .UNSPECIFIED.,.F.,.F.,(4,4),(-0.71657045361654,-0.00357554938309596),
 .UNSPECIFIED.);
#158=B_SPLINE_CURVE_WITH_KNOTS('',3,(#1316,#1317,#1318,#1319),
 .UNSPECIFIED.,.F.,.F.,(4,4),(-0.712994857101344,0.),.UNSPECIFIED.);
#159=B_SPLINE_CURVE_WITH_KNOTS('',3,(#1321,#1322,#1323,#1324),
 .UNSPECIFIED.,.F.,.F.,(4,4),(0.,0.716570397981958),.UNSPECIFIED.);
#160=B_SPLINE_CURVE_WITH_KNOTS('',3,(#1327,#1328,#1329,#1330,#1331,#1332,
#1333,#1334,#1335,#1336,#1337,#1338,#1339,#1340,#1341,#1342,#1343,#1344,
#1345,#1346,#1347,#1348,#1349,#1350,#1351,#1352,#1353,#1354,#1355,#1356,
#1357,#1358,#1359,#1360),.UNSPECIFIED.,.F.,.F.,(4,3,3,3,3,3,3,3,3,3,3,4),
(0.,0.00483837943860091,0.00967675887720181,0.0144249432772843,0.0190358065990434,
0.0194145375615112,0.0240670327025552,0.0288418204429459,0.0292570304392297,
0.0340207644435315,0.038049352757788,0.0382273223742189),.UNSPECIFIED.);
#161=B_SPLINE_CURVE_WITH_KNOTS('',3,(#1382,#1383,#1384,#1385),
 .UNSPECIFIED.,.F.,.F.,(4,4),(-2.63257840006637E-18,0.716570424089871),
 .UNSPECIFIED.);
#162=B_SPLINE_CURVE_WITH_KNOTS('',3,(#1388,#1389,#1390,#1391),
 .UNSPECIFIED.,.F.,.F.,(4,4),(-0.716570424089871,-0.00357554504377418),
 .UNSPECIFIED.);
#163=B_SPLINE_CURVE_WITH_KNOTS('',3,(#1412,#1413,#1414,#1415),
 .UNSPECIFIED.,.F.,.F.,(4,4),(-0.712994902172634,0.),.UNSPECIFIED.);
#164=B_SPLINE_CURVE_WITH_KNOTS('',3,(#1416,#1417,#1418,#1419),
 .UNSPECIFIED.,.F.,.F.,(4,4),(0.,0.716570238548465),.UNSPECIFIED.);
#165=CIRCLE('',#815,0.250000000000001);
#166=CIRCLE('',#817,0.250000000000001);
#167=CIRCLE('',#818,0.25);
#168=CIRCLE('',#822,0.25);
#169=CIRCLE('',#823,0.25);
#170=CIRCLE('',#827,0.25);
#171=CIRCLE('',#828,0.25);
#172=CIRCLE('',#829,0.25);
#173=CIRCLE('',#833,0.25);
#174=CIRCLE('',#834,0.249999999999999);
#175=CIRCLE('',#840,0.5);
#176=CIRCLE('',#843,0.5);
#177=CIRCLE('',#846,0.5);
#178=CIRCLE('',#849,0.5);
#179=CIRCLE('',#851,1.05000000031608);
#180=CIRCLE('',#852,1.05000000002498);
#181=CIRCLE('',#853,1.05000000006757);
#182=CIRCLE('',#854,1.04999999999564);
#183=CIRCLE('',#868,1.04999999999564);
#184=CIRCLE('',#871,1.05000000006757);
#185=CIRCLE('',#874,1.05000000002498);
#186=CIRCLE('',#877,1.05000000031608);
#187=LINE('',#1089,#258);
#188=LINE('',#1093,#259);
#189=LINE('',#1095,#260);
#190=LINE('',#1136,#261);
#191=LINE('',#1140,#262);
#192=LINE('',#1209,#263);
#193=LINE('',#1210,#264);
#194=LINE('',#1243,#265);
#195=LINE('',#1245,#266);
#196=LINE('',#1261,#267);
#197=LINE('',#1294,#268);
#198=LINE('',#1326,#269);
#199=LINE('',#1454,#270);
#200=LINE('',#1455,#271);
#201=LINE('',#1487,#272);
#202=LINE('',#1488,#273);
#203=LINE('',#1491,#274);
#204=LINE('',#1493,#275);
#205=LINE('',#1494,#276);
#206=LINE('',#1497,#277);
#207=LINE('',#1501,#278);
#208=LINE('',#1502,#279);
#209=LINE('',#1505,#280);
#210=LINE('',#1508,#281);
#211=LINE('',#1525,#282);
#212=LINE('',#1526,#283);
#213=LINE('',#1546,#284);
#214=LINE('',#1549,#285);
#215=LINE('',#1550,#286);
#216=LINE('',#1554,#287);
#217=LINE('',#1556,#288);
#218=LINE('',#1561,#289);
#219=LINE('',#1565,#290);
#220=LINE('',#1569,#291);
#221=LINE('',#1572,#292);
#222=LINE('',#1576,#293);
#223=LINE('',#1578,#294);
#224=LINE('',#1580,#295);
#225=LINE('',#1581,#296);
#226=LINE('',#1584,#297);
#227=LINE('',#1586,#298);
#228=LINE('',#1587,#299);
#229=LINE('',#1590,#300);
#230=LINE('',#1592,#301);
#231=LINE('',#1593,#302);
#232=LINE('',#1595,#303);
#233=LINE('',#1596,#304);
#234=LINE('',#1601,#305);
#235=LINE('',#1603,#306);
#236=LINE('',#1605,#307);
#237=LINE('',#1606,#308);
#238=LINE('',#1609,#309);
#239=LINE('',#1611,#310);
#240=LINE('',#1612,#311);
#241=LINE('',#1615,#312);
#242=LINE('',#1617,#313);
#243=LINE('',#1618,#314);
#244=LINE('',#1620,#315);
#245=LINE('',#1621,#316);
#246=LINE('',#1627,#317);
#247=LINE('',#1628,#318);
#248=LINE('',#1629,#319);
#249=LINE('',#1633,#320);
#250=LINE('',#1636,#321);
#251=LINE('',#1637,#322);
#252=LINE('',#1641,#323);
#253=LINE('',#1644,#324);
#254=LINE('',#1645,#325);
#255=LINE('',#1649,#326);
#256=LINE('',#1652,#327);
#257=LINE('',#1653,#328);
#258=VECTOR('',#884,10.);
#259=VECTOR('',#887,10.);
#260=VECTOR('',#888,18.5769346233412);
#261=VECTOR('',#891,10.);
#262=VECTOR('',#894,10.);
#263=VECTOR('',#905,10.);
#264=VECTOR('',#906,10.);
#265=VECTOR('',#915,10.);
#266=VECTOR('',#916,10.);
#267=VECTOR('',#917,18.5769346233412);
#268=VECTOR('',#920,18.5769346233412);
#269=VECTOR('',#921,18.5769346233412);
#270=VECTOR('',#934,10.);
#271=VECTOR('',#935,10.);
#272=VECTOR('',#944,10.);
#273=VECTOR('',#945,10.);
#274=VECTOR('',#948,10.);
#275=VECTOR('',#949,10.);
#276=VECTOR('',#950,10.);
#277=VECTOR('',#953,10.);
#278=VECTOR('',#958,10.);
#279=VECTOR('',#959,10.);
#280=VECTOR('',#962,10.);
#281=VECTOR('',#967,18.5769346233412);
#282=VECTOR('',#968,18.5769346233412);
#283=VECTOR('',#969,18.5769346233412);
#284=VECTOR('',#974,10.);
#285=VECTOR('',#977,10.);
#286=VECTOR('',#978,10.);
#287=VECTOR('',#983,10.);
#288=VECTOR('',#986,10.);
#289=VECTOR('',#989,10.);
#290=VECTOR('',#992,10.);
#291=VECTOR('',#995,10.);
#292=VECTOR('',#998,10.);
#293=VECTOR('',#1001,10.);
#294=VECTOR('',#1002,10.);
#295=VECTOR('',#1003,10.);
#296=VECTOR('',#1004,10.);
#297=VECTOR('',#1007,10.);
#298=VECTOR('',#1008,10.);
#299=VECTOR('',#1009,10.);
#300=VECTOR('',#1012,10.);
#301=VECTOR('',#1013,10.);
#302=VECTOR('',#1014,10.);
#303=VECTOR('',#1017,10.);
#304=VECTOR('',#1018,10.);
#305=VECTOR('',#1023,10.);
#306=VECTOR('',#1024,10.);
#307=VECTOR('',#1025,10.);
#308=VECTOR('',#1026,10.);
#309=VECTOR('',#1029,10.);
#310=VECTOR('',#1030,10.);
#311=VECTOR('',#1031,10.);
#312=VECTOR('',#1034,10.);
#313=VECTOR('',#1035,10.);
#314=VECTOR('',#1036,10.);
#315=VECTOR('',#1039,10.);
#316=VECTOR('',#1040,10.);
#317=VECTOR('',#1047,10.);
#318=VECTOR('',#1048,10.);
#319=VECTOR('',#1049,10.);
#320=VECTOR('',#1054,10.);
#321=VECTOR('',#1057,10.);
#322=VECTOR('',#1058,10.);
#323=VECTOR('',#1063,10.);
#324=VECTOR('',#1066,10.);
#325=VECTOR('',#1067,10.);
#326=VECTOR('',#1072,10.);
#327=VECTOR('',#1075,10.);
#328=VECTOR('',#1076,10.);
#329=VERTEX_POINT('',#1087);
#330=VERTEX_POINT('',#1088);
#331=VERTEX_POINT('',#1090);
#332=VERTEX_POINT('',#1092);
#333=VERTEX_POINT('',#1094);
#334=VERTEX_POINT('',#1134);
#335=VERTEX_POINT('',#1135);
#336=VERTEX_POINT('',#1137);
#337=VERTEX_POINT('',#1139);
#338=VERTEX_POINT('',#1200);
#339=VERTEX_POINT('',#1201);
#340=VERTEX_POINT('',#1206);
#341=VERTEX_POINT('',#1207);
#342=VERTEX_POINT('',#1236);
#343=VERTEX_POINT('',#1237);
#344=VERTEX_POINT('',#1242);
#345=VERTEX_POINT('',#1244);
#346=VERTEX_POINT('',#1246);
#347=VERTEX_POINT('',#1282);
#348=VERTEX_POINT('',#1283);
#349=VERTEX_POINT('',#1288);
#350=VERTEX_POINT('',#1315);
#351=VERTEX_POINT('',#1320);
#352=VERTEX_POINT('',#1325);
#353=VERTEX_POINT('',#1381);
#354=VERTEX_POINT('',#1386);
#355=VERTEX_POINT('',#1445);
#356=VERTEX_POINT('',#1446);
#357=VERTEX_POINT('',#1451);
#358=VERTEX_POINT('',#1452);
#359=VERTEX_POINT('',#1481);
#360=VERTEX_POINT('',#1482);
#361=VERTEX_POINT('',#1490);
#362=VERTEX_POINT('',#1492);
#363=VERTEX_POINT('',#1496);
#364=VERTEX_POINT('',#1500);
#365=VERTEX_POINT('',#1504);
#366=VERTEX_POINT('',#1544);
#367=VERTEX_POINT('',#1548);
#368=VERTEX_POINT('',#1552);
#369=VERTEX_POINT('',#1557);
#370=VERTEX_POINT('',#1558);
#371=VERTEX_POINT('',#1560);
#372=VERTEX_POINT('',#1562);
#373=VERTEX_POINT('',#1564);
#374=VERTEX_POINT('',#1566);
#375=VERTEX_POINT('',#1568);
#376=VERTEX_POINT('',#1570);
#377=VERTEX_POINT('',#1574);
#378=VERTEX_POINT('',#1575);
#379=VERTEX_POINT('',#1577);
#380=VERTEX_POINT('',#1579);
#381=VERTEX_POINT('',#1583);
#382=VERTEX_POINT('',#1585);
#383=VERTEX_POINT('',#1589);
#384=VERTEX_POINT('',#1591);
#385=VERTEX_POINT('',#1599);
#386=VERTEX_POINT('',#1600);
#387=VERTEX_POINT('',#1602);
#388=VERTEX_POINT('',#1604);
#389=VERTEX_POINT('',#1608);
#390=VERTEX_POINT('',#1610);
#391=VERTEX_POINT('',#1614);
#392=VERTEX_POINT('',#1616);
#393=VERTEX_POINT('',#1625);
#394=VERTEX_POINT('',#1626);
#395=VERTEX_POINT('',#1631);
#396=VERTEX_POINT('',#1635);
#397=VERTEX_POINT('',#1639);
#398=VERTEX_POINT('',#1643);
#399=VERTEX_POINT('',#1647);
#400=VERTEX_POINT('',#1651);
#401=EDGE_CURVE('',#329,#330,#187,.T.);
#402=EDGE_CURVE('',#330,#331,#165,.T.);
#403=EDGE_CURVE('',#331,#332,#188,.T.);
#404=EDGE_CURVE('',#332,#333,#189,.T.);
#405=EDGE_CURVE('',#333,#329,#153,.T.);
#406=EDGE_CURVE('',#334,#335,#190,.T.);
#407=EDGE_CURVE('',#335,#336,#166,.T.);
#408=EDGE_CURVE('',#336,#337,#191,.T.);
#409=EDGE_CURVE('',#337,#334,#154,.T.);
#410=EDGE_CURVE('',#338,#339,#167,.T.);
#411=EDGE_CURVE('',#339,#336,#40,.T.);
#412=EDGE_CURVE('',#335,#338,#41,.T.);
#413=EDGE_CURVE('',#340,#341,#168,.T.);
#414=EDGE_CURVE('',#341,#339,#192,.T.);
#415=EDGE_CURVE('',#338,#340,#193,.T.);
#416=EDGE_CURVE('',#342,#343,#169,.T.);
#417=EDGE_CURVE('',#343,#341,#42,.T.);
#418=EDGE_CURVE('',#340,#342,#43,.T.);
#419=EDGE_CURVE('',#344,#343,#194,.T.);
#420=EDGE_CURVE('',#342,#345,#195,.T.);
#421=EDGE_CURVE('',#345,#346,#155,.T.);
#422=EDGE_CURVE('',#346,#344,#196,.T.);
#423=EDGE_CURVE('',#347,#348,#156,.T.);
#424=EDGE_CURVE('',#348,#349,#170,.T.);
#425=EDGE_CURVE('',#349,#334,#157,.T.);
#426=EDGE_CURVE('',#347,#337,#197,.T.);
#427=EDGE_CURVE('',#350,#349,#158,.T.);
#428=EDGE_CURVE('',#348,#351,#159,.T.);
#429=EDGE_CURVE('',#352,#351,#198,.T.);
#430=EDGE_CURVE('',#352,#350,#160,.T.);
#431=EDGE_CURVE('',#333,#353,#161,.T.);
#432=EDGE_CURVE('',#353,#354,#171,.T.);
#433=EDGE_CURVE('',#354,#329,#162,.T.);
#434=EDGE_CURVE('',#345,#354,#163,.T.);
#435=EDGE_CURVE('',#353,#346,#164,.T.);
#436=EDGE_CURVE('',#355,#356,#172,.T.);
#437=EDGE_CURVE('',#356,#331,#44,.T.);
#438=EDGE_CURVE('',#330,#355,#45,.T.);
#439=EDGE_CURVE('',#357,#358,#173,.T.);
#440=EDGE_CURVE('',#358,#356,#199,.T.);
#441=EDGE_CURVE('',#355,#357,#200,.T.);
#442=EDGE_CURVE('',#359,#360,#174,.T.);
#443=EDGE_CURVE('',#360,#358,#46,.T.);
#444=EDGE_CURVE('',#357,#359,#47,.T.);
#445=EDGE_CURVE('',#352,#360,#201,.T.);
#446=EDGE_CURVE('',#359,#350,#202,.T.);
#447=EDGE_CURVE('',#361,#342,#203,.T.);
#448=EDGE_CURVE('',#362,#361,#204,.T.);
#449=EDGE_CURVE('',#330,#362,#205,.T.);
#450=EDGE_CURVE('',#340,#363,#206,.T.);
#451=EDGE_CURVE('',#363,#361,#175,.T.);
#452=EDGE_CURVE('',#364,#338,#207,.T.);
#453=EDGE_CURVE('',#363,#364,#208,.T.);
#454=EDGE_CURVE('',#335,#365,#209,.T.);
#455=EDGE_CURVE('',#365,#364,#176,.T.);
#456=EDGE_CURVE('',#351,#332,#210,.T.);
#457=EDGE_CURVE('',#348,#353,#211,.T.);
#458=EDGE_CURVE('',#344,#347,#212,.T.);
#459=EDGE_CURVE('',#362,#366,#177,.T.);
#460=EDGE_CURVE('',#366,#355,#213,.T.);
#461=EDGE_CURVE('',#367,#366,#214,.T.);
#462=EDGE_CURVE('',#357,#367,#215,.T.);
#463=EDGE_CURVE('',#367,#368,#178,.T.);
#464=EDGE_CURVE('',#368,#359,#216,.T.);
#465=EDGE_CURVE('',#365,#368,#217,.T.);
#466=EDGE_CURVE('',#369,#370,#179,.T.);
#467=EDGE_CURVE('',#370,#371,#218,.T.);
#468=EDGE_CURVE('',#371,#372,#180,.T.);
#469=EDGE_CURVE('',#372,#373,#219,.T.);
#470=EDGE_CURVE('',#373,#374,#181,.T.);
#471=EDGE_CURVE('',#374,#375,#220,.T.);
#472=EDGE_CURVE('',#375,#376,#182,.T.);
#473=EDGE_CURVE('',#376,#369,#221,.T.);
#474=EDGE_CURVE('',#377,#378,#222,.T.);
#475=EDGE_CURVE('',#377,#379,#223,.T.);
#476=EDGE_CURVE('',#380,#379,#224,.T.);
#477=EDGE_CURVE('',#378,#380,#225,.T.);
#478=EDGE_CURVE('',#378,#381,#226,.T.);
#479=EDGE_CURVE('',#382,#380,#227,.T.);
#480=EDGE_CURVE('',#381,#382,#228,.T.);
#481=EDGE_CURVE('',#381,#383,#229,.T.);
#482=EDGE_CURVE('',#384,#382,#230,.T.);
#483=EDGE_CURVE('',#383,#384,#231,.T.);
#484=EDGE_CURVE('',#383,#377,#232,.T.);
#485=EDGE_CURVE('',#379,#384,#233,.T.);
#486=EDGE_CURVE('',#385,#386,#234,.T.);
#487=EDGE_CURVE('',#385,#387,#235,.T.);
#488=EDGE_CURVE('',#388,#387,#236,.T.);
#489=EDGE_CURVE('',#386,#388,#237,.T.);
#490=EDGE_CURVE('',#386,#389,#238,.T.);
#491=EDGE_CURVE('',#390,#388,#239,.T.);
#492=EDGE_CURVE('',#389,#390,#240,.T.);
#493=EDGE_CURVE('',#389,#391,#241,.T.);
#494=EDGE_CURVE('',#392,#390,#242,.T.);
#495=EDGE_CURVE('',#391,#392,#243,.T.);
#496=EDGE_CURVE('',#391,#385,#244,.T.);
#497=EDGE_CURVE('',#387,#392,#245,.T.);
#498=EDGE_CURVE('',#393,#394,#246,.T.);
#499=EDGE_CURVE('',#393,#369,#247,.T.);
#500=EDGE_CURVE('',#394,#376,#248,.T.);
#501=EDGE_CURVE('',#394,#395,#183,.T.);
#502=EDGE_CURVE('',#395,#375,#249,.T.);
#503=EDGE_CURVE('',#395,#396,#250,.T.);
#504=EDGE_CURVE('',#396,#374,#251,.T.);
#505=EDGE_CURVE('',#396,#397,#184,.T.);
#506=EDGE_CURVE('',#397,#373,#252,.T.);
#507=EDGE_CURVE('',#397,#398,#253,.T.);
#508=EDGE_CURVE('',#398,#372,#254,.T.);
#509=EDGE_CURVE('',#398,#399,#185,.T.);
#510=EDGE_CURVE('',#399,#371,#255,.T.);
#511=EDGE_CURVE('',#399,#400,#256,.T.);
#512=EDGE_CURVE('',#400,#370,#257,.T.);
#513=EDGE_CURVE('',#400,#393,#186,.T.);
#514=ORIENTED_EDGE('',*,*,#401,.T.);
#515=ORIENTED_EDGE('',*,*,#402,.T.);
#516=ORIENTED_EDGE('',*,*,#403,.T.);
#517=ORIENTED_EDGE('',*,*,#404,.T.);
#518=ORIENTED_EDGE('',*,*,#405,.T.);
#519=ORIENTED_EDGE('',*,*,#406,.T.);
#520=ORIENTED_EDGE('',*,*,#407,.T.);
#521=ORIENTED_EDGE('',*,*,#408,.T.);
#522=ORIENTED_EDGE('',*,*,#409,.T.);
#523=ORIENTED_EDGE('',*,*,#410,.T.);
#524=ORIENTED_EDGE('',*,*,#411,.T.);
#525=ORIENTED_EDGE('',*,*,#407,.F.);
#526=ORIENTED_EDGE('',*,*,#412,.T.);
#527=ORIENTED_EDGE('',*,*,#413,.T.);
#528=ORIENTED_EDGE('',*,*,#414,.T.);
#529=ORIENTED_EDGE('',*,*,#410,.F.);
#530=ORIENTED_EDGE('',*,*,#415,.T.);
#531=ORIENTED_EDGE('',*,*,#416,.T.);
#532=ORIENTED_EDGE('',*,*,#417,.T.);
#533=ORIENTED_EDGE('',*,*,#413,.F.);
#534=ORIENTED_EDGE('',*,*,#418,.T.);
#535=ORIENTED_EDGE('',*,*,#419,.T.);
#536=ORIENTED_EDGE('',*,*,#416,.F.);
#537=ORIENTED_EDGE('',*,*,#420,.T.);
#538=ORIENTED_EDGE('',*,*,#421,.T.);
#539=ORIENTED_EDGE('',*,*,#422,.T.);
#540=ORIENTED_EDGE('',*,*,#423,.T.);
#541=ORIENTED_EDGE('',*,*,#424,.T.);
#542=ORIENTED_EDGE('',*,*,#425,.T.);
#543=ORIENTED_EDGE('',*,*,#409,.F.);
#544=ORIENTED_EDGE('',*,*,#426,.F.);
#545=ORIENTED_EDGE('',*,*,#427,.T.);
#546=ORIENTED_EDGE('',*,*,#424,.F.);
#547=ORIENTED_EDGE('',*,*,#428,.T.);
#548=ORIENTED_EDGE('',*,*,#429,.F.);
#549=ORIENTED_EDGE('',*,*,#430,.T.);
#550=ORIENTED_EDGE('',*,*,#431,.T.);
#551=ORIENTED_EDGE('',*,*,#432,.T.);
#552=ORIENTED_EDGE('',*,*,#433,.T.);
#553=ORIENTED_EDGE('',*,*,#405,.F.);
#554=ORIENTED_EDGE('',*,*,#434,.T.);
#555=ORIENTED_EDGE('',*,*,#432,.F.);
#556=ORIENTED_EDGE('',*,*,#435,.T.);
#557=ORIENTED_EDGE('',*,*,#421,.F.);
#558=ORIENTED_EDGE('',*,*,#436,.T.);
#559=ORIENTED_EDGE('',*,*,#437,.T.);
#560=ORIENTED_EDGE('',*,*,#402,.F.);
#561=ORIENTED_EDGE('',*,*,#438,.T.);
#562=ORIENTED_EDGE('',*,*,#439,.T.);
#563=ORIENTED_EDGE('',*,*,#440,.T.);
#564=ORIENTED_EDGE('',*,*,#436,.F.);
#565=ORIENTED_EDGE('',*,*,#441,.T.);
#566=ORIENTED_EDGE('',*,*,#442,.T.);
#567=ORIENTED_EDGE('',*,*,#443,.T.);
#568=ORIENTED_EDGE('',*,*,#439,.F.);
#569=ORIENTED_EDGE('',*,*,#444,.T.);
#570=ORIENTED_EDGE('',*,*,#445,.T.);
#571=ORIENTED_EDGE('',*,*,#442,.F.);
#572=ORIENTED_EDGE('',*,*,#446,.T.);
#573=ORIENTED_EDGE('',*,*,#430,.F.);
#574=ORIENTED_EDGE('',*,*,#401,.F.);
#575=ORIENTED_EDGE('',*,*,#433,.F.);
#576=ORIENTED_EDGE('',*,*,#434,.F.);
#577=ORIENTED_EDGE('',*,*,#420,.F.);
#578=ORIENTED_EDGE('',*,*,#447,.F.);
#579=ORIENTED_EDGE('',*,*,#448,.F.);
#580=ORIENTED_EDGE('',*,*,#449,.F.);
#581=ORIENTED_EDGE('',*,*,#418,.F.);
#582=ORIENTED_EDGE('',*,*,#450,.T.);
#583=ORIENTED_EDGE('',*,*,#451,.T.);
#584=ORIENTED_EDGE('',*,*,#447,.T.);
#585=ORIENTED_EDGE('',*,*,#415,.F.);
#586=ORIENTED_EDGE('',*,*,#452,.F.);
#587=ORIENTED_EDGE('',*,*,#453,.F.);
#588=ORIENTED_EDGE('',*,*,#450,.F.);
#589=ORIENTED_EDGE('',*,*,#412,.F.);
#590=ORIENTED_EDGE('',*,*,#454,.T.);
#591=ORIENTED_EDGE('',*,*,#455,.T.);
#592=ORIENTED_EDGE('',*,*,#452,.T.);
#593=ORIENTED_EDGE('',*,*,#403,.F.);
#594=ORIENTED_EDGE('',*,*,#437,.F.);
#595=ORIENTED_EDGE('',*,*,#440,.F.);
#596=ORIENTED_EDGE('',*,*,#443,.F.);
#597=ORIENTED_EDGE('',*,*,#445,.F.);
#598=ORIENTED_EDGE('',*,*,#429,.T.);
#599=ORIENTED_EDGE('',*,*,#456,.T.);
#600=ORIENTED_EDGE('',*,*,#435,.F.);
#601=ORIENTED_EDGE('',*,*,#457,.F.);
#602=ORIENTED_EDGE('',*,*,#423,.F.);
#603=ORIENTED_EDGE('',*,*,#458,.F.);
#604=ORIENTED_EDGE('',*,*,#422,.F.);
#605=ORIENTED_EDGE('',*,*,#431,.F.);
#606=ORIENTED_EDGE('',*,*,#404,.F.);
#607=ORIENTED_EDGE('',*,*,#456,.F.);
#608=ORIENTED_EDGE('',*,*,#428,.F.);
#609=ORIENTED_EDGE('',*,*,#457,.T.);
#610=ORIENTED_EDGE('',*,*,#438,.F.);
#611=ORIENTED_EDGE('',*,*,#449,.T.);
#612=ORIENTED_EDGE('',*,*,#459,.T.);
#613=ORIENTED_EDGE('',*,*,#460,.T.);
#614=ORIENTED_EDGE('',*,*,#441,.F.);
#615=ORIENTED_EDGE('',*,*,#460,.F.);
#616=ORIENTED_EDGE('',*,*,#461,.F.);
#617=ORIENTED_EDGE('',*,*,#462,.F.);
#618=ORIENTED_EDGE('',*,*,#444,.F.);
#619=ORIENTED_EDGE('',*,*,#462,.T.);
#620=ORIENTED_EDGE('',*,*,#463,.T.);
#621=ORIENTED_EDGE('',*,*,#464,.T.);
#622=ORIENTED_EDGE('',*,*,#459,.F.);
#623=ORIENTED_EDGE('',*,*,#448,.T.);
#624=ORIENTED_EDGE('',*,*,#451,.F.);
#625=ORIENTED_EDGE('',*,*,#453,.T.);
#626=ORIENTED_EDGE('',*,*,#455,.F.);
#627=ORIENTED_EDGE('',*,*,#465,.T.);
#628=ORIENTED_EDGE('',*,*,#463,.F.);
#629=ORIENTED_EDGE('',*,*,#461,.T.);
#630=ORIENTED_EDGE('',*,*,#466,.T.);
#631=ORIENTED_EDGE('',*,*,#467,.T.);
#632=ORIENTED_EDGE('',*,*,#468,.T.);
#633=ORIENTED_EDGE('',*,*,#469,.T.);
#634=ORIENTED_EDGE('',*,*,#470,.T.);
#635=ORIENTED_EDGE('',*,*,#471,.T.);
#636=ORIENTED_EDGE('',*,*,#472,.T.);
#637=ORIENTED_EDGE('',*,*,#473,.T.);
#638=ORIENTED_EDGE('',*,*,#474,.F.);
#639=ORIENTED_EDGE('',*,*,#475,.T.);
#640=ORIENTED_EDGE('',*,*,#476,.F.);
#641=ORIENTED_EDGE('',*,*,#477,.F.);
#642=ORIENTED_EDGE('',*,*,#478,.F.);
#643=ORIENTED_EDGE('',*,*,#477,.T.);
#644=ORIENTED_EDGE('',*,*,#479,.F.);
#645=ORIENTED_EDGE('',*,*,#480,.F.);
#646=ORIENTED_EDGE('',*,*,#481,.F.);
#647=ORIENTED_EDGE('',*,*,#480,.T.);
#648=ORIENTED_EDGE('',*,*,#482,.F.);
#649=ORIENTED_EDGE('',*,*,#483,.F.);
#650=ORIENTED_EDGE('',*,*,#484,.F.);
#651=ORIENTED_EDGE('',*,*,#483,.T.);
#652=ORIENTED_EDGE('',*,*,#485,.F.);
#653=ORIENTED_EDGE('',*,*,#475,.F.);
#654=ORIENTED_EDGE('',*,*,#485,.T.);
#655=ORIENTED_EDGE('',*,*,#482,.T.);
#656=ORIENTED_EDGE('',*,*,#479,.T.);
#657=ORIENTED_EDGE('',*,*,#476,.T.);
#658=ORIENTED_EDGE('',*,*,#486,.F.);
#659=ORIENTED_EDGE('',*,*,#487,.T.);
#660=ORIENTED_EDGE('',*,*,#488,.F.);
#661=ORIENTED_EDGE('',*,*,#489,.F.);
#662=ORIENTED_EDGE('',*,*,#490,.F.);
#663=ORIENTED_EDGE('',*,*,#489,.T.);
#664=ORIENTED_EDGE('',*,*,#491,.F.);
#665=ORIENTED_EDGE('',*,*,#492,.F.);
#666=ORIENTED_EDGE('',*,*,#493,.F.);
#667=ORIENTED_EDGE('',*,*,#492,.T.);
#668=ORIENTED_EDGE('',*,*,#494,.F.);
#669=ORIENTED_EDGE('',*,*,#495,.F.);
#670=ORIENTED_EDGE('',*,*,#496,.F.);
#671=ORIENTED_EDGE('',*,*,#495,.T.);
#672=ORIENTED_EDGE('',*,*,#497,.F.);
#673=ORIENTED_EDGE('',*,*,#487,.F.);
#674=ORIENTED_EDGE('',*,*,#497,.T.);
#675=ORIENTED_EDGE('',*,*,#494,.T.);
#676=ORIENTED_EDGE('',*,*,#491,.T.);
#677=ORIENTED_EDGE('',*,*,#488,.T.);
#678=ORIENTED_EDGE('',*,*,#419,.F.);
#679=ORIENTED_EDGE('',*,*,#458,.T.);
#680=ORIENTED_EDGE('',*,*,#426,.T.);
#681=ORIENTED_EDGE('',*,*,#408,.F.);
#682=ORIENTED_EDGE('',*,*,#411,.F.);
#683=ORIENTED_EDGE('',*,*,#414,.F.);
#684=ORIENTED_EDGE('',*,*,#417,.F.);
#685=ORIENTED_EDGE('',*,*,#498,.F.);
#686=ORIENTED_EDGE('',*,*,#499,.T.);
#687=ORIENTED_EDGE('',*,*,#473,.F.);
#688=ORIENTED_EDGE('',*,*,#500,.F.);
#689=ORIENTED_EDGE('',*,*,#501,.F.);
#690=ORIENTED_EDGE('',*,*,#500,.T.);
#691=ORIENTED_EDGE('',*,*,#472,.F.);
#692=ORIENTED_EDGE('',*,*,#502,.F.);
#693=ORIENTED_EDGE('',*,*,#503,.F.);
#694=ORIENTED_EDGE('',*,*,#502,.T.);
#695=ORIENTED_EDGE('',*,*,#471,.F.);
#696=ORIENTED_EDGE('',*,*,#504,.F.);
#697=ORIENTED_EDGE('',*,*,#505,.F.);
#698=ORIENTED_EDGE('',*,*,#504,.T.);
#699=ORIENTED_EDGE('',*,*,#470,.F.);
#700=ORIENTED_EDGE('',*,*,#506,.F.);
#701=ORIENTED_EDGE('',*,*,#507,.F.);
#702=ORIENTED_EDGE('',*,*,#506,.T.);
#703=ORIENTED_EDGE('',*,*,#469,.F.);
#704=ORIENTED_EDGE('',*,*,#508,.F.);
#705=ORIENTED_EDGE('',*,*,#509,.F.);
#706=ORIENTED_EDGE('',*,*,#508,.T.);
#707=ORIENTED_EDGE('',*,*,#468,.F.);
#708=ORIENTED_EDGE('',*,*,#510,.F.);
#709=ORIENTED_EDGE('',*,*,#511,.F.);
#710=ORIENTED_EDGE('',*,*,#510,.T.);
#711=ORIENTED_EDGE('',*,*,#467,.F.);
#712=ORIENTED_EDGE('',*,*,#512,.F.);
#713=ORIENTED_EDGE('',*,*,#513,.F.);
#714=ORIENTED_EDGE('',*,*,#512,.T.);
#715=ORIENTED_EDGE('',*,*,#466,.F.);
#716=ORIENTED_EDGE('',*,*,#499,.F.);
#717=ORIENTED_EDGE('',*,*,#446,.F.);
#718=ORIENTED_EDGE('',*,*,#464,.F.);
#719=ORIENTED_EDGE('',*,*,#465,.F.);
#720=ORIENTED_EDGE('',*,*,#454,.F.);
#721=ORIENTED_EDGE('',*,*,#406,.F.);
#722=ORIENTED_EDGE('',*,*,#425,.F.);
#723=ORIENTED_EDGE('',*,*,#427,.F.);
#724=ORIENTED_EDGE('',*,*,#498,.T.);
#725=ORIENTED_EDGE('',*,*,#501,.T.);
#726=ORIENTED_EDGE('',*,*,#503,.T.);
#727=ORIENTED_EDGE('',*,*,#505,.T.);
#728=ORIENTED_EDGE('',*,*,#507,.T.);
#729=ORIENTED_EDGE('',*,*,#509,.T.);
#730=ORIENTED_EDGE('',*,*,#511,.T.);
#731=ORIENTED_EDGE('',*,*,#513,.T.);
#732=ORIENTED_EDGE('',*,*,#474,.T.);
#733=ORIENTED_EDGE('',*,*,#478,.T.);
#734=ORIENTED_EDGE('',*,*,#481,.T.);
#735=ORIENTED_EDGE('',*,*,#484,.T.);
#736=ORIENTED_EDGE('',*,*,#486,.T.);
#737=ORIENTED_EDGE('',*,*,#490,.T.);
#738=ORIENTED_EDGE('',*,*,#493,.T.);
#739=ORIENTED_EDGE('',*,*,#496,.T.);
#740=CYLINDRICAL_SURFACE('',#814,0.25);
#741=CYLINDRICAL_SURFACE('',#816,0.25);
#742=CYLINDRICAL_SURFACE('',#821,0.25);
#743=CYLINDRICAL_SURFACE('',#826,0.25);
#744=CYLINDRICAL_SURFACE('',#832,0.25);
#745=CYLINDRICAL_SURFACE('',#837,0.25);
#746=CYLINDRICAL_SURFACE('',#839,0.5);
#747=CYLINDRICAL_SURFACE('',#842,0.5);
#748=CYLINDRICAL_SURFACE('',#845,0.5);
#749=CYLINDRICAL_SURFACE('',#848,0.5);
#750=CYLINDRICAL_SURFACE('',#867,1.04999999999564);
#751=CYLINDRICAL_SURFACE('',#870,1.05000000006757);
#752=CYLINDRICAL_SURFACE('',#873,1.05000000002498);
#753=CYLINDRICAL_SURFACE('',#876,1.05000000031608);
#754=ADVANCED_FACE('',(#58),#740,.T.);
#755=ADVANCED_FACE('',(#59),#741,.T.);
#756=ADVANCED_FACE('',(#60),#48,.F.);
#757=ADVANCED_FACE('',(#61),#742,.T.);
#758=ADVANCED_FACE('',(#62),#49,.F.);
#759=ADVANCED_FACE('',(#63),#743,.T.);
#760=ADVANCED_FACE('',(#64),#50,.F.);
#761=ADVANCED_FACE('',(#65),#51,.F.);
#762=ADVANCED_FACE('',(#66),#52,.F.);
#763=ADVANCED_FACE('',(#67),#53,.F.);
#764=ADVANCED_FACE('',(#68),#54,.F.);
#765=ADVANCED_FACE('',(#69),#744,.T.);
#766=ADVANCED_FACE('',(#70),#55,.F.);
#767=ADVANCED_FACE('',(#71),#745,.T.);
#768=ADVANCED_FACE('',(#72),#18,.T.);
#769=ADVANCED_FACE('',(#73),#746,.T.);
#770=ADVANCED_FACE('',(#74),#19,.T.);
#771=ADVANCED_FACE('',(#75),#747,.T.);
#772=ADVANCED_FACE('',(#76),#20,.T.);
#773=ADVANCED_FACE('',(#77),#56,.T.);
#774=ADVANCED_FACE('',(#78),#57,.T.);
#775=ADVANCED_FACE('',(#79),#748,.T.);
#776=ADVANCED_FACE('',(#80),#21,.T.);
#777=ADVANCED_FACE('',(#81),#749,.T.);
#778=ADVANCED_FACE('',(#82,#15),#22,.F.);
#779=ADVANCED_FACE('',(#83),#23,.T.);
#780=ADVANCED_FACE('',(#84),#24,.T.);
#781=ADVANCED_FACE('',(#85),#25,.T.);
#782=ADVANCED_FACE('',(#86),#26,.T.);
#783=ADVANCED_FACE('',(#87),#27,.T.);
#784=ADVANCED_FACE('',(#88),#28,.T.);
#785=ADVANCED_FACE('',(#89),#29,.T.);
#786=ADVANCED_FACE('',(#90),#30,.T.);
#787=ADVANCED_FACE('',(#91),#31,.T.);
#788=ADVANCED_FACE('',(#92),#32,.T.);
#789=ADVANCED_FACE('',(#93),#33,.T.);
#790=ADVANCED_FACE('',(#94),#34,.T.);
#791=ADVANCED_FACE('',(#95),#750,.F.);
#792=ADVANCED_FACE('',(#96),#35,.T.);
#793=ADVANCED_FACE('',(#97),#751,.F.);
#794=ADVANCED_FACE('',(#98),#36,.T.);
#795=ADVANCED_FACE('',(#99),#752,.F.);
#796=ADVANCED_FACE('',(#100),#37,.T.);
#797=ADVANCED_FACE('',(#101),#753,.F.);
#798=ADVANCED_FACE('',(#102),#38,.T.);
#799=ADVANCED_FACE('',(#103,#16,#17),#39,.F.);
#800=CLOSED_SHELL('',(#754,#755,#756,#757,#758,#759,#760,#761,#762,#763,
#764,#765,#766,#767,#768,#769,#770,#771,#772,#773,#774,#775,#776,#777,#778,
#779,#780,#781,#782,#783,#784,#785,#786,#787,#788,#789,#790,#791,#792,#793,
#794,#795,#796,#797,#798,#799));
#801=DERIVED_UNIT_ELEMENT(#803,1.);
#802=DERIVED_UNIT_ELEMENT(#1663,-3.);
#803=(
MASS_UNIT()
NAMED_UNIT(*)
SI_UNIT(.KILO.,.GRAM.)
);
#804=DERIVED_UNIT((#801,#802));
#805=MEASURE_REPRESENTATION_ITEM('density measure',
POSITIVE_RATIO_MEASURE(7850.),#804);
#806=PROPERTY_DEFINITION_REPRESENTATION(#811,#808);
#807=PROPERTY_DEFINITION_REPRESENTATION(#812,#809);
#808=REPRESENTATION('material name',(#810),#1660);
#809=REPRESENTATION('density',(#805),#1660);
#810=DESCRIPTIVE_REPRESENTATION_ITEM('Steel','Steel');
#811=PROPERTY_DEFINITION('material property','material name',#1670);
#812=PROPERTY_DEFINITION('material property','density of part',#1670);
#813=AXIS2_PLACEMENT_3D('',#1085,#880,#881);
#814=AXIS2_PLACEMENT_3D('',#1086,#882,#883);
#815=AXIS2_PLACEMENT_3D('',#1091,#885,#886);
#816=AXIS2_PLACEMENT_3D('',#1133,#889,#890);
#817=AXIS2_PLACEMENT_3D('',#1138,#892,#893);
#818=AXIS2_PLACEMENT_3D('',#1202,#895,#896);
#819=AXIS2_PLACEMENT_3D('',#1203,#897,#898);
#820=AXIS2_PLACEMENT_3D('',#1204,#899,#900);
#821=AXIS2_PLACEMENT_3D('',#1205,#901,#902);
#822=AXIS2_PLACEMENT_3D('',#1208,#903,#904);
#823=AXIS2_PLACEMENT_3D('',#1238,#907,#908);
#824=AXIS2_PLACEMENT_3D('',#1239,#909,#910);
#825=AXIS2_PLACEMENT_3D('',#1240,#911,#912);
#826=AXIS2_PLACEMENT_3D('',#1241,#913,#914);
#827=AXIS2_PLACEMENT_3D('',#1289,#918,#919);
#828=AXIS2_PLACEMENT_3D('',#1387,#922,#923);
#829=AXIS2_PLACEMENT_3D('',#1447,#924,#925);
#830=AXIS2_PLACEMENT_3D('',#1448,#926,#927);
#831=AXIS2_PLACEMENT_3D('',#1449,#928,#929);
#832=AXIS2_PLACEMENT_3D('',#1450,#930,#931);
#833=AXIS2_PLACEMENT_3D('',#1453,#932,#933);
#834=AXIS2_PLACEMENT_3D('',#1483,#936,#937);
#835=AXIS2_PLACEMENT_3D('',#1484,#938,#939);
#836=AXIS2_PLACEMENT_3D('',#1485,#940,#941);
#837=AXIS2_PLACEMENT_3D('',#1486,#942,#943);
#838=AXIS2_PLACEMENT_3D('',#1489,#946,#947);
#839=AXIS2_PLACEMENT_3D('',#1495,#951,#952);
#840=AXIS2_PLACEMENT_3D('',#1498,#954,#955);
#841=AXIS2_PLACEMENT_3D('',#1499,#956,#957);
#842=AXIS2_PLACEMENT_3D('',#1503,#960,#961);
#843=AXIS2_PLACEMENT_3D('',#1506,#963,#964);
#844=AXIS2_PLACEMENT_3D('',#1507,#965,#966);
#845=AXIS2_PLACEMENT_3D('',#1543,#970,#971);
#846=AXIS2_PLACEMENT_3D('',#1545,#972,#973);
#847=AXIS2_PLACEMENT_3D('',#1547,#975,#976);
#848=AXIS2_PLACEMENT_3D('',#1551,#979,#980);
#849=AXIS2_PLACEMENT_3D('',#1553,#981,#982);
#850=AXIS2_PLACEMENT_3D('',#1555,#984,#985);
#851=AXIS2_PLACEMENT_3D('',#1559,#987,#988);
#852=AXIS2_PLACEMENT_3D('',#1563,#990,#991);
#853=AXIS2_PLACEMENT_3D('',#1567,#993,#994);
#854=AXIS2_PLACEMENT_3D('',#1571,#996,#997);
#855=AXIS2_PLACEMENT_3D('',#1573,#999,#1000);
#856=AXIS2_PLACEMENT_3D('',#1582,#1005,#1006);
#857=AXIS2_PLACEMENT_3D('',#1588,#1010,#1011);
#858=AXIS2_PLACEMENT_3D('',#1594,#1015,#1016);
#859=AXIS2_PLACEMENT_3D('',#1597,#1019,#1020);
#860=AXIS2_PLACEMENT_3D('',#1598,#1021,#1022);
#861=AXIS2_PLACEMENT_3D('',#1607,#1027,#1028);
#862=AXIS2_PLACEMENT_3D('',#1613,#1032,#1033);
#863=AXIS2_PLACEMENT_3D('',#1619,#1037,#1038);
#864=AXIS2_PLACEMENT_3D('',#1622,#1041,#1042);
#865=AXIS2_PLACEMENT_3D('',#1623,#1043,#1044);
#866=AXIS2_PLACEMENT_3D('',#1624,#1045,#1046);
#867=AXIS2_PLACEMENT_3D('',#1630,#1050,#1051);
#868=AXIS2_PLACEMENT_3D('',#1632,#1052,#1053);
#869=AXIS2_PLACEMENT_3D('',#1634,#1055,#1056);
#870=AXIS2_PLACEMENT_3D('',#1638,#1059,#1060);
#871=AXIS2_PLACEMENT_3D('',#1640,#1061,#1062);
#872=AXIS2_PLACEMENT_3D('',#1642,#1064,#1065);
#873=AXIS2_PLACEMENT_3D('',#1646,#1068,#1069);
#874=AXIS2_PLACEMENT_3D('',#1648,#1070,#1071);
#875=AXIS2_PLACEMENT_3D('',#1650,#1073,#1074);
#876=AXIS2_PLACEMENT_3D('',#1654,#1077,#1078);
#877=AXIS2_PLACEMENT_3D('',#1655,#1079,#1080);
#878=AXIS2_PLACEMENT_3D('',#1656,#1081,#1082);
#879=AXIS2_PLACEMENT_3D('',#1657,#1083,#1084);
#880=DIRECTION('axis',(0.,0.,1.));
#881=DIRECTION('refdir',(1.,0.,0.));
#882=DIRECTION('center_axis',(-1.,4.4408920984894E-16,4.74050729440043E-17));
#883=DIRECTION('ref_axis',(0.,0.687811676883538,0.725889176901444));
#884=DIRECTION('',(-1.,4.4408920984894E-16,4.74050729440043E-17));
#885=DIRECTION('center_axis',(1.,0.,0.));
#886=DIRECTION('ref_axis',(0.,1.,0.));
#887=DIRECTION('',(1.,-4.4408920984894E-16,-4.74050729440043E-17));
#888=DIRECTION('',(-5.61478005968856E-9,0.998550103992386,0.0538301942853273));
#889=DIRECTION('center_axis',(1.,3.11306536104166E-13,1.6758558555849E-14));
#890=DIRECTION('ref_axis',(2.14447312994246E-13,-0.725889176901449,0.687811676883533));
#891=DIRECTION('',(1.,3.11306536104166E-13,1.6758558555849E-14));
#892=DIRECTION('center_axis',(-1.,-3.10862446895042E-13,-1.67580833905728E-14));
#893=DIRECTION('ref_axis',(3.10862446895042E-13,-1.,0.));
#894=DIRECTION('',(-1.,-3.11306536104166E-13,-1.6758558555849E-14));
#895=DIRECTION('center_axis',(0.,-0.998550103992386,-0.0538301942853181));
#896=DIRECTION('ref_axis',(1.,0.,0.));
#897=DIRECTION('center_axis',(-2.34309320718194E-17,0.0538301942853202,
-0.998550103992386));
#898=DIRECTION('ref_axis',(6.16666157411144E-15,-0.998550103992386,-0.0538301942853202));
#899=DIRECTION('center_axis',(1.19657136426677E-16,-0.0269443917511702,
0.999636933968108));
#900=DIRECTION('ref_axis',(4.43927976142836E-15,-0.999636933968108,-0.0269443917511702));
#901=DIRECTION('center_axis',(-8.86890653359605E-16,-0.998550103992386,
-0.0538301942853202));
#902=DIRECTION('ref_axis',(0.707106781186546,-0.0380636954117378,0.70608154988755));
#903=DIRECTION('center_axis',(-8.86890653355352E-15,-0.998550103992386,
-0.0538301942853181));
#904=DIRECTION('ref_axis',(1.,-8.88178419700124E-15,0.));
#905=DIRECTION('',(-8.86890653359605E-16,-0.998550103992386,-0.0538301942853202));
#906=DIRECTION('',(8.86890653359605E-16,0.998550103992386,0.0538301942853202));
#907=DIRECTION('center_axis',(1.,0.,0.));
#908=DIRECTION('ref_axis',(0.,1.,0.));
#909=DIRECTION('center_axis',(-2.34309320718194E-17,0.0538301942853202,
-0.998550103992386));
#910=DIRECTION('ref_axis',(-2.02936275917E-34,0.998550103992386,0.0538301942853202));
#911=DIRECTION('center_axis',(0.,-0.0269443917511702,0.999636933968108));
#912=DIRECTION('ref_axis',(0.,0.999636933968108,0.0269443917511702));
#913=DIRECTION('center_axis',(-1.,4.4408920984894E-16,4.74050729440043E-17));
#914=DIRECTION('ref_axis',(0.,0.687811676883538,0.725889176901444));
#915=DIRECTION('',(1.,-4.4408920984894E-16,-4.74050729440043E-17));
#916=DIRECTION('',(-1.,4.4408920984894E-16,4.74050729440043E-17));
#917=DIRECTION('',(-5.61507128732696E-9,-0.998550103992386,-0.0538301942853208));
#918=DIRECTION('center_axis',(0.999999999999945,3.10862446895026E-13,-3.31296856059509E-7));
#919=DIRECTION('ref_axis',(3.30816526804359E-7,-0.0538301942853181,0.998550103992331));
#920=DIRECTION('',(-5.61507128732696E-9,-0.998550103992386,-0.0538301942853208));
#921=DIRECTION('',(-5.61478005968856E-9,0.998550103992386,0.0538301942853273));
#922=DIRECTION('center_axis',(-1.,0.,9.21250968154173E-9));
#923=DIRECTION('ref_axis',(9.19915250053436E-9,-0.053830194285318,0.998550103992386));
#924=DIRECTION('center_axis',(-2.57186336768829E-12,0.998550103992386,0.053830194285318));
#925=DIRECTION('ref_axis',(-1.,-2.57571741713036E-12,2.22044604925031E-15));
#926=DIRECTION('center_axis',(-2.34309320718194E-17,0.0538301942853202,
-0.998550103992386));
#927=DIRECTION('ref_axis',(-4.43445326677677E-15,0.998550103992386,0.0538301942853202));
#928=DIRECTION('center_axis',(1.19657136426677E-16,-0.0269443917511702,
0.999636933968108));
#929=DIRECTION('ref_axis',(-4.43927976142836E-15,0.999636933968108,0.0269443917511702));
#930=DIRECTION('center_axis',(2.57198289472974E-12,-0.998550103992386,-0.0538301942853202));
#931=DIRECTION('ref_axis',(-0.707106781186498,-0.038063695413558,0.7060815498875));
#932=DIRECTION('center_axis',(-2.56748867794263E-12,0.998550103992386,0.0538301942853182));
#933=DIRECTION('ref_axis',(-1.,-2.57127652503186E-12,1.11022302462516E-15));
#934=DIRECTION('',(-2.57198289472974E-12,0.998550103992386,0.0538301942853202));
#935=DIRECTION('',(2.57198289472974E-12,-0.998550103992386,-0.0538301942853202));
#936=DIRECTION('center_axis',(-1.,-3.10862446895045E-13,-1.67580833905729E-14));
#937=DIRECTION('ref_axis',(3.10862446895045E-13,-1.,0.));
#938=DIRECTION('center_axis',(-2.34309320718194E-17,0.0538301942853202,
-0.998550103992386));
#939=DIRECTION('ref_axis',(-1.91235797129748E-14,-0.998550103992386,-0.0538301942853202));
#940=DIRECTION('center_axis',(7.62814244718373E-17,-0.0269443917511702,
0.999636933968108));
#941=DIRECTION('ref_axis',(-1.77571190457134E-14,-0.999636933968108,-0.0269443917511702));
#942=DIRECTION('center_axis',(1.,3.11306536104166E-13,1.6758558555849E-14));
#943=DIRECTION('ref_axis',(2.14447312994246E-13,-0.725889176901449,0.687811676883533));
#944=DIRECTION('',(-1.,-3.11306536104166E-13,-1.6758558555849E-14));
#945=DIRECTION('',(1.,3.11306536104166E-13,1.6758558555849E-14));
#946=DIRECTION('center_axis',(4.4408920984894E-16,1.,0.));
#947=DIRECTION('ref_axis',(-1.,4.4408920984894E-16,0.));
#948=DIRECTION('',(0.,0.,1.));
#949=DIRECTION('',(1.,-4.4408920984894E-16,0.));
#950=DIRECTION('',(0.,0.,-1.));
#951=DIRECTION('center_axis',(0.,0.,1.));
#952=DIRECTION('ref_axis',(0.707106781186548,0.707106781186548,0.));
#953=DIRECTION('',(0.,0.,-1.));
#954=DIRECTION('center_axis',(0.,0.,1.));
#955=DIRECTION('ref_axis',(0.707106781186548,0.707106781186548,0.));
#956=DIRECTION('center_axis',(1.,-8.88178419704383E-16,0.));
#957=DIRECTION('ref_axis',(8.88178419704383E-16,1.,0.));
#958=DIRECTION('',(0.,0.,1.));
#959=DIRECTION('',(-8.88178419704383E-16,-1.,0.));
#960=DIRECTION('center_axis',(0.,0.,1.));
#961=DIRECTION('ref_axis',(0.707106781186657,-0.707106781186438,0.));
#962=DIRECTION('',(0.,0.,-1.));
#963=DIRECTION('center_axis',(0.,0.,1.));
#964=DIRECTION('ref_axis',(0.707106781186657,-0.707106781186438,0.));
#965=DIRECTION('center_axis',(2.34309320718194E-17,-0.0538301942853202,
0.998550103992386));
#966=DIRECTION('ref_axis',(-4.43445326677676E-16,0.998550103992386,0.0538301942853202));
#967=DIRECTION('',(-5.61478005968856E-9,0.998550103992386,0.0538301942853273));
#968=DIRECTION('',(-6.06958443376117E-9,0.998550103992386,0.0538301942853206));
#969=DIRECTION('',(-5.61507128732696E-9,-0.998550103992386,-0.0538301942853208));
#970=DIRECTION('center_axis',(0.,0.,1.));
#971=DIRECTION('ref_axis',(-0.707106781187458,0.707106781185637,0.));
#972=DIRECTION('center_axis',(0.,0.,1.));
#973=DIRECTION('ref_axis',(-0.707106781187458,0.707106781185637,0.));
#974=DIRECTION('',(0.,0.,1.));
#975=DIRECTION('center_axis',(-1.,-2.57571741712958E-12,0.));
#976=DIRECTION('ref_axis',(2.57571741712958E-12,-1.,0.));
#977=DIRECTION('',(-2.57571741712958E-12,1.,0.));
#978=DIRECTION('',(0.,0.,-1.));
#979=DIRECTION('center_axis',(0.,0.,1.));
#980=DIRECTION('ref_axis',(-0.707106781185527,-0.707106781187568,0.));
#981=DIRECTION('center_axis',(0.,0.,1.));
#982=DIRECTION('ref_axis',(-0.707106781185527,-0.707106781187568,0.));
#983=DIRECTION('',(0.,0.,1.));
#984=DIRECTION('center_axis',(0.,0.,1.));
#985=DIRECTION('ref_axis',(1.,0.,0.));
#986=DIRECTION('',(-1.,-3.11306536104166E-13,0.));
#987=DIRECTION('center_axis',(0.,0.,1.));
#988=DIRECTION('ref_axis',(-2.40885894989056E-5,0.99999999970987,0.));
#989=DIRECTION('',(-2.45805914642604E-16,-1.,0.));
#990=DIRECTION('center_axis',(0.,0.,1.));
#991=DIRECTION('ref_axis',(-1.,-2.33367314884868E-8,0.));
#992=DIRECTION('',(1.,1.55677034988571E-15,0.));
#993=DIRECTION('center_axis',(0.,0.,1.));
#994=DIRECTION('ref_axis',(-1.26045007513172E-5,-0.999999999920563,0.));
#995=DIRECTION('',(8.19352545895196E-17,1.,0.));
#996=DIRECTION('center_axis',(0.,0.,1.));
#997=DIRECTION('ref_axis',(0.999999999999979,2.02308302386517E-7,0.));
#998=DIRECTION('',(-1.,1.44287640277483E-13,0.));
#999=DIRECTION('center_axis',(0.,1.,0.));
#1000=DIRECTION('ref_axis',(1.,0.,0.));
#1001=DIRECTION('',(-1.,0.,0.));
#1002=DIRECTION('',(0.,0.,-1.));
#1003=DIRECTION('',(1.,0.,0.));
#1004=DIRECTION('',(0.,0.,-1.));
#1005=DIRECTION('center_axis',(-1.,0.,0.));
#1006=DIRECTION('ref_axis',(0.,1.,0.));
#1007=DIRECTION('',(0.,-1.,0.));
#1008=DIRECTION('',(0.,1.,0.));
#1009=DIRECTION('',(0.,0.,-1.));
#1010=DIRECTION('center_axis',(0.,-1.,0.));
#1011=DIRECTION('ref_axis',(-1.,0.,0.));
#1012=DIRECTION('',(1.,0.,0.));
#1013=DIRECTION('',(-1.,0.,0.));
#1014=DIRECTION('',(0.,0.,-1.));
#1015=DIRECTION('center_axis',(1.,0.,0.));
#1016=DIRECTION('ref_axis',(0.,-1.,0.));
#1017=DIRECTION('',(0.,1.,0.));
#1018=DIRECTION('',(0.,-1.,0.));
#1019=DIRECTION('center_axis',(0.,0.,-1.));
#1020=DIRECTION('ref_axis',(-1.,0.,0.));
#1021=DIRECTION('center_axis',(0.,1.,0.));
#1022=DIRECTION('ref_axis',(1.,0.,0.));
#1023=DIRECTION('',(-1.,0.,0.));
#1024=DIRECTION('',(0.,0.,-1.));
#1025=DIRECTION('',(1.,0.,0.));
#1026=DIRECTION('',(0.,0.,-1.));
#1027=DIRECTION('center_axis',(-1.,0.,0.));
#1028=DIRECTION('ref_axis',(0.,1.,0.));
#1029=DIRECTION('',(0.,-1.,0.));
#1030=DIRECTION('',(0.,1.,0.));
#1031=DIRECTION('',(0.,0.,-1.));
#1032=DIRECTION('center_axis',(0.,-1.,0.));
#1033=DIRECTION('ref_axis',(-1.,0.,0.));
#1034=DIRECTION('',(1.,0.,0.));
#1035=DIRECTION('',(-1.,0.,0.));
#1036=DIRECTION('',(0.,0.,-1.));
#1037=DIRECTION('center_axis',(1.,0.,0.));
#1038=DIRECTION('ref_axis',(0.,-1.,0.));
#1039=DIRECTION('',(0.,1.,0.));
#1040=DIRECTION('',(0.,-1.,0.));
#1041=DIRECTION('center_axis',(0.,0.,-1.));
#1042=DIRECTION('ref_axis',(-1.,0.,0.));
#1043=DIRECTION('center_axis',(2.34309320718194E-17,-0.0538301942853202,
0.998550103992386));
#1044=DIRECTION('ref_axis',(-4.43445326677676E-16,0.998550103992386,0.0538301942853202));
#1045=DIRECTION('center_axis',(-1.44287640277483E-13,-1.,0.));
#1046=DIRECTION('ref_axis',(-1.,1.44287640277483E-13,0.));
#1047=DIRECTION('',(1.,-1.44287640277483E-13,0.));
#1048=DIRECTION('',(0.,0.,-1.));
#1049=DIRECTION('',(0.,0.,-1.));
#1050=DIRECTION('center_axis',(0.,0.,-1.));
#1051=DIRECTION('ref_axis',(0.999999999999979,2.02308302386517E-7,0.));
#1052=DIRECTION('center_axis',(0.,0.,-1.));
#1053=DIRECTION('ref_axis',(0.999999999999979,2.02308302386517E-7,0.));
#1054=DIRECTION('',(0.,0.,-1.));
#1055=DIRECTION('center_axis',(-1.,8.19352545895196E-17,0.));
#1056=DIRECTION('ref_axis',(8.19352545895196E-17,1.,0.));
#1057=DIRECTION('',(-8.19352545895196E-17,-1.,0.));
#1058=DIRECTION('',(0.,0.,-1.));
#1059=DIRECTION('center_axis',(0.,0.,-1.));
#1060=DIRECTION('ref_axis',(-1.26045007513172E-5,-0.999999999920563,0.));
#1061=DIRECTION('center_axis',(0.,0.,-1.));
#1062=DIRECTION('ref_axis',(-1.26045007513172E-5,-0.999999999920563,0.));
#1063=DIRECTION('',(0.,0.,-1.));
#1064=DIRECTION('center_axis',(-1.55677034988571E-15,1.,0.));
#1065=DIRECTION('ref_axis',(1.,1.55677034988571E-15,0.));
#1066=DIRECTION('',(-1.,-1.55677034988571E-15,0.));
#1067=DIRECTION('',(0.,0.,-1.));
#1068=DIRECTION('center_axis',(0.,0.,-1.));
#1069=DIRECTION('ref_axis',(-1.,-2.33367314884868E-8,0.));
#1070=DIRECTION('center_axis',(0.,0.,-1.));
#1071=DIRECTION('ref_axis',(-1.,-2.33367314884868E-8,0.));
#1072=DIRECTION('',(0.,0.,-1.));
#1073=DIRECTION('center_axis',(1.,-2.45805914642604E-16,0.));
#1074=DIRECTION('ref_axis',(-2.45805914642604E-16,-1.,0.));
#1075=DIRECTION('',(2.45805914642604E-16,1.,0.));
#1076=DIRECTION('',(0.,0.,-1.));
#1077=DIRECTION('center_axis',(0.,0.,-1.));
#1078=DIRECTION('ref_axis',(-2.40885894989056E-5,0.99999999970987,0.));
#1079=DIRECTION('center_axis',(0.,0.,-1.));
#1080=DIRECTION('ref_axis',(-2.40885894989056E-5,0.99999999970987,0.));
#1081=DIRECTION('center_axis',(3.11306536104166E-13,-1.,0.));
#1082=DIRECTION('ref_axis',(1.,3.11306536104166E-13,0.));
#1083=DIRECTION('center_axis',(0.,0.,1.));
#1084=DIRECTION('ref_axis',(1.,0.,0.));
#1085=CARTESIAN_POINT('',(0.,0.,0.));
#1086=CARTESIAN_POINT('Origin',(9.27499999998611,9.02499999999866,2.7361599107366));
#1087=CARTESIAN_POINT('',(-7.03557425768332,9.27499999999867,2.7361599107366));
#1088=CARTESIAN_POINT('',(-8.7750000000128,9.27499999999867,2.7361599107366));
#1089=CARTESIAN_POINT('',(9.27499999998611,9.27499999999866,2.7361599107366));
#1090=CARTESIAN_POINT('',(-8.7750000000128,9.01154245142734,2.9857974367347));
#1091=CARTESIAN_POINT('Origin',(-8.7750000000128,9.02499999999866,2.7361599107366));
#1092=CARTESIAN_POINT('',(-7.00000010284068,9.01154245142733,2.98579743673481));
#1093=CARTESIAN_POINT('',(9.27499999998611,9.01154245142733,2.98579743673469));
#1094=CARTESIAN_POINT('',(-7.0000001028437,9.01207928598879,2.98582637660335));
#1095=CARTESIAN_POINT('',(-7.00000000001669,-9.27499999999847,1.99999999999983));
#1096=CARTESIAN_POINT('Ctrl Pts',(-7.0000001028424,9.0120792859888,2.98582637661079));
#1097=CARTESIAN_POINT('Ctrl Pts',(-6.99988074440449,9.02817919231893,2.98665948323715));
#1098=CARTESIAN_POINT('Ctrl Pts',(-7.00000785079989,9.04426819845142,2.98585004235541));
#1099=CARTESIAN_POINT('Ctrl Pts',(-7.00035034632778,9.06013871072298,2.98352333597355));
#1100=CARTESIAN_POINT('Ctrl Pts',(-7.00069284185566,9.07600922299454,2.9811966295917));
#1101=CARTESIAN_POINT('Ctrl Pts',(-7.00125091021013,9.0916629897777,2.97735201085323));
#1102=CARTESIAN_POINT('Ctrl Pts',(-7.00200898651075,9.10688531440948,2.97205990200182));
#1103=CARTESIAN_POINT('Ctrl Pts',(-7.00277031136268,9.12217287060512,2.96674511510715));
#1104=CARTESIAN_POINT('Ctrl Pts',(-7.00372561608267,9.13687373498749,2.96002311195069));
#1105=CARTESIAN_POINT('Ctrl Pts',(-7.00486219053289,9.15078310424021,2.95199807878474));
#1106=CARTESIAN_POINT('Ctrl Pts',(-7.00599876498311,9.16469247349293,2.9439730456188));
#1107=CARTESIAN_POINT('Ctrl Pts',(-7.00731679826555,9.17781211636547,2.9346443179356));
#1108=CARTESIAN_POINT('Ctrl Pts',(-7.00881744535332,9.18991057734985,2.92406766463042));
#1109=CARTESIAN_POINT('Ctrl Pts',(-7.00912314296781,9.19237516125645,2.92191308897363));
#1110=CARTESIAN_POINT('Ctrl Pts',(-7.00943588539722,9.19479249306389,2.91971072650537));
#1111=CARTESIAN_POINT('Ctrl Pts',(-7.00975565462067,9.19716091245784,2.91746141070041));
#1112=CARTESIAN_POINT('Ctrl Pts',(-7.01128599013836,9.20849557525072,2.90669674789233));
#1113=CARTESIAN_POINT('Ctrl Pts',(-7.01297626367508,9.21871286606651,2.8948600913253));
#1114=CARTESIAN_POINT('Ctrl Pts',(-7.01478849546729,9.22776033328808,2.88216656414504));
#1115=CARTESIAN_POINT('Ctrl Pts',(-7.01635292688232,9.23557067080047,2.8712087204665));
#1116=CARTESIAN_POINT('Ctrl Pts',(-7.01800863821715,9.24250897900913,2.85961096332389));
#1117=CARTESIAN_POINT('Ctrl Pts',(-7.01973661138187,9.24851689652342,2.84749343294668));
#1118=CARTESIAN_POINT('Ctrl Pts',(-7.02175638115469,9.25553934944154,2.83332965883435));
#1119=CARTESIAN_POINT('Ctrl Pts',(-7.02386049111129,9.26124217480132,2.81855614024059));
#1120=CARTESIAN_POINT('Ctrl Pts',(-7.02602051482449,9.26554320323836,2.80337246337833));
#1121=CARTESIAN_POINT('Ctrl Pts',(-7.02645129750591,9.26640097556355,2.80034431836654));
#1122=CARTESIAN_POINT('Ctrl Pts',(-7.02688432311041,9.26720283997726,2.79729979826072));
#1123=CARTESIAN_POINT('Ctrl Pts',(-7.02731938898325,9.26794790736822,2.79424041370526));
#1124=CARTESIAN_POINT('Ctrl Pts',(-7.02948239015877,9.27165213181587,2.77903018278862));
#1125=CARTESIAN_POINT('Ctrl Pts',(-7.0316848513228,9.2739380811462,2.76352883755232));
#1126=CARTESIAN_POINT('Ctrl Pts',(-7.03390225208055,9.27470882489722,2.74792489669809));
#1127=CARTESIAN_POINT('Ctrl Pts',(-7.03436978565244,9.27487133434782,2.74463484361337));
#1128=CARTESIAN_POINT('Ctrl Pts',(-7.03483799227222,9.27496630096611,2.7413402038977));
#1129=CARTESIAN_POINT('Ctrl Pts',(-7.03530664976588,9.27499251418486,2.73804272633912));
#1130=CARTESIAN_POINT('Ctrl Pts',(-7.03539583592386,9.27499750259601,2.73741521187824));
#1131=CARTESIAN_POINT('Ctrl Pts',(-7.03548502929678,9.27500000029448,2.73678765852649));
#1132=CARTESIAN_POINT('Ctrl Pts',(-7.03557422834478,9.27499999999867,2.73616007838435));
#1133=CARTESIAN_POINT('Origin',(-1.39777815896713E-11,-9.02499999999846,
1.76311408863403));
#1134=CARTESIAN_POINT('',(7.03557419914603,-9.27499999999627,1.76311408863415));
#1135=CARTESIAN_POINT('',(8.77499999998626,-9.27499999999573,1.76311408863418));
#1136=CARTESIAN_POINT('',(-1.38999549556453E-11,-9.27499999999846,1.76311408863403));
#1137=CARTESIAN_POINT('',(8.77499999998618,-9.03845754856706,2.01275161463228));
#1138=CARTESIAN_POINT('Origin',(8.77499999998618,-9.02499999999573,1.76311408863418));
#1139=CARTESIAN_POINT('',(7.00000206833576,-9.03845754856761,2.01275161463225));
#1140=CARTESIAN_POINT('',(-1.39777757319383E-11,-9.03845754856979,2.01275161463213));
#1141=CARTESIAN_POINT('Ctrl Pts',(7.00000207646043,-9.03845754140886,2.01275158677958));
#1142=CARTESIAN_POINT('Ctrl Pts',(7.00012658320696,-9.0545611837407,2.01188177620302));
#1143=CARTESIAN_POINT('Ctrl Pts',(7.00049324700132,-9.07047991056442,2.00938876647927));
#1144=CARTESIAN_POINT('Ctrl Pts',(7.00106972733709,-9.086018430979,2.00541357619675));
#1145=CARTESIAN_POINT('Ctrl Pts',(7.00164620767286,-9.10155695139358,2.00143838591423));
#1146=CARTESIAN_POINT('Ctrl Pts',(7.00243272664592,-9.11671695150523,1.99598023423564));
#1147=CARTESIAN_POINT('Ctrl Pts',(7.00341227063492,-9.131290631328,1.98912609021824));
#1148=CARTESIAN_POINT('Ctrl Pts',(7.00437355443198,-9.14559263556116,1.98239971788512));
#1149=CARTESIAN_POINT('Ctrl Pts',(7.00551172874285,-9.15919264718895,1.97439336866705));
#1150=CARTESIAN_POINT('Ctrl Pts',(7.00681354405361,-9.17190921730978,1.96521824610444));
#1151=CARTESIAN_POINT('Ctrl Pts',(7.00807770997577,-9.18425801553074,1.95630847435768));
#1152=CARTESIAN_POINT('Ctrl Pts',(7.00949642587991,-9.19577497157659,1.94629572504085));
#1153=CARTESIAN_POINT('Ctrl Pts',(7.01106851275672,-9.20626853125625,1.93524379672035));
#1154=CARTESIAN_POINT('Ctrl Pts',(7.01119764192627,-9.20713045858805,1.93433600571527));
#1155=CARTESIAN_POINT('Ctrl Pts',(7.01132781101417,-9.20798546064141,1.93342118571977));
#1156=CARTESIAN_POINT('Ctrl Pts',(7.01145900213586,-9.20883349437261,1.93249943116775));
#1157=CARTESIAN_POINT('Ctrl Pts',(7.0130706133055,-9.21925112489439,1.92117618068667));
#1158=CARTESIAN_POINT('Ctrl Pts',(7.01482144821732,-9.22852733206988,1.90891054492442));
#1159=CARTESIAN_POINT('Ctrl Pts',(7.01667608474262,-9.23662166327262,1.8959097588137));
#1160=CARTESIAN_POINT('Ctrl Pts',(7.01857947115225,-9.24492875730221,1.88256724168966));
#1161=CARTESIAN_POINT('Ctrl Pts',(7.02059257103905,-9.25199182225947,1.86844908298428));
#1162=CARTESIAN_POINT('Ctrl Pts',(7.02268603309924,-9.257724354578,1.85374939859922));
#1163=CARTESIAN_POINT('Ctrl Pts',(7.02286807822882,-9.25822284920497,1.8524711304139));
#1164=CARTESIAN_POINT('Ctrl Pts',(7.02305073430288,-9.25871125184934,1.85118845423202));
#1165=CARTESIAN_POINT('Ctrl Pts',(7.02323398358293,-9.25918948761123,1.84990149268879));
#1166=CARTESIAN_POINT('Ctrl Pts',(7.02533641456911,-9.2646763178143,1.83513609865437));
#1167=CARTESIAN_POINT('Ctrl Pts',(7.0274993058946,-9.26878364820627,1.81992965318736));
#1168=CARTESIAN_POINT('Ctrl Pts',(7.02969529391559,-9.27144011916994,1.80448054471758));
#1169=CARTESIAN_POINT('Ctrl Pts',(7.03155239449466,-9.27368664042497,1.79141556075084));
#1170=CARTESIAN_POINT('Ctrl Pts',(7.0334334574,-9.27489503117766,1.77817604527281));
#1171=CARTESIAN_POINT('Ctrl Pts',(7.03532364750017,-9.27499347353502,1.76487687701472));
#1172=CARTESIAN_POINT('Ctrl Pts',(7.03540714979063,-9.27499782238983,1.76428936414466));
#1173=CARTESIAN_POINT('Ctrl Pts',(7.03549065778658,-9.27499999975602,1.76370181981743));
#1174=CARTESIAN_POINT('Ctrl Pts',(7.03557417019737,-9.27499999999627,1.76311425405789));
#1175=CARTESIAN_POINT('Ctrl Pts',(9.0249999999861,-8.78845754856706,2.02622870358107));
#1176=CARTESIAN_POINT('Ctrl Pts',(9.0249999999861,-8.85390739551683,2.02270040994496));
#1177=CARTESIAN_POINT('Ctrl Pts',(8.97091041576815,-8.98436796434905,2.01566749518311));
#1178=CARTESIAN_POINT('Ctrl Pts',(8.84044984693596,-9.03845754856704,2.01275161463228));
#1179=CARTESIAN_POINT('Ctrl Pts',(8.77499999998618,-9.03845754856706,2.01275161463228));
#1180=CARTESIAN_POINT('Ctrl Pts',(9.09044984693589,-8.78845754856706,2.02622870358107));
#1181=CARTESIAN_POINT('Ctrl Pts',(9.08985743103331,-8.87101933951748,2.02175873196726));
#1182=CARTESIAN_POINT('Ctrl Pts',(9.02058767612134,-9.03440666940928,2.01297198805997));
#1183=CARTESIAN_POINT('Ctrl Pts',(8.85704430311059,-9.10157174423178,2.00934923211666));
#1184=CARTESIAN_POINT('Ctrl Pts',(8.7749999999862,-9.10157174423181,2.00934923211665));
#1185=CARTESIAN_POINT('Ctrl Pts',(9.22077593866871,-8.78553865681141,1.9720832615137));
#1186=CARTESIAN_POINT('Ctrl Pts',(9.21904999580091,-8.90209608310587,1.96683152744746));
#1187=CARTESIAN_POINT('Ctrl Pts',(9.11957886472879,-9.13134453164185,1.95647249213251));
#1188=CARTESIAN_POINT('Ctrl Pts',(8.88999295016272,-9.22461141167208,1.95225461333009));
#1189=CARTESIAN_POINT('Ctrl Pts',(8.77499999998624,-9.22461141167211,1.95225461333009));
#1190=CARTESIAN_POINT('Ctrl Pts',(9.2749999999861,-8.77852317797298,1.84194612906097));
#1191=CARTESIAN_POINT('Ctrl Pts',(9.27405695469079,-8.90952769178104,1.83782627846373));
#1192=CARTESIAN_POINT('Ctrl Pts',(9.16426349921077,-9.16850032654008,1.82967683221074));
#1193=CARTESIAN_POINT('Ctrl Pts',(8.905124935131,-9.27499999999569,1.82631992619046));
#1194=CARTESIAN_POINT('Ctrl Pts',(8.77499999998626,-9.27499999999573,1.82631992619046));
#1195=CARTESIAN_POINT('Ctrl Pts',(9.2749999999861,-8.77499999999573,1.77659117758297));
#1196=CARTESIAN_POINT('Ctrl Pts',(9.2749999999861,-8.90589969389528,1.77306288394686));
#1197=CARTESIAN_POINT('Ctrl Pts',(9.16682083155019,-9.1668208315597,1.76602996918501));
#1198=CARTESIAN_POINT('Ctrl Pts',(8.90589969388581,-9.27499999999569,1.76311408863418));
#1199=CARTESIAN_POINT('Ctrl Pts',(8.77499999998626,-9.27499999999573,1.76311408863418));
#1200=CARTESIAN_POINT('',(9.2749999999861,-8.77499999999573,1.77659117758297));
#1201=CARTESIAN_POINT('',(9.0249999999861,-8.78845754856706,2.02622870358107));
#1202=CARTESIAN_POINT('Origin',(9.0249999999861,-8.77499999999573,1.77659117758297));
#1203=CARTESIAN_POINT('Origin',(8.7749999999861,-8.78845754856706,2.02622870358107));
#1204=CARTESIAN_POINT('Origin',(8.7749999999861,-8.77499999999573,1.77659117758297));
#1205=CARTESIAN_POINT('Origin',(9.0249999999861,-9.31529459752589,1.74746478418511));
#1206=CARTESIAN_POINT('',(9.27499999998612,8.77499999999866,2.72268282178781));
#1207=CARTESIAN_POINT('',(9.02499999998612,8.76154245142733,2.9723203477859));
#1208=CARTESIAN_POINT('Origin',(9.02499999998612,8.77499999999866,2.72268282178781));
#1209=CARTESIAN_POINT('',(9.0249999999861,-9.32875214609722,1.9971023101832));
#1210=CARTESIAN_POINT('',(9.2749999999861,-9.31529459752589,1.74746478418511));
#1211=CARTESIAN_POINT('Ctrl Pts',(8.77499999998612,9.01154245142733,2.98579743673469));
#1212=CARTESIAN_POINT('Ctrl Pts',(8.84044984693591,9.01154245142733,2.98579743673469));
#1213=CARTESIAN_POINT('Ctrl Pts',(8.97090750288298,8.95744995432419,2.98288139915501));
#1214=CARTESIAN_POINT('Ctrl Pts',(9.02499999998612,8.82699229837712,2.97584864142201));
#1215=CARTESIAN_POINT('Ctrl Pts',(9.02499999998612,8.76154245142733,2.9723203477859));
#1216=CARTESIAN_POINT('Ctrl Pts',(8.77499999998612,9.07913815871857,2.98944141017358));
#1217=CARTESIAN_POINT('Ctrl Pts',(8.85823566212384,9.07913815871857,2.98944141017358));
#1218=CARTESIAN_POINT('Ctrl Pts',(9.0239127592843,9.00972442136353,2.98569778596203));
#1219=CARTESIAN_POINT('Ctrl Pts',(9.09104280943526,8.84410784992928,2.97679048469359));
#1220=CARTESIAN_POINT('Ctrl Pts',(9.09044984693591,8.76154245142733,2.9723203477859));
#1221=CARTESIAN_POINT('Ctrl Pts',(8.77499999998611,9.21685656363591,2.93863772223989));
#1222=CARTESIAN_POINT('Ctrl Pts',(8.89344834629394,9.21685656363591,2.93863772223989));
#1223=CARTESIAN_POINT('Ctrl Pts',(9.12946752796052,9.11692919903576,2.93414026063308));
#1224=CARTESIAN_POINT('Ctrl Pts',(9.22257166785,8.88101245000348,2.92349632491534));
#1225=CARTESIAN_POINT('Ctrl Pts',(9.22084612378912,8.76445756510431,2.9182449890778));
#1226=CARTESIAN_POINT('Ctrl Pts',(8.77499999998612,9.27499999999866,2.80385376707989));
#1227=CARTESIAN_POINT('Ctrl Pts',(8.90701495907533,9.27499999999866,2.80385376707989));
#1228=CARTESIAN_POINT('Ctrl Pts',(9.16948797273747,9.16496850869941,2.80040162087608));
#1229=CARTESIAN_POINT('Ctrl Pts',(9.27594321081531,8.90248226632739,2.7921581696673));
#1230=CARTESIAN_POINT('Ctrl Pts',(9.27499999998612,8.77147682202141,2.7880377732658));
#1231=CARTESIAN_POINT('Ctrl Pts',(8.77499999998612,9.27499999999866,2.7361599107366));
#1232=CARTESIAN_POINT('Ctrl Pts',(8.90589969388569,9.27499999999866,2.7361599107366));
#1233=CARTESIAN_POINT('Ctrl Pts',(9.16681500577985,9.16681500579238,2.73324387315691));
#1234=CARTESIAN_POINT('Ctrl Pts',(9.27499999998612,8.90589969389823,2.72621111542392));
#1235=CARTESIAN_POINT('Ctrl Pts',(9.27499999998612,8.77499999999866,2.72268282178781));
#1236=CARTESIAN_POINT('',(8.77499999998612,9.27499999999866,2.7361599107366));
#1237=CARTESIAN_POINT('',(8.77499999998612,9.01154245142733,2.98579743673469));
#1238=CARTESIAN_POINT('Origin',(8.77499999998612,9.02499999999866,2.7361599107366));
#1239=CARTESIAN_POINT('Origin',(8.77499999998612,8.76154245142733,2.9723203477859));
#1240=CARTESIAN_POINT('Origin',(8.77499999998612,8.77499999999866,2.72268282178781));
#1241=CARTESIAN_POINT('Origin',(9.27499999998611,9.02499999999866,2.7361599107366));
#1242=CARTESIAN_POINT('',(7.00000010281266,9.01154245142733,2.98579743673469));
#1243=CARTESIAN_POINT('',(9.27499999998611,9.01154245142733,2.98579743673469));
#1244=CARTESIAN_POINT('',(7.03557425885825,9.27499999999866,2.7361599107366));
#1245=CARTESIAN_POINT('',(9.27499999998611,9.27499999999866,2.7361599107366));
#1246=CARTESIAN_POINT('',(6.99999811825553,9.01207928571376,2.98582579775841));
#1247=CARTESIAN_POINT('Ctrl Pts',(7.03557425885825,9.27499999999866,2.7361599107366));
#1248=CARTESIAN_POINT('Ctrl Pts',(7.03548505789324,9.27499999999866,2.73678749109536));
#1249=CARTESIAN_POINT('Ctrl Pts',(7.03539585555567,9.27499763685601,2.73741506916981));
#1250=CARTESIAN_POINT('Ctrl Pts',(7.03261479263148,9.27485028611217,2.75698071048274));
#1251=CARTESIAN_POINT('Ctrl Pts',(7.02993168489351,9.27255612020514,2.77584620018295));
#1252=CARTESIAN_POINT('Ctrl Pts',(7.02468918813401,9.26375086312197,2.81268686619539));
#1253=CARTESIAN_POINT('Ctrl Pts',(7.02214545272536,9.25727025514741,2.83055208193047));
#1254=CARTESIAN_POINT('Ctrl Pts',(7.015588075326,9.23436761502512,2.87658311133378));
#1255=CARTESIAN_POINT('Ctrl Pts',(7.01187785416526,9.21436209367832,2.90260175482931));
#1256=CARTESIAN_POINT('Ctrl Pts',(7.00577875489611,9.16563993557036,2.94534922477304));
#1257=CARTESIAN_POINT('Ctrl Pts',(7.0034353303318,9.1374755302067,2.96176054463018));
#1258=CARTESIAN_POINT('Ctrl Pts',(7.00041436330539,9.07648134118117,2.98291313082912));
#1259=CARTESIAN_POINT('Ctrl Pts',(6.99976006041154,9.04427909848757,2.98749220315256));
#1260=CARTESIAN_POINT('Ctrl Pts',(6.99999811825524,9.01207928571376,2.98582579775837));
#1261=CARTESIAN_POINT('',(6.99999999998333,-9.27499999999846,1.99999999999984));
#1262=CARTESIAN_POINT('Ctrl Pts',(7.00000000131648,-9.03792071272806,2.01278055456967));
#1263=CARTESIAN_POINT('Ctrl Pts',(4.7296531028987,-9.03827626836579,1.35057605926424));
#1264=CARTESIAN_POINT('Ctrl Pts',(2.36495288303249,-9.03845755963699,1.012750830534));
#1265=CARTESIAN_POINT('Ctrl Pts',(-1.45448292299122E-9,-9.03845754856979,
1.01275161463211));
#1266=CARTESIAN_POINT('Ctrl Pts',(7.00091596314515,-9.10113155642976,2.00964011788348));
#1267=CARTESIAN_POINT('Ctrl Pts',(4.73033773885022,-9.10142329228166,1.34727561688304));
#1268=CARTESIAN_POINT('Ctrl Pts',(2.36523242657667,-9.10157175330915,1.00934844516869));
#1269=CARTESIAN_POINT('Ctrl Pts',(-2.58166190717859E-9,-9.10157174423454,
1.00934923211649));
#1270=CARTESIAN_POINT('Ctrl Pts',(7.0168705215275,-9.22447014037304,1.95493884225341));
#1271=CARTESIAN_POINT('Ctrl Pts',(4.74107904398114,-9.22457015189823,1.29098334454315));
#1272=CARTESIAN_POINT('Ctrl Pts',(2.37069225660248,-9.22462018192276,0.952262129730228));
#1273=CARTESIAN_POINT('Ctrl Pts',(-2.14941392311642E-8,-9.22462017881518,
0.952262920578045));
#1274=CARTESIAN_POINT('Ctrl Pts',(7.05218378716155,-9.27499999999627,1.8338649378207));
#1275=CARTESIAN_POINT('Ctrl Pts',(4.76493150695718,-9.27499825374335,1.1666865843932));
#1276=CARTESIAN_POINT('Ctrl Pts',(2.38258058484419,-9.2749999999436,0.826319134987475));
#1277=CARTESIAN_POINT('Ctrl Pts',(-6.3218641852238E-8,-9.27499999999846,
0.826319926190307));
#1278=CARTESIAN_POINT('Ctrl Pts',(7.06990652908125,-9.27499999999626,1.77310132610298));
#1279=CARTESIAN_POINT('Ctrl Pts',(4.77688129899888,-9.27499999999698,1.10430147666514));
#1280=CARTESIAN_POINT('Ctrl Pts',(2.38856809456313,-9.27499999999772,0.763113297308902));
#1281=CARTESIAN_POINT('Ctrl Pts',(-8.41585372321119E-8,-9.27499999999846,
0.763114088634031));
#1282=CARTESIAN_POINT('',(7.00000000131648,-9.03792071272806,2.01278055456967));
#1283=CARTESIAN_POINT('',(-1.45448337573387E-9,-9.03845754856979,1.01275161463211));
#1284=CARTESIAN_POINT('Ctrl Pts',(7.00000000131648,-9.03792071272806,2.01278055456967));
#1285=CARTESIAN_POINT('Ctrl Pts',(4.7296531028987,-9.03827626836579,1.35057605926424));
#1286=CARTESIAN_POINT('Ctrl Pts',(2.36495288303249,-9.03845755963699,1.012750830534));
#1287=CARTESIAN_POINT('Ctrl Pts',(-1.45448292299122E-9,-9.03845754856979,
1.01275161463211));
#1288=CARTESIAN_POINT('',(-8.41585373612119E-8,-9.27499999999846,0.763114088634031));
#1289=CARTESIAN_POINT('Origin',(-8.41586150768237E-8,-9.02499999999846,
0.763114088634031));
#1290=CARTESIAN_POINT('Ctrl Pts',(-8.41585372321119E-8,-9.27499999999846,
0.763114088634031));
#1291=CARTESIAN_POINT('Ctrl Pts',(2.37664959661948,-9.27499999999772,0.763113301257463));
#1292=CARTESIAN_POINT('Ctrl Pts',(4.75304684130892,-9.27499999999698,1.10090504425712));
#1293=CARTESIAN_POINT('Ctrl Pts',(7.03557415263163,-9.27499999999627,1.7631142489617));
#1294=CARTESIAN_POINT('',(6.99999999998333,-9.27499999999846,1.99999999999984));
#1295=CARTESIAN_POINT('Ctrl Pts',(-1.45448458832576E-9,-9.03845754856979,
1.01275161463211));
#1296=CARTESIAN_POINT('Ctrl Pts',(-2.36495281076792,-9.03845753750012,1.01275239890596));
#1297=CARTESIAN_POINT('Ctrl Pts',(-4.72965273600937,-9.03827624708622,1.35057758553327));
#1298=CARTESIAN_POINT('Ctrl Pts',(-7.00000000134977,-9.0379207152226,2.0127805544352));
#1299=CARTESIAN_POINT('Ctrl Pts',(-2.58191624094939E-9,-9.10157174423454,
1.00934923211649));
#1300=CARTESIAN_POINT('Ctrl Pts',(-2.36523235526133,-9.1015717351579,1.00935001924066));
#1301=CARTESIAN_POINT('Ctrl Pts',(-4.73033736942105,-9.10142327482058,1.34727714814938));
#1302=CARTESIAN_POINT('Ctrl Pts',(-7.00091596126828,-9.10113155847664,2.00964011655751));
#1303=CARTESIAN_POINT('Ctrl Pts',(-2.14986327263935E-8,-9.22462017881556,
0.952262920578405));
#1304=CARTESIAN_POINT('Ctrl Pts',(-2.37069219762078,-9.22462017570729,0.95226371160346));
#1305=CARTESIAN_POINT('Ctrl Pts',(-4.74107866051441,-9.22457014591052,1.29098487967741));
#1306=CARTESIAN_POINT('Ctrl Pts',(-7.0168704835469,-9.22447014107431,1.95493882988459));
#1307=CARTESIAN_POINT('Ctrl Pts',(-6.32324876787041E-8,-9.27499999999846,
0.826319926190303));
#1308=CARTESIAN_POINT('Ctrl Pts',(-2.38258055380636,-9.27500000005334,0.826320717570435));
#1309=CARTESIAN_POINT('Ctrl Pts',(-4.76493109650174,-9.2749982538631,1.16668811270477));
#1310=CARTESIAN_POINT('Ctrl Pts',(-7.05218366873736,-9.27500000000066,1.8338649028375));
#1311=CARTESIAN_POINT('Ctrl Pts',(-8.41770766206482E-8,-9.27499999999846,
0.763114088634027));
#1312=CARTESIAN_POINT('Ctrl Pts',(-2.38856807745014,-9.27499999999921,0.763114880136475));
#1313=CARTESIAN_POINT('Ctrl Pts',(-4.7768808751292,-9.27499999999995,1.10430300147094));
#1314=CARTESIAN_POINT('Ctrl Pts',(-7.06990637028275,-9.27500000000066,1.77310127977685));
#1315=CARTESIAN_POINT('',(-7.03557411542015,-9.27500000000065,1.76311408863391));
#1316=CARTESIAN_POINT('Ctrl Pts',(-7.03557406890673,-9.27500000000065,1.76311424895851));
#1317=CARTESIAN_POINT('Ctrl Pts',(-4.75304647631969,-9.27499999999994,1.10090657739442));
#1318=CARTESIAN_POINT('Ctrl Pts',(-2.37664960784809,-9.2749999999992,0.763114876187038));
#1319=CARTESIAN_POINT('Ctrl Pts',(-8.41770766206482E-8,-9.27499999999846,
0.763114088634027));
#1320=CARTESIAN_POINT('',(-7.00000000134977,-9.0379207152226,2.01278055443519));
#1321=CARTESIAN_POINT('Ctrl Pts',(-1.45448458832576E-9,-9.03845754856979,
1.01275161463211));
#1322=CARTESIAN_POINT('Ctrl Pts',(-2.36495281076792,-9.03845753750012,1.01275239890596));
#1323=CARTESIAN_POINT('Ctrl Pts',(-4.72965273600937,-9.03827624708622,1.35057758553327));
#1324=CARTESIAN_POINT('Ctrl Pts',(-7.00000000134977,-9.0379207152226,2.0127805544352));
#1325=CARTESIAN_POINT('',(-7.00000000134675,-9.03845754857197,2.01275161463199));
#1326=CARTESIAN_POINT('',(-7.00000000001669,-9.27499999999847,1.99999999999983));
#1327=CARTESIAN_POINT('Ctrl Pts',(-7.00000207647915,-9.03845754141329,2.0127515867796));
#1328=CARTESIAN_POINT('Ctrl Pts',(-7.00012658293422,-9.05456118444037,2.01188177617297));
#1329=CARTESIAN_POINT('Ctrl Pts',(-7.00049324588862,-9.07047991197238,2.0093887662601));
#1330=CARTESIAN_POINT('Ctrl Pts',(-7.00106972490807,-9.08601843307923,2.00541357564734));
#1331=CARTESIAN_POINT('Ctrl Pts',(-7.00164620392752,-9.10155695418608,2.00143838503458));
#1332=CARTESIAN_POINT('Ctrl Pts',(-7.00243272110749,-9.11671695497434,1.99598023288436));
#1333=CARTESIAN_POINT('Ctrl Pts',(-7.00341226286749,-9.13129063541967,1.9891260882564));
#1334=CARTESIAN_POINT('Ctrl Pts',(-7.00437354442117,-9.14559263943165,1.98239971571547));
#1335=CARTESIAN_POINT('Ctrl Pts',(-7.00551171606975,-9.15919265088097,1.97439336630068));
#1336=CARTESIAN_POINT('Ctrl Pts',(-7.00681352833709,-9.17190922084966,1.96521824352));
#1337=CARTESIAN_POINT('Ctrl Pts',(-7.00807769121063,-9.18425801801226,1.95630847221851));
#1338=CARTESIAN_POINT('Ctrl Pts',(-7.00949640368353,-9.19577497314672,1.94629572348903));
#1339=CARTESIAN_POINT('Ctrl Pts',(-7.01106848675479,-9.20626853208016,1.93524379585468));
#1340=CARTESIAN_POINT('Ctrl Pts',(-7.0111976158339,-9.20713046083346,1.93433600334426));
#1341=CARTESIAN_POINT('Ctrl Pts',(-7.0113277848324,-9.20798546428562,1.9334211818199));
#1342=CARTESIAN_POINT('Ctrl Pts',(-7.01145897586568,-9.20883349939267,1.93249942571598));
#1343=CARTESIAN_POINT('Ctrl Pts',(-7.01307058332679,-9.21925112986389,1.92117617459648));
#1344=CARTESIAN_POINT('Ctrl Pts',(-7.01482141421171,-9.22852733694578,1.9089105381337));
#1345=CARTESIAN_POINT('Ctrl Pts',(-7.01667604647685,-9.2366216679816,1.89590975126776));
#1346=CARTESIAN_POINT('Ctrl Pts',(-7.01857942845449,-9.24492876157866,1.88256723378821));
#1347=CARTESIAN_POINT('Ctrl Pts',(-7.02059252365596,-9.25199182610434,1.86844907471793));
#1348=CARTESIAN_POINT('Ctrl Pts',(-7.02268598084806,-9.25772435795794,1.85374938995216));
#1349=CARTESIAN_POINT('Ctrl Pts',(-7.02286802545406,-9.25822285226995,1.8524711224377));
#1350=CARTESIAN_POINT('Ctrl Pts',(-7.02305068100247,-9.25871125461022,1.85118844693143));
#1351=CARTESIAN_POINT('Ctrl Pts',(-7.02323392975488,-9.25918949007897,1.84990148606833));
#1352=CARTESIAN_POINT('Ctrl Pts',(-7.0253363558066,-9.26467631983964,1.8351360919771));
#1353=CARTESIAN_POINT('Ctrl Pts',(-7.02749924205611,-9.26878364980191,1.81992964647412));
#1354=CARTESIAN_POINT('Ctrl Pts',(-7.02969522492769,-9.27144012033391,1.80448053798121));
#1355=CARTESIAN_POINT('Ctrl Pts',(-7.03155232083748,-9.27368664084339,1.79141555620767));
#1356=CARTESIAN_POINT('Ctrl Pts',(-7.03343337901218,-9.27489503119991,1.77817604299111));
#1357=CARTESIAN_POINT('Ctrl Pts',(-7.03532356436315,-9.27499347353952,1.76487687700174));
#1358=CARTESIAN_POINT('Ctrl Pts',(-7.0354070664576,-9.27499782239427,1.76428936413486));
#1359=CARTESIAN_POINT('Ctrl Pts',(-7.03549057425733,-9.27499999976042,1.76370181981093));
#1360=CARTESIAN_POINT('Ctrl Pts',(-7.03557408647206,-9.27500000000065,1.76311425405457));
#1361=CARTESIAN_POINT('Ctrl Pts',(-7.00022797601306,9.01207932167403,2.98589284270645));
#1362=CARTESIAN_POINT('Ctrl Pts',(-4.72981122212739,9.01172376513214,2.32364541964447));
#1363=CARTESIAN_POINT('Ctrl Pts',(-2.36503207687107,9.01154246208917,1.98579745909733));
#1364=CARTESIAN_POINT('Ctrl Pts',(-1.11169557726054E-7,9.01154245142733,
1.98579743673469));
#1365=CARTESIAN_POINT('Ctrl Pts',(-6.99924963224989,9.07959322551467,2.98924704581118));
#1366=CARTESIAN_POINT('Ctrl Pts',(-4.72917682079538,9.07929164997081,2.32720571717816));
#1367=CARTESIAN_POINT('Ctrl Pts',(-2.36462965979878,9.07913816776833,1.98944142947965));
#1368=CARTESIAN_POINT('Ctrl Pts',(-1.11135987554374E-7,9.07913815871858,
1.98944141017357));
#1369=CARTESIAN_POINT('Ctrl Pts',(-7.01351297740313,9.21702630099581,2.94034587385302));
#1370=CARTESIAN_POINT('Ctrl Pts',(-4.73870293871152,9.21691800981199,2.27701729503269));
#1371=CARTESIAN_POINT('Ctrl Pts',(-2.36952485128655,9.21686390130598,1.93864547930921));
#1372=CARTESIAN_POINT('Ctrl Pts',(-1.11603945717871E-7,9.21686389805312,
1.93864546269304));
#1373=CARTESIAN_POINT('Ctrl Pts',(-7.05120689194053,9.27499999999867,2.8111141559939));
#1374=CARTESIAN_POINT('Ctrl Pts',(-4.76424697777715,9.27500213602349,2.14412315328914));
#1375=CARTESIAN_POINT('Ctrl Pts',(-2.38223051591768,9.27499999993434,1.80385378722637));
#1376=CARTESIAN_POINT('Ctrl Pts',(-1.12845715655197E-7,9.27499999999866,
1.80385376707988));
#1377=CARTESIAN_POINT('Ctrl Pts',(-7.07013669846051,9.27499999999867,2.74621425251242));
#1378=CARTESIAN_POINT('Ctrl Pts',(-4.77704096893268,9.27499999999866,2.07737106225832));
#1379=CARTESIAN_POINT('Ctrl Pts',(-2.38864810685596,9.27499999999866,1.73615993274203));
#1380=CARTESIAN_POINT('Ctrl Pts',(-1.1346934604226E-7,9.27499999999866,
1.73615991073659));
#1381=CARTESIAN_POINT('',(-1.11169558016181E-7,9.01154245142733,1.98579743673469));
#1382=CARTESIAN_POINT('Ctrl Pts',(-7.0000001028424,9.0120792859888,2.98582637661079));
#1383=CARTESIAN_POINT('Ctrl Pts',(-4.72965299303501,9.01172375300123,2.32362281436991));
#1384=CARTESIAN_POINT('Ctrl Pts',(-2.36495295386682,9.01154246208881,1.98579745909658));
#1385=CARTESIAN_POINT('Ctrl Pts',(-1.11169557726054E-7,9.01154245142733,
1.98579743673469));
#1386=CARTESIAN_POINT('',(-1.13469346141315E-7,9.27499999999866,1.73615991073659));
#1387=CARTESIAN_POINT('Origin',(-1.13469346141315E-7,9.02499999999866,1.73615991073659));
#1388=CARTESIAN_POINT('Ctrl Pts',(-1.1346934604226E-7,9.27499999999866,
1.73615991073659));
#1389=CARTESIAN_POINT('Ctrl Pts',(-2.37664971028967,9.27499999999866,1.7361599326315));
#1390=CARTESIAN_POINT('Ctrl Pts',(-4.75304673245841,9.27499999999866,2.07395180230606));
#1391=CARTESIAN_POINT('Ctrl Pts',(-7.03557421054358,9.27499999999867,2.73616007321985));
#1392=CARTESIAN_POINT('Ctrl Pts',(-1.1116955800361E-7,9.01154245142733,
1.98579743673469));
#1393=CARTESIAN_POINT('Ctrl Pts',(2.36503192970338,9.01154244076788,1.9857974143747));
#1394=CARTESIAN_POINT('Ctrl Pts',(4.72981115654194,9.01172374381705,2.32364537594014));
#1395=CARTESIAN_POINT('Ctrl Pts',(7.00022797599138,9.01207932171194,2.98589284271258));
#1396=CARTESIAN_POINT('Ctrl Pts',(-1.11135991725134E-7,9.07913815871857,
1.98944141017357));
#1397=CARTESIAN_POINT('Ctrl Pts',(2.36462951265857,9.07913814967084,1.98944139086945));
#1398=CARTESIAN_POINT('Ctrl Pts',(4.72917675350703,9.07929163189178,2.32720567932223));
#1399=CARTESIAN_POINT('Ctrl Pts',(6.99924963219926,9.07959322554679,2.98924704579785));
#1400=CARTESIAN_POINT('Ctrl Pts',(-1.11603895484853E-7,9.21686389805312,
1.93864546269304));
#1401=CARTESIAN_POINT('Ctrl Pts',(2.36952470369272,9.21686389480099,1.93864544607823));
#1402=CARTESIAN_POINT('Ctrl Pts',(4.73870286991495,9.21691800332001,2.27701726235229));
#1403=CARTESIAN_POINT('Ctrl Pts',(7.01351297782051,9.21702630100726,2.94034587396571));
#1404=CARTESIAN_POINT('Ctrl Pts',(-1.12845521094797E-7,9.27499999999866,
1.80385376707989));
#1405=CARTESIAN_POINT('Ctrl Pts',(2.38223036709199,9.27500000006297,1.80385374693554));
#1406=CARTESIAN_POINT('Ctrl Pts',(4.76424691096176,9.27500213615177,2.14412311395209));
#1407=CARTESIAN_POINT('Ctrl Pts',(7.05120689358384,9.27499999999866,2.81111415647703));
#1408=CARTESIAN_POINT('Ctrl Pts',(-1.13469079002691E-7,9.27499999999866,
1.73615991073659));
#1409=CARTESIAN_POINT('Ctrl Pts',(2.38864795741526,9.27499999999866,1.7361598887337));
#1410=CARTESIAN_POINT('Ctrl Pts',(4.77704090315668,9.27499999999866,2.07737101941337));
#1411=CARTESIAN_POINT('Ctrl Pts',(7.07013670071943,9.27499999999866,2.7462142531817));
#1412=CARTESIAN_POINT('Ctrl Pts',(7.03557421171849,9.27499999999866,2.73616007321991));
#1413=CARTESIAN_POINT('Ctrl Pts',(4.75304666580208,9.27499999999866,2.07395175944488));
#1414=CARTESIAN_POINT('Ctrl Pts',(2.3766495604397,9.27499999999866,1.73615988884422));
#1415=CARTESIAN_POINT('Ctrl Pts',(-1.13469079002691E-7,9.27499999999866,
1.73615991073659));
#1416=CARTESIAN_POINT('Ctrl Pts',(-1.1116955800361E-7,9.01154245142733,
1.98579743673469));
#1417=CARTESIAN_POINT('Ctrl Pts',(2.364952117611,9.01154244076824,1.98579741437545));
#1418=CARTESIAN_POINT('Ctrl Pts',(4.72965154942018,9.01172373158049,2.32362257379854));
#1419=CARTESIAN_POINT('Ctrl Pts',(6.99999811825419,9.01207928571377,2.98582579776602));
#1420=CARTESIAN_POINT('Ctrl Pts',(-9.02500000001281,8.76154245142669,2.97232034778587));
#1421=CARTESIAN_POINT('Ctrl Pts',(-9.02500000001297,8.82699229837658,2.97584864142198));
#1422=CARTESIAN_POINT('Ctrl Pts',(-8.97090750290998,8.95744995432401,2.982881399155));
#1423=CARTESIAN_POINT('Ctrl Pts',(-8.8404498469627,9.01154245142734,2.9857974367347));
#1424=CARTESIAN_POINT('Ctrl Pts',(-8.7750000000128,9.01154245142734,2.9857974367347));
#1425=CARTESIAN_POINT('Ctrl Pts',(-9.09044984696259,8.76154245142652,2.97232034778586));
#1426=CARTESIAN_POINT('Ctrl Pts',(-9.09104280946216,8.84410784992861,2.97679048469355));
#1427=CARTESIAN_POINT('Ctrl Pts',(-9.02391275931139,9.0097244213633,2.98569778596202));
#1428=CARTESIAN_POINT('Ctrl Pts',(-8.85823566215066,9.07913815871858,2.98944141017358));
#1429=CARTESIAN_POINT('Ctrl Pts',(-8.7750000000128,9.07913815871858,2.98944141017358));
#1430=CARTESIAN_POINT('Ctrl Pts',(-9.22084612381579,8.76445756510317,2.91824498907775));
#1431=CARTESIAN_POINT('Ctrl Pts',(-9.22257166787697,8.88101245000252,2.9234963249153));
#1432=CARTESIAN_POINT('Ctrl Pts',(-9.12946752798778,9.11692919903543,2.93414026063306));
#1433=CARTESIAN_POINT('Ctrl Pts',(-8.89344834632082,9.21685656363592,2.93863772223989));
#1434=CARTESIAN_POINT('Ctrl Pts',(-8.7750000000128,9.21685656363592,2.93863772223989));
#1435=CARTESIAN_POINT('Ctrl Pts',(-9.27500000001279,8.77147682202013,2.78803777326576));
#1436=CARTESIAN_POINT('Ctrl Pts',(-9.27594321084232,8.90248226632632,2.79215816966727));
#1437=CARTESIAN_POINT('Ctrl Pts',(-9.16948797276479,9.16496850869902,2.80040162087607));
#1438=CARTESIAN_POINT('Ctrl Pts',(-8.90701495910223,9.27499999999867,2.80385376707989));
#1439=CARTESIAN_POINT('Ctrl Pts',(-8.7750000000128,9.27499999999867,2.80385376707989));
#1440=CARTESIAN_POINT('Ctrl Pts',(-9.2750000000128,8.77499999999738,2.72268282178777));
#1441=CARTESIAN_POINT('Ctrl Pts',(-9.27500000001314,8.90589969389717,2.72621111542389));
#1442=CARTESIAN_POINT('Ctrl Pts',(-9.16681500580716,9.16681500579202,2.7332438731569));
#1443=CARTESIAN_POINT('Ctrl Pts',(-8.90589969391259,9.27499999999867,2.7361599107366));
#1444=CARTESIAN_POINT('Ctrl Pts',(-8.7750000000128,9.27499999999867,2.7361599107366));
#1445=CARTESIAN_POINT('',(-9.2750000000128,8.77499999999738,2.72268282178777));
#1446=CARTESIAN_POINT('',(-9.0250000000128,8.76154245142669,2.97232034778587));
#1447=CARTESIAN_POINT('Origin',(-9.0250000000128,8.77499999999802,2.72268282178777));
#1448=CARTESIAN_POINT('Origin',(-8.7750000000128,8.76154245142734,2.9723203477859));
#1449=CARTESIAN_POINT('Origin',(-8.7750000000128,8.77499999999866,2.72268282178781));
#1450=CARTESIAN_POINT('Origin',(-9.02499999999003,-0.0671706706026674,2.24601593927546));
#1451=CARTESIAN_POINT('',(-9.2749999999676,-8.77500000000248,1.77659117758264));
#1452=CARTESIAN_POINT('',(-9.0249999999676,-8.78845754857317,2.02622870358074));
#1453=CARTESIAN_POINT('Origin',(-9.0249999999676,-8.77500000000184,1.77659117758264));
#1454=CARTESIAN_POINT('',(-9.02499999999003,-0.0806282191739974,2.49565346527356));
#1455=CARTESIAN_POINT('',(-9.27499999999003,-0.0671706706033113,2.24601593927546));
#1456=CARTESIAN_POINT('Ctrl Pts',(-8.77499999996752,-9.03845754857253,2.01275161463198));
#1457=CARTESIAN_POINT('Ctrl Pts',(-8.84044984691722,-9.03845754857255,2.01275161463198));
#1458=CARTESIAN_POINT('Ctrl Pts',(-8.97091041574929,-8.98436796435477,2.0156674951828));
#1459=CARTESIAN_POINT('Ctrl Pts',(-9.02499999996743,-8.85390739552286,2.02270040994463));
#1460=CARTESIAN_POINT('Ctrl Pts',(-9.0249999999676,-8.78845754857317,2.02622870358074));
#1461=CARTESIAN_POINT('Ctrl Pts',(-8.7749999999675,-9.10157174423727,2.00934923211636));
#1462=CARTESIAN_POINT('Ctrl Pts',(-8.8570443030918,-9.1015717442373,2.00934923211636));
#1463=CARTESIAN_POINT('Ctrl Pts',(-9.02058767610238,-9.03440666941508,2.01297198805966));
#1464=CARTESIAN_POINT('Ctrl Pts',(-9.08985743101459,-8.87101933952366,2.02175873196692));
#1465=CARTESIAN_POINT('Ctrl Pts',(-9.09044984691738,-8.78845754857334,2.02622870358073));
#1466=CARTESIAN_POINT('Ctrl Pts',(-8.77499999996747,-9.22461141167758,1.9522546133298));
#1467=CARTESIAN_POINT('Ctrl Pts',(-8.88999295014381,-9.22461141167762,1.95225461332979));
#1468=CARTESIAN_POINT('Ctrl Pts',(-9.11957886470965,-9.13134453164778,1.95647249213219));
#1469=CARTESIAN_POINT('Ctrl Pts',(-9.2190499957821,-8.90209608311233,1.96683152744712));
#1470=CARTESIAN_POINT('Ctrl Pts',(-9.2207759386502,-8.78553865681802,1.97208326151335));
#1471=CARTESIAN_POINT('Ctrl Pts',(-8.77499999996745,-9.2750000000012,1.82631992619016));
#1472=CARTESIAN_POINT('Ctrl Pts',(-8.90512493511202,-9.27500000000124,1.82631992619016));
#1473=CARTESIAN_POINT('Ctrl Pts',(-9.16426349919155,-9.16850032654606,1.82967683221043));
#1474=CARTESIAN_POINT('Ctrl Pts',(-9.27405695467194,-8.90952769178763,1.8378262784634));
#1475=CARTESIAN_POINT('Ctrl Pts',(-9.27499999996759,-8.77852317797974,1.84194612906063));
#1476=CARTESIAN_POINT('Ctrl Pts',(-8.77499999996744,-9.2750000000012,1.76311408863388));
#1477=CARTESIAN_POINT('Ctrl Pts',(-8.90589969386683,-9.27500000000124,1.76311408863388));
#1478=CARTESIAN_POINT('Ctrl Pts',(-9.16682083153097,-9.1668208315657,1.76602996918471));
#1479=CARTESIAN_POINT('Ctrl Pts',(-9.27499999996726,-8.90589969390187,1.77306288394654));
#1480=CARTESIAN_POINT('Ctrl Pts',(-9.2749999999676,-8.77500000000248,1.77659117758264));
#1481=CARTESIAN_POINT('',(-8.77499999996744,-9.2750000000012,1.76311408863388));
#1482=CARTESIAN_POINT('',(-8.77499999996752,-9.03845754857253,2.01275161463198));
#1483=CARTESIAN_POINT('Origin',(-8.77499999996752,-9.0250000000012,1.76311408863388));
#1484=CARTESIAN_POINT('Origin',(-8.7749999999676,-8.78845754857253,2.02622870358077));
#1485=CARTESIAN_POINT('Origin',(-8.7749999999676,-8.7750000000012,1.77659117758268));
#1486=CARTESIAN_POINT('Origin',(-1.39777815896713E-11,-9.02499999999846,
1.76311408863403));
#1487=CARTESIAN_POINT('',(-1.39777757319383E-11,-9.03845754856979,2.01275161463213));
#1488=CARTESIAN_POINT('',(-1.38999549556453E-11,-9.27499999999846,1.76311408863403));
#1489=CARTESIAN_POINT('Origin',(9.27499999998609,9.27499999999866,0.));
#1490=CARTESIAN_POINT('',(8.77499999998612,9.27499999999866,-3.));
#1491=CARTESIAN_POINT('',(8.77499999998612,9.27499999999866,0.));
#1492=CARTESIAN_POINT('',(-8.7750000000128,9.27499999999867,-3.));
#1493=CARTESIAN_POINT('',(6.77499999997977,9.27499999999866,-3.));
#1494=CARTESIAN_POINT('',(-8.7750000000128,9.27499999999867,0.));
#1495=CARTESIAN_POINT('Origin',(8.77499999998612,8.77499999999866,0.));
#1496=CARTESIAN_POINT('',(9.27499999998612,8.77499999999866,-3.));
#1497=CARTESIAN_POINT('',(9.27499999998612,8.77499999999866,0.));
#1498=CARTESIAN_POINT('Origin',(8.77499999998612,8.77499999999866,-3.));
#1499=CARTESIAN_POINT('Origin',(9.2749999999861,-9.27499999999568,0.));
#1500=CARTESIAN_POINT('',(9.2749999999861,-8.77499999999573,-3.));
#1501=CARTESIAN_POINT('',(9.2749999999861,-8.77499999999573,0.));
#1502=CARTESIAN_POINT('',(9.27499999998611,-6.77500000000767,-3.));
#1503=CARTESIAN_POINT('Origin',(8.7749999999861,-8.77499999999573,0.));
#1504=CARTESIAN_POINT('',(8.77499999998626,-9.27499999999573,-3.));
#1505=CARTESIAN_POINT('',(8.77499999998626,-9.27499999999573,0.));
#1506=CARTESIAN_POINT('Origin',(8.7749999999861,-8.77499999999573,-3.));
#1507=CARTESIAN_POINT('Origin',(9.27499999998611,-9.27499999999569,2.));
#1508=CARTESIAN_POINT('',(-7.00000000001669,-9.27499999999847,1.99999999999983));
#1509=CARTESIAN_POINT('Ctrl Pts',(-1.45448379484112E-9,-9.03845755410338,
1.01275161433381));
#1510=CARTESIAN_POINT('Ctrl Pts',(-3.80272629960546E-8,-3.021611940831,
1.33710986841867));
#1511=CARTESIAN_POINT('Ctrl Pts',(-7.4600042197268E-8,2.99523367244138,
1.66146812250354));
#1512=CARTESIAN_POINT('Ctrl Pts',(-1.11172821398481E-7,9.01207928571377,
1.9858263765884));
#1513=CARTESIAN_POINT('Ctrl Pts',(2.36495094663373,-9.03845755410338,1.01275083083295));
#1514=CARTESIAN_POINT('Ctrl Pts',(2.36495092106408,-3.021611940831,1.33710933993078));
#1515=CARTESIAN_POINT('Ctrl Pts',(2.36495089586767,2.99523367244139,1.66146784572863));
#1516=CARTESIAN_POINT('Ctrl Pts',(2.36495087029802,9.01207928571377,1.98582635482645));
#1517=CARTESIAN_POINT('Ctrl Pts',(4.72964731045569,-9.03845755410338,1.35056459695966));
#1518=CARTESIAN_POINT('Ctrl Pts',(4.7296472604569,-3.021611940831,1.6749230991698));
#1519=CARTESIAN_POINT('Ctrl Pts',(4.7296472110278,2.99523367244138,1.99928159810812));
#1520=CARTESIAN_POINT('Ctrl Pts',(4.72964716102901,9.01207928571377,2.32364010031827));
#1521=CARTESIAN_POINT('Ctrl Pts',(7.00000000131346,-9.03845755410338,2.01275161433381));
#1522=CARTESIAN_POINT('Ctrl Pts',(7.00000003514753,-3.021611940831,2.33710986841868));
#1523=CARTESIAN_POINT('Ctrl Pts',(7.00000006898161,2.99523367244138,2.66146812250354));
#1524=CARTESIAN_POINT('Ctrl Pts',(7.00000010281568,9.01207928571377,2.98582637658841));
#1525=CARTESIAN_POINT('',(-1.66847882731712E-11,-9.27499999999846,0.999999999999837));
#1526=CARTESIAN_POINT('',(6.99999999998333,-9.27499999999846,1.99999999999984));
#1527=CARTESIAN_POINT('Ctrl Pts',(-7.00000000134675,-9.0384575485698,2.01275161463211));
#1528=CARTESIAN_POINT('Ctrl Pts',(-7.00000003517907,-3.02161193705026,2.33710986862252));
#1529=CARTESIAN_POINT('Ctrl Pts',(-7.00000006901139,2.99523367446927,2.66146812261294));
#1530=CARTESIAN_POINT('Ctrl Pts',(-7.0000001028437,9.0120792859888,2.98582637660335));
#1531=CARTESIAN_POINT('Ctrl Pts',(-4.72964694391997,-9.03845754856979,1.35056612253499));
#1532=CARTESIAN_POINT('Ctrl Pts',(-4.72964703844191,-3.02161193705027,1.67492412826712));
#1533=CARTESIAN_POINT('Ctrl Pts',(-4.7296471324008,2.99523367446928,1.99928213724477));
#1534=CARTESIAN_POINT('Ctrl Pts',(-4.72964722692274,9.0120792859888,2.3236401429769));
#1535=CARTESIAN_POINT('Ctrl Pts',(-2.36495087437139,-9.03845754856979,1.01275239830857));
#1536=CARTESIAN_POINT('Ctrl Pts',(-2.3649509221945,-3.02161193705026,1.33711039723717));
#1537=CARTESIAN_POINT('Ctrl Pts',(-2.36495096964924,2.99523367446926,1.6614683994391));
#1538=CARTESIAN_POINT('Ctrl Pts',(-2.36495101747235,9.0120792859888,1.9858263983677));
#1539=CARTESIAN_POINT('Ctrl Pts',(-1.45448396548472E-9,-9.03845754856979,
1.01275161463211));
#1540=CARTESIAN_POINT('Ctrl Pts',(-3.80272631110299E-8,-3.02161193705026,
1.33710986862248));
#1541=CARTESIAN_POINT('Ctrl Pts',(-7.4600042256575E-8,2.99523367446927,
1.66146812261286));
#1542=CARTESIAN_POINT('Ctrl Pts',(-1.1117282140212E-7,9.0120792859888,1.98582637660323));
#1543=CARTESIAN_POINT('Origin',(-8.7750000000128,8.77499999999866,0.));
#1544=CARTESIAN_POINT('',(-9.2750000000128,8.77499999999738,-3.));
#1545=CARTESIAN_POINT('Origin',(-8.7750000000128,8.77499999999866,-3.));
#1546=CARTESIAN_POINT('',(-9.2750000000128,8.77499999999738,0.));
#1547=CARTESIAN_POINT('Origin',(-9.27500000001409,9.27499999999866,0.));
#1548=CARTESIAN_POINT('',(-9.2749999999676,-8.77500000000248,-3.));
#1549=CARTESIAN_POINT('',(-9.27500000000765,6.7749999999979,-3.));
#1550=CARTESIAN_POINT('',(-9.2749999999676,-8.77500000000248,0.));
#1551=CARTESIAN_POINT('Origin',(-8.7749999999676,-8.7750000000012,0.));
#1552=CARTESIAN_POINT('',(-8.77499999996744,-9.2750000000012,-3.));
#1553=CARTESIAN_POINT('Origin',(-8.7749999999676,-8.7750000000012,-3.));
#1554=CARTESIAN_POINT('',(-8.77499999996744,-9.2750000000012,0.));
#1555=CARTESIAN_POINT('Origin',(-1.39921407793508E-11,-2.05169214950729E-12,
-3.));
#1556=CARTESIAN_POINT('',(-6.77500000000804,-9.27500000000057,-3.));
#1557=CARTESIAN_POINT('',(-6.7750252930257,7.82500000000279,-3.));
#1558=CARTESIAN_POINT('',(-7.82500000031369,6.77499562437227,-3.));
#1559=CARTESIAN_POINT('Origin',(-6.77500000000672,6.77499999999135,-3.));
#1560=CARTESIAN_POINT('',(-7.82500000002048,-6.77500002450454,-3.));
#1561=CARTESIAN_POINT('',(-7.82500000002048,6.77499562437227,-3.));
#1562=CARTESIAN_POINT('',(-6.77501273813896,-7.82499999999621,-3.));
#1563=CARTESIAN_POINT('Origin',(-6.7749999999955,-6.77500000000098,-3.));
#1564=CARTESIAN_POINT('',(6.7749867652731,-7.82499999999619,-3.));
#1565=CARTESIAN_POINT('',(-6.77501273813896,-7.82499999999621,-3.));
#1566=CARTESIAN_POINT('',(7.82499999997969,-6.77500375335931,-3.));
#1567=CARTESIAN_POINT('Origin',(6.77499999999889,-6.77500000001203,-3.));
#1568=CARTESIAN_POINT('',(7.82499999997969,6.77500021242034,-3.));
#1569=CARTESIAN_POINT('',(7.82499999997969,-6.77500375335931,-3.));
#1570=CARTESIAN_POINT('',(6.77501088890227,7.82500000000084,-3.));
#1571=CARTESIAN_POINT('Origin',(6.77499999998407,6.77499999999663,-3.));
#1572=CARTESIAN_POINT('',(6.77501088890227,7.82500000000084,-3.));
#1573=CARTESIAN_POINT('Origin',(2.275,1.425,0.));
#1574=CARTESIAN_POINT('',(3.425,1.425,0.));
#1575=CARTESIAN_POINT('',(2.275,1.425,0.));
#1576=CARTESIAN_POINT('',(1.137499999993,1.425,0.));
#1577=CARTESIAN_POINT('',(3.425,1.425,-3.));
#1578=CARTESIAN_POINT('',(3.425,1.425,0.));
#1579=CARTESIAN_POINT('',(2.275,1.425,-3.));
#1580=CARTESIAN_POINT('',(2.275,1.425,-3.));
#1581=CARTESIAN_POINT('',(2.275,1.425,0.));
#1582=CARTESIAN_POINT('Origin',(2.275,-1.425,0.));
#1583=CARTESIAN_POINT('',(2.275,-1.425,0.));
#1584=CARTESIAN_POINT('',(2.275,-0.712500000001026,0.));
#1585=CARTESIAN_POINT('',(2.275,-1.425,-3.));
#1586=CARTESIAN_POINT('',(2.275,-1.425,-3.));
#1587=CARTESIAN_POINT('',(2.275,-1.425,0.));
#1588=CARTESIAN_POINT('Origin',(3.425,-1.425,0.));
#1589=CARTESIAN_POINT('',(3.425,-1.425,0.));
#1590=CARTESIAN_POINT('',(1.712499999993,-1.425,0.));
#1591=CARTESIAN_POINT('',(3.425,-1.425,-3.));
#1592=CARTESIAN_POINT('',(3.425,-1.425,-3.));
#1593=CARTESIAN_POINT('',(3.425,-1.425,0.));
#1594=CARTESIAN_POINT('Origin',(3.425,1.425,0.));
#1595=CARTESIAN_POINT('',(3.425,0.712499999998974,0.));
#1596=CARTESIAN_POINT('',(3.425,1.425,-3.));
#1597=CARTESIAN_POINT('Origin',(2.85,0.,-3.));
#1598=CARTESIAN_POINT('Origin',(-3.425,1.475,0.));
#1599=CARTESIAN_POINT('',(-2.275,1.475,0.));
#1600=CARTESIAN_POINT('',(-3.425,1.475,0.));
#1601=CARTESIAN_POINT('',(-1.712500000007,1.475,0.));
#1602=CARTESIAN_POINT('',(-2.275,1.475,-3.));
#1603=CARTESIAN_POINT('',(-2.275,1.475,0.));
#1604=CARTESIAN_POINT('',(-3.425,1.475,-3.));
#1605=CARTESIAN_POINT('',(-3.425,1.475,-3.));
#1606=CARTESIAN_POINT('',(-3.425,1.475,0.));
#1607=CARTESIAN_POINT('Origin',(-3.425,-1.475,0.));
#1608=CARTESIAN_POINT('',(-3.425,-1.475,0.));
#1609=CARTESIAN_POINT('',(-3.425,-0.737500000001026,0.));
#1610=CARTESIAN_POINT('',(-3.425,-1.475,-3.));
#1611=CARTESIAN_POINT('',(-3.425,-1.475,-3.));
#1612=CARTESIAN_POINT('',(-3.425,-1.475,0.));
#1613=CARTESIAN_POINT('Origin',(-2.275,-1.475,0.));
#1614=CARTESIAN_POINT('',(-2.275,-1.475,0.));
#1615=CARTESIAN_POINT('',(-1.137500000007,-1.475,0.));
#1616=CARTESIAN_POINT('',(-2.275,-1.475,-3.));
#1617=CARTESIAN_POINT('',(-2.275,-1.475,-3.));
#1618=CARTESIAN_POINT('',(-2.275,-1.475,0.));
#1619=CARTESIAN_POINT('Origin',(-2.275,1.475,0.));
#1620=CARTESIAN_POINT('',(-2.275,0.737499999998974,0.));
#1621=CARTESIAN_POINT('',(-2.275,1.475,-3.));
#1622=CARTESIAN_POINT('Origin',(-2.85,0.,-3.));
#1623=CARTESIAN_POINT('Origin',(9.27499999998611,-9.27499999999569,2.));
#1624=CARTESIAN_POINT('Origin',(6.77501088890227,7.82500000000084,0.));
#1625=CARTESIAN_POINT('',(-6.7750252930257,7.82500000000279,0.));
#1626=CARTESIAN_POINT('',(6.77501088890227,7.82500000000084,0.));
#1627=CARTESIAN_POINT('',(3.3875054444447,7.82500000000133,0.));
#1628=CARTESIAN_POINT('',(-6.7750252930257,7.82500000000279,0.));
#1629=CARTESIAN_POINT('',(6.77501088890227,7.82500000000084,0.));
#1630=CARTESIAN_POINT('Origin',(6.77499999998407,6.77499999999663,0.));
#1631=CARTESIAN_POINT('',(7.82499999997969,6.77500021242034,0.));
#1632=CARTESIAN_POINT('Origin',(6.77499999998407,6.77499999999663,0.));
#1633=CARTESIAN_POINT('',(7.82499999997969,6.77500021242034,0.));
#1634=CARTESIAN_POINT('Origin',(7.82499999997969,-6.77500375335931,0.));
#1635=CARTESIAN_POINT('',(7.82499999997969,-6.77500375335931,0.));
#1636=CARTESIAN_POINT('',(7.82499999997969,-3.38750187668068,0.));
#1637=CARTESIAN_POINT('',(7.82499999997969,-6.77500375335931,0.));
#1638=CARTESIAN_POINT('Origin',(6.77499999999889,-6.77500000001203,0.));
#1639=CARTESIAN_POINT('',(6.7749867652731,-7.82499999999619,0.));
#1640=CARTESIAN_POINT('Origin',(6.77499999999889,-6.77500000001203,0.));
#1641=CARTESIAN_POINT('',(6.7749867652731,-7.82499999999619,0.));
#1642=CARTESIAN_POINT('Origin',(-6.77501273813896,-7.82499999999621,0.));
#1643=CARTESIAN_POINT('',(-6.77501273813896,-7.82499999999621,0.));
#1644=CARTESIAN_POINT('',(-3.38750636907647,-7.82499999999621,0.));
#1645=CARTESIAN_POINT('',(-6.77501273813896,-7.82499999999621,0.));
#1646=CARTESIAN_POINT('Origin',(-6.7749999999955,-6.77500000000098,0.));
#1647=CARTESIAN_POINT('',(-7.82500000002048,-6.77500002450454,0.));
#1648=CARTESIAN_POINT('Origin',(-6.7749999999955,-6.77500000000098,0.));
#1649=CARTESIAN_POINT('',(-7.82500000002048,-6.77500002450454,0.));
#1650=CARTESIAN_POINT('Origin',(-7.82500000002048,6.77499562437227,0.));
#1651=CARTESIAN_POINT('',(-7.82500000031369,6.77499562437227,0.));
#1652=CARTESIAN_POINT('',(-7.82500000002048,3.38749781218511,0.));
#1653=CARTESIAN_POINT('',(-7.82500000031369,6.77499562437227,0.));
#1654=CARTESIAN_POINT('Origin',(-6.77500000000672,6.77499999999135,0.));
#1655=CARTESIAN_POINT('Origin',(-6.77500000000672,6.77499999999135,0.));
#1656=CARTESIAN_POINT('Origin',(-9.27500000001389,-9.27500000000135,0.));
#1657=CARTESIAN_POINT('Origin',(-1.39921407793508E-11,-2.05169214950729E-12,
0.));
#1658=UNCERTAINTY_MEASURE_WITH_UNIT(LENGTH_MEASURE(0.01),#1662,
'DISTANCE_ACCURACY_VALUE',
'Maximum model space distance between geometric entities at asserted c
onnectivities');
#1659=UNCERTAINTY_MEASURE_WITH_UNIT(LENGTH_MEASURE(0.01),#1662,
'DISTANCE_ACCURACY_VALUE',
'Maximum model space distance between geometric entities at asserted c
onnectivities');
#1660=(
GEOMETRIC_REPRESENTATION_CONTEXT(3)
GLOBAL_UNCERTAINTY_ASSIGNED_CONTEXT((#1658))
GLOBAL_UNIT_ASSIGNED_CONTEXT((#1662,#1664,#1665))
REPRESENTATION_CONTEXT('','3D')
);
#1661=(
GEOMETRIC_REPRESENTATION_CONTEXT(3)
GLOBAL_UNCERTAINTY_ASSIGNED_CONTEXT((#1659))
GLOBAL_UNIT_ASSIGNED_CONTEXT((#1662,#1664,#1665))
REPRESENTATION_CONTEXT('','3D')
);
#1662=(
LENGTH_UNIT()
NAMED_UNIT(*)
SI_UNIT(.MILLI.,.METRE.)
);
#1663=(
LENGTH_UNIT()
NAMED_UNIT(*)
SI_UNIT($,.METRE.)
);
#1664=(
NAMED_UNIT(*)
PLANE_ANGLE_UNIT()
SI_UNIT($,.RADIAN.)
);
#1665=(
NAMED_UNIT(*)
SI_UNIT($,.STERADIAN.)
SOLID_ANGLE_UNIT()
);
#1666=SHAPE_DEFINITION_REPRESENTATION(#1667,#1668);
#1667=PRODUCT_DEFINITION_SHAPE('',$,#1670);
#1668=SHAPE_REPRESENTATION('',(#813),#1660);
#1669=PRODUCT_DEFINITION_CONTEXT('part definition',#1674,'design');
#1670=PRODUCT_DEFINITION('OrthusKeycapAlt','OrthusKeycapAlt v6',#1671,#1669);
#1671=PRODUCT_DEFINITION_FORMATION('',$,#1676);
#1672=PRODUCT_RELATED_PRODUCT_CATEGORY('OrthusKeycapAlt v6',
'OrthusKeycapAlt v6',(#1676));
#1673=APPLICATION_PROTOCOL_DEFINITION('international standard',
'ap242_managed_model_based_3d_engineering',2011,#1674);
#1674=APPLICATION_CONTEXT('Managed model based 3d engineering');
#1675=PRODUCT_CONTEXT('part definition',#1674,'mechanical');
#1676=PRODUCT('OrthusKeycapAlt','OrthusKeycapAlt v6',$,(#1675));
#1677=PRESENTATION_STYLE_ASSIGNMENT((#1678));
#1678=SURFACE_STYLE_USAGE(.BOTH.,#1679);
#1679=SURFACE_SIDE_STYLE('',(#1680));
#1680=SURFACE_STYLE_FILL_AREA(#1681);
#1681=FILL_AREA_STYLE('Steel - Satin',(#1682));
#1682=FILL_AREA_STYLE_COLOUR('Steel - Satin',#1683);
#1683=COLOUR_RGB('Steel - Satin',0.627450980392157,0.627450980392157,0.627450980392157);
ENDSEC;
END-ISO-10303-21;
