ISO-10303-21;
HEADER;
/* Generated by software containing ST-Developer
 * from STEP Tools, Inc. (www.steptools.com) 
 */

FILE_DESCRIPTION(
/* description */ ('',
'CAx-IF Rec.Pracs.---Representation and Presentation of Product Manufa
cturing Information (PMI)---4.0---2014-10-13'),
/* implementation_level */ '2;1');

FILE_NAME(
/* name */ 'OrthusKeycapAlt1.step',
/* time_stamp */ '2025-08-30T14:42:57-07:00',
/* author */ (''),
/* organization */ (''),
/* preprocessor_version */ 'ST-DEVELOPER v20',
/* originating_system */ 'Autodesk Translation Framework v13.20.0.188',

/* authorisation */ '');

FILE_SCHEMA (('AP242_MANAGED_MODEL_BASED_3D_ENGINEERING_MIM_LF { 1 0 10303 442 1 1 4 }'));
ENDSEC;

DATA;
#10=MECHANICAL_DESIGN_GEOMETRIC_PRESENTATION_REPRESENTATION('',(#13),#1540);
#11=SHAPE_REPRESENTATION_RELATIONSHIP('SRR','None',#1547,#12);
#12=ADVANCED_BREP_SHAPE_REPRESENTATION('',(#14),#1539);
#13=STYLED_ITEM('',(#1556),#14);
#14=MANIFOLD_SOLID_BREP('Body2',#739);
#15=FACE_BOUND('',#117,.T.);
#16=FACE_BOUND('',#140,.T.);
#17=FACE_BOUND('',#141,.T.);
#18=PLANE('',#777);
#19=PLANE('',#780);
#20=PLANE('',#783);
#21=PLANE('',#784);
#22=PLANE('',#787);
#23=PLANE('',#792);
#24=PLANE('',#793);
#25=PLANE('',#794);
#26=PLANE('',#795);
#27=PLANE('',#796);
#28=PLANE('',#797);
#29=PLANE('',#798);
#30=PLANE('',#799);
#31=PLANE('',#800);
#32=PLANE('',#801);
#33=PLANE('',#802);
#34=PLANE('',#805);
#35=PLANE('',#808);
#36=PLANE('',#811);
#37=PLANE('',#814);
#38=PLANE('',#815);
#39=ELLIPSE('',#757,0.250363000314611,0.25);
#40=ELLIPSE('',#758,0.500181598948356,0.5);
#41=ELLIPSE('',#762,0.25036300031461,0.25);
#42=ELLIPSE('',#763,0.500181598948356,0.5);
#43=ELLIPSE('',#767,0.25036300031461,0.25);
#44=ELLIPSE('',#768,0.500181598948356,0.5);
#45=ELLIPSE('',#772,0.25036300031461,0.25);
#46=ELLIPSE('',#773,0.500181598948356,0.5);
#47=B_SPLINE_SURFACE_WITH_KNOTS('',3,3,((#1054,#1055,#1056,#1057,#1058),
(#1059,#1060,#1061,#1062,#1063),(#1064,#1065,#1066,#1067,#1068),(#1069,
#1070,#1071,#1072,#1073),(#1074,#1075,#1076,#1077,#1078)),.UNSPECIFIED.,
 .F.,.F.,.F.,(4,1,4),(4,1,4),(0.,0.5,1.),(-9.19873956331609E-17,0.307005046623653,
0.716345108788523),.UNSPECIFIED.);
#48=B_SPLINE_SURFACE_WITH_KNOTS('',3,3,((#1094,#1095,#1096,#1097,#1098),
(#1099,#1100,#1101,#1102,#1103),(#1104,#1105,#1106,#1107,#1108),(#1109,
#1110,#1111,#1112,#1113),(#1114,#1115,#1116,#1117,#1118)),.UNSPECIFIED.,
 .F.,.F.,.F.,(4,1,4),(4,1,4),(0.,0.5,1.),(1.16404497809418E-12,0.307004142677729,
0.716342999579816),.UNSPECIFIED.);
#49=B_SPLINE_SURFACE_WITH_KNOTS('',3,3,((#1167,#1168,#1169,#1170,#1171),
(#1172,#1173,#1174,#1175,#1176),(#1177,#1178,#1179,#1180,#1181),(#1182,
#1183,#1184,#1185,#1186),(#1187,#1188,#1189,#1190,#1191)),.UNSPECIFIED.,
 .F.,.F.,.F.,(4,1,4),(4,1,4),(0.,0.5,1.),(-1.57079632679489,-0.785398163397598,
-3.02585606185039E-13),.UNSPECIFIED.);
#50=B_SPLINE_SURFACE_WITH_KNOTS('',3,3,((#1203,#1204,#1205,#1206,#1207),
(#1208,#1209,#1210,#1211,#1212),(#1213,#1214,#1215,#1216,#1217),(#1218,
#1219,#1220,#1221,#1222),(#1223,#1224,#1225,#1226,#1227)),.UNSPECIFIED.,
 .F.,.F.,.F.,(4,1,4),(4,1,4),(0.,0.5,1.),(-8.88178419700125E-16,0.785398163397448,
1.5707963267949),.UNSPECIFIED.);
#51=B_SPLINE_SURFACE_WITH_KNOTS('',3,3,((#1239,#1240,#1241,#1242,#1243),
(#1244,#1245,#1246,#1247,#1248),(#1249,#1250,#1251,#1252,#1253),(#1254,
#1255,#1256,#1257,#1258),(#1259,#1260,#1261,#1262,#1263)),.UNSPECIFIED.,
 .F.,.F.,.F.,(4,1,4),(4,1,4),(0.,0.5,1.),(-1.57079632679747,-0.785398163398731,
5.51575373687512E-15),.UNSPECIFIED.);
#52=B_SPLINE_SURFACE_WITH_KNOTS('',3,3,((#1275,#1276,#1277,#1278,#1279),
(#1280,#1281,#1282,#1283,#1284),(#1285,#1286,#1287,#1288,#1289),(#1290,
#1291,#1292,#1293,#1294),(#1295,#1296,#1297,#1298,#1299)),.UNSPECIFIED.,
 .F.,.F.,.F.,(4,1,4),(4,1,4),(0.,0.5,1.),(-3.03051953575408E-13,0.785398163396014,
1.57079632679233),.UNSPECIFIED.);
#53=B_SPLINE_SURFACE_WITH_KNOTS('',3,3,((#1424,#1425,#1426,#1427),(#1428,
#1429,#1430,#1431),(#1432,#1433,#1434,#1435),(#1436,#1437,#1438,#1439),
(#1440,#1441,#1442,#1443),(#1444,#1445,#1446,#1447)),.UNSPECIFIED.,.F.,
 .F.,.F.,(4,1,1,4),(4,4),(0.,0.285714285714286,0.571428571428571,1.),(0.0136086400531055,
1.),.UNSPECIFIED.);
#54=B_SPLINE_SURFACE_WITH_KNOTS('',3,3,((#1449,#1450,#1451,#1452,#1453,
#1454,#1455,#1456,#1457),(#1458,#1459,#1460,#1461,#1462,#1463,#1464,#1465,
#1466),(#1467,#1468,#1469,#1470,#1471,#1472,#1473,#1474,#1475),(#1476,#1477,
#1478,#1479,#1480,#1481,#1482,#1483,#1484),(#1485,#1486,#1487,#1488,#1489,
#1490,#1491,#1492,#1493),(#1494,#1495,#1496,#1497,#1498,#1499,#1500,#1501,
#1502)),.UNSPECIFIED.,.F.,.F.,.F.,(4,1,1,4),(4,1,1,1,1,1,4),(0.,0.285714285714286,
0.571428571428571,1.),(0.0136086392941197,0.718173896941177,0.859086948470589,
0.929543474235294,0.964771737117647,0.982385868558824,1.),.UNSPECIFIED.);
#55=FACE_OUTER_BOUND('',#97,.T.);
#56=FACE_OUTER_BOUND('',#98,.T.);
#57=FACE_OUTER_BOUND('',#99,.T.);
#58=FACE_OUTER_BOUND('',#100,.T.);
#59=FACE_OUTER_BOUND('',#101,.T.);
#60=FACE_OUTER_BOUND('',#102,.T.);
#61=FACE_OUTER_BOUND('',#103,.T.);
#62=FACE_OUTER_BOUND('',#104,.T.);
#63=FACE_OUTER_BOUND('',#105,.T.);
#64=FACE_OUTER_BOUND('',#106,.T.);
#65=FACE_OUTER_BOUND('',#107,.T.);
#66=FACE_OUTER_BOUND('',#108,.T.);
#67=FACE_OUTER_BOUND('',#109,.T.);
#68=FACE_OUTER_BOUND('',#110,.T.);
#69=FACE_OUTER_BOUND('',#111,.T.);
#70=FACE_OUTER_BOUND('',#112,.T.);
#71=FACE_OUTER_BOUND('',#113,.T.);
#72=FACE_OUTER_BOUND('',#114,.T.);
#73=FACE_OUTER_BOUND('',#115,.T.);
#74=FACE_OUTER_BOUND('',#116,.T.);
#75=FACE_OUTER_BOUND('',#118,.T.);
#76=FACE_OUTER_BOUND('',#119,.T.);
#77=FACE_OUTER_BOUND('',#120,.T.);
#78=FACE_OUTER_BOUND('',#121,.T.);
#79=FACE_OUTER_BOUND('',#122,.T.);
#80=FACE_OUTER_BOUND('',#123,.T.);
#81=FACE_OUTER_BOUND('',#124,.T.);
#82=FACE_OUTER_BOUND('',#125,.T.);
#83=FACE_OUTER_BOUND('',#126,.T.);
#84=FACE_OUTER_BOUND('',#127,.T.);
#85=FACE_OUTER_BOUND('',#128,.T.);
#86=FACE_OUTER_BOUND('',#129,.T.);
#87=FACE_OUTER_BOUND('',#130,.T.);
#88=FACE_OUTER_BOUND('',#131,.T.);
#89=FACE_OUTER_BOUND('',#132,.T.);
#90=FACE_OUTER_BOUND('',#133,.T.);
#91=FACE_OUTER_BOUND('',#134,.T.);
#92=FACE_OUTER_BOUND('',#135,.T.);
#93=FACE_OUTER_BOUND('',#136,.T.);
#94=FACE_OUTER_BOUND('',#137,.T.);
#95=FACE_OUTER_BOUND('',#138,.T.);
#96=FACE_OUTER_BOUND('',#139,.T.);
#97=EDGE_LOOP('',(#476,#477,#478,#479));
#98=EDGE_LOOP('',(#480,#481,#482,#483,#484));
#99=EDGE_LOOP('',(#485,#486,#487,#488,#489));
#100=EDGE_LOOP('',(#490,#491,#492,#493));
#101=EDGE_LOOP('',(#494,#495,#496,#497));
#102=EDGE_LOOP('',(#498,#499,#500,#501));
#103=EDGE_LOOP('',(#502,#503,#504,#505));
#104=EDGE_LOOP('',(#506,#507,#508,#509));
#105=EDGE_LOOP('',(#510,#511,#512,#513));
#106=EDGE_LOOP('',(#514,#515,#516,#517));
#107=EDGE_LOOP('',(#518,#519,#520,#521));
#108=EDGE_LOOP('',(#522,#523,#524,#525));
#109=EDGE_LOOP('',(#526,#527,#528,#529));
#110=EDGE_LOOP('',(#530,#531,#532,#533));
#111=EDGE_LOOP('',(#534,#535,#536,#537));
#112=EDGE_LOOP('',(#538,#539,#540,#541));
#113=EDGE_LOOP('',(#542,#543,#544,#545,#546,#547,#548,#549,#550,#551,#552,
#553,#554,#555,#556));
#114=EDGE_LOOP('',(#557,#558,#559,#560));
#115=EDGE_LOOP('',(#561,#562,#563,#564));
#116=EDGE_LOOP('',(#565,#566,#567,#568,#569,#570,#571,#572));
#117=EDGE_LOOP('',(#573,#574,#575,#576,#577,#578,#579,#580));
#118=EDGE_LOOP('',(#581,#582,#583,#584));
#119=EDGE_LOOP('',(#585,#586,#587,#588));
#120=EDGE_LOOP('',(#589,#590,#591,#592));
#121=EDGE_LOOP('',(#593,#594,#595,#596));
#122=EDGE_LOOP('',(#597,#598,#599,#600));
#123=EDGE_LOOP('',(#601,#602,#603,#604));
#124=EDGE_LOOP('',(#605,#606,#607,#608));
#125=EDGE_LOOP('',(#609,#610,#611,#612));
#126=EDGE_LOOP('',(#613,#614,#615,#616));
#127=EDGE_LOOP('',(#617,#618,#619,#620));
#128=EDGE_LOOP('',(#621,#622,#623,#624));
#129=EDGE_LOOP('',(#625,#626,#627,#628));
#130=EDGE_LOOP('',(#629,#630,#631,#632));
#131=EDGE_LOOP('',(#633,#634,#635,#636));
#132=EDGE_LOOP('',(#637,#638,#639,#640));
#133=EDGE_LOOP('',(#641,#642,#643,#644));
#134=EDGE_LOOP('',(#645,#646,#647,#648));
#135=EDGE_LOOP('',(#649,#650,#651,#652));
#136=EDGE_LOOP('',(#653,#654,#655,#656));
#137=EDGE_LOOP('',(#657,#658,#659,#660));
#138=EDGE_LOOP('',(#661,#662,#663,#664,#665,#666,#667));
#139=EDGE_LOOP('',(#668,#669,#670,#671,#672,#673,#674,#675));
#140=EDGE_LOOP('',(#676,#677,#678,#679));
#141=EDGE_LOOP('',(#680,#681,#682,#683));
#142=B_SPLINE_CURVE_WITH_KNOTS('',3,(#1020,#1021,#1022,#1023,#1024,#1025,
#1026,#1027,#1028,#1029,#1030,#1031,#1032,#1033,#1034,#1035,#1036,#1037,
#1038,#1039,#1040,#1041,#1042,#1043,#1044,#1045,#1046,#1047,#1048,#1049,
#1050,#1051,#1052,#1053),.UNSPECIFIED.,.F.,.F.,(4,3,3,3,3,3,3,3,3,3,3,4),
(-0.0380654746801706,-0.0332253774068776,-0.0283852801335846,-0.0236352472491479,
-0.0190190943508657,-0.018643630284763,-0.0139892754567369,-0.00921261593042842,
-0.0087966918682512,-0.0040311981271037,0.,0.000178027821561805),
 .UNSPECIFIED.);
#143=B_SPLINE_CURVE_WITH_KNOTS('',3,(#1081,#1082,#1083,#1084,#1085),
 .UNSPECIFIED.,.F.,.F.,(4,1,4),(-9.19873956331609E-17,0.307005046623653,
0.716345108788523),.UNSPECIFIED.);
#144=B_SPLINE_CURVE_WITH_KNOTS('',3,(#1088,#1089,#1090,#1091,#1092),
 .UNSPECIFIED.,.F.,.F.,(4,1,4),(-0.716345108788523,-0.307005046623653,-0.00358398869131208),
 .UNSPECIFIED.);
#145=B_SPLINE_CURVE_WITH_KNOTS('',3,(#1120,#1121,#1122,#1123,#1124),
 .UNSPECIFIED.,.F.,.F.,(4,1,4),(-0.712759017952353,-0.307004142677729,-1.16404497809418E-12),
 .UNSPECIFIED.);
#146=B_SPLINE_CURVE_WITH_KNOTS('',3,(#1126,#1127,#1128,#1129,#1130),
 .UNSPECIFIED.,.F.,.F.,(4,1,4),(1.16404497809418E-12,0.307004142677729,
0.716342999579816),.UNSPECIFIED.);
#147=B_SPLINE_CURVE_WITH_KNOTS('',3,(#1133,#1134,#1135,#1136,#1137,#1138,
#1139,#1140,#1141,#1142,#1143,#1144,#1145,#1146,#1147,#1148,#1149,#1150,
#1151,#1152,#1153,#1154,#1155,#1156,#1157,#1158,#1159,#1160,#1161,#1162,
#1163,#1164,#1165,#1166),.UNSPECIFIED.,.F.,.F.,(4,3,3,3,3,3,3,3,3,3,3,4),
(0.,0.00483813694642852,0.00967627389285704,0.0144243786795142,0.0190386654992174,
0.0194139779191606,0.02406643824675,0.0288411462969945,0.0292569273848761,
0.0340204643942769,0.0380500549896546,0.0382280106888554),.UNSPECIFIED.);
#148=B_SPLINE_CURVE_WITH_KNOTS('',3,(#1334,#1335,#1336,#1337,#1338,#1339),
 .UNSPECIFIED.,.F.,.F.,(4,1,1,4),(0.,0.285714285714286,0.571428571428571,
1.),.UNSPECIFIED.);
#149=B_SPLINE_CURVE_WITH_KNOTS('',3,(#1341,#1342,#1343,#1344,#1345,#1346),
 .UNSPECIFIED.,.F.,.F.,(4,1,1,4),(0.,0.285714285714286,0.571428571428571,
1.),.UNSPECIFIED.);
#150=CIRCLE('',#754,0.250000000000001);
#151=CIRCLE('',#755,0.25);
#152=CIRCLE('',#756,0.25);
#153=CIRCLE('',#760,0.25);
#154=CIRCLE('',#761,0.25);
#155=CIRCLE('',#765,0.25);
#156=CIRCLE('',#766,0.25);
#157=CIRCLE('',#770,0.250000000000001);
#158=CIRCLE('',#771,0.249999999999999);
#159=CIRCLE('',#776,0.5);
#160=CIRCLE('',#779,0.5);
#161=CIRCLE('',#782,0.5);
#162=CIRCLE('',#786,0.5);
#163=CIRCLE('',#788,1.05000000031608);
#164=CIRCLE('',#789,1.05000000002498);
#165=CIRCLE('',#790,1.05000000006757);
#166=CIRCLE('',#791,1.04999999999564);
#167=CIRCLE('',#804,1.04999999999564);
#168=CIRCLE('',#807,1.05000000006757);
#169=CIRCLE('',#810,1.05000000002498);
#170=CIRCLE('',#813,1.05000000031608);
#171=LINE('',#1015,#238);
#172=LINE('',#1019,#239);
#173=LINE('',#1093,#240);
#174=LINE('',#1132,#241);
#175=LINE('',#1201,#242);
#176=LINE('',#1202,#243);
#177=LINE('',#1237,#244);
#178=LINE('',#1238,#245);
#179=LINE('',#1273,#246);
#180=LINE('',#1274,#247);
#181=LINE('',#1306,#248);
#182=LINE('',#1307,#249);
#183=LINE('',#1310,#250);
#184=LINE('',#1313,#251);
#185=LINE('',#1316,#252);
#186=LINE('',#1317,#253);
#187=LINE('',#1320,#254);
#188=LINE('',#1324,#255);
#189=LINE('',#1325,#256);
#190=LINE('',#1328,#257);
#191=LINE('',#1332,#258);
#192=LINE('',#1347,#259);
#193=LINE('',#1350,#260);
#194=LINE('',#1351,#261);
#195=LINE('',#1355,#262);
#196=LINE('',#1357,#263);
#197=LINE('',#1362,#264);
#198=LINE('',#1366,#265);
#199=LINE('',#1370,#266);
#200=LINE('',#1373,#267);
#201=LINE('',#1377,#268);
#202=LINE('',#1379,#269);
#203=LINE('',#1381,#270);
#204=LINE('',#1382,#271);
#205=LINE('',#1385,#272);
#206=LINE('',#1387,#273);
#207=LINE('',#1388,#274);
#208=LINE('',#1391,#275);
#209=LINE('',#1393,#276);
#210=LINE('',#1394,#277);
#211=LINE('',#1396,#278);
#212=LINE('',#1397,#279);
#213=LINE('',#1402,#280);
#214=LINE('',#1404,#281);
#215=LINE('',#1406,#282);
#216=LINE('',#1407,#283);
#217=LINE('',#1410,#284);
#218=LINE('',#1412,#285);
#219=LINE('',#1413,#286);
#220=LINE('',#1416,#287);
#221=LINE('',#1418,#288);
#222=LINE('',#1419,#289);
#223=LINE('',#1421,#290);
#224=LINE('',#1422,#291);
#225=LINE('',#1448,#292);
#226=LINE('',#1506,#293);
#227=LINE('',#1507,#294);
#228=LINE('',#1508,#295);
#229=LINE('',#1512,#296);
#230=LINE('',#1515,#297);
#231=LINE('',#1516,#298);
#232=LINE('',#1520,#299);
#233=LINE('',#1523,#300);
#234=LINE('',#1524,#301);
#235=LINE('',#1528,#302);
#236=LINE('',#1531,#303);
#237=LINE('',#1532,#304);
#238=VECTOR('',#820,10.);
#239=VECTOR('',#823,10.);
#240=VECTOR('',#826,8.9537295025904);
#241=VECTOR('',#827,8.95371998461986);
#242=VECTOR('',#838,10.);
#243=VECTOR('',#839,10.);
#244=VECTOR('',#850,10.);
#245=VECTOR('',#851,10.);
#246=VECTOR('',#862,10.);
#247=VECTOR('',#863,10.);
#248=VECTOR('',#872,10.);
#249=VECTOR('',#873,10.);
#250=VECTOR('',#876,10.);
#251=VECTOR('',#879,10.);
#252=VECTOR('',#882,10.);
#253=VECTOR('',#883,10.);
#254=VECTOR('',#886,10.);
#255=VECTOR('',#891,10.);
#256=VECTOR('',#892,10.);
#257=VECTOR('',#895,10.);
#258=VECTOR('',#900,8.95371998461986);
#259=VECTOR('',#901,8.9537295025904);
#260=VECTOR('',#904,10.);
#261=VECTOR('',#905,10.);
#262=VECTOR('',#910,10.);
#263=VECTOR('',#913,10.);
#264=VECTOR('',#916,10.);
#265=VECTOR('',#919,10.);
#266=VECTOR('',#922,10.);
#267=VECTOR('',#925,10.);
#268=VECTOR('',#928,10.);
#269=VECTOR('',#929,10.);
#270=VECTOR('',#930,10.);
#271=VECTOR('',#931,10.);
#272=VECTOR('',#934,10.);
#273=VECTOR('',#935,10.);
#274=VECTOR('',#936,10.);
#275=VECTOR('',#939,10.);
#276=VECTOR('',#940,10.);
#277=VECTOR('',#941,10.);
#278=VECTOR('',#944,10.);
#279=VECTOR('',#945,10.);
#280=VECTOR('',#950,10.);
#281=VECTOR('',#951,10.);
#282=VECTOR('',#952,10.);
#283=VECTOR('',#953,10.);
#284=VECTOR('',#956,10.);
#285=VECTOR('',#957,10.);
#286=VECTOR('',#958,10.);
#287=VECTOR('',#961,10.);
#288=VECTOR('',#962,10.);
#289=VECTOR('',#963,10.);
#290=VECTOR('',#966,10.);
#291=VECTOR('',#967,10.);
#292=VECTOR('',#970,16.3727758820338);
#293=VECTOR('',#973,10.);
#294=VECTOR('',#974,10.);
#295=VECTOR('',#975,10.);
#296=VECTOR('',#980,10.);
#297=VECTOR('',#983,10.);
#298=VECTOR('',#984,10.);
#299=VECTOR('',#989,10.);
#300=VECTOR('',#992,10.);
#301=VECTOR('',#993,10.);
#302=VECTOR('',#998,10.);
#303=VECTOR('',#1001,10.);
#304=VECTOR('',#1002,10.);
#305=VERTEX_POINT('',#1013);
#306=VERTEX_POINT('',#1014);
#307=VERTEX_POINT('',#1016);
#308=VERTEX_POINT('',#1018);
#309=VERTEX_POINT('',#1079);
#310=VERTEX_POINT('',#1080);
#311=VERTEX_POINT('',#1086);
#312=VERTEX_POINT('',#1119);
#313=VERTEX_POINT('',#1125);
#314=VERTEX_POINT('',#1131);
#315=VERTEX_POINT('',#1192);
#316=VERTEX_POINT('',#1193);
#317=VERTEX_POINT('',#1198);
#318=VERTEX_POINT('',#1199);
#319=VERTEX_POINT('',#1228);
#320=VERTEX_POINT('',#1229);
#321=VERTEX_POINT('',#1234);
#322=VERTEX_POINT('',#1235);
#323=VERTEX_POINT('',#1264);
#324=VERTEX_POINT('',#1265);
#325=VERTEX_POINT('',#1270);
#326=VERTEX_POINT('',#1271);
#327=VERTEX_POINT('',#1300);
#328=VERTEX_POINT('',#1301);
#329=VERTEX_POINT('',#1309);
#330=VERTEX_POINT('',#1311);
#331=VERTEX_POINT('',#1315);
#332=VERTEX_POINT('',#1319);
#333=VERTEX_POINT('',#1323);
#334=VERTEX_POINT('',#1327);
#335=VERTEX_POINT('',#1331);
#336=VERTEX_POINT('',#1333);
#337=VERTEX_POINT('',#1340);
#338=VERTEX_POINT('',#1349);
#339=VERTEX_POINT('',#1353);
#340=VERTEX_POINT('',#1358);
#341=VERTEX_POINT('',#1359);
#342=VERTEX_POINT('',#1361);
#343=VERTEX_POINT('',#1363);
#344=VERTEX_POINT('',#1365);
#345=VERTEX_POINT('',#1367);
#346=VERTEX_POINT('',#1369);
#347=VERTEX_POINT('',#1371);
#348=VERTEX_POINT('',#1375);
#349=VERTEX_POINT('',#1376);
#350=VERTEX_POINT('',#1378);
#351=VERTEX_POINT('',#1380);
#352=VERTEX_POINT('',#1384);
#353=VERTEX_POINT('',#1386);
#354=VERTEX_POINT('',#1390);
#355=VERTEX_POINT('',#1392);
#356=VERTEX_POINT('',#1400);
#357=VERTEX_POINT('',#1401);
#358=VERTEX_POINT('',#1403);
#359=VERTEX_POINT('',#1405);
#360=VERTEX_POINT('',#1409);
#361=VERTEX_POINT('',#1411);
#362=VERTEX_POINT('',#1415);
#363=VERTEX_POINT('',#1417);
#364=VERTEX_POINT('',#1504);
#365=VERTEX_POINT('',#1505);
#366=VERTEX_POINT('',#1510);
#367=VERTEX_POINT('',#1514);
#368=VERTEX_POINT('',#1518);
#369=VERTEX_POINT('',#1522);
#370=VERTEX_POINT('',#1526);
#371=VERTEX_POINT('',#1530);
#372=EDGE_CURVE('',#305,#306,#171,.T.);
#373=EDGE_CURVE('',#306,#307,#150,.T.);
#374=EDGE_CURVE('',#307,#308,#172,.T.);
#375=EDGE_CURVE('',#308,#305,#142,.T.);
#376=EDGE_CURVE('',#309,#310,#143,.T.);
#377=EDGE_CURVE('',#310,#311,#151,.T.);
#378=EDGE_CURVE('',#311,#305,#144,.T.);
#379=EDGE_CURVE('',#309,#308,#173,.T.);
#380=EDGE_CURVE('',#312,#311,#145,.T.);
#381=EDGE_CURVE('',#310,#313,#146,.T.);
#382=EDGE_CURVE('',#314,#313,#174,.T.);
#383=EDGE_CURVE('',#314,#312,#147,.T.);
#384=EDGE_CURVE('',#315,#316,#152,.T.);
#385=EDGE_CURVE('',#316,#307,#39,.T.);
#386=EDGE_CURVE('',#306,#315,#40,.T.);
#387=EDGE_CURVE('',#317,#318,#153,.T.);
#388=EDGE_CURVE('',#318,#316,#175,.T.);
#389=EDGE_CURVE('',#315,#317,#176,.T.);
#390=EDGE_CURVE('',#319,#320,#154,.T.);
#391=EDGE_CURVE('',#320,#318,#41,.T.);
#392=EDGE_CURVE('',#317,#319,#42,.T.);
#393=EDGE_CURVE('',#321,#322,#155,.T.);
#394=EDGE_CURVE('',#322,#320,#177,.T.);
#395=EDGE_CURVE('',#319,#321,#178,.T.);
#396=EDGE_CURVE('',#323,#324,#156,.T.);
#397=EDGE_CURVE('',#324,#322,#43,.T.);
#398=EDGE_CURVE('',#321,#323,#44,.T.);
#399=EDGE_CURVE('',#325,#326,#157,.T.);
#400=EDGE_CURVE('',#326,#324,#179,.T.);
#401=EDGE_CURVE('',#323,#325,#180,.T.);
#402=EDGE_CURVE('',#327,#328,#158,.T.);
#403=EDGE_CURVE('',#328,#326,#45,.T.);
#404=EDGE_CURVE('',#325,#327,#46,.T.);
#405=EDGE_CURVE('',#314,#328,#181,.T.);
#406=EDGE_CURVE('',#327,#312,#182,.T.);
#407=EDGE_CURVE('',#321,#329,#183,.T.);
#408=EDGE_CURVE('',#329,#330,#159,.T.);
#409=EDGE_CURVE('',#330,#323,#184,.T.);
#410=EDGE_CURVE('',#331,#319,#185,.T.);
#411=EDGE_CURVE('',#329,#331,#186,.T.);
#412=EDGE_CURVE('',#317,#332,#187,.T.);
#413=EDGE_CURVE('',#332,#331,#160,.T.);
#414=EDGE_CURVE('',#333,#315,#188,.T.);
#415=EDGE_CURVE('',#332,#333,#189,.T.);
#416=EDGE_CURVE('',#306,#334,#190,.T.);
#417=EDGE_CURVE('',#334,#333,#161,.T.);
#418=EDGE_CURVE('',#313,#335,#191,.T.);
#419=EDGE_CURVE('',#335,#336,#148,.T.);
#420=EDGE_CURVE('',#336,#337,#149,.T.);
#421=EDGE_CURVE('',#337,#309,#192,.T.);
#422=EDGE_CURVE('',#338,#330,#193,.T.);
#423=EDGE_CURVE('',#325,#338,#194,.T.);
#424=EDGE_CURVE('',#338,#339,#162,.T.);
#425=EDGE_CURVE('',#339,#327,#195,.T.);
#426=EDGE_CURVE('',#334,#339,#196,.T.);
#427=EDGE_CURVE('',#340,#341,#163,.T.);
#428=EDGE_CURVE('',#341,#342,#197,.T.);
#429=EDGE_CURVE('',#342,#343,#164,.T.);
#430=EDGE_CURVE('',#343,#344,#198,.T.);
#431=EDGE_CURVE('',#344,#345,#165,.T.);
#432=EDGE_CURVE('',#345,#346,#199,.T.);
#433=EDGE_CURVE('',#346,#347,#166,.T.);
#434=EDGE_CURVE('',#347,#340,#200,.T.);
#435=EDGE_CURVE('',#348,#349,#201,.T.);
#436=EDGE_CURVE('',#348,#350,#202,.T.);
#437=EDGE_CURVE('',#351,#350,#203,.T.);
#438=EDGE_CURVE('',#349,#351,#204,.T.);
#439=EDGE_CURVE('',#349,#352,#205,.T.);
#440=EDGE_CURVE('',#353,#351,#206,.T.);
#441=EDGE_CURVE('',#352,#353,#207,.T.);
#442=EDGE_CURVE('',#352,#354,#208,.T.);
#443=EDGE_CURVE('',#355,#353,#209,.T.);
#444=EDGE_CURVE('',#354,#355,#210,.T.);
#445=EDGE_CURVE('',#354,#348,#211,.T.);
#446=EDGE_CURVE('',#350,#355,#212,.T.);
#447=EDGE_CURVE('',#356,#357,#213,.T.);
#448=EDGE_CURVE('',#356,#358,#214,.T.);
#449=EDGE_CURVE('',#359,#358,#215,.T.);
#450=EDGE_CURVE('',#357,#359,#216,.T.);
#451=EDGE_CURVE('',#357,#360,#217,.T.);
#452=EDGE_CURVE('',#361,#359,#218,.T.);
#453=EDGE_CURVE('',#360,#361,#219,.T.);
#454=EDGE_CURVE('',#360,#362,#220,.T.);
#455=EDGE_CURVE('',#363,#361,#221,.T.);
#456=EDGE_CURVE('',#362,#363,#222,.T.);
#457=EDGE_CURVE('',#362,#356,#223,.T.);
#458=EDGE_CURVE('',#358,#363,#224,.T.);
#459=EDGE_CURVE('',#310,#336,#225,.T.);
#460=EDGE_CURVE('',#364,#365,#226,.T.);
#461=EDGE_CURVE('',#364,#340,#227,.T.);
#462=EDGE_CURVE('',#365,#347,#228,.T.);
#463=EDGE_CURVE('',#365,#366,#167,.T.);
#464=EDGE_CURVE('',#366,#346,#229,.T.);
#465=EDGE_CURVE('',#366,#367,#230,.T.);
#466=EDGE_CURVE('',#367,#345,#231,.T.);
#467=EDGE_CURVE('',#367,#368,#168,.T.);
#468=EDGE_CURVE('',#368,#344,#232,.T.);
#469=EDGE_CURVE('',#368,#369,#233,.T.);
#470=EDGE_CURVE('',#369,#343,#234,.T.);
#471=EDGE_CURVE('',#369,#370,#169,.T.);
#472=EDGE_CURVE('',#370,#342,#235,.T.);
#473=EDGE_CURVE('',#370,#371,#236,.T.);
#474=EDGE_CURVE('',#371,#341,#237,.T.);
#475=EDGE_CURVE('',#371,#364,#170,.T.);
#476=ORIENTED_EDGE('',*,*,#372,.T.);
#477=ORIENTED_EDGE('',*,*,#373,.T.);
#478=ORIENTED_EDGE('',*,*,#374,.T.);
#479=ORIENTED_EDGE('',*,*,#375,.T.);
#480=ORIENTED_EDGE('',*,*,#376,.T.);
#481=ORIENTED_EDGE('',*,*,#377,.T.);
#482=ORIENTED_EDGE('',*,*,#378,.T.);
#483=ORIENTED_EDGE('',*,*,#375,.F.);
#484=ORIENTED_EDGE('',*,*,#379,.F.);
#485=ORIENTED_EDGE('',*,*,#380,.T.);
#486=ORIENTED_EDGE('',*,*,#377,.F.);
#487=ORIENTED_EDGE('',*,*,#381,.T.);
#488=ORIENTED_EDGE('',*,*,#382,.F.);
#489=ORIENTED_EDGE('',*,*,#383,.T.);
#490=ORIENTED_EDGE('',*,*,#384,.T.);
#491=ORIENTED_EDGE('',*,*,#385,.T.);
#492=ORIENTED_EDGE('',*,*,#373,.F.);
#493=ORIENTED_EDGE('',*,*,#386,.T.);
#494=ORIENTED_EDGE('',*,*,#387,.T.);
#495=ORIENTED_EDGE('',*,*,#388,.T.);
#496=ORIENTED_EDGE('',*,*,#384,.F.);
#497=ORIENTED_EDGE('',*,*,#389,.T.);
#498=ORIENTED_EDGE('',*,*,#390,.T.);
#499=ORIENTED_EDGE('',*,*,#391,.T.);
#500=ORIENTED_EDGE('',*,*,#387,.F.);
#501=ORIENTED_EDGE('',*,*,#392,.T.);
#502=ORIENTED_EDGE('',*,*,#393,.T.);
#503=ORIENTED_EDGE('',*,*,#394,.T.);
#504=ORIENTED_EDGE('',*,*,#390,.F.);
#505=ORIENTED_EDGE('',*,*,#395,.T.);
#506=ORIENTED_EDGE('',*,*,#396,.T.);
#507=ORIENTED_EDGE('',*,*,#397,.T.);
#508=ORIENTED_EDGE('',*,*,#393,.F.);
#509=ORIENTED_EDGE('',*,*,#398,.T.);
#510=ORIENTED_EDGE('',*,*,#399,.T.);
#511=ORIENTED_EDGE('',*,*,#400,.T.);
#512=ORIENTED_EDGE('',*,*,#396,.F.);
#513=ORIENTED_EDGE('',*,*,#401,.T.);
#514=ORIENTED_EDGE('',*,*,#402,.T.);
#515=ORIENTED_EDGE('',*,*,#403,.T.);
#516=ORIENTED_EDGE('',*,*,#399,.F.);
#517=ORIENTED_EDGE('',*,*,#404,.T.);
#518=ORIENTED_EDGE('',*,*,#405,.T.);
#519=ORIENTED_EDGE('',*,*,#402,.F.);
#520=ORIENTED_EDGE('',*,*,#406,.T.);
#521=ORIENTED_EDGE('',*,*,#383,.F.);
#522=ORIENTED_EDGE('',*,*,#398,.F.);
#523=ORIENTED_EDGE('',*,*,#407,.T.);
#524=ORIENTED_EDGE('',*,*,#408,.T.);
#525=ORIENTED_EDGE('',*,*,#409,.T.);
#526=ORIENTED_EDGE('',*,*,#395,.F.);
#527=ORIENTED_EDGE('',*,*,#410,.F.);
#528=ORIENTED_EDGE('',*,*,#411,.F.);
#529=ORIENTED_EDGE('',*,*,#407,.F.);
#530=ORIENTED_EDGE('',*,*,#392,.F.);
#531=ORIENTED_EDGE('',*,*,#412,.T.);
#532=ORIENTED_EDGE('',*,*,#413,.T.);
#533=ORIENTED_EDGE('',*,*,#410,.T.);
#534=ORIENTED_EDGE('',*,*,#389,.F.);
#535=ORIENTED_EDGE('',*,*,#414,.F.);
#536=ORIENTED_EDGE('',*,*,#415,.F.);
#537=ORIENTED_EDGE('',*,*,#412,.F.);
#538=ORIENTED_EDGE('',*,*,#386,.F.);
#539=ORIENTED_EDGE('',*,*,#416,.T.);
#540=ORIENTED_EDGE('',*,*,#417,.T.);
#541=ORIENTED_EDGE('',*,*,#414,.T.);
#542=ORIENTED_EDGE('',*,*,#374,.F.);
#543=ORIENTED_EDGE('',*,*,#385,.F.);
#544=ORIENTED_EDGE('',*,*,#388,.F.);
#545=ORIENTED_EDGE('',*,*,#391,.F.);
#546=ORIENTED_EDGE('',*,*,#394,.F.);
#547=ORIENTED_EDGE('',*,*,#397,.F.);
#548=ORIENTED_EDGE('',*,*,#400,.F.);
#549=ORIENTED_EDGE('',*,*,#403,.F.);
#550=ORIENTED_EDGE('',*,*,#405,.F.);
#551=ORIENTED_EDGE('',*,*,#382,.T.);
#552=ORIENTED_EDGE('',*,*,#418,.T.);
#553=ORIENTED_EDGE('',*,*,#419,.T.);
#554=ORIENTED_EDGE('',*,*,#420,.T.);
#555=ORIENTED_EDGE('',*,*,#421,.T.);
#556=ORIENTED_EDGE('',*,*,#379,.T.);
#557=ORIENTED_EDGE('',*,*,#401,.F.);
#558=ORIENTED_EDGE('',*,*,#409,.F.);
#559=ORIENTED_EDGE('',*,*,#422,.F.);
#560=ORIENTED_EDGE('',*,*,#423,.F.);
#561=ORIENTED_EDGE('',*,*,#404,.F.);
#562=ORIENTED_EDGE('',*,*,#423,.T.);
#563=ORIENTED_EDGE('',*,*,#424,.T.);
#564=ORIENTED_EDGE('',*,*,#425,.T.);
#565=ORIENTED_EDGE('',*,*,#408,.F.);
#566=ORIENTED_EDGE('',*,*,#411,.T.);
#567=ORIENTED_EDGE('',*,*,#413,.F.);
#568=ORIENTED_EDGE('',*,*,#415,.T.);
#569=ORIENTED_EDGE('',*,*,#417,.F.);
#570=ORIENTED_EDGE('',*,*,#426,.T.);
#571=ORIENTED_EDGE('',*,*,#424,.F.);
#572=ORIENTED_EDGE('',*,*,#422,.T.);
#573=ORIENTED_EDGE('',*,*,#427,.T.);
#574=ORIENTED_EDGE('',*,*,#428,.T.);
#575=ORIENTED_EDGE('',*,*,#429,.T.);
#576=ORIENTED_EDGE('',*,*,#430,.T.);
#577=ORIENTED_EDGE('',*,*,#431,.T.);
#578=ORIENTED_EDGE('',*,*,#432,.T.);
#579=ORIENTED_EDGE('',*,*,#433,.T.);
#580=ORIENTED_EDGE('',*,*,#434,.T.);
#581=ORIENTED_EDGE('',*,*,#435,.F.);
#582=ORIENTED_EDGE('',*,*,#436,.T.);
#583=ORIENTED_EDGE('',*,*,#437,.F.);
#584=ORIENTED_EDGE('',*,*,#438,.F.);
#585=ORIENTED_EDGE('',*,*,#439,.F.);
#586=ORIENTED_EDGE('',*,*,#438,.T.);
#587=ORIENTED_EDGE('',*,*,#440,.F.);
#588=ORIENTED_EDGE('',*,*,#441,.F.);
#589=ORIENTED_EDGE('',*,*,#442,.F.);
#590=ORIENTED_EDGE('',*,*,#441,.T.);
#591=ORIENTED_EDGE('',*,*,#443,.F.);
#592=ORIENTED_EDGE('',*,*,#444,.F.);
#593=ORIENTED_EDGE('',*,*,#445,.F.);
#594=ORIENTED_EDGE('',*,*,#444,.T.);
#595=ORIENTED_EDGE('',*,*,#446,.F.);
#596=ORIENTED_EDGE('',*,*,#436,.F.);
#597=ORIENTED_EDGE('',*,*,#446,.T.);
#598=ORIENTED_EDGE('',*,*,#443,.T.);
#599=ORIENTED_EDGE('',*,*,#440,.T.);
#600=ORIENTED_EDGE('',*,*,#437,.T.);
#601=ORIENTED_EDGE('',*,*,#447,.F.);
#602=ORIENTED_EDGE('',*,*,#448,.T.);
#603=ORIENTED_EDGE('',*,*,#449,.F.);
#604=ORIENTED_EDGE('',*,*,#450,.F.);
#605=ORIENTED_EDGE('',*,*,#451,.F.);
#606=ORIENTED_EDGE('',*,*,#450,.T.);
#607=ORIENTED_EDGE('',*,*,#452,.F.);
#608=ORIENTED_EDGE('',*,*,#453,.F.);
#609=ORIENTED_EDGE('',*,*,#454,.F.);
#610=ORIENTED_EDGE('',*,*,#453,.T.);
#611=ORIENTED_EDGE('',*,*,#455,.F.);
#612=ORIENTED_EDGE('',*,*,#456,.F.);
#613=ORIENTED_EDGE('',*,*,#457,.F.);
#614=ORIENTED_EDGE('',*,*,#456,.T.);
#615=ORIENTED_EDGE('',*,*,#458,.F.);
#616=ORIENTED_EDGE('',*,*,#448,.F.);
#617=ORIENTED_EDGE('',*,*,#458,.T.);
#618=ORIENTED_EDGE('',*,*,#455,.T.);
#619=ORIENTED_EDGE('',*,*,#452,.T.);
#620=ORIENTED_EDGE('',*,*,#449,.T.);
#621=ORIENTED_EDGE('',*,*,#381,.F.);
#622=ORIENTED_EDGE('',*,*,#459,.T.);
#623=ORIENTED_EDGE('',*,*,#419,.F.);
#624=ORIENTED_EDGE('',*,*,#418,.F.);
#625=ORIENTED_EDGE('',*,*,#376,.F.);
#626=ORIENTED_EDGE('',*,*,#421,.F.);
#627=ORIENTED_EDGE('',*,*,#420,.F.);
#628=ORIENTED_EDGE('',*,*,#459,.F.);
#629=ORIENTED_EDGE('',*,*,#460,.F.);
#630=ORIENTED_EDGE('',*,*,#461,.T.);
#631=ORIENTED_EDGE('',*,*,#434,.F.);
#632=ORIENTED_EDGE('',*,*,#462,.F.);
#633=ORIENTED_EDGE('',*,*,#463,.F.);
#634=ORIENTED_EDGE('',*,*,#462,.T.);
#635=ORIENTED_EDGE('',*,*,#433,.F.);
#636=ORIENTED_EDGE('',*,*,#464,.F.);
#637=ORIENTED_EDGE('',*,*,#465,.F.);
#638=ORIENTED_EDGE('',*,*,#464,.T.);
#639=ORIENTED_EDGE('',*,*,#432,.F.);
#640=ORIENTED_EDGE('',*,*,#466,.F.);
#641=ORIENTED_EDGE('',*,*,#467,.F.);
#642=ORIENTED_EDGE('',*,*,#466,.T.);
#643=ORIENTED_EDGE('',*,*,#431,.F.);
#644=ORIENTED_EDGE('',*,*,#468,.F.);
#645=ORIENTED_EDGE('',*,*,#469,.F.);
#646=ORIENTED_EDGE('',*,*,#468,.T.);
#647=ORIENTED_EDGE('',*,*,#430,.F.);
#648=ORIENTED_EDGE('',*,*,#470,.F.);
#649=ORIENTED_EDGE('',*,*,#471,.F.);
#650=ORIENTED_EDGE('',*,*,#470,.T.);
#651=ORIENTED_EDGE('',*,*,#429,.F.);
#652=ORIENTED_EDGE('',*,*,#472,.F.);
#653=ORIENTED_EDGE('',*,*,#473,.F.);
#654=ORIENTED_EDGE('',*,*,#472,.T.);
#655=ORIENTED_EDGE('',*,*,#428,.F.);
#656=ORIENTED_EDGE('',*,*,#474,.F.);
#657=ORIENTED_EDGE('',*,*,#475,.F.);
#658=ORIENTED_EDGE('',*,*,#474,.T.);
#659=ORIENTED_EDGE('',*,*,#427,.F.);
#660=ORIENTED_EDGE('',*,*,#461,.F.);
#661=ORIENTED_EDGE('',*,*,#406,.F.);
#662=ORIENTED_EDGE('',*,*,#425,.F.);
#663=ORIENTED_EDGE('',*,*,#426,.F.);
#664=ORIENTED_EDGE('',*,*,#416,.F.);
#665=ORIENTED_EDGE('',*,*,#372,.F.);
#666=ORIENTED_EDGE('',*,*,#378,.F.);
#667=ORIENTED_EDGE('',*,*,#380,.F.);
#668=ORIENTED_EDGE('',*,*,#460,.T.);
#669=ORIENTED_EDGE('',*,*,#463,.T.);
#670=ORIENTED_EDGE('',*,*,#465,.T.);
#671=ORIENTED_EDGE('',*,*,#467,.T.);
#672=ORIENTED_EDGE('',*,*,#469,.T.);
#673=ORIENTED_EDGE('',*,*,#471,.T.);
#674=ORIENTED_EDGE('',*,*,#473,.T.);
#675=ORIENTED_EDGE('',*,*,#475,.T.);
#676=ORIENTED_EDGE('',*,*,#435,.T.);
#677=ORIENTED_EDGE('',*,*,#439,.T.);
#678=ORIENTED_EDGE('',*,*,#442,.T.);
#679=ORIENTED_EDGE('',*,*,#445,.T.);
#680=ORIENTED_EDGE('',*,*,#447,.T.);
#681=ORIENTED_EDGE('',*,*,#451,.T.);
#682=ORIENTED_EDGE('',*,*,#454,.T.);
#683=ORIENTED_EDGE('',*,*,#457,.T.);
#684=CYLINDRICAL_SURFACE('',#753,0.25);
#685=CYLINDRICAL_SURFACE('',#759,0.25);
#686=CYLINDRICAL_SURFACE('',#764,0.25);
#687=CYLINDRICAL_SURFACE('',#769,0.25);
#688=CYLINDRICAL_SURFACE('',#774,0.25);
#689=CYLINDRICAL_SURFACE('',#775,0.5);
#690=CYLINDRICAL_SURFACE('',#778,0.5);
#691=CYLINDRICAL_SURFACE('',#781,0.5);
#692=CYLINDRICAL_SURFACE('',#785,0.5);
#693=CYLINDRICAL_SURFACE('',#803,1.04999999999564);
#694=CYLINDRICAL_SURFACE('',#806,1.05000000006757);
#695=CYLINDRICAL_SURFACE('',#809,1.05000000002498);
#696=CYLINDRICAL_SURFACE('',#812,1.05000000031608);
#697=ADVANCED_FACE('',(#55),#684,.T.);
#698=ADVANCED_FACE('',(#56),#47,.F.);
#699=ADVANCED_FACE('',(#57),#48,.F.);
#700=ADVANCED_FACE('',(#58),#49,.F.);
#701=ADVANCED_FACE('',(#59),#685,.T.);
#702=ADVANCED_FACE('',(#60),#50,.F.);
#703=ADVANCED_FACE('',(#61),#686,.T.);
#704=ADVANCED_FACE('',(#62),#51,.F.);
#705=ADVANCED_FACE('',(#63),#687,.T.);
#706=ADVANCED_FACE('',(#64),#52,.F.);
#707=ADVANCED_FACE('',(#65),#688,.T.);
#708=ADVANCED_FACE('',(#66),#689,.T.);
#709=ADVANCED_FACE('',(#67),#18,.T.);
#710=ADVANCED_FACE('',(#68),#690,.T.);
#711=ADVANCED_FACE('',(#69),#19,.T.);
#712=ADVANCED_FACE('',(#70),#691,.T.);
#713=ADVANCED_FACE('',(#71),#20,.T.);
#714=ADVANCED_FACE('',(#72),#21,.T.);
#715=ADVANCED_FACE('',(#73),#692,.T.);
#716=ADVANCED_FACE('',(#74,#15),#22,.F.);
#717=ADVANCED_FACE('',(#75),#23,.T.);
#718=ADVANCED_FACE('',(#76),#24,.T.);
#719=ADVANCED_FACE('',(#77),#25,.T.);
#720=ADVANCED_FACE('',(#78),#26,.T.);
#721=ADVANCED_FACE('',(#79),#27,.T.);
#722=ADVANCED_FACE('',(#80),#28,.T.);
#723=ADVANCED_FACE('',(#81),#29,.T.);
#724=ADVANCED_FACE('',(#82),#30,.T.);
#725=ADVANCED_FACE('',(#83),#31,.T.);
#726=ADVANCED_FACE('',(#84),#32,.T.);
#727=ADVANCED_FACE('',(#85),#53,.T.);
#728=ADVANCED_FACE('',(#86),#54,.T.);
#729=ADVANCED_FACE('',(#87),#33,.T.);
#730=ADVANCED_FACE('',(#88),#693,.F.);
#731=ADVANCED_FACE('',(#89),#34,.T.);
#732=ADVANCED_FACE('',(#90),#694,.F.);
#733=ADVANCED_FACE('',(#91),#35,.T.);
#734=ADVANCED_FACE('',(#92),#695,.F.);
#735=ADVANCED_FACE('',(#93),#36,.T.);
#736=ADVANCED_FACE('',(#94),#696,.F.);
#737=ADVANCED_FACE('',(#95),#37,.T.);
#738=ADVANCED_FACE('',(#96,#16,#17),#38,.F.);
#739=CLOSED_SHELL('',(#697,#698,#699,#700,#701,#702,#703,#704,#705,#706,
#707,#708,#709,#710,#711,#712,#713,#714,#715,#716,#717,#718,#719,#720,#721,
#722,#723,#724,#725,#726,#727,#728,#729,#730,#731,#732,#733,#734,#735,#736,
#737,#738));
#740=DERIVED_UNIT_ELEMENT(#742,1.);
#741=DERIVED_UNIT_ELEMENT(#1542,-3.);
#742=(
MASS_UNIT()
NAMED_UNIT(*)
SI_UNIT(.KILO.,.GRAM.)
);
#743=DERIVED_UNIT((#740,#741));
#744=MEASURE_REPRESENTATION_ITEM('density measure',
POSITIVE_RATIO_MEASURE(7850.),#743);
#745=PROPERTY_DEFINITION_REPRESENTATION(#750,#747);
#746=PROPERTY_DEFINITION_REPRESENTATION(#751,#748);
#747=REPRESENTATION('material name',(#749),#1539);
#748=REPRESENTATION('density',(#744),#1539);
#749=DESCRIPTIVE_REPRESENTATION_ITEM('Steel','Steel');
#750=PROPERTY_DEFINITION('material property','material name',#1549);
#751=PROPERTY_DEFINITION('material property','density of part',#1549);
#752=AXIS2_PLACEMENT_3D('',#1011,#816,#817);
#753=AXIS2_PLACEMENT_3D('',#1012,#818,#819);
#754=AXIS2_PLACEMENT_3D('',#1017,#821,#822);
#755=AXIS2_PLACEMENT_3D('',#1087,#824,#825);
#756=AXIS2_PLACEMENT_3D('',#1194,#828,#829);
#757=AXIS2_PLACEMENT_3D('',#1195,#830,#831);
#758=AXIS2_PLACEMENT_3D('',#1196,#832,#833);
#759=AXIS2_PLACEMENT_3D('',#1197,#834,#835);
#760=AXIS2_PLACEMENT_3D('',#1200,#836,#837);
#761=AXIS2_PLACEMENT_3D('',#1230,#840,#841);
#762=AXIS2_PLACEMENT_3D('',#1231,#842,#843);
#763=AXIS2_PLACEMENT_3D('',#1232,#844,#845);
#764=AXIS2_PLACEMENT_3D('',#1233,#846,#847);
#765=AXIS2_PLACEMENT_3D('',#1236,#848,#849);
#766=AXIS2_PLACEMENT_3D('',#1266,#852,#853);
#767=AXIS2_PLACEMENT_3D('',#1267,#854,#855);
#768=AXIS2_PLACEMENT_3D('',#1268,#856,#857);
#769=AXIS2_PLACEMENT_3D('',#1269,#858,#859);
#770=AXIS2_PLACEMENT_3D('',#1272,#860,#861);
#771=AXIS2_PLACEMENT_3D('',#1302,#864,#865);
#772=AXIS2_PLACEMENT_3D('',#1303,#866,#867);
#773=AXIS2_PLACEMENT_3D('',#1304,#868,#869);
#774=AXIS2_PLACEMENT_3D('',#1305,#870,#871);
#775=AXIS2_PLACEMENT_3D('',#1308,#874,#875);
#776=AXIS2_PLACEMENT_3D('',#1312,#877,#878);
#777=AXIS2_PLACEMENT_3D('',#1314,#880,#881);
#778=AXIS2_PLACEMENT_3D('',#1318,#884,#885);
#779=AXIS2_PLACEMENT_3D('',#1321,#887,#888);
#780=AXIS2_PLACEMENT_3D('',#1322,#889,#890);
#781=AXIS2_PLACEMENT_3D('',#1326,#893,#894);
#782=AXIS2_PLACEMENT_3D('',#1329,#896,#897);
#783=AXIS2_PLACEMENT_3D('',#1330,#898,#899);
#784=AXIS2_PLACEMENT_3D('',#1348,#902,#903);
#785=AXIS2_PLACEMENT_3D('',#1352,#906,#907);
#786=AXIS2_PLACEMENT_3D('',#1354,#908,#909);
#787=AXIS2_PLACEMENT_3D('',#1356,#911,#912);
#788=AXIS2_PLACEMENT_3D('',#1360,#914,#915);
#789=AXIS2_PLACEMENT_3D('',#1364,#917,#918);
#790=AXIS2_PLACEMENT_3D('',#1368,#920,#921);
#791=AXIS2_PLACEMENT_3D('',#1372,#923,#924);
#792=AXIS2_PLACEMENT_3D('',#1374,#926,#927);
#793=AXIS2_PLACEMENT_3D('',#1383,#932,#933);
#794=AXIS2_PLACEMENT_3D('',#1389,#937,#938);
#795=AXIS2_PLACEMENT_3D('',#1395,#942,#943);
#796=AXIS2_PLACEMENT_3D('',#1398,#946,#947);
#797=AXIS2_PLACEMENT_3D('',#1399,#948,#949);
#798=AXIS2_PLACEMENT_3D('',#1408,#954,#955);
#799=AXIS2_PLACEMENT_3D('',#1414,#959,#960);
#800=AXIS2_PLACEMENT_3D('',#1420,#964,#965);
#801=AXIS2_PLACEMENT_3D('',#1423,#968,#969);
#802=AXIS2_PLACEMENT_3D('',#1503,#971,#972);
#803=AXIS2_PLACEMENT_3D('',#1509,#976,#977);
#804=AXIS2_PLACEMENT_3D('',#1511,#978,#979);
#805=AXIS2_PLACEMENT_3D('',#1513,#981,#982);
#806=AXIS2_PLACEMENT_3D('',#1517,#985,#986);
#807=AXIS2_PLACEMENT_3D('',#1519,#987,#988);
#808=AXIS2_PLACEMENT_3D('',#1521,#990,#991);
#809=AXIS2_PLACEMENT_3D('',#1525,#994,#995);
#810=AXIS2_PLACEMENT_3D('',#1527,#996,#997);
#811=AXIS2_PLACEMENT_3D('',#1529,#999,#1000);
#812=AXIS2_PLACEMENT_3D('',#1533,#1003,#1004);
#813=AXIS2_PLACEMENT_3D('',#1534,#1005,#1006);
#814=AXIS2_PLACEMENT_3D('',#1535,#1007,#1008);
#815=AXIS2_PLACEMENT_3D('',#1536,#1009,#1010);
#816=DIRECTION('axis',(0.,0.,1.));
#817=DIRECTION('refdir',(1.,0.,0.));
#818=DIRECTION('center_axis',(1.,3.11306536104166E-13,1.6758558555849E-14));
#819=DIRECTION('ref_axis',(2.14447312994246E-13,-0.725889176901448,0.687811676883534));
#820=DIRECTION('',(1.,3.11306536104166E-13,1.6758558555849E-14));
#821=DIRECTION('center_axis',(-1.,-3.10862446895042E-13,-1.67580833905728E-14));
#822=DIRECTION('ref_axis',(3.10862446895042E-13,-1.,0.));
#823=DIRECTION('',(-1.,-3.11306536104166E-13,-1.6758558555849E-14));
#824=DIRECTION('center_axis',(0.999999999999946,3.10862446895027E-13,-3.28596292825955E-7));
#825=DIRECTION('ref_axis',(3.26430305679855E-7,-0.114630003703682,0.993408255578132));
#826=DIRECTION('',(0.000894407272606426,-0.998549704590054,-0.0538301727541988));
#827=DIRECTION('',(0.000894459118907359,0.998549704543748,0.053830172751703));
#828=DIRECTION('center_axis',(0.,-0.998550103992386,-0.0538301942853181));
#829=DIRECTION('ref_axis',(1.,0.,0.));
#830=DIRECTION('center_axis',(-2.34309320718194E-17,0.0538301942853202,
-0.998550103992386));
#831=DIRECTION('ref_axis',(6.16666157411144E-15,-0.998550103992386,-0.0538301942853202));
#832=DIRECTION('center_axis',(1.19657136426677E-16,-0.0269443917511702,
0.999636933968108));
#833=DIRECTION('ref_axis',(4.43927976142836E-15,-0.999636933968108,-0.0269443917511702));
#834=DIRECTION('center_axis',(-8.86890653359605E-16,-0.998550103992386,
-0.0538301942853202));
#835=DIRECTION('ref_axis',(0.707106781186546,-0.0380636954117378,0.70608154988755));
#836=DIRECTION('center_axis',(-1.35424138847927E-14,-0.998550103992386,
-0.0538301942853183));
#837=DIRECTION('ref_axis',(1.,-1.33226762955019E-14,-4.44089209850062E-15));
#838=DIRECTION('',(-8.86890653359605E-16,-0.998550103992386,-0.0538301942853202));
#839=DIRECTION('',(8.86890653359605E-16,0.998550103992386,0.0538301942853202));
#840=DIRECTION('center_axis',(1.,0.,0.));
#841=DIRECTION('ref_axis',(0.,1.,0.));
#842=DIRECTION('center_axis',(-2.34309320718194E-17,0.0538301942853202,
-0.998550103992386));
#843=DIRECTION('ref_axis',(0.,0.998550103992386,0.0538301942853202));
#844=DIRECTION('center_axis',(0.,-0.0269443917511702,0.999636933968108));
#845=DIRECTION('ref_axis',(0.,0.999636933968108,0.0269443917511702));
#846=DIRECTION('center_axis',(-1.,4.4408920984894E-16,4.74050729440043E-17));
#847=DIRECTION('ref_axis',(0.,0.687811676883534,0.725889176901448));
#848=DIRECTION('center_axis',(1.,0.,0.));
#849=DIRECTION('ref_axis',(0.,1.,0.));
#850=DIRECTION('',(1.,-4.4408920984894E-16,-4.74050729440043E-17));
#851=DIRECTION('',(-1.,4.4408920984894E-16,4.74050729440043E-17));
#852=DIRECTION('center_axis',(-2.57186336768829E-12,0.998550103992386,0.053830194285318));
#853=DIRECTION('ref_axis',(-1.,-2.57571741713036E-12,2.22044604925031E-15));
#854=DIRECTION('center_axis',(-2.34309320718194E-17,0.0538301942853202,
-0.998550103992386));
#855=DIRECTION('ref_axis',(-4.43445326677677E-15,0.998550103992386,0.0538301942853202));
#856=DIRECTION('center_axis',(1.19657136426677E-16,-0.0269443917511702,
0.999636933968108));
#857=DIRECTION('ref_axis',(-4.43927976142836E-15,0.999636933968108,0.0269443917511702));
#858=DIRECTION('center_axis',(2.57198289472974E-12,-0.998550103992386,-0.0538301942853202));
#859=DIRECTION('ref_axis',(-0.7071067811865,-0.0380636954135578,0.706081549887498));
#860=DIRECTION('center_axis',(-2.56311398819696E-12,0.998550103992386,0.0538301942853226));
#861=DIRECTION('ref_axis',(-1.,-2.56683563293335E-12,0.));
#862=DIRECTION('',(-2.57198289472974E-12,0.998550103992386,0.0538301942853202));
#863=DIRECTION('',(2.57198289472974E-12,-0.998550103992386,-0.0538301942853202));
#864=DIRECTION('center_axis',(-1.,-3.10862446895045E-13,-1.67580833905729E-14));
#865=DIRECTION('ref_axis',(3.10862446895045E-13,-1.,0.));
#866=DIRECTION('center_axis',(-2.34309320718194E-17,0.0538301942853202,
-0.998550103992386));
#867=DIRECTION('ref_axis',(1.06011148408882E-14,-0.998550103992386,-0.0538301942853202));
#868=DIRECTION('center_axis',(2.39314272853354E-16,-0.0269443917511702,
0.999636933968108));
#869=DIRECTION('ref_axis',(8.87855952285672E-15,-0.999636933968108,-0.0269443917511702));
#870=DIRECTION('center_axis',(1.,3.11306536104166E-13,1.6758558555849E-14));
#871=DIRECTION('ref_axis',(2.14447312994246E-13,-0.725889176901448,0.687811676883534));
#872=DIRECTION('',(-1.,-3.11306536104166E-13,-1.6758558555849E-14));
#873=DIRECTION('',(1.,3.11306536104166E-13,1.6758558555849E-14));
#874=DIRECTION('center_axis',(0.,0.,1.));
#875=DIRECTION('ref_axis',(-0.707106781187458,0.707106781185637,0.));
#876=DIRECTION('',(0.,0.,-1.));
#877=DIRECTION('center_axis',(0.,0.,1.));
#878=DIRECTION('ref_axis',(-0.707106781187458,0.707106781185637,0.));
#879=DIRECTION('',(0.,0.,1.));
#880=DIRECTION('center_axis',(4.4408920984894E-16,1.,0.));
#881=DIRECTION('ref_axis',(-1.,4.4408920984894E-16,0.));
#882=DIRECTION('',(0.,0.,1.));
#883=DIRECTION('',(1.,-4.4408920984894E-16,0.));
#884=DIRECTION('center_axis',(0.,0.,1.));
#885=DIRECTION('ref_axis',(0.707106781186548,0.707106781186548,0.));
#886=DIRECTION('',(0.,0.,-1.));
#887=DIRECTION('center_axis',(0.,0.,1.));
#888=DIRECTION('ref_axis',(0.707106781186548,0.707106781186548,0.));
#889=DIRECTION('center_axis',(1.,-8.88178419704383E-16,0.));
#890=DIRECTION('ref_axis',(8.88178419704383E-16,1.,0.));
#891=DIRECTION('',(0.,0.,1.));
#892=DIRECTION('',(-8.88178419704383E-16,-1.,0.));
#893=DIRECTION('center_axis',(0.,0.,1.));
#894=DIRECTION('ref_axis',(0.707106781186657,-0.707106781186438,0.));
#895=DIRECTION('',(0.,0.,-1.));
#896=DIRECTION('center_axis',(0.,0.,1.));
#897=DIRECTION('ref_axis',(0.707106781186657,-0.707106781186438,0.));
#898=DIRECTION('center_axis',(2.34309320718194E-17,-0.0538301942853202,
0.998550103992386));
#899=DIRECTION('ref_axis',(-4.43445326677676E-16,0.998550103992386,0.0538301942853202));
#900=DIRECTION('',(0.000894459118907359,0.998549704543748,0.053830172751703));
#901=DIRECTION('',(0.000894407272606426,-0.998549704590054,-0.0538301727541988));
#902=DIRECTION('center_axis',(-1.,-2.57571741712958E-12,0.));
#903=DIRECTION('ref_axis',(2.57571741712958E-12,-1.,0.));
#904=DIRECTION('',(-2.57571741712958E-12,1.,0.));
#905=DIRECTION('',(0.,0.,-1.));
#906=DIRECTION('center_axis',(0.,0.,1.));
#907=DIRECTION('ref_axis',(-0.707106781185527,-0.707106781187568,0.));
#908=DIRECTION('center_axis',(0.,0.,1.));
#909=DIRECTION('ref_axis',(-0.707106781185527,-0.707106781187568,0.));
#910=DIRECTION('',(0.,0.,1.));
#911=DIRECTION('center_axis',(0.,0.,1.));
#912=DIRECTION('ref_axis',(1.,0.,0.));
#913=DIRECTION('',(-1.,-3.11306536104166E-13,0.));
#914=DIRECTION('center_axis',(0.,0.,1.));
#915=DIRECTION('ref_axis',(-2.40885894989056E-5,0.99999999970987,0.));
#916=DIRECTION('',(-2.45805914642604E-16,-1.,0.));
#917=DIRECTION('center_axis',(0.,0.,1.));
#918=DIRECTION('ref_axis',(-1.,-2.33367314884868E-8,0.));
#919=DIRECTION('',(1.,1.55677034988571E-15,0.));
#920=DIRECTION('center_axis',(0.,0.,1.));
#921=DIRECTION('ref_axis',(-1.26045007513172E-5,-0.999999999920563,0.));
#922=DIRECTION('',(8.19352545895196E-17,1.,0.));
#923=DIRECTION('center_axis',(0.,0.,1.));
#924=DIRECTION('ref_axis',(0.999999999999979,2.02308302386517E-7,0.));
#925=DIRECTION('',(-1.,1.44287640277483E-13,0.));
#926=DIRECTION('center_axis',(0.,1.,0.));
#927=DIRECTION('ref_axis',(1.,0.,0.));
#928=DIRECTION('',(-1.,0.,0.));
#929=DIRECTION('',(0.,0.,-1.));
#930=DIRECTION('',(1.,0.,0.));
#931=DIRECTION('',(0.,0.,-1.));
#932=DIRECTION('center_axis',(-1.,0.,0.));
#933=DIRECTION('ref_axis',(0.,1.,0.));
#934=DIRECTION('',(0.,-1.,0.));
#935=DIRECTION('',(0.,1.,0.));
#936=DIRECTION('',(0.,0.,-1.));
#937=DIRECTION('center_axis',(0.,-1.,0.));
#938=DIRECTION('ref_axis',(-1.,0.,0.));
#939=DIRECTION('',(1.,0.,0.));
#940=DIRECTION('',(-1.,0.,0.));
#941=DIRECTION('',(0.,0.,-1.));
#942=DIRECTION('center_axis',(1.,0.,0.));
#943=DIRECTION('ref_axis',(0.,-1.,0.));
#944=DIRECTION('',(0.,1.,0.));
#945=DIRECTION('',(0.,-1.,0.));
#946=DIRECTION('center_axis',(0.,0.,-1.));
#947=DIRECTION('ref_axis',(-1.,0.,0.));
#948=DIRECTION('center_axis',(0.,1.,0.));
#949=DIRECTION('ref_axis',(1.,0.,0.));
#950=DIRECTION('',(-1.,0.,0.));
#951=DIRECTION('',(0.,0.,-1.));
#952=DIRECTION('',(1.,0.,0.));
#953=DIRECTION('',(0.,0.,-1.));
#954=DIRECTION('center_axis',(-1.,0.,0.));
#955=DIRECTION('ref_axis',(0.,1.,0.));
#956=DIRECTION('',(0.,-1.,0.));
#957=DIRECTION('',(0.,1.,0.));
#958=DIRECTION('',(0.,0.,-1.));
#959=DIRECTION('center_axis',(0.,-1.,0.));
#960=DIRECTION('ref_axis',(-1.,0.,0.));
#961=DIRECTION('',(1.,0.,0.));
#962=DIRECTION('',(-1.,0.,0.));
#963=DIRECTION('',(0.,0.,-1.));
#964=DIRECTION('center_axis',(1.,0.,0.));
#965=DIRECTION('ref_axis',(0.,-1.,0.));
#966=DIRECTION('',(0.,1.,0.));
#967=DIRECTION('',(0.,-1.,0.));
#968=DIRECTION('center_axis',(0.,0.,-1.));
#969=DIRECTION('ref_axis',(-1.,0.,0.));
#970=DIRECTION('',(-3.63144775999092E-8,0.993408255578184,0.114630003703692));
#971=DIRECTION('center_axis',(-1.44287640277483E-13,-1.,0.));
#972=DIRECTION('ref_axis',(-1.,1.44287640277483E-13,0.));
#973=DIRECTION('',(1.,-1.44287640277483E-13,0.));
#974=DIRECTION('',(0.,0.,-1.));
#975=DIRECTION('',(0.,0.,-1.));
#976=DIRECTION('center_axis',(0.,0.,-1.));
#977=DIRECTION('ref_axis',(0.999999999999979,2.02308302386517E-7,0.));
#978=DIRECTION('center_axis',(0.,0.,-1.));
#979=DIRECTION('ref_axis',(0.999999999999979,2.02308302386517E-7,0.));
#980=DIRECTION('',(0.,0.,-1.));
#981=DIRECTION('center_axis',(-1.,8.19352545895196E-17,0.));
#982=DIRECTION('ref_axis',(8.19352545895196E-17,1.,0.));
#983=DIRECTION('',(-8.19352545895196E-17,-1.,0.));
#984=DIRECTION('',(0.,0.,-1.));
#985=DIRECTION('center_axis',(0.,0.,-1.));
#986=DIRECTION('ref_axis',(-1.26045007513172E-5,-0.999999999920563,0.));
#987=DIRECTION('center_axis',(0.,0.,-1.));
#988=DIRECTION('ref_axis',(-1.26045007513172E-5,-0.999999999920563,0.));
#989=DIRECTION('',(0.,0.,-1.));
#990=DIRECTION('center_axis',(-1.55677034988571E-15,1.,0.));
#991=DIRECTION('ref_axis',(1.,1.55677034988571E-15,0.));
#992=DIRECTION('',(-1.,-1.55677034988571E-15,0.));
#993=DIRECTION('',(0.,0.,-1.));
#994=DIRECTION('center_axis',(0.,0.,-1.));
#995=DIRECTION('ref_axis',(-1.,-2.33367314884868E-8,0.));
#996=DIRECTION('center_axis',(0.,0.,-1.));
#997=DIRECTION('ref_axis',(-1.,-2.33367314884868E-8,0.));
#998=DIRECTION('',(0.,0.,-1.));
#999=DIRECTION('center_axis',(1.,-2.45805914642604E-16,0.));
#1000=DIRECTION('ref_axis',(-2.45805914642604E-16,-1.,0.));
#1001=DIRECTION('',(2.45805914642604E-16,1.,0.));
#1002=DIRECTION('',(0.,0.,-1.));
#1003=DIRECTION('center_axis',(0.,0.,-1.));
#1004=DIRECTION('ref_axis',(-2.40885894989056E-5,0.99999999970987,0.));
#1005=DIRECTION('center_axis',(0.,0.,-1.));
#1006=DIRECTION('ref_axis',(-2.40885894989056E-5,0.99999999970987,0.));
#1007=DIRECTION('center_axis',(3.11306536104166E-13,-1.,0.));
#1008=DIRECTION('ref_axis',(1.,3.11306536104166E-13,0.));
#1009=DIRECTION('center_axis',(0.,0.,1.));
#1010=DIRECTION('ref_axis',(1.,0.,0.));
#1011=CARTESIAN_POINT('',(0.,0.,0.));
#1012=CARTESIAN_POINT('Origin',(-1.39861608689493E-11,-9.02499999999846,
2.76311408863403));
#1013=CARTESIAN_POINT('',(7.03542770225957,-9.27499999999627,2.76311408863415));
#1014=CARTESIAN_POINT('',(8.77499999998626,-9.27499999999573,2.76311408863418));
#1015=CARTESIAN_POINT('',(-1.39083342349232E-11,-9.27499999999846,2.76311408863403));
#1016=CARTESIAN_POINT('',(8.77499999998618,-9.03845754856706,3.01275161463228));
#1017=CARTESIAN_POINT('Origin',(8.77499999998618,-9.02499999999573,2.76311408863418));
#1018=CARTESIAN_POINT('',(6.9997897526275,-9.03845754856761,3.01275161463225));
#1019=CARTESIAN_POINT('',(-1.39861550112163E-11,-9.03845754856979,3.01275161463213));
#1020=CARTESIAN_POINT('Ctrl Pts',(6.99978975905488,-9.03845754287742,3.01275159264695));
#1021=CARTESIAN_POINT('Ctrl Pts',(6.99991447010268,-9.05456042076329,3.01188200981337));
#1022=CARTESIAN_POINT('Ctrl Pts',(7.00028189081016,-9.07047818109466,3.00938915487543));
#1023=CARTESIAN_POINT('Ctrl Pts',(7.00085958804426,-9.08601567089971,3.00541415019895));
#1024=CARTESIAN_POINT('Ctrl Pts',(7.00143728527836,-9.10155316070477,3.00143914552248));
#1025=CARTESIAN_POINT('Ctrl Pts',(7.00222548107134,-9.11671206526301,2.99598120989737));
#1026=CARTESIAN_POINT('Ctrl Pts',(7.00320705507472,-9.13128472579689,2.98912741716489));
#1027=CARTESIAN_POINT('Ctrl Pts',(7.00417036397769,-9.14558621868871,2.98240115960761));
#1028=CARTESIAN_POINT('Ctrl Pts',(7.00531090126002,-9.15918574110324,2.97439497403759));
#1029=CARTESIAN_POINT('Ctrl Pts',(7.00661533450815,-9.17190196825857,2.96522018521983));
#1030=CARTESIAN_POINT('Ctrl Pts',(7.00788300222025,-9.18425978772349,2.95630398842233));
#1031=CARTESIAN_POINT('Ctrl Pts',(7.00930569393176,-9.19578464624994,2.9462833063565));
#1032=CARTESIAN_POINT('Ctrl Pts',(7.01088216598766,-9.20628465894024,2.93522218282902));
#1033=CARTESIAN_POINT('Ctrl Pts',(7.01101039150818,-9.20713869855844,2.93432250413405));
#1034=CARTESIAN_POINT('Ctrl Pts',(7.01113963947515,-9.20798593777106,2.9334159245867));
#1035=CARTESIAN_POINT('Ctrl Pts',(7.01126989243977,-9.20882633467125,2.93250253605465));
#1036=CARTESIAN_POINT('Ctrl Pts',(7.01288454366596,-9.21924412354367,2.921179923033));
#1037=CARTESIAN_POINT('Ctrl Pts',(7.01463860062866,-9.22852062999455,2.90891506923202));
#1038=CARTESIAN_POINT('Ctrl Pts',(7.01649655497633,-9.23661537768755,2.89591513473565));
#1039=CARTESIAN_POINT('Ctrl Pts',(7.01840333167518,-9.24492283492051,2.88257359476977));
#1040=CARTESIAN_POINT('Ctrl Pts',(7.02041992108839,-9.25198640557285,2.86845649892609));
#1041=CARTESIAN_POINT('Ctrl Pts',(7.02251692158382,-9.25771956123098,2.85375788995746));
#1042=CARTESIAN_POINT('Ctrl Pts',(7.02269951633642,-9.25821877147975,2.85247801955495));
#1043=CARTESIAN_POINT('Ctrl Pts',(7.02288272405186,-9.2587078638441,2.85119372955252));
#1044=CARTESIAN_POINT('Ctrl Pts',(7.02306652690228,-9.25918676310796,2.84990514302801));
#1045=CARTESIAN_POINT('Ctrl Pts',(7.02517246741621,-9.26467380185392,2.83514102722918));
#1046=CARTESIAN_POINT('Ctrl Pts',(7.02733888525124,-9.26878151443525,2.81993586782242));
#1047=CARTESIAN_POINT('Ctrl Pts',(7.02953836644039,-9.27143849610624,2.80448794497449));
#1048=CARTESIAN_POINT('Ctrl Pts',(7.03139893848852,-9.27368607424139,2.79142032994134));
#1049=CARTESIAN_POINT('Ctrl Pts',(7.03328346335185,-9.274895037474,2.77817801511731));
#1050=CARTESIAN_POINT('Ctrl Pts',(7.03517708873171,-9.27499347726412,2.76487591691245));
#1051=CARTESIAN_POINT('Ctrl Pts',(7.03526071597865,-9.27499782461219,2.76428846288738));
#1052=CARTESIAN_POINT('Ctrl Pts',(7.03534434884362,-9.27500000073632,2.76370097718296));
#1053=CARTESIAN_POINT('Ctrl Pts',(7.03542798603697,-9.27499999999628,2.76311346981717));
#1054=CARTESIAN_POINT('Ctrl Pts',(6.99978770061514,-9.03798105139553,3.01277730181132));
#1055=CARTESIAN_POINT('Ctrl Pts',(6.02829140557935,-9.03748995226243,2.72882378127679));
#1056=CARTESIAN_POINT('Ctrl Pts',(3.71613956411315,-9.04861771005951,2.21396168366581));
#1057=CARTESIAN_POINT('Ctrl Pts',(1.3513372702195,-9.0536575124642,2.02554040486956));
#1058=CARTESIAN_POINT('Ctrl Pts',(-8.10795458550118E-9,-9.05365750092438,
2.02554085024562));
#1059=CARTESIAN_POINT('Ctrl Pts',(7.00070966843123,-9.1011810462674,3.00962324896238));
#1060=CARTESIAN_POINT('Ctrl Pts',(6.02905676400638,-9.10077812583403,2.7257517407844));
#1061=CARTESIAN_POINT('Ctrl Pts',(3.7171808116056,-9.1098834696794,2.20816167182979));
#1062=CARTESIAN_POINT('Ctrl Pts',(1.35168522149661,-9.11392070917379,2.01858659367575));
#1063=CARTESIAN_POINT('Ctrl Pts',(-1.03929315086696E-8,-9.11392069988103,
2.01858704179798));
#1064=CARTESIAN_POINT('Ctrl Pts',(7.01670132735638,-9.22448235252826,2.95491576729876));
#1065=CARTESIAN_POINT('Ctrl Pts',(6.04253948735282,-9.22434423949625,2.67040813264815));
#1066=CARTESIAN_POINT('Ctrl Pts',(3.72585951116347,-9.22744416331395,2.14959691179963));
#1067=CARTESIAN_POINT('Ctrl Pts',(1.35487356736171,-9.22876927325126,1.95879664896819));
#1068=CARTESIAN_POINT('Ctrl Pts',(-3.00396490948437E-8,-9.2287692701488,
1.95879709989715));
#1069=CARTESIAN_POINT('Ctrl Pts',(7.05207977151712,-9.27499999999627,2.83388607336438));
#1070=CARTESIAN_POINT('Ctrl Pts',(6.07254144964474,-9.27500241078861,2.54764121010859));
#1071=CARTESIAN_POINT('Ctrl Pts',(3.74344512754118,-9.27498097778978,2.02783774194986));
#1072=CARTESIAN_POINT('Ctrl Pts',(1.36125599505703,-9.2749999999481,1.83785141153823));
#1073=CARTESIAN_POINT('Ctrl Pts',(-6.97817920869695E-8,-9.27499999999846,
1.83785186079027));
#1074=CARTESIAN_POINT('Ctrl Pts',(7.06983580274514,-9.27499999999626,2.77314267223419));
#1075=CARTESIAN_POINT('Ctrl Pts',(6.08759023986853,-9.27499999999657,2.48602040769982));
#1076=CARTESIAN_POINT('Ctrl Pts',(3.7522548330632,-9.2749999999973,1.96676440738702));
#1077=CARTESIAN_POINT('Ctrl Pts',(1.36446678416737,-9.27499999999804,1.77718833799233));
#1078=CARTESIAN_POINT('Ctrl Pts',(-8.97154535501687E-8,-9.27499999999846,
1.77718878635109));
#1079=CARTESIAN_POINT('',(6.99978770061514,-9.03798105139553,3.01277730181132));
#1080=CARTESIAN_POINT('',(-8.10795497284532E-9,-9.05365750092438,2.02554085024562));
#1081=CARTESIAN_POINT('Ctrl Pts',(6.99978770061514,-9.03798105139553,3.01277730181132));
#1082=CARTESIAN_POINT('Ctrl Pts',(6.02829140557935,-9.03748995226243,2.72882378127679));
#1083=CARTESIAN_POINT('Ctrl Pts',(3.71613956411315,-9.04861771005951,2.21396168366581));
#1084=CARTESIAN_POINT('Ctrl Pts',(1.3513372702195,-9.0536575124642,2.02554040486956));
#1085=CARTESIAN_POINT('Ctrl Pts',(-8.10795458550118E-9,-9.05365750092438,
2.02554085024562));
#1086=CARTESIAN_POINT('',(-8.97154536771971E-8,-9.27499999999846,1.77718878635109));
#1087=CARTESIAN_POINT('Origin',(-8.97155313928089E-8,-9.02499999999846,
1.77718878635109));
#1088=CARTESIAN_POINT('Ctrl Pts',(-8.97154535501687E-8,-9.27499999999846,
1.77718878635109));
#1089=CARTESIAN_POINT('Ctrl Pts',(1.36446678416737,-9.27499999999804,1.77718833799233));
#1090=CARTESIAN_POINT('Ctrl Pts',(3.74030834908572,-9.2749999999973,1.96581592811283));
#1091=CARTESIAN_POINT('Ctrl Pts',(6.06422081678776,-9.27499999999658,2.48083281914537));
#1092=CARTESIAN_POINT('Ctrl Pts',(7.03542789018774,-9.27499999999627,2.76311344195866));
#1093=CARTESIAN_POINT('',(6.99999999998332,-9.27499999999846,2.99999999999984));
#1094=CARTESIAN_POINT('Ctrl Pts',(-8.11948314138888E-9,-9.05365750092438,
2.02554085024562));
#1095=CARTESIAN_POINT('Ctrl Pts',(-1.01350002839024,-9.05365749227193,2.02554118418187));
#1096=CARTESIAN_POINT('Ctrl Pts',(-3.37789111436899,-9.05086127107603,2.16744553337554));
#1097=CARTESIAN_POINT('Ctrl Pts',(-5.70446280338059,-9.03732623341497,2.6341745544049));
#1098=CARTESIAN_POINT('Ctrl Pts',(-6.99978768834743,-9.03798105735138,3.01277730149025));
#1099=CARTESIAN_POINT('Ctrl Pts',(-1.04038113315061E-8,-9.11392069988103,
2.01858704179798));
#1100=CARTESIAN_POINT('Ctrl Pts',(-1.01376099386694,-9.1139206929134,2.01858737779328));
#1101=CARTESIAN_POINT('Ctrl Pts',(-3.37890883257538,-9.11170389246748,2.16112218305158));
#1102=CARTESIAN_POINT('Ctrl Pts',(-5.70517595638333,-9.10064380332542,2.63112985581737));
#1103=CARTESIAN_POINT('Ctrl Pts',(-7.00070965450781,-9.10118105115301,3.00962324664145));
#1104=CARTESIAN_POINT('Ctrl Pts',(-3.00449511032684E-8,-9.22876927014924,
1.95879709989755));
#1105=CARTESIAN_POINT('Ctrl Pts',(-1.01615226950629,-9.22876926782304,1.9587974379973));
#1106=CARTESIAN_POINT('Ctrl Pts',(-3.38693285364063,-9.22805287747371,2.10206493433094));
#1107=CARTESIAN_POINT('Ctrl Pts',(-5.71782235344038,-9.22429819643426,2.57557420739195));
#1108=CARTESIAN_POINT('Ctrl Pts',(-7.01670127796402,-9.22448235419774,2.95491575338534));
#1109=CARTESIAN_POINT('Ctrl Pts',(-6.97758111364683E-8,-9.27499999999846,
1.83785186079027));
#1110=CARTESIAN_POINT('Ctrl Pts',(-1.02093912351129,-9.27500000003622,1.83785219763267));
#1111=CARTESIAN_POINT('Ctrl Pts',(-3.40285557733403,-9.27498914792988,1.98084915967511));
#1112=CARTESIAN_POINT('Ctrl Pts',(-5.74603212644877,-9.27500321451265,2.45222819897222));
#1113=CARTESIAN_POINT('Ctrl Pts',(-7.05207964238104,-9.27500000000066,2.83388603816892));
#1114=CARTESIAN_POINT('Ctrl Pts',(-8.97038133580909E-8,-9.27499999999846,
1.77718878635109));
#1115=CARTESIAN_POINT('Ctrl Pts',(-1.02334723195897,-9.27499999999878,1.7771891225237));
#1116=CARTESIAN_POINT('Ctrl Pts',(-3.41084200262836,-9.27499999999952,1.92005078119092));
#1117=CARTESIAN_POINT('Ctrl Pts',(-5.76017848874198,-9.27500000000025,2.39031492452593));
#1118=CARTESIAN_POINT('Ctrl Pts',(-7.06983563358205,-9.27500000000066,2.7731426263732));
#1119=CARTESIAN_POINT('',(-7.03542760727089,-9.27500000000065,2.76311408863391));
#1120=CARTESIAN_POINT('Ctrl Pts',(-7.03542784324385,-9.27500000000065,2.76311327663042));
#1121=CARTESIAN_POINT('Ctrl Pts',(-5.73666930132547,-9.27500000000025,2.38561750252807));
#1122=CARTESIAN_POINT('Ctrl Pts',(-3.39889697434054,-9.27499999999952,1.9193360208593));
#1123=CARTESIAN_POINT('Ctrl Pts',(-1.02334723195897,-9.27499999999878,1.7771891225237));
#1124=CARTESIAN_POINT('Ctrl Pts',(-8.97038133580909E-8,-9.27499999999846,
1.77718878635109));
#1125=CARTESIAN_POINT('',(-6.99978768834743,-9.03798105735138,3.01277730149025));
#1126=CARTESIAN_POINT('Ctrl Pts',(-8.11948314138888E-9,-9.05365750092438,
2.02554085024562));
#1127=CARTESIAN_POINT('Ctrl Pts',(-1.01350002839024,-9.05365749227193,2.02554118418187));
#1128=CARTESIAN_POINT('Ctrl Pts',(-3.37789111436899,-9.05086127107603,2.16744553337554));
#1129=CARTESIAN_POINT('Ctrl Pts',(-5.70446280338059,-9.03732623341497,2.6341745544049));
#1130=CARTESIAN_POINT('Ctrl Pts',(-6.99978768834743,-9.03798105735138,3.01277730149025));
#1131=CARTESIAN_POINT('',(-6.99978811516837,-9.03845754857197,3.01275161463199));
#1132=CARTESIAN_POINT('',(-7.00000000001669,-9.27499999999847,2.99999999999983));
#1133=CARTESIAN_POINT('Ctrl Pts',(-6.99978974676946,-9.03845754288191,3.01275159264726));
#1134=CARTESIAN_POINT('Ctrl Pts',(-6.99991445752646,-9.05456042145585,3.01188200979477));
#1135=CARTESIAN_POINT('Ctrl Pts',(-7.00028187739254,-9.07047818248916,3.00938915467166));
#1136=CARTESIAN_POINT('Ctrl Pts',(-7.00085957341332,-9.08601567281243,3.00541414958455));
#1137=CARTESIAN_POINT('Ctrl Pts',(-7.00143726943409,-9.10155316313571,3.00143914449744));
#1138=CARTESIAN_POINT('Ctrl Pts',(-7.00222546364305,-9.11671206800931,2.99598120823701));
#1139=CARTESIAN_POINT('Ctrl Pts',(-7.00320703587125,-9.13128472848618,2.98912741453164));
#1140=CARTESIAN_POINT('Ctrl Pts',(-7.00417034217009,-9.14558620852502,2.98240116203826));
#1141=CARTESIAN_POINT('Ctrl Pts',(-7.00531087637159,-9.15918571899296,2.97439498350348));
#1142=CARTESIAN_POINT('Ctrl Pts',(-7.00661530631037,-9.17190193569805,2.96522020317452));
#1143=CARTESIAN_POINT('Ctrl Pts',(-7.00788297291509,-9.18425976556392,2.95630399979489));
#1144=CARTESIAN_POINT('Ctrl Pts',(-7.00930566381234,-9.19578463314743,2.9462833088714));
#1145=CARTESIAN_POINT('Ctrl Pts',(-7.01088213557708,-9.20628465341776,2.9352221738279));
#1146=CARTESIAN_POINT('Ctrl Pts',(-7.01101036112008,-9.2071386939599,2.93432249387243));
#1147=CARTESIAN_POINT('Ctrl Pts',(-7.01113960911377,-9.20798593408179,2.9334159130417));
#1148=CARTESIAN_POINT('Ctrl Pts',(-7.01126986210949,-9.20882633187663,2.93250252320332));
#1149=CARTESIAN_POINT('Ctrl Pts',(-7.01288450863574,-9.21924409902775,2.92117992964964));
#1150=CARTESIAN_POINT('Ctrl Pts',(-7.01463856067562,-9.22852058849662,2.90891509802281));
#1151=CARTESIAN_POINT('Ctrl Pts',(-7.01649651044037,-9.23661532455896,2.89591518626388));
#1152=CARTESIAN_POINT('Ctrl Pts',(-7.01840327956339,-9.24492275734077,2.88257368973144));
#1153=CARTESIAN_POINT('Ctrl Pts',(-7.02041986142621,-9.2519863129374,2.86845664025246));
#1154=CARTESIAN_POINT('Ctrl Pts',(-7.0225168551233,-9.25771946397402,2.85375807722039));
#1155=CARTESIAN_POINT('Ctrl Pts',(-7.02269946111962,-9.25821870617897,2.85247812785732));
#1156=CARTESIAN_POINT('Ctrl Pts',(-7.02288268016394,-9.25870782926695,2.85119375831804));
#1157=CARTESIAN_POINT('Ctrl Pts',(-7.02306649442541,-9.25918675800785,2.84990509170203));
#1158=CARTESIAN_POINT('Ctrl Pts',(-7.02517242483664,-9.26467376751501,2.83514104567632));
#1159=CARTESIAN_POINT('Ctrl Pts',(-7.02733883309989,-9.26878146667769,2.81993595741515));
#1160=CARTESIAN_POINT('Ctrl Pts',(-7.02953830600512,-9.27143845105263,2.80448810254419));
#1161=CARTESIAN_POINT('Ctrl Pts',(-7.03139889306809,-9.2736860580783,2.79142039034127));
#1162=CARTESIAN_POINT('Ctrl Pts',(-7.03328343442948,-9.27489503721094,2.77817797195559));
#1163=CARTESIAN_POINT('Ctrl Pts',(-7.03517707763251,-9.27499347731858,2.76487576541743));
#1164=CARTESIAN_POINT('Ctrl Pts',(-7.03526070513566,-9.27499782465307,2.76428831033747));
#1165=CARTESIAN_POINT('Ctrl Pts',(-7.0353443382608,-9.27500000076055,2.7637008235703));
#1166=CARTESIAN_POINT('Ctrl Pts',(-7.0354279757153,-9.27500000000065,2.76311331513443));
#1167=CARTESIAN_POINT('Ctrl Pts',(9.0249999999861,-8.78845754856706,3.02622870358107));
#1168=CARTESIAN_POINT('Ctrl Pts',(9.0249999999861,-8.85390739551683,3.02270040994496));
#1169=CARTESIAN_POINT('Ctrl Pts',(8.97090739942989,-8.98436494801079,3.01566765778895));
#1170=CARTESIAN_POINT('Ctrl Pts',(8.84044984693596,-9.03845754856704,3.01275161463228));
#1171=CARTESIAN_POINT('Ctrl Pts',(8.77499999998618,-9.03845754856706,3.01275161463228));
#1172=CARTESIAN_POINT('Ctrl Pts',(9.09044984693589,-8.78845754856706,3.02622870358107));
#1173=CARTESIAN_POINT('Ctrl Pts',(9.08985743103331,-8.87101933951748,3.02175873196726));
#1174=CARTESIAN_POINT('Ctrl Pts',(9.02058438801754,-9.03440337762031,3.01297180095552));
#1175=CARTESIAN_POINT('Ctrl Pts',(8.85704430311059,-9.10157174423178,3.00934923211666));
#1176=CARTESIAN_POINT('Ctrl Pts',(8.7749999999862,-9.10157174423181,3.00934923211665));
#1177=CARTESIAN_POINT('Ctrl Pts',(9.22077126131752,-8.78553840502869,2.97207859094418));
#1178=CARTESIAN_POINT('Ctrl Pts',(9.21904531844972,-8.90209583132315,2.96682685687795));
#1179=CARTESIAN_POINT('Ctrl Pts',(9.1195701873508,-9.13133453673049,2.95646879103188));
#1180=CARTESIAN_POINT('Ctrl Pts',(8.88999295016273,-9.22460720894744,2.95225063106507));
#1181=CARTESIAN_POINT('Ctrl Pts',(8.77499999998624,-9.22460720894748,2.95225063106507));
#1182=CARTESIAN_POINT('Ctrl Pts',(9.2749999999861,-8.77852317797298,2.84194612906097));
#1183=CARTESIAN_POINT('Ctrl Pts',(9.27405695469079,-8.90952769178104,2.83782627846373));
#1184=CARTESIAN_POINT('Ctrl Pts',(9.16425950182298,-9.16849688160109,2.82967692279364));
#1185=CARTESIAN_POINT('Ctrl Pts',(8.905124935131,-9.27499999999569,2.82631992619046));
#1186=CARTESIAN_POINT('Ctrl Pts',(8.77499999998626,-9.27499999999573,2.82631992619046));
#1187=CARTESIAN_POINT('Ctrl Pts',(9.2749999999861,-8.77499999999573,2.77659117758297));
#1188=CARTESIAN_POINT('Ctrl Pts',(9.2749999999861,-8.90589969389528,2.77306288394686));
#1189=CARTESIAN_POINT('Ctrl Pts',(9.16681479887368,-9.16681479888318,2.76603013179085));
#1190=CARTESIAN_POINT('Ctrl Pts',(8.90589969388581,-9.27499999999569,2.76311408863418));
#1191=CARTESIAN_POINT('Ctrl Pts',(8.77499999998626,-9.27499999999573,2.76311408863418));
#1192=CARTESIAN_POINT('',(9.2749999999861,-8.77499999999573,2.77659117758297));
#1193=CARTESIAN_POINT('',(9.0249999999861,-8.78845754856706,3.02622870358107));
#1194=CARTESIAN_POINT('Origin',(9.0249999999861,-8.77499999999573,2.77659117758297));
#1195=CARTESIAN_POINT('Origin',(8.7749999999861,-8.78845754856706,3.02622870358107));
#1196=CARTESIAN_POINT('Origin',(8.7749999999861,-8.77499999999573,2.77659117758297));
#1197=CARTESIAN_POINT('Origin',(9.0249999999861,-9.34217067057666,2.74601593927671));
#1198=CARTESIAN_POINT('',(9.27499999998612,8.77499999999866,3.72268282178781));
#1199=CARTESIAN_POINT('',(9.02499999998612,8.76154245142733,3.9723203477859));
#1200=CARTESIAN_POINT('Origin',(9.02499999998612,8.77499999999866,3.72268282178781));
#1201=CARTESIAN_POINT('',(9.0249999999861,-9.35562821914799,2.99565346527481));
#1202=CARTESIAN_POINT('',(9.2749999999861,-9.34217067057666,2.74601593927671));
#1203=CARTESIAN_POINT('Ctrl Pts',(8.77499999998612,9.01154245142733,3.98579743673469));
#1204=CARTESIAN_POINT('Ctrl Pts',(8.84044984693591,9.01154245142733,3.98579743673469));
#1205=CARTESIAN_POINT('Ctrl Pts',(8.970904578613,8.95744703005421,3.98288124151242));
#1206=CARTESIAN_POINT('Ctrl Pts',(9.02499999998612,8.82699229837712,3.97584864142201));
#1207=CARTESIAN_POINT('Ctrl Pts',(9.02499999998612,8.76154245142733,3.9723203477859));
#1208=CARTESIAN_POINT('Ctrl Pts',(8.77499999998612,9.07913815871857,3.98944141017358));
#1209=CARTESIAN_POINT('Ctrl Pts',(8.85823566212384,9.07913815871857,3.98944141017358));
#1210=CARTESIAN_POINT('Ctrl Pts',(9.02390970313688,9.00972129442668,3.98569797025395));
#1211=CARTESIAN_POINT('Ctrl Pts',(9.09104280943526,8.84410784992928,3.97679048469359));
#1212=CARTESIAN_POINT('Ctrl Pts',(9.09044984693591,8.76154245142733,3.9723203477859));
#1213=CARTESIAN_POINT('Ctrl Pts',(8.77499999998612,9.21685304046425,3.93863400402418));
#1214=CARTESIAN_POINT('Ctrl Pts',(8.89344834629394,9.21685304046425,3.93863400402418));
#1215=CARTESIAN_POINT('Ctrl Pts',(9.12945683809909,9.1169200327476,3.93413620978352));
#1216=CARTESIAN_POINT('Ctrl Pts',(9.22256847899693,8.88101262166006,3.92349314068578));
#1217=CARTESIAN_POINT('Ctrl Pts',(9.22084293493606,8.76445773676089,3.91824180484824));
#1218=CARTESIAN_POINT('Ctrl Pts',(8.77499999998612,9.27499999999866,3.80385376707989));
#1219=CARTESIAN_POINT('Ctrl Pts',(8.90701495907533,9.27499999999866,3.80385376707989));
#1220=CARTESIAN_POINT('Ctrl Pts',(9.16948527532116,9.16496518287623,3.80040154300897));
#1221=CARTESIAN_POINT('Ctrl Pts',(9.27594321081531,8.90248226632739,3.79215816966731));
#1222=CARTESIAN_POINT('Ctrl Pts',(9.27499999998612,8.77147682202141,3.7880377732658));
#1223=CARTESIAN_POINT('Ctrl Pts',(8.77499999998612,9.27499999999866,3.7361599107366));
#1224=CARTESIAN_POINT('Ctrl Pts',(8.90589969388569,9.27499999999866,3.7361599107366));
#1225=CARTESIAN_POINT('Ctrl Pts',(9.16680915723989,9.16680915725243,3.73324371551433));
#1226=CARTESIAN_POINT('Ctrl Pts',(9.27499999998612,8.90589969389823,3.72621111542392));
#1227=CARTESIAN_POINT('Ctrl Pts',(9.27499999998612,8.77499999999866,3.72268282178781));
#1228=CARTESIAN_POINT('',(8.77499999998612,9.27499999999866,3.7361599107366));
#1229=CARTESIAN_POINT('',(8.77499999998612,9.01154245142733,3.98579743673469));
#1230=CARTESIAN_POINT('Origin',(8.77499999998612,9.02499999999866,3.7361599107366));
#1231=CARTESIAN_POINT('Origin',(8.77499999998612,8.76154245142733,3.9723203477859));
#1232=CARTESIAN_POINT('Origin',(8.77499999998612,8.77499999999866,3.72268282178781));
#1233=CARTESIAN_POINT('Origin',(9.27499999998611,9.02499999999866,3.7361599107366));
#1234=CARTESIAN_POINT('',(-8.7750000000128,9.27499999999867,3.7361599107366));
#1235=CARTESIAN_POINT('',(-8.7750000000128,9.01154245142734,3.9857974367347));
#1236=CARTESIAN_POINT('Origin',(-8.7750000000128,9.02499999999866,3.7361599107366));
#1237=CARTESIAN_POINT('',(9.27499999998611,9.01154245142733,3.9857974367347));
#1238=CARTESIAN_POINT('',(9.27499999998611,9.27499999999866,3.7361599107366));
#1239=CARTESIAN_POINT('Ctrl Pts',(-9.02500000001281,8.76154245142669,3.97232034778587));
#1240=CARTESIAN_POINT('Ctrl Pts',(-9.02500000001297,8.82699229837658,3.97584864142198));
#1241=CARTESIAN_POINT('Ctrl Pts',(-8.97090457864001,8.95744703005403,3.98288124151242));
#1242=CARTESIAN_POINT('Ctrl Pts',(-8.8404498469627,9.01154245142734,3.9857974367347));
#1243=CARTESIAN_POINT('Ctrl Pts',(-8.7750000000128,9.01154245142734,3.9857974367347));
#1244=CARTESIAN_POINT('Ctrl Pts',(-9.09044984696259,8.76154245142652,3.97232034778586));
#1245=CARTESIAN_POINT('Ctrl Pts',(-9.09104280946216,8.84410784992861,3.97679048469355));
#1246=CARTESIAN_POINT('Ctrl Pts',(-9.02390970316396,9.00972129442645,3.98569797025393));
#1247=CARTESIAN_POINT('Ctrl Pts',(-8.85823566215066,9.07913815871858,3.98944141017358));
#1248=CARTESIAN_POINT('Ctrl Pts',(-8.7750000000128,9.07913815871858,3.98944141017358));
#1249=CARTESIAN_POINT('Ctrl Pts',(-9.22084293496272,8.76445773675975,3.91824180484818));
#1250=CARTESIAN_POINT('Ctrl Pts',(-9.22256847902391,8.8810126216591,3.92349314068574));
#1251=CARTESIAN_POINT('Ctrl Pts',(-9.12945683812635,9.11692003274726,3.93413620978351));
#1252=CARTESIAN_POINT('Ctrl Pts',(-8.89344834632082,9.21685304046426,3.93863400402418));
#1253=CARTESIAN_POINT('Ctrl Pts',(-8.7750000000128,9.21685304046426,3.93863400402419));
#1254=CARTESIAN_POINT('Ctrl Pts',(-9.27500000001279,8.77147682202013,3.78803777326576));
#1255=CARTESIAN_POINT('Ctrl Pts',(-9.27594321084232,8.90248226632632,3.79215816966727));
#1256=CARTESIAN_POINT('Ctrl Pts',(-9.16948527534848,9.16496518287586,3.80040154300896));
#1257=CARTESIAN_POINT('Ctrl Pts',(-8.90701495910223,9.27499999999867,3.80385376707989));
#1258=CARTESIAN_POINT('Ctrl Pts',(-8.7750000000128,9.27499999999867,3.80385376707989));
#1259=CARTESIAN_POINT('Ctrl Pts',(-9.2750000000128,8.77499999999738,3.72268282178777));
#1260=CARTESIAN_POINT('Ctrl Pts',(-9.27500000001314,8.90589969389717,3.72621111542389));
#1261=CARTESIAN_POINT('Ctrl Pts',(-9.16680915726721,9.16680915725206,3.73324371551432));
#1262=CARTESIAN_POINT('Ctrl Pts',(-8.90589969391259,9.27499999999867,3.7361599107366));
#1263=CARTESIAN_POINT('Ctrl Pts',(-8.7750000000128,9.27499999999867,3.7361599107366));
#1264=CARTESIAN_POINT('',(-9.2750000000128,8.77499999999738,3.72268282178777));
#1265=CARTESIAN_POINT('',(-9.0250000000128,8.76154245142669,3.97232034778587));
#1266=CARTESIAN_POINT('Origin',(-9.0250000000128,8.77499999999802,3.72268282178777));
#1267=CARTESIAN_POINT('Origin',(-8.7750000000128,8.76154245142734,3.9723203477859));
#1268=CARTESIAN_POINT('Origin',(-8.7750000000128,8.77499999999866,3.72268282178781));
#1269=CARTESIAN_POINT('Origin',(-9.02499999998996,-0.0940467436534358,3.24456709436706));
#1270=CARTESIAN_POINT('',(-9.2749999999676,-8.77500000000248,2.77659117758264));
#1271=CARTESIAN_POINT('',(-9.0249999999676,-8.78845754857317,3.02622870358074));
#1272=CARTESIAN_POINT('Origin',(-9.0249999999676,-8.77500000000184,2.77659117758264));
#1273=CARTESIAN_POINT('',(-9.02499999998996,-0.107504292224766,3.49420462036516));
#1274=CARTESIAN_POINT('',(-9.27499999998996,-0.0940467436540798,3.24456709436706));
#1275=CARTESIAN_POINT('Ctrl Pts',(-8.77499999996752,-9.03845754857253,3.01275161463198));
#1276=CARTESIAN_POINT('Ctrl Pts',(-8.84044984691722,-9.03845754857255,3.01275161463198));
#1277=CARTESIAN_POINT('Ctrl Pts',(-8.97090739941103,-8.98436494801652,3.01566765778864));
#1278=CARTESIAN_POINT('Ctrl Pts',(-9.02499999996743,-8.85390739552286,3.02270040994463));
#1279=CARTESIAN_POINT('Ctrl Pts',(-9.0249999999676,-8.78845754857317,3.02622870358074));
#1280=CARTESIAN_POINT('Ctrl Pts',(-8.7749999999675,-9.10157174423727,3.00934923211636));
#1281=CARTESIAN_POINT('Ctrl Pts',(-8.8570443030918,-9.1015717442373,3.00934923211636));
#1282=CARTESIAN_POINT('Ctrl Pts',(-9.02058438799859,-9.0344033776261,3.01297180095521));
#1283=CARTESIAN_POINT('Ctrl Pts',(-9.08985743101459,-8.87101933952366,3.02175873196692));
#1284=CARTESIAN_POINT('Ctrl Pts',(-9.09044984691738,-8.78845754857334,3.02622870358073));
#1285=CARTESIAN_POINT('Ctrl Pts',(-8.77499999996746,-9.22460720895294,2.95225063106477));
#1286=CARTESIAN_POINT('Ctrl Pts',(-8.88999295014381,-9.22460720895297,2.95225063106477));
#1287=CARTESIAN_POINT('Ctrl Pts',(-9.11957018733166,-9.13133453673641,2.95646879103157));
#1288=CARTESIAN_POINT('Ctrl Pts',(-9.2190453184309,-8.90209583132961,2.9668268568776));
#1289=CARTESIAN_POINT('Ctrl Pts',(-9.220771261299,-8.7855384050353,2.97207859094383));
#1290=CARTESIAN_POINT('Ctrl Pts',(-8.77499999996745,-9.2750000000012,2.82631992619016));
#1291=CARTESIAN_POINT('Ctrl Pts',(-8.90512493511202,-9.27500000000124,2.82631992619016));
#1292=CARTESIAN_POINT('Ctrl Pts',(-9.16425950180375,-9.16849688160707,2.82967692279333));
#1293=CARTESIAN_POINT('Ctrl Pts',(-9.27405695467194,-8.90952769178763,2.8378262784634));
#1294=CARTESIAN_POINT('Ctrl Pts',(-9.27499999996759,-8.77852317797974,2.84194612906063));
#1295=CARTESIAN_POINT('Ctrl Pts',(-8.77499999996744,-9.2750000000012,2.76311408863388));
#1296=CARTESIAN_POINT('Ctrl Pts',(-8.90589969386683,-9.27500000000124,2.76311408863388));
#1297=CARTESIAN_POINT('Ctrl Pts',(-9.16681479885445,-9.16681479888918,2.76603013179054));
#1298=CARTESIAN_POINT('Ctrl Pts',(-9.27499999996726,-8.90589969390187,2.77306288394654));
#1299=CARTESIAN_POINT('Ctrl Pts',(-9.2749999999676,-8.77500000000248,2.77659117758264));
#1300=CARTESIAN_POINT('',(-8.77499999996744,-9.2750000000012,2.76311408863388));
#1301=CARTESIAN_POINT('',(-8.77499999996752,-9.03845754857253,3.01275161463198));
#1302=CARTESIAN_POINT('Origin',(-8.77499999996752,-9.0250000000012,2.76311408863388));
#1303=CARTESIAN_POINT('Origin',(-8.7749999999676,-8.78845754857253,3.02622870358077));
#1304=CARTESIAN_POINT('Origin',(-8.7749999999676,-8.7750000000012,2.77659117758268));
#1305=CARTESIAN_POINT('Origin',(-1.39861608689493E-11,-9.02499999999846,
2.76311408863403));
#1306=CARTESIAN_POINT('',(-1.39861550112163E-11,-9.03845754856979,3.01275161463213));
#1307=CARTESIAN_POINT('',(-1.39083342349232E-11,-9.27499999999846,2.76311408863403));
#1308=CARTESIAN_POINT('Origin',(-8.7750000000128,8.77499999999866,0.));
#1309=CARTESIAN_POINT('',(-8.7750000000128,9.27499999999867,-3.));
#1310=CARTESIAN_POINT('',(-8.7750000000128,9.27499999999867,0.));
#1311=CARTESIAN_POINT('',(-9.2750000000128,8.77499999999738,-3.));
#1312=CARTESIAN_POINT('Origin',(-8.7750000000128,8.77499999999866,-3.));
#1313=CARTESIAN_POINT('',(-9.2750000000128,8.77499999999738,0.));
#1314=CARTESIAN_POINT('Origin',(9.27499999998609,9.27499999999866,0.));
#1315=CARTESIAN_POINT('',(8.77499999998612,9.27499999999866,-3.));
#1316=CARTESIAN_POINT('',(8.77499999998612,9.27499999999866,0.));
#1317=CARTESIAN_POINT('',(6.77499999997977,9.27499999999866,-3.));
#1318=CARTESIAN_POINT('Origin',(8.77499999998612,8.77499999999866,0.));
#1319=CARTESIAN_POINT('',(9.27499999998612,8.77499999999866,-3.));
#1320=CARTESIAN_POINT('',(9.27499999998612,8.77499999999866,0.));
#1321=CARTESIAN_POINT('Origin',(8.77499999998612,8.77499999999866,-3.));
#1322=CARTESIAN_POINT('Origin',(9.2749999999861,-9.27499999999568,0.));
#1323=CARTESIAN_POINT('',(9.2749999999861,-8.77499999999573,-3.));
#1324=CARTESIAN_POINT('',(9.2749999999861,-8.77499999999573,0.));
#1325=CARTESIAN_POINT('',(9.27499999998611,-6.77500000000767,-3.));
#1326=CARTESIAN_POINT('Origin',(8.7749999999861,-8.77499999999573,0.));
#1327=CARTESIAN_POINT('',(8.77499999998626,-9.27499999999573,-3.));
#1328=CARTESIAN_POINT('',(8.77499999998626,-9.27499999999573,0.));
#1329=CARTESIAN_POINT('Origin',(8.7749999999861,-8.77499999999573,-3.));
#1330=CARTESIAN_POINT('Origin',(9.27499999998611,-9.27499999999569,3.));
#1331=CARTESIAN_POINT('',(-6.9919912635283,-0.334265554788855,3.4819802935423));
#1332=CARTESIAN_POINT('',(-7.00000000001669,-9.27499999999847,2.99999999999983));
#1333=CARTESIAN_POINT('',(-5.94585485549584E-7,6.98985072794534,3.8768113599971));
#1334=CARTESIAN_POINT('Ctrl Pts',(-6.9919912635283,-0.334265554788853,3.4819802935423));
#1335=CARTESIAN_POINT('Ctrl Pts',(-7.04359506233631,0.742027770148759,3.54000149704299));
#1336=CARTESIAN_POINT('Ctrl Pts',(-6.63830400155651,2.91447628400645,3.65711462447471));
#1337=CARTESIAN_POINT('Ctrl Pts',(-4.30615095649423,6.01681817618091,3.8243567749963));
#1338=CARTESIAN_POINT('Ctrl Pts',(-1.61863664082249,6.98985059065968,3.87681135259625));
#1339=CARTESIAN_POINT('Ctrl Pts',(-5.94585487103896E-7,6.98985072794534,
3.8768113599971));
#1340=CARTESIAN_POINT('',(6.99199171919925,-0.334256050207562,3.48198080591865));
#1341=CARTESIAN_POINT('Ctrl Pts',(-5.94585485549584E-7,6.98985072794534,
3.8768113599971));
#1342=CARTESIAN_POINT('Ctrl Pts',(1.07908930860671,6.98985081946905,3.87681136493099));
#1343=CARTESIAN_POINT('Ctrl Pts',(3.23281992060487,6.48172147983534,3.84941894770006));
#1344=CARTESIAN_POINT('Ctrl Pts',(6.22458379899556,4.00725904735436,3.7160247464881));
#1345=CARTESIAN_POINT('Ctrl Pts',(7.06939515946508,1.28018285405884,3.5690125527794));
#1346=CARTESIAN_POINT('Ctrl Pts',(6.99199171919925,-0.334256050207565,3.48198080591865));
#1347=CARTESIAN_POINT('',(6.99999999998332,-9.27499999999846,2.99999999999984));
#1348=CARTESIAN_POINT('Origin',(-9.27500000001409,9.27499999999866,0.));
#1349=CARTESIAN_POINT('',(-9.2749999999676,-8.77500000000248,-3.));
#1350=CARTESIAN_POINT('',(-9.27500000000765,6.7749999999979,-3.));
#1351=CARTESIAN_POINT('',(-9.2749999999676,-8.77500000000248,0.));
#1352=CARTESIAN_POINT('Origin',(-8.7749999999676,-8.7750000000012,0.));
#1353=CARTESIAN_POINT('',(-8.77499999996744,-9.2750000000012,-3.));
#1354=CARTESIAN_POINT('Origin',(-8.7749999999676,-8.7750000000012,-3.));
#1355=CARTESIAN_POINT('',(-8.77499999996744,-9.2750000000012,0.));
#1356=CARTESIAN_POINT('Origin',(-1.39921407793508E-11,-2.05169214950729E-12,
-3.));
#1357=CARTESIAN_POINT('',(-6.77500000000804,-9.27500000000057,-3.));
#1358=CARTESIAN_POINT('',(-6.7750252930257,7.82500000000279,-3.));
#1359=CARTESIAN_POINT('',(-7.82500000031369,6.77499562437227,-3.));
#1360=CARTESIAN_POINT('Origin',(-6.77500000000672,6.77499999999135,-3.));
#1361=CARTESIAN_POINT('',(-7.82500000002048,-6.77500002450454,-3.));
#1362=CARTESIAN_POINT('',(-7.82500000002048,6.77499562437227,-3.));
#1363=CARTESIAN_POINT('',(-6.77501273813896,-7.82499999999621,-3.));
#1364=CARTESIAN_POINT('Origin',(-6.7749999999955,-6.77500000000098,-3.));
#1365=CARTESIAN_POINT('',(6.7749867652731,-7.82499999999619,-3.));
#1366=CARTESIAN_POINT('',(-6.77501273813896,-7.82499999999621,-3.));
#1367=CARTESIAN_POINT('',(7.82499999997969,-6.77500375335931,-3.));
#1368=CARTESIAN_POINT('Origin',(6.77499999999889,-6.77500000001203,-3.));
#1369=CARTESIAN_POINT('',(7.82499999997969,6.77500021242034,-3.));
#1370=CARTESIAN_POINT('',(7.82499999997969,-6.77500375335931,-3.));
#1371=CARTESIAN_POINT('',(6.77501088890227,7.82500000000084,-3.));
#1372=CARTESIAN_POINT('Origin',(6.77499999998407,6.77499999999663,-3.));
#1373=CARTESIAN_POINT('',(6.77501088890227,7.82500000000084,-3.));
#1374=CARTESIAN_POINT('Origin',(2.275,1.425,0.));
#1375=CARTESIAN_POINT('',(3.425,1.425,0.));
#1376=CARTESIAN_POINT('',(2.275,1.425,0.));
#1377=CARTESIAN_POINT('',(1.137499999993,1.425,0.));
#1378=CARTESIAN_POINT('',(3.425,1.425,-3.));
#1379=CARTESIAN_POINT('',(3.425,1.425,0.));
#1380=CARTESIAN_POINT('',(2.275,1.425,-3.));
#1381=CARTESIAN_POINT('',(2.275,1.425,-3.));
#1382=CARTESIAN_POINT('',(2.275,1.425,0.));
#1383=CARTESIAN_POINT('Origin',(2.275,-1.425,0.));
#1384=CARTESIAN_POINT('',(2.275,-1.425,0.));
#1385=CARTESIAN_POINT('',(2.275,-0.712500000001026,0.));
#1386=CARTESIAN_POINT('',(2.275,-1.425,-3.));
#1387=CARTESIAN_POINT('',(2.275,-1.425,-3.));
#1388=CARTESIAN_POINT('',(2.275,-1.425,0.));
#1389=CARTESIAN_POINT('Origin',(3.425,-1.425,0.));
#1390=CARTESIAN_POINT('',(3.425,-1.425,0.));
#1391=CARTESIAN_POINT('',(1.712499999993,-1.425,0.));
#1392=CARTESIAN_POINT('',(3.425,-1.425,-3.));
#1393=CARTESIAN_POINT('',(3.425,-1.425,-3.));
#1394=CARTESIAN_POINT('',(3.425,-1.425,0.));
#1395=CARTESIAN_POINT('Origin',(3.425,1.425,0.));
#1396=CARTESIAN_POINT('',(3.425,0.712499999998974,0.));
#1397=CARTESIAN_POINT('',(3.425,1.425,-3.));
#1398=CARTESIAN_POINT('Origin',(2.85,0.,-3.));
#1399=CARTESIAN_POINT('Origin',(-3.425,1.475,0.));
#1400=CARTESIAN_POINT('',(-2.275,1.475,0.));
#1401=CARTESIAN_POINT('',(-3.425,1.475,0.));
#1402=CARTESIAN_POINT('',(-1.712500000007,1.475,0.));
#1403=CARTESIAN_POINT('',(-2.275,1.475,-3.));
#1404=CARTESIAN_POINT('',(-2.275,1.475,0.));
#1405=CARTESIAN_POINT('',(-3.425,1.475,-3.));
#1406=CARTESIAN_POINT('',(-3.425,1.475,-3.));
#1407=CARTESIAN_POINT('',(-3.425,1.475,0.));
#1408=CARTESIAN_POINT('Origin',(-3.425,-1.475,0.));
#1409=CARTESIAN_POINT('',(-3.425,-1.475,0.));
#1410=CARTESIAN_POINT('',(-3.425,-0.737500000001026,0.));
#1411=CARTESIAN_POINT('',(-3.425,-1.475,-3.));
#1412=CARTESIAN_POINT('',(-3.425,-1.475,-3.));
#1413=CARTESIAN_POINT('',(-3.425,-1.475,0.));
#1414=CARTESIAN_POINT('Origin',(-2.275,-1.475,0.));
#1415=CARTESIAN_POINT('',(-2.275,-1.475,0.));
#1416=CARTESIAN_POINT('',(-1.137500000007,-1.475,0.));
#1417=CARTESIAN_POINT('',(-2.275,-1.475,-3.));
#1418=CARTESIAN_POINT('',(-2.275,-1.475,-3.));
#1419=CARTESIAN_POINT('',(-2.275,-1.475,0.));
#1420=CARTESIAN_POINT('Origin',(-2.275,1.475,0.));
#1421=CARTESIAN_POINT('',(-2.275,0.737499999998974,0.));
#1422=CARTESIAN_POINT('',(-2.275,1.475,-3.));
#1423=CARTESIAN_POINT('Origin',(-2.85,0.,-3.));
#1424=CARTESIAN_POINT('Ctrl Pts',(-6.99989101200453,-9.15332876312321,3.00655909632734));
#1425=CARTESIAN_POINT('Ctrl Pts',(-6.99725776251246,-6.21364102701175,3.16503282873233));
#1426=CARTESIAN_POINT('Ctrl Pts',(-6.99462451302038,-3.2739532909003,3.32350656113731));
#1427=CARTESIAN_POINT('Ctrl Pts',(-6.9919912635283,-0.334265554788853,3.4819802935423));
#1428=CARTESIAN_POINT('Ctrl Pts',(-6.36074851460252,-9.13868187467257,2.82072753216472));
#1429=CARTESIAN_POINT('Ctrl Pts',(-6.58882502493794,-5.8447792466786,3.06050601035618));
#1430=CARTESIAN_POINT('Ctrl Pts',(-6.81551855200089,-2.55187485784521,3.30022301885153));
#1431=CARTESIAN_POINT('Ctrl Pts',(-7.04359506233631,0.742027770148759,3.54000149704299));
#1432=CARTESIAN_POINT('Ctrl Pts',(-5.0604031224691,-9.10911780481358,2.50100107831615));
#1433=CARTESIAN_POINT('Ctrl Pts',(-5.5865799637894,-5.10066899087927,2.88640577783874));
#1434=CARTESIAN_POINT('Ctrl Pts',(-6.11212716023621,-1.09397252992785,3.27170992495213));
#1435=CARTESIAN_POINT('Ctrl Pts',(-6.63830400155651,2.91447628400645,3.65711462447471));
#1436=CARTESIAN_POINT('Ctrl Pts',(-2.72461430889881,-9.0668991506813,2.12629187820861));
#1437=CARTESIAN_POINT('Ctrl Pts',(-3.2516945117045,-4.03962642151659,2.69227748671841));
#1438=CARTESIAN_POINT('Ctrl Pts',(-3.77907075368854,0.989545447016207,3.25837116648651));
#1439=CARTESIAN_POINT('Ctrl Pts',(-4.30615095649423,6.01681817618091,3.8243567749963));
#1440=CARTESIAN_POINT('Ctrl Pts',(-1.02178477514203,-9.05365750279266,2.02554118568898));
#1441=CARTESIAN_POINT('Ctrl Pts',(-1.22145083565569,-3.70321323430807,2.64278084290534));
#1442=CARTESIAN_POINT('Ctrl Pts',(-1.41897058030883,1.63940632217509,3.2595716953799));
#1443=CARTESIAN_POINT('Ctrl Pts',(-1.61863664082249,6.98985059065968,3.87681135259625));
#1444=CARTESIAN_POINT('Ctrl Pts',(-8.10795483378422E-9,-9.05365750092438,
2.02554085024562));
#1445=CARTESIAN_POINT('Ctrl Pts',(-2.03600465590488E-7,-3.70582142463448,
2.64263102016278));
#1446=CARTESIAN_POINT('Ctrl Pts',(-3.99092976347192E-7,1.64201465165543,
3.25972119007994));
#1447=CARTESIAN_POINT('Ctrl Pts',(-5.94585487103896E-7,6.98985072794534,
3.8768113599971));
#1448=CARTESIAN_POINT('',(-1.66825331326524E-11,-9.27499999999846,1.99999999999984));
#1449=CARTESIAN_POINT('Ctrl Pts',(-8.10795490892006E-9,-9.05365751326918,
2.02554084882115));
#1450=CARTESIAN_POINT('Ctrl Pts',(-1.47745462204316E-7,-5.23377459869429,
2.46631954195828));
#1451=CARTESIAN_POINT('Ctrl Pts',(-3.15310470958791E-7,-0.64991510120443,
2.99525397372283));
#1452=CARTESIAN_POINT('Ctrl Pts',(-4.96839230442806E-7,4.31593268774292,
3.5682662748011));
#1453=CARTESIAN_POINT('Ctrl Pts',(-5.45712357996195E-7,5.65289170784412,
3.7225388173991));
#1454=CARTESIAN_POINT('Ctrl Pts',(-5.70148921772889E-7,6.32137121789473,
3.7996750886981));
#1455=CARTESIAN_POINT('Ctrl Pts',(-5.84112672502429E-7,6.70335950935222,
3.84375295801181));
#1456=CARTESIAN_POINT('Ctrl Pts',(-5.91094547867199E-7,6.89435365508097,
3.86579189266867));
#1457=CARTESIAN_POINT('Ctrl Pts',(-5.94585485549584E-7,6.98985072794534,
3.8768113599971));
#1458=CARTESIAN_POINT('Ctrl Pts',(0.681189846658623,-9.05365751202366,2.02554062512838));
#1459=CARTESIAN_POINT('Ctrl Pts',(0.776181102047233,-5.23345721370766,2.46633831564698));
#1460=CARTESIAN_POINT('Ctrl Pts',(0.889320544968304,-0.65028195869943,2.99523196963532));
#1461=CARTESIAN_POINT('Ctrl Pts',(1.01271529411013,4.31586079682699,3.5682619459889));
#1462=CARTESIAN_POINT('Ctrl Pts',(1.04586906091182,5.65281415891058,3.72253416947024));
#1463=CARTESIAN_POINT('Ctrl Pts',(1.06247847400033,6.32133159863115,3.79967271404431));
#1464=CARTESIAN_POINT('Ctrl Pts',(1.07196950376771,6.7033414847149,3.84375187762883));
#1465=CARTESIAN_POINT('Ctrl Pts',(1.076714527222,6.89434581201115,3.86579142266803));
#1466=CARTESIAN_POINT('Ctrl Pts',(1.07908930860671,6.98985081946905,3.87681136493099));
#1467=CARTESIAN_POINT('Ctrl Pts',(2.0435056612313,-9.0605724609215,2.07925219961095));
#1468=CARTESIAN_POINT('Ctrl Pts',(2.3270999215487,-5.35989662916117,2.50072887628524));
#1469=CARTESIAN_POINT('Ctrl Pts',(2.66598937640982,-0.919520768946651,3.00647268581938));
#1470=CARTESIAN_POINT('Ctrl Pts',(3.0345046829953,3.89130975476768,3.55438925075338));
#1471=CARTESIAN_POINT('Ctrl Pts',(3.13360663183043,5.18649860189349,3.70190299641168));
#1472=CARTESIAN_POINT('Ctrl Pts',(3.18321208586276,5.83410967703497,3.77566094847509));
#1473=CARTESIAN_POINT('Ctrl Pts',(3.21155795337171,6.2041731160773,3.8178083475499));
#1474=CARTESIAN_POINT('Ctrl Pts',(3.22573006409693,6.38920458404133,3.8388820307832));
#1475=CARTESIAN_POINT('Ctrl Pts',(3.23281992060487,6.48172147983534,3.84941894770006));
#1476=CARTESIAN_POINT('Ctrl Pts',(4.4016647831556,-9.09424652761198,2.36066532900799));
#1477=CARTESIAN_POINT('Ctrl Pts',(4.83523779837522,-5.97488913526759,2.68336602109924));
#1478=CARTESIAN_POINT('Ctrl Pts',(5.35705352749078,-2.23149683213385,3.07062004487867));
#1479=CARTESIAN_POINT('Ctrl Pts',(5.9208672151562,1.82368582773413,3.49013240169066));
#1480=CARTESIAN_POINT('Ctrl Pts',(6.07278526153478,2.91547882831744,3.60307908999221));
#1481=CARTESIAN_POINT('Ctrl Pts',(6.14868580795605,3.46136907448566,3.65955192927137));
#1482=CARTESIAN_POINT('Ctrl Pts',(6.19205766278562,3.77330637020459,3.69182212412957));
#1483=CARTESIAN_POINT('Ctrl Pts',(6.21374447361507,3.92927511254575,3.70795722918582));
#1484=CARTESIAN_POINT('Ctrl Pts',(6.22458379899556,4.00725904735436,3.7160247464881));
#1485=CARTESIAN_POINT('Ctrl Pts',(6.04117739796495,-9.13135832385412,2.72781110237677));
#1486=CARTESIAN_POINT('Ctrl Pts',(6.28787767968427,-6.65199904159659,2.92812610404967));
#1487=CARTESIAN_POINT('Ctrl Pts',(6.57758661681345,-3.67818051209673,3.16840697330983));
#1488=CARTESIAN_POINT('Ctrl Pts',(6.89759772938438,-0.455169456789688,3.42880574793312));
#1489=CARTESIAN_POINT('Ctrl Pts',(6.9832488645869,0.412451460692366,3.49890535212739));
#1490=CARTESIAN_POINT('Ctrl Pts',(7.02631671818671,0.846315976258474,3.53395887123832));
#1491=CARTESIAN_POINT('Ctrl Pts',(7.05092644783695,1.09423845118251,3.55398944634004));
#1492=CARTESIAN_POINT('Ctrl Pts',(7.06322765242209,1.21819887200241,3.56400467773757));
#1493=CARTESIAN_POINT('Ctrl Pts',(7.06939515946508,1.28018285405884,3.5690125527794));
#1494=CARTESIAN_POINT('Ctrl Pts',(6.99989101817876,-9.15332864056467,3.00655910293428));
#1495=CARTESIAN_POINT('Ctrl Pts',(6.99801023270745,-7.05354945238441,3.11975474650198));
#1496=CARTESIAN_POINT('Ctrl Pts',(6.99575329014187,-4.53381442656809,3.25558951878323));
#1497=CARTESIAN_POINT('Ctrl Pts',(6.99330826902917,-1.80410148193375,3.40274385542125));
#1498=CARTESIAN_POINT('Ctrl Pts',(6.99264999411421,-1.06917876607066,3.44236233066995));
#1499=CARTESIAN_POINT('Ctrl Pts',(6.99232085665673,-0.701717408139111,3.4621715682943));
#1500=CARTESIAN_POINT('Ctrl Pts',(6.9921327781096,-0.491739489321085,3.47349113265107));
#1501=CARTESIAN_POINT('Ctrl Pts',(6.99203873883603,-0.386750529912072,3.47915091482945));
#1502=CARTESIAN_POINT('Ctrl Pts',(6.99199171919925,-0.334256050207565,3.48198080591865));
#1503=CARTESIAN_POINT('Origin',(6.77501088890227,7.82500000000084,0.));
#1504=CARTESIAN_POINT('',(-6.7750252930257,7.82500000000279,0.));
#1505=CARTESIAN_POINT('',(6.77501088890227,7.82500000000084,0.));
#1506=CARTESIAN_POINT('',(3.3875054444447,7.82500000000133,0.));
#1507=CARTESIAN_POINT('',(-6.7750252930257,7.82500000000279,0.));
#1508=CARTESIAN_POINT('',(6.77501088890227,7.82500000000084,0.));
#1509=CARTESIAN_POINT('Origin',(6.77499999998407,6.77499999999663,0.));
#1510=CARTESIAN_POINT('',(7.82499999997969,6.77500021242034,0.));
#1511=CARTESIAN_POINT('Origin',(6.77499999998407,6.77499999999663,0.));
#1512=CARTESIAN_POINT('',(7.82499999997969,6.77500021242034,0.));
#1513=CARTESIAN_POINT('Origin',(7.82499999997969,-6.77500375335931,0.));
#1514=CARTESIAN_POINT('',(7.82499999997969,-6.77500375335931,0.));
#1515=CARTESIAN_POINT('',(7.82499999997969,-3.38750187668068,0.));
#1516=CARTESIAN_POINT('',(7.82499999997969,-6.77500375335931,0.));
#1517=CARTESIAN_POINT('Origin',(6.77499999999889,-6.77500000001203,0.));
#1518=CARTESIAN_POINT('',(6.7749867652731,-7.82499999999619,0.));
#1519=CARTESIAN_POINT('Origin',(6.77499999999889,-6.77500000001203,0.));
#1520=CARTESIAN_POINT('',(6.7749867652731,-7.82499999999619,0.));
#1521=CARTESIAN_POINT('Origin',(-6.77501273813896,-7.82499999999621,0.));
#1522=CARTESIAN_POINT('',(-6.77501273813896,-7.82499999999621,0.));
#1523=CARTESIAN_POINT('',(-3.38750636907647,-7.82499999999621,0.));
#1524=CARTESIAN_POINT('',(-6.77501273813896,-7.82499999999621,0.));
#1525=CARTESIAN_POINT('Origin',(-6.7749999999955,-6.77500000000098,0.));
#1526=CARTESIAN_POINT('',(-7.82500000002048,-6.77500002450454,0.));
#1527=CARTESIAN_POINT('Origin',(-6.7749999999955,-6.77500000000098,0.));
#1528=CARTESIAN_POINT('',(-7.82500000002048,-6.77500002450454,0.));
#1529=CARTESIAN_POINT('Origin',(-7.82500000002048,6.77499562437227,0.));
#1530=CARTESIAN_POINT('',(-7.82500000031369,6.77499562437227,0.));
#1531=CARTESIAN_POINT('',(-7.82500000002048,3.38749781218511,0.));
#1532=CARTESIAN_POINT('',(-7.82500000031369,6.77499562437227,0.));
#1533=CARTESIAN_POINT('Origin',(-6.77500000000672,6.77499999999135,0.));
#1534=CARTESIAN_POINT('Origin',(-6.77500000000672,6.77499999999135,0.));
#1535=CARTESIAN_POINT('Origin',(-9.27500000001389,-9.27500000000135,0.));
#1536=CARTESIAN_POINT('Origin',(-1.39921407793508E-11,-2.05169214950729E-12,
0.));
#1537=UNCERTAINTY_MEASURE_WITH_UNIT(LENGTH_MEASURE(0.01),#1541,
'DISTANCE_ACCURACY_VALUE',
'Maximum model space distance between geometric entities at asserted c
onnectivities');
#1538=UNCERTAINTY_MEASURE_WITH_UNIT(LENGTH_MEASURE(0.01),#1541,
'DISTANCE_ACCURACY_VALUE',
'Maximum model space distance between geometric entities at asserted c
onnectivities');
#1539=(
GEOMETRIC_REPRESENTATION_CONTEXT(3)
GLOBAL_UNCERTAINTY_ASSIGNED_CONTEXT((#1537))
GLOBAL_UNIT_ASSIGNED_CONTEXT((#1541,#1543,#1544))
REPRESENTATION_CONTEXT('','3D')
);
#1540=(
GEOMETRIC_REPRESENTATION_CONTEXT(3)
GLOBAL_UNCERTAINTY_ASSIGNED_CONTEXT((#1538))
GLOBAL_UNIT_ASSIGNED_CONTEXT((#1541,#1543,#1544))
REPRESENTATION_CONTEXT('','3D')
);
#1541=(
LENGTH_UNIT()
NAMED_UNIT(*)
SI_UNIT(.MILLI.,.METRE.)
);
#1542=(
LENGTH_UNIT()
NAMED_UNIT(*)
SI_UNIT($,.METRE.)
);
#1543=(
NAMED_UNIT(*)
PLANE_ANGLE_UNIT()
SI_UNIT($,.RADIAN.)
);
#1544=(
NAMED_UNIT(*)
SI_UNIT($,.STERADIAN.)
SOLID_ANGLE_UNIT()
);
#1545=SHAPE_DEFINITION_REPRESENTATION(#1546,#1547);
#1546=PRODUCT_DEFINITION_SHAPE('',$,#1549);
#1547=SHAPE_REPRESENTATION('',(#752),#1539);
#1548=PRODUCT_DEFINITION_CONTEXT('part definition',#1553,'design');
#1549=PRODUCT_DEFINITION('OrthusKeycapAlt','OrthusKeycapAlt v3',#1550,#1548);
#1550=PRODUCT_DEFINITION_FORMATION('',$,#1555);
#1551=PRODUCT_RELATED_PRODUCT_CATEGORY('OrthusKeycapAlt v3',
'OrthusKeycapAlt v3',(#1555));
#1552=APPLICATION_PROTOCOL_DEFINITION('international standard',
'ap242_managed_model_based_3d_engineering',2011,#1553);
#1553=APPLICATION_CONTEXT('Managed model based 3d engineering');
#1554=PRODUCT_CONTEXT('part definition',#1553,'mechanical');
#1555=PRODUCT('OrthusKeycapAlt','OrthusKeycapAlt v3',$,(#1554));
#1556=PRESENTATION_STYLE_ASSIGNMENT((#1557));
#1557=SURFACE_STYLE_USAGE(.BOTH.,#1558);
#1558=SURFACE_SIDE_STYLE('',(#1559));
#1559=SURFACE_STYLE_FILL_AREA(#1560);
#1560=FILL_AREA_STYLE('Steel - Satin',(#1561));
#1561=FILL_AREA_STYLE_COLOUR('Steel - Satin',#1562);
#1562=COLOUR_RGB('Steel - Satin',0.627450980392157,0.627450980392157,0.627450980392157);
ENDSEC;
END-ISO-10303-21;
