ISO-10303-21;
HEADER;
/* Generated by software containing ST-Developer
 * from STEP Tools, Inc. (www.steptools.com) 
 */

FILE_DESCRIPTION(
/* description */ ('',
'CAx-IF Rec.Pracs.---Representation and Presentation of Product Manufa
cturing Information (PMI)---4.0---2014-10-13'),
/* implementation_level */ '2;1');

FILE_NAME(
/* name */ 'OrthusKeycapAltTLBR.step',
/* time_stamp */ '2025-08-17T02:44:32-07:00',
/* author */ (''),
/* organization */ (''),
/* preprocessor_version */ 'ST-DEVELOPER v20',
/* originating_system */ 'Autodesk Translation Framework v13.20.0.188',

/* authorisation */ '');

FILE_SCHEMA (('AP242_MANAGED_MODEL_BASED_3D_ENGINEERING_MIM_LF { 1 0 10303 442 1 1 4 }'));
ENDSEC;

DATA;
#10=MECHANICAL_DESIGN_GEOMETRIC_PRESENTATION_REPRESENTATION('',(#13),#1460);
#11=SHAPE_REPRESENTATION_RELATIONSHIP('SRR','None',#1467,#12);
#12=ADVANCED_BREP_SHAPE_REPRESENTATION('',(#14),#1459);
#13=STYLED_ITEM('',(#1476),#14);
#14=MANIFOLD_SOLID_BREP('Body2',#770);
#15=SPHERICAL_SURFACE('',#849,25.0000007301568);
#16=FACE_BOUND('',#254,.T.);
#17=FACE_BOUND('',#276,.T.);
#18=FACE_BOUND('',#277,.T.);
#19=PLANE('',#816);
#20=PLANE('',#819);
#21=PLANE('',#824);
#22=PLANE('',#829);
#23=PLANE('',#831);
#24=PLANE('',#834);
#25=PLANE('',#839);
#26=PLANE('',#840);
#27=PLANE('',#841);
#28=PLANE('',#842);
#29=PLANE('',#843);
#30=PLANE('',#844);
#31=PLANE('',#845);
#32=PLANE('',#846);
#33=PLANE('',#847);
#34=PLANE('',#848);
#35=PLANE('',#850);
#36=PLANE('',#853);
#37=PLANE('',#856);
#38=PLANE('',#859);
#39=PLANE('',#862);
#40=PLANE('',#863);
#41=B_SPLINE_SURFACE_WITH_KNOTS('',3,3,((#1208,#1209,#1210,#1211),(#1212,
#1213,#1214,#1215),(#1216,#1217,#1218,#1219),(#1220,#1221,#1222,#1223),
(#1224,#1225,#1226,#1227)),.UNSPECIFIED.,.F.,.F.,.F.,(4,1,4),(4,4),(0.,
0.571428571428571,1.),(1.21129133709897,1.27881370068993),.UNSPECIFIED.);
#42=B_SPLINE_SURFACE_WITH_KNOTS('',3,3,((#1277,#1278,#1279,#1280),(#1281,
#1282,#1283,#1284),(#1285,#1286,#1287,#1288),(#1289,#1290,#1291,#1292),
(#1293,#1294,#1295,#1296)),.UNSPECIFIED.,.F.,.F.,.F.,(4,1,4),(4,4),(0.,
0.571428571428571,1.),(1.27881370068993,1.34633606428088),.UNSPECIFIED.);
#43=LINE('',#1146,#107);
#44=LINE('',#1147,#108);
#45=LINE('',#1158,#109);
#46=LINE('',#1159,#110);
#47=LINE('',#1257,#111);
#48=LINE('',#1258,#112);
#49=LINE('',#1269,#113);
#50=LINE('',#1270,#114);
#51=LINE('',#1312,#115);
#52=LINE('',#1314,#116);
#53=LINE('',#1315,#117);
#54=LINE('',#1318,#118);
#55=LINE('',#1322,#119);
#56=LINE('',#1323,#120);
#57=LINE('',#1326,#121);
#58=LINE('',#1330,#122);
#59=LINE('',#1333,#123);
#60=LINE('',#1335,#124);
#61=LINE('',#1338,#125);
#62=LINE('',#1343,#126);
#63=LINE('',#1348,#127);
#64=LINE('',#1349,#128);
#65=LINE('',#1353,#129);
#66=LINE('',#1355,#130);
#67=LINE('',#1360,#131);
#68=LINE('',#1364,#132);
#69=LINE('',#1368,#133);
#70=LINE('',#1371,#134);
#71=LINE('',#1375,#135);
#72=LINE('',#1377,#136);
#73=LINE('',#1379,#137);
#74=LINE('',#1380,#138);
#75=LINE('',#1383,#139);
#76=LINE('',#1385,#140);
#77=LINE('',#1386,#141);
#78=LINE('',#1389,#142);
#79=LINE('',#1391,#143);
#80=LINE('',#1392,#144);
#81=LINE('',#1394,#145);
#82=LINE('',#1395,#146);
#83=LINE('',#1400,#147);
#84=LINE('',#1402,#148);
#85=LINE('',#1404,#149);
#86=LINE('',#1405,#150);
#87=LINE('',#1408,#151);
#88=LINE('',#1410,#152);
#89=LINE('',#1411,#153);
#90=LINE('',#1414,#154);
#91=LINE('',#1416,#155);
#92=LINE('',#1417,#156);
#93=LINE('',#1419,#157);
#94=LINE('',#1420,#158);
#95=LINE('',#1426,#159);
#96=LINE('',#1427,#160);
#97=LINE('',#1428,#161);
#98=LINE('',#1432,#162);
#99=LINE('',#1435,#163);
#100=LINE('',#1436,#164);
#101=LINE('',#1440,#165);
#102=LINE('',#1443,#166);
#103=LINE('',#1444,#167);
#104=LINE('',#1448,#168);
#105=LINE('',#1451,#169);
#106=LINE('',#1452,#170);
#107=VECTOR('',#878,10.);
#108=VECTOR('',#879,10.);
#109=VECTOR('',#892,10.);
#110=VECTOR('',#893,10.);
#111=VECTOR('',#914,10.);
#112=VECTOR('',#915,10.);
#113=VECTOR('',#928,10.);
#114=VECTOR('',#929,10.);
#115=VECTOR('',#940,10.);
#116=VECTOR('',#941,10.);
#117=VECTOR('',#942,10.);
#118=VECTOR('',#945,10.);
#119=VECTOR('',#950,10.);
#120=VECTOR('',#951,10.);
#121=VECTOR('',#954,10.);
#122=VECTOR('',#959,10.);
#123=VECTOR('',#962,10.);
#124=VECTOR('',#965,10.);
#125=VECTOR('',#968,10.);
#126=VECTOR('',#975,10.);
#127=VECTOR('',#982,10.);
#128=VECTOR('',#983,10.);
#129=VECTOR('',#988,10.);
#130=VECTOR('',#991,10.);
#131=VECTOR('',#994,10.);
#132=VECTOR('',#997,10.);
#133=VECTOR('',#1000,10.);
#134=VECTOR('',#1003,10.);
#135=VECTOR('',#1006,10.);
#136=VECTOR('',#1007,10.);
#137=VECTOR('',#1008,10.);
#138=VECTOR('',#1009,10.);
#139=VECTOR('',#1012,10.);
#140=VECTOR('',#1013,10.);
#141=VECTOR('',#1014,10.);
#142=VECTOR('',#1017,10.);
#143=VECTOR('',#1018,10.);
#144=VECTOR('',#1019,10.);
#145=VECTOR('',#1022,10.);
#146=VECTOR('',#1023,10.);
#147=VECTOR('',#1028,10.);
#148=VECTOR('',#1029,10.);
#149=VECTOR('',#1030,10.);
#150=VECTOR('',#1031,10.);
#151=VECTOR('',#1034,10.);
#152=VECTOR('',#1035,10.);
#153=VECTOR('',#1036,10.);
#154=VECTOR('',#1039,10.);
#155=VECTOR('',#1040,10.);
#156=VECTOR('',#1041,10.);
#157=VECTOR('',#1044,10.);
#158=VECTOR('',#1045,10.);
#159=VECTOR('',#1052,10.);
#160=VECTOR('',#1053,10.);
#161=VECTOR('',#1054,10.);
#162=VECTOR('',#1059,10.);
#163=VECTOR('',#1062,10.);
#164=VECTOR('',#1063,10.);
#165=VECTOR('',#1068,10.);
#166=VECTOR('',#1071,10.);
#167=VECTOR('',#1072,10.);
#168=VECTOR('',#1077,10.);
#169=VECTOR('',#1080,10.);
#170=VECTOR('',#1081,10.);
#171=CYLINDRICAL_SURFACE('',#788,0.5);
#172=CYLINDRICAL_SURFACE('',#794,0.5);
#173=CYLINDRICAL_SURFACE('',#804,0.5);
#174=CYLINDRICAL_SURFACE('',#810,0.5);
#175=CYLINDRICAL_SURFACE('',#817,2.5);
#176=CYLINDRICAL_SURFACE('',#820,2.5);
#177=CYLINDRICAL_SURFACE('',#822,25.0000007301568);
#178=CYLINDRICAL_SURFACE('',#825,25.0000007301568);
#179=CYLINDRICAL_SURFACE('',#827,2.5);
#180=CYLINDRICAL_SURFACE('',#832,2.5);
#181=CYLINDRICAL_SURFACE('',#851,1.05);
#182=CYLINDRICAL_SURFACE('',#854,1.05);
#183=CYLINDRICAL_SURFACE('',#857,1.05);
#184=CYLINDRICAL_SURFACE('',#860,1.05);
#185=FACE_OUTER_BOUND('',#230,.T.);
#186=FACE_OUTER_BOUND('',#231,.T.);
#187=FACE_OUTER_BOUND('',#232,.T.);
#188=FACE_OUTER_BOUND('',#233,.T.);
#189=FACE_OUTER_BOUND('',#234,.T.);
#190=FACE_OUTER_BOUND('',#235,.T.);
#191=FACE_OUTER_BOUND('',#236,.T.);
#192=FACE_OUTER_BOUND('',#237,.T.);
#193=FACE_OUTER_BOUND('',#238,.T.);
#194=FACE_OUTER_BOUND('',#239,.T.);
#195=FACE_OUTER_BOUND('',#240,.T.);
#196=FACE_OUTER_BOUND('',#241,.T.);
#197=FACE_OUTER_BOUND('',#242,.T.);
#198=FACE_OUTER_BOUND('',#243,.T.);
#199=FACE_OUTER_BOUND('',#244,.T.);
#200=FACE_OUTER_BOUND('',#245,.T.);
#201=FACE_OUTER_BOUND('',#246,.T.);
#202=FACE_OUTER_BOUND('',#247,.T.);
#203=FACE_OUTER_BOUND('',#248,.T.);
#204=FACE_OUTER_BOUND('',#249,.T.);
#205=FACE_OUTER_BOUND('',#250,.T.);
#206=FACE_OUTER_BOUND('',#251,.T.);
#207=FACE_OUTER_BOUND('',#252,.T.);
#208=FACE_OUTER_BOUND('',#253,.T.);
#209=FACE_OUTER_BOUND('',#255,.T.);
#210=FACE_OUTER_BOUND('',#256,.T.);
#211=FACE_OUTER_BOUND('',#257,.T.);
#212=FACE_OUTER_BOUND('',#258,.T.);
#213=FACE_OUTER_BOUND('',#259,.T.);
#214=FACE_OUTER_BOUND('',#260,.T.);
#215=FACE_OUTER_BOUND('',#261,.T.);
#216=FACE_OUTER_BOUND('',#262,.T.);
#217=FACE_OUTER_BOUND('',#263,.T.);
#218=FACE_OUTER_BOUND('',#264,.T.);
#219=FACE_OUTER_BOUND('',#265,.T.);
#220=FACE_OUTER_BOUND('',#266,.T.);
#221=FACE_OUTER_BOUND('',#267,.T.);
#222=FACE_OUTER_BOUND('',#268,.T.);
#223=FACE_OUTER_BOUND('',#269,.T.);
#224=FACE_OUTER_BOUND('',#270,.T.);
#225=FACE_OUTER_BOUND('',#271,.T.);
#226=FACE_OUTER_BOUND('',#272,.T.);
#227=FACE_OUTER_BOUND('',#273,.T.);
#228=FACE_OUTER_BOUND('',#274,.T.);
#229=FACE_OUTER_BOUND('',#275,.T.);
#230=EDGE_LOOP('',(#501,#502,#503,#504));
#231=EDGE_LOOP('',(#505,#506,#507,#508));
#232=EDGE_LOOP('',(#509,#510,#511,#512));
#233=EDGE_LOOP('',(#513,#514,#515,#516));
#234=EDGE_LOOP('',(#517,#518,#519,#520));
#235=EDGE_LOOP('',(#521,#522,#523,#524,#525));
#236=EDGE_LOOP('',(#526,#527,#528,#529));
#237=EDGE_LOOP('',(#530,#531,#532,#533));
#238=EDGE_LOOP('',(#534,#535,#536,#537));
#239=EDGE_LOOP('',(#538,#539,#540,#541));
#240=EDGE_LOOP('',(#542,#543,#544,#545));
#241=EDGE_LOOP('',(#546,#547,#548,#549,#550));
#242=EDGE_LOOP('',(#551,#552,#553,#554,#555));
#243=EDGE_LOOP('',(#556,#557,#558,#559));
#244=EDGE_LOOP('',(#560,#561,#562,#563,#564));
#245=EDGE_LOOP('',(#565,#566,#567,#568,#569));
#246=EDGE_LOOP('',(#570,#571,#572,#573,#574));
#247=EDGE_LOOP('',(#575,#576,#577,#578,#579));
#248=EDGE_LOOP('',(#580,#581,#582,#583,#584));
#249=EDGE_LOOP('',(#585,#586,#587,#588,#589));
#250=EDGE_LOOP('',(#590,#591,#592,#593,#594,#595,#596,#597,#598,#599));
#251=EDGE_LOOP('',(#600,#601,#602,#603));
#252=EDGE_LOOP('',(#604,#605,#606,#607));
#253=EDGE_LOOP('',(#608,#609,#610,#611,#612,#613,#614,#615));
#254=EDGE_LOOP('',(#616,#617,#618,#619,#620,#621,#622,#623));
#255=EDGE_LOOP('',(#624,#625,#626,#627));
#256=EDGE_LOOP('',(#628,#629,#630,#631));
#257=EDGE_LOOP('',(#632,#633,#634,#635));
#258=EDGE_LOOP('',(#636,#637,#638,#639));
#259=EDGE_LOOP('',(#640,#641,#642,#643));
#260=EDGE_LOOP('',(#644,#645,#646,#647));
#261=EDGE_LOOP('',(#648,#649,#650,#651));
#262=EDGE_LOOP('',(#652,#653,#654,#655));
#263=EDGE_LOOP('',(#656,#657,#658,#659));
#264=EDGE_LOOP('',(#660,#661,#662,#663));
#265=EDGE_LOOP('',(#664,#665,#666));
#266=EDGE_LOOP('',(#667,#668,#669,#670));
#267=EDGE_LOOP('',(#671,#672,#673,#674));
#268=EDGE_LOOP('',(#675,#676,#677,#678));
#269=EDGE_LOOP('',(#679,#680,#681,#682));
#270=EDGE_LOOP('',(#683,#684,#685,#686));
#271=EDGE_LOOP('',(#687,#688,#689,#690));
#272=EDGE_LOOP('',(#691,#692,#693,#694));
#273=EDGE_LOOP('',(#695,#696,#697,#698));
#274=EDGE_LOOP('',(#699,#700,#701,#702));
#275=EDGE_LOOP('',(#703,#704,#705,#706,#707,#708,#709,#710));
#276=EDGE_LOOP('',(#711,#712,#713,#714));
#277=EDGE_LOOP('',(#715,#716,#717,#718));
#278=B_SPLINE_CURVE_WITH_KNOTS('',3,(#1099,#1100,#1101,#1102,#1103,#1104,
#1105,#1106,#1107,#1108,#1109,#1110,#1111,#1112,#1113,#1114,#1115,#1116,
#1117,#1118,#1119,#1120,#1121,#1122,#1123,#1124,#1125,#1126,#1127,#1128,
#1129,#1130,#1131,#1132,#1133,#1134,#1135,#1136,#1137,#1138,#1139,#1140,
#1141),.UNSPECIFIED.,.F.,.F.,(4,3,3,3,3,3,3,3,3,3,3,3,3,3,4),(-0.079166672557444,
-0.0788395042610304,-0.0709126008239322,-0.0686930840960219,-0.0607213063562411,
-0.0585313610497959,-0.0505902448312815,-0.0435896789154162,-0.0388862621941733,
-0.0310182156148809,-0.0230258489722363,-0.0193811711110582,-0.0114013695484863,
-0.00358672354412071,0.),.UNSPECIFIED.);
#279=B_SPLINE_CURVE_WITH_KNOTS('',3,(#1165,#1166,#1167,#1168,#1169,#1170,
#1171,#1172,#1173,#1174,#1175,#1176,#1177,#1178,#1179,#1180,#1181,#1182,
#1183,#1184,#1185,#1186,#1187,#1188,#1189,#1190,#1191,#1192,#1193,#1194,
#1195,#1196,#1197,#1198,#1199,#1200,#1201,#1202,#1203,#1204,#1205,#1206,
#1207),.UNSPECIFIED.,.F.,.F.,(4,3,3,3,3,3,3,3,3,3,3,3,3,3,4),(-0.0788656244987862,
-0.071080347650477,-0.0630978987617891,-0.0594780322311637,-0.0514931103286773,
-0.043594042579696,-0.0399664789356801,-0.0352615039301149,-0.0273177567482752,
-0.0203148714818511,-0.0123404526204267,-0.0101497817652524,-0.00222025211749269,
0.,0.000327276690197235),.UNSPECIFIED.);
#280=B_SPLINE_CURVE_WITH_KNOTS('',3,(#1230,#1231,#1232,#1233),
 .UNSPECIFIED.,.F.,.F.,(4,4),(1.21129133709897,1.27881370068993),
 .UNSPECIFIED.);
#281=B_SPLINE_CURVE_WITH_KNOTS('',3,(#1236,#1237,#1238,#1239),
 .UNSPECIFIED.,.F.,.F.,(4,4),(-1.27881370068993,-1.21879568936771),
 .UNSPECIFIED.);
#282=B_SPLINE_CURVE_WITH_KNOTS('',3,(#1240,#1241,#1242,#1243,#1244,#1245,
#1246),.UNSPECIFIED.,.F.,.F.,(4,3,4),(0.318901722930311,0.319530117748921,
0.323216418827492),.UNSPECIFIED.);
#283=B_SPLINE_CURVE_WITH_KNOTS('',3,(#1297,#1298,#1299,#1300),
 .UNSPECIFIED.,.F.,.F.,(4,4),(-1.33883171201213,-1.27881370068993),
 .UNSPECIFIED.);
#284=B_SPLINE_CURVE_WITH_KNOTS('',3,(#1302,#1303,#1304,#1305),
 .UNSPECIFIED.,.F.,.F.,(4,4),(1.27881370068993,1.34633606428088),
 .UNSPECIFIED.);
#285=B_SPLINE_CURVE_WITH_KNOTS('',3,(#1306,#1307,#1308,#1309),
 .UNSPECIFIED.,.F.,.F.,(4,4),(0.,0.00412875087214807),.UNSPECIFIED.);
#286=CIRCLE('',#785,2.);
#287=CIRCLE('',#786,0.5);
#288=CIRCLE('',#787,2.5);
#289=CIRCLE('',#789,0.5);
#290=CIRCLE('',#791,0.5);
#291=CIRCLE('',#792,2.5);
#292=CIRCLE('',#793,2.);
#293=CIRCLE('',#795,0.5);
#294=CIRCLE('',#797,2.5);
#295=CIRCLE('',#798,2.);
#296=CIRCLE('',#799,0.5);
#297=CIRCLE('',#801,0.499999999999999);
#298=CIRCLE('',#802,25.5000007301568);
#299=CIRCLE('',#803,25.0000007301568);
#300=CIRCLE('',#805,0.5);
#301=CIRCLE('',#807,0.5);
#302=CIRCLE('',#808,2.5);
#303=CIRCLE('',#809,2.);
#304=CIRCLE('',#811,0.500000000000001);
#305=CIRCLE('',#813,0.499999999999989);
#306=CIRCLE('',#814,25.5000007301568);
#307=CIRCLE('',#815,25.0000007301568);
#308=CIRCLE('',#818,2.5);
#309=CIRCLE('',#821,2.5);
#310=CIRCLE('',#823,25.0000007301568);
#311=CIRCLE('',#826,25.0000007301568);
#312=CIRCLE('',#828,2.5);
#313=CIRCLE('',#830,7.);
#314=CIRCLE('',#833,2.5);
#315=CIRCLE('',#835,1.05);
#316=CIRCLE('',#836,1.05);
#317=CIRCLE('',#837,1.05);
#318=CIRCLE('',#838,1.05);
#319=CIRCLE('',#852,1.05);
#320=CIRCLE('',#855,1.05);
#321=CIRCLE('',#858,1.05);
#322=CIRCLE('',#861,1.05);
#323=VERTEX_POINT('',#1092);
#324=VERTEX_POINT('',#1093);
#325=VERTEX_POINT('',#1095);
#326=VERTEX_POINT('',#1097);
#327=VERTEX_POINT('',#1143);
#328=VERTEX_POINT('',#1144);
#329=VERTEX_POINT('',#1149);
#330=VERTEX_POINT('',#1150);
#331=VERTEX_POINT('',#1155);
#332=VERTEX_POINT('',#1156);
#333=VERTEX_POINT('',#1161);
#334=VERTEX_POINT('',#1163);
#335=VERTEX_POINT('',#1228);
#336=VERTEX_POINT('',#1229);
#337=VERTEX_POINT('',#1234);
#338=VERTEX_POINT('',#1248);
#339=VERTEX_POINT('',#1249);
#340=VERTEX_POINT('',#1254);
#341=VERTEX_POINT('',#1255);
#342=VERTEX_POINT('',#1260);
#343=VERTEX_POINT('',#1261);
#344=VERTEX_POINT('',#1266);
#345=VERTEX_POINT('',#1267);
#346=VERTEX_POINT('',#1272);
#347=VERTEX_POINT('',#1273);
#348=VERTEX_POINT('',#1301);
#349=VERTEX_POINT('',#1311);
#350=VERTEX_POINT('',#1313);
#351=VERTEX_POINT('',#1317);
#352=VERTEX_POINT('',#1321);
#353=VERTEX_POINT('',#1325);
#354=VERTEX_POINT('',#1329);
#355=VERTEX_POINT('',#1331);
#356=VERTEX_POINT('',#1337);
#357=VERTEX_POINT('',#1341);
#358=VERTEX_POINT('',#1347);
#359=VERTEX_POINT('',#1351);
#360=VERTEX_POINT('',#1356);
#361=VERTEX_POINT('',#1357);
#362=VERTEX_POINT('',#1359);
#363=VERTEX_POINT('',#1361);
#364=VERTEX_POINT('',#1363);
#365=VERTEX_POINT('',#1365);
#366=VERTEX_POINT('',#1367);
#367=VERTEX_POINT('',#1369);
#368=VERTEX_POINT('',#1373);
#369=VERTEX_POINT('',#1374);
#370=VERTEX_POINT('',#1376);
#371=VERTEX_POINT('',#1378);
#372=VERTEX_POINT('',#1382);
#373=VERTEX_POINT('',#1384);
#374=VERTEX_POINT('',#1388);
#375=VERTEX_POINT('',#1390);
#376=VERTEX_POINT('',#1398);
#377=VERTEX_POINT('',#1399);
#378=VERTEX_POINT('',#1401);
#379=VERTEX_POINT('',#1403);
#380=VERTEX_POINT('',#1407);
#381=VERTEX_POINT('',#1409);
#382=VERTEX_POINT('',#1413);
#383=VERTEX_POINT('',#1415);
#384=VERTEX_POINT('',#1424);
#385=VERTEX_POINT('',#1425);
#386=VERTEX_POINT('',#1430);
#387=VERTEX_POINT('',#1434);
#388=VERTEX_POINT('',#1438);
#389=VERTEX_POINT('',#1442);
#390=VERTEX_POINT('',#1446);
#391=VERTEX_POINT('',#1450);
#392=EDGE_CURVE('',#323,#324,#286,.T.);
#393=EDGE_CURVE('',#324,#325,#287,.T.);
#394=EDGE_CURVE('',#325,#326,#288,.T.);
#395=EDGE_CURVE('',#326,#323,#278,.T.);
#396=EDGE_CURVE('',#327,#328,#289,.T.);
#397=EDGE_CURVE('',#328,#325,#43,.T.);
#398=EDGE_CURVE('',#324,#327,#44,.T.);
#399=EDGE_CURVE('',#329,#330,#290,.T.);
#400=EDGE_CURVE('',#330,#328,#291,.T.);
#401=EDGE_CURVE('',#327,#329,#292,.T.);
#402=EDGE_CURVE('',#331,#332,#293,.T.);
#403=EDGE_CURVE('',#332,#330,#45,.T.);
#404=EDGE_CURVE('',#329,#331,#46,.T.);
#405=EDGE_CURVE('',#333,#332,#294,.T.);
#406=EDGE_CURVE('',#331,#334,#295,.T.);
#407=EDGE_CURVE('',#334,#333,#279,.T.);
#408=EDGE_CURVE('',#335,#336,#280,.T.);
#409=EDGE_CURVE('',#336,#337,#296,.T.);
#410=EDGE_CURVE('',#337,#333,#281,.T.);
#411=EDGE_CURVE('',#334,#335,#282,.T.);
#412=EDGE_CURVE('',#338,#339,#297,.T.);
#413=EDGE_CURVE('',#339,#337,#298,.T.);
#414=EDGE_CURVE('',#336,#338,#299,.T.);
#415=EDGE_CURVE('',#340,#341,#300,.T.);
#416=EDGE_CURVE('',#341,#339,#47,.T.);
#417=EDGE_CURVE('',#338,#340,#48,.T.);
#418=EDGE_CURVE('',#342,#343,#301,.T.);
#419=EDGE_CURVE('',#343,#341,#302,.T.);
#420=EDGE_CURVE('',#340,#342,#303,.T.);
#421=EDGE_CURVE('',#344,#345,#304,.T.);
#422=EDGE_CURVE('',#345,#343,#49,.T.);
#423=EDGE_CURVE('',#342,#344,#50,.T.);
#424=EDGE_CURVE('',#346,#347,#305,.T.);
#425=EDGE_CURVE('',#347,#345,#306,.T.);
#426=EDGE_CURVE('',#344,#346,#307,.T.);
#427=EDGE_CURVE('',#326,#347,#283,.T.);
#428=EDGE_CURVE('',#346,#348,#284,.T.);
#429=EDGE_CURVE('',#348,#323,#285,.T.);
#430=EDGE_CURVE('',#349,#341,#51,.T.);
#431=EDGE_CURVE('',#350,#349,#52,.T.);
#432=EDGE_CURVE('',#337,#350,#53,.T.);
#433=EDGE_CURVE('',#343,#351,#54,.T.);
#434=EDGE_CURVE('',#351,#349,#308,.T.);
#435=EDGE_CURVE('',#352,#347,#55,.T.);
#436=EDGE_CURVE('',#351,#352,#56,.T.);
#437=EDGE_CURVE('',#325,#353,#57,.T.);
#438=EDGE_CURVE('',#353,#352,#309,.T.);
#439=EDGE_CURVE('',#344,#354,#58,.T.);
#440=EDGE_CURVE('',#355,#354,#310,.T.);
#441=EDGE_CURVE('',#348,#355,#59,.T.);
#442=EDGE_CURVE('',#338,#354,#60,.T.);
#443=EDGE_CURVE('',#356,#335,#61,.T.);
#444=EDGE_CURVE('',#356,#354,#311,.T.);
#445=EDGE_CURVE('',#350,#357,#312,.T.);
#446=EDGE_CURVE('',#357,#332,#62,.T.);
#447=EDGE_CURVE('',#355,#356,#313,.T.);
#448=EDGE_CURVE('',#358,#357,#63,.T.);
#449=EDGE_CURVE('',#330,#358,#64,.T.);
#450=EDGE_CURVE('',#358,#359,#314,.T.);
#451=EDGE_CURVE('',#359,#328,#65,.T.);
#452=EDGE_CURVE('',#353,#359,#66,.T.);
#453=EDGE_CURVE('',#360,#361,#315,.T.);
#454=EDGE_CURVE('',#361,#362,#67,.T.);
#455=EDGE_CURVE('',#362,#363,#316,.T.);
#456=EDGE_CURVE('',#363,#364,#68,.T.);
#457=EDGE_CURVE('',#364,#365,#317,.T.);
#458=EDGE_CURVE('',#365,#366,#69,.T.);
#459=EDGE_CURVE('',#366,#367,#318,.T.);
#460=EDGE_CURVE('',#367,#360,#70,.T.);
#461=EDGE_CURVE('',#368,#369,#71,.T.);
#462=EDGE_CURVE('',#368,#370,#72,.T.);
#463=EDGE_CURVE('',#371,#370,#73,.T.);
#464=EDGE_CURVE('',#369,#371,#74,.T.);
#465=EDGE_CURVE('',#369,#372,#75,.T.);
#466=EDGE_CURVE('',#373,#371,#76,.T.);
#467=EDGE_CURVE('',#372,#373,#77,.T.);
#468=EDGE_CURVE('',#372,#374,#78,.T.);
#469=EDGE_CURVE('',#375,#373,#79,.T.);
#470=EDGE_CURVE('',#374,#375,#80,.T.);
#471=EDGE_CURVE('',#374,#368,#81,.T.);
#472=EDGE_CURVE('',#370,#375,#82,.T.);
#473=EDGE_CURVE('',#376,#377,#83,.T.);
#474=EDGE_CURVE('',#376,#378,#84,.T.);
#475=EDGE_CURVE('',#379,#378,#85,.T.);
#476=EDGE_CURVE('',#377,#379,#86,.T.);
#477=EDGE_CURVE('',#377,#380,#87,.T.);
#478=EDGE_CURVE('',#381,#379,#88,.T.);
#479=EDGE_CURVE('',#380,#381,#89,.T.);
#480=EDGE_CURVE('',#380,#382,#90,.T.);
#481=EDGE_CURVE('',#383,#381,#91,.T.);
#482=EDGE_CURVE('',#382,#383,#92,.T.);
#483=EDGE_CURVE('',#382,#376,#93,.T.);
#484=EDGE_CURVE('',#378,#383,#94,.T.);
#485=EDGE_CURVE('',#384,#385,#95,.T.);
#486=EDGE_CURVE('',#384,#360,#96,.T.);
#487=EDGE_CURVE('',#385,#367,#97,.T.);
#488=EDGE_CURVE('',#385,#386,#319,.T.);
#489=EDGE_CURVE('',#386,#366,#98,.T.);
#490=EDGE_CURVE('',#386,#387,#99,.T.);
#491=EDGE_CURVE('',#387,#365,#100,.T.);
#492=EDGE_CURVE('',#387,#388,#320,.T.);
#493=EDGE_CURVE('',#388,#364,#101,.T.);
#494=EDGE_CURVE('',#388,#389,#102,.T.);
#495=EDGE_CURVE('',#389,#363,#103,.T.);
#496=EDGE_CURVE('',#389,#390,#321,.T.);
#497=EDGE_CURVE('',#390,#362,#104,.T.);
#498=EDGE_CURVE('',#390,#391,#105,.T.);
#499=EDGE_CURVE('',#391,#361,#106,.T.);
#500=EDGE_CURVE('',#391,#384,#322,.T.);
#501=ORIENTED_EDGE('',*,*,#392,.T.);
#502=ORIENTED_EDGE('',*,*,#393,.T.);
#503=ORIENTED_EDGE('',*,*,#394,.T.);
#504=ORIENTED_EDGE('',*,*,#395,.T.);
#505=ORIENTED_EDGE('',*,*,#396,.T.);
#506=ORIENTED_EDGE('',*,*,#397,.T.);
#507=ORIENTED_EDGE('',*,*,#393,.F.);
#508=ORIENTED_EDGE('',*,*,#398,.T.);
#509=ORIENTED_EDGE('',*,*,#399,.T.);
#510=ORIENTED_EDGE('',*,*,#400,.T.);
#511=ORIENTED_EDGE('',*,*,#396,.F.);
#512=ORIENTED_EDGE('',*,*,#401,.T.);
#513=ORIENTED_EDGE('',*,*,#402,.T.);
#514=ORIENTED_EDGE('',*,*,#403,.T.);
#515=ORIENTED_EDGE('',*,*,#399,.F.);
#516=ORIENTED_EDGE('',*,*,#404,.T.);
#517=ORIENTED_EDGE('',*,*,#405,.T.);
#518=ORIENTED_EDGE('',*,*,#402,.F.);
#519=ORIENTED_EDGE('',*,*,#406,.T.);
#520=ORIENTED_EDGE('',*,*,#407,.T.);
#521=ORIENTED_EDGE('',*,*,#408,.T.);
#522=ORIENTED_EDGE('',*,*,#409,.T.);
#523=ORIENTED_EDGE('',*,*,#410,.T.);
#524=ORIENTED_EDGE('',*,*,#407,.F.);
#525=ORIENTED_EDGE('',*,*,#411,.T.);
#526=ORIENTED_EDGE('',*,*,#412,.T.);
#527=ORIENTED_EDGE('',*,*,#413,.T.);
#528=ORIENTED_EDGE('',*,*,#409,.F.);
#529=ORIENTED_EDGE('',*,*,#414,.T.);
#530=ORIENTED_EDGE('',*,*,#415,.T.);
#531=ORIENTED_EDGE('',*,*,#416,.T.);
#532=ORIENTED_EDGE('',*,*,#412,.F.);
#533=ORIENTED_EDGE('',*,*,#417,.T.);
#534=ORIENTED_EDGE('',*,*,#418,.T.);
#535=ORIENTED_EDGE('',*,*,#419,.T.);
#536=ORIENTED_EDGE('',*,*,#415,.F.);
#537=ORIENTED_EDGE('',*,*,#420,.T.);
#538=ORIENTED_EDGE('',*,*,#421,.T.);
#539=ORIENTED_EDGE('',*,*,#422,.T.);
#540=ORIENTED_EDGE('',*,*,#418,.F.);
#541=ORIENTED_EDGE('',*,*,#423,.T.);
#542=ORIENTED_EDGE('',*,*,#424,.T.);
#543=ORIENTED_EDGE('',*,*,#425,.T.);
#544=ORIENTED_EDGE('',*,*,#421,.F.);
#545=ORIENTED_EDGE('',*,*,#426,.T.);
#546=ORIENTED_EDGE('',*,*,#427,.T.);
#547=ORIENTED_EDGE('',*,*,#424,.F.);
#548=ORIENTED_EDGE('',*,*,#428,.T.);
#549=ORIENTED_EDGE('',*,*,#429,.T.);
#550=ORIENTED_EDGE('',*,*,#395,.F.);
#551=ORIENTED_EDGE('',*,*,#413,.F.);
#552=ORIENTED_EDGE('',*,*,#416,.F.);
#553=ORIENTED_EDGE('',*,*,#430,.F.);
#554=ORIENTED_EDGE('',*,*,#431,.F.);
#555=ORIENTED_EDGE('',*,*,#432,.F.);
#556=ORIENTED_EDGE('',*,*,#419,.F.);
#557=ORIENTED_EDGE('',*,*,#433,.T.);
#558=ORIENTED_EDGE('',*,*,#434,.T.);
#559=ORIENTED_EDGE('',*,*,#430,.T.);
#560=ORIENTED_EDGE('',*,*,#422,.F.);
#561=ORIENTED_EDGE('',*,*,#425,.F.);
#562=ORIENTED_EDGE('',*,*,#435,.F.);
#563=ORIENTED_EDGE('',*,*,#436,.F.);
#564=ORIENTED_EDGE('',*,*,#433,.F.);
#565=ORIENTED_EDGE('',*,*,#427,.F.);
#566=ORIENTED_EDGE('',*,*,#394,.F.);
#567=ORIENTED_EDGE('',*,*,#437,.T.);
#568=ORIENTED_EDGE('',*,*,#438,.T.);
#569=ORIENTED_EDGE('',*,*,#435,.T.);
#570=ORIENTED_EDGE('',*,*,#428,.F.);
#571=ORIENTED_EDGE('',*,*,#426,.F.);
#572=ORIENTED_EDGE('',*,*,#439,.T.);
#573=ORIENTED_EDGE('',*,*,#440,.F.);
#574=ORIENTED_EDGE('',*,*,#441,.F.);
#575=ORIENTED_EDGE('',*,*,#423,.F.);
#576=ORIENTED_EDGE('',*,*,#420,.F.);
#577=ORIENTED_EDGE('',*,*,#417,.F.);
#578=ORIENTED_EDGE('',*,*,#442,.T.);
#579=ORIENTED_EDGE('',*,*,#439,.F.);
#580=ORIENTED_EDGE('',*,*,#414,.F.);
#581=ORIENTED_EDGE('',*,*,#408,.F.);
#582=ORIENTED_EDGE('',*,*,#443,.F.);
#583=ORIENTED_EDGE('',*,*,#444,.T.);
#584=ORIENTED_EDGE('',*,*,#442,.F.);
#585=ORIENTED_EDGE('',*,*,#410,.F.);
#586=ORIENTED_EDGE('',*,*,#432,.T.);
#587=ORIENTED_EDGE('',*,*,#445,.T.);
#588=ORIENTED_EDGE('',*,*,#446,.T.);
#589=ORIENTED_EDGE('',*,*,#405,.F.);
#590=ORIENTED_EDGE('',*,*,#429,.F.);
#591=ORIENTED_EDGE('',*,*,#441,.T.);
#592=ORIENTED_EDGE('',*,*,#447,.T.);
#593=ORIENTED_EDGE('',*,*,#443,.T.);
#594=ORIENTED_EDGE('',*,*,#411,.F.);
#595=ORIENTED_EDGE('',*,*,#406,.F.);
#596=ORIENTED_EDGE('',*,*,#404,.F.);
#597=ORIENTED_EDGE('',*,*,#401,.F.);
#598=ORIENTED_EDGE('',*,*,#398,.F.);
#599=ORIENTED_EDGE('',*,*,#392,.F.);
#600=ORIENTED_EDGE('',*,*,#403,.F.);
#601=ORIENTED_EDGE('',*,*,#446,.F.);
#602=ORIENTED_EDGE('',*,*,#448,.F.);
#603=ORIENTED_EDGE('',*,*,#449,.F.);
#604=ORIENTED_EDGE('',*,*,#400,.F.);
#605=ORIENTED_EDGE('',*,*,#449,.T.);
#606=ORIENTED_EDGE('',*,*,#450,.T.);
#607=ORIENTED_EDGE('',*,*,#451,.T.);
#608=ORIENTED_EDGE('',*,*,#445,.F.);
#609=ORIENTED_EDGE('',*,*,#431,.T.);
#610=ORIENTED_EDGE('',*,*,#434,.F.);
#611=ORIENTED_EDGE('',*,*,#436,.T.);
#612=ORIENTED_EDGE('',*,*,#438,.F.);
#613=ORIENTED_EDGE('',*,*,#452,.T.);
#614=ORIENTED_EDGE('',*,*,#450,.F.);
#615=ORIENTED_EDGE('',*,*,#448,.T.);
#616=ORIENTED_EDGE('',*,*,#453,.T.);
#617=ORIENTED_EDGE('',*,*,#454,.T.);
#618=ORIENTED_EDGE('',*,*,#455,.T.);
#619=ORIENTED_EDGE('',*,*,#456,.T.);
#620=ORIENTED_EDGE('',*,*,#457,.T.);
#621=ORIENTED_EDGE('',*,*,#458,.T.);
#622=ORIENTED_EDGE('',*,*,#459,.T.);
#623=ORIENTED_EDGE('',*,*,#460,.T.);
#624=ORIENTED_EDGE('',*,*,#461,.F.);
#625=ORIENTED_EDGE('',*,*,#462,.T.);
#626=ORIENTED_EDGE('',*,*,#463,.F.);
#627=ORIENTED_EDGE('',*,*,#464,.F.);
#628=ORIENTED_EDGE('',*,*,#465,.F.);
#629=ORIENTED_EDGE('',*,*,#464,.T.);
#630=ORIENTED_EDGE('',*,*,#466,.F.);
#631=ORIENTED_EDGE('',*,*,#467,.F.);
#632=ORIENTED_EDGE('',*,*,#468,.F.);
#633=ORIENTED_EDGE('',*,*,#467,.T.);
#634=ORIENTED_EDGE('',*,*,#469,.F.);
#635=ORIENTED_EDGE('',*,*,#470,.F.);
#636=ORIENTED_EDGE('',*,*,#471,.F.);
#637=ORIENTED_EDGE('',*,*,#470,.T.);
#638=ORIENTED_EDGE('',*,*,#472,.F.);
#639=ORIENTED_EDGE('',*,*,#462,.F.);
#640=ORIENTED_EDGE('',*,*,#472,.T.);
#641=ORIENTED_EDGE('',*,*,#469,.T.);
#642=ORIENTED_EDGE('',*,*,#466,.T.);
#643=ORIENTED_EDGE('',*,*,#463,.T.);
#644=ORIENTED_EDGE('',*,*,#473,.F.);
#645=ORIENTED_EDGE('',*,*,#474,.T.);
#646=ORIENTED_EDGE('',*,*,#475,.F.);
#647=ORIENTED_EDGE('',*,*,#476,.F.);
#648=ORIENTED_EDGE('',*,*,#477,.F.);
#649=ORIENTED_EDGE('',*,*,#476,.T.);
#650=ORIENTED_EDGE('',*,*,#478,.F.);
#651=ORIENTED_EDGE('',*,*,#479,.F.);
#652=ORIENTED_EDGE('',*,*,#480,.F.);
#653=ORIENTED_EDGE('',*,*,#479,.T.);
#654=ORIENTED_EDGE('',*,*,#481,.F.);
#655=ORIENTED_EDGE('',*,*,#482,.F.);
#656=ORIENTED_EDGE('',*,*,#483,.F.);
#657=ORIENTED_EDGE('',*,*,#482,.T.);
#658=ORIENTED_EDGE('',*,*,#484,.F.);
#659=ORIENTED_EDGE('',*,*,#474,.F.);
#660=ORIENTED_EDGE('',*,*,#484,.T.);
#661=ORIENTED_EDGE('',*,*,#481,.T.);
#662=ORIENTED_EDGE('',*,*,#478,.T.);
#663=ORIENTED_EDGE('',*,*,#475,.T.);
#664=ORIENTED_EDGE('',*,*,#440,.T.);
#665=ORIENTED_EDGE('',*,*,#444,.F.);
#666=ORIENTED_EDGE('',*,*,#447,.F.);
#667=ORIENTED_EDGE('',*,*,#485,.F.);
#668=ORIENTED_EDGE('',*,*,#486,.T.);
#669=ORIENTED_EDGE('',*,*,#460,.F.);
#670=ORIENTED_EDGE('',*,*,#487,.F.);
#671=ORIENTED_EDGE('',*,*,#488,.F.);
#672=ORIENTED_EDGE('',*,*,#487,.T.);
#673=ORIENTED_EDGE('',*,*,#459,.F.);
#674=ORIENTED_EDGE('',*,*,#489,.F.);
#675=ORIENTED_EDGE('',*,*,#490,.F.);
#676=ORIENTED_EDGE('',*,*,#489,.T.);
#677=ORIENTED_EDGE('',*,*,#458,.F.);
#678=ORIENTED_EDGE('',*,*,#491,.F.);
#679=ORIENTED_EDGE('',*,*,#492,.F.);
#680=ORIENTED_EDGE('',*,*,#491,.T.);
#681=ORIENTED_EDGE('',*,*,#457,.F.);
#682=ORIENTED_EDGE('',*,*,#493,.F.);
#683=ORIENTED_EDGE('',*,*,#494,.F.);
#684=ORIENTED_EDGE('',*,*,#493,.T.);
#685=ORIENTED_EDGE('',*,*,#456,.F.);
#686=ORIENTED_EDGE('',*,*,#495,.F.);
#687=ORIENTED_EDGE('',*,*,#496,.F.);
#688=ORIENTED_EDGE('',*,*,#495,.T.);
#689=ORIENTED_EDGE('',*,*,#455,.F.);
#690=ORIENTED_EDGE('',*,*,#497,.F.);
#691=ORIENTED_EDGE('',*,*,#498,.F.);
#692=ORIENTED_EDGE('',*,*,#497,.T.);
#693=ORIENTED_EDGE('',*,*,#454,.F.);
#694=ORIENTED_EDGE('',*,*,#499,.F.);
#695=ORIENTED_EDGE('',*,*,#500,.F.);
#696=ORIENTED_EDGE('',*,*,#499,.T.);
#697=ORIENTED_EDGE('',*,*,#453,.F.);
#698=ORIENTED_EDGE('',*,*,#486,.F.);
#699=ORIENTED_EDGE('',*,*,#397,.F.);
#700=ORIENTED_EDGE('',*,*,#451,.F.);
#701=ORIENTED_EDGE('',*,*,#452,.F.);
#702=ORIENTED_EDGE('',*,*,#437,.F.);
#703=ORIENTED_EDGE('',*,*,#485,.T.);
#704=ORIENTED_EDGE('',*,*,#488,.T.);
#705=ORIENTED_EDGE('',*,*,#490,.T.);
#706=ORIENTED_EDGE('',*,*,#492,.T.);
#707=ORIENTED_EDGE('',*,*,#494,.T.);
#708=ORIENTED_EDGE('',*,*,#496,.T.);
#709=ORIENTED_EDGE('',*,*,#498,.T.);
#710=ORIENTED_EDGE('',*,*,#500,.T.);
#711=ORIENTED_EDGE('',*,*,#461,.T.);
#712=ORIENTED_EDGE('',*,*,#465,.T.);
#713=ORIENTED_EDGE('',*,*,#468,.T.);
#714=ORIENTED_EDGE('',*,*,#471,.T.);
#715=ORIENTED_EDGE('',*,*,#473,.T.);
#716=ORIENTED_EDGE('',*,*,#477,.T.);
#717=ORIENTED_EDGE('',*,*,#480,.T.);
#718=ORIENTED_EDGE('',*,*,#483,.T.);
#719=TOROIDAL_SURFACE('',#784,2.,0.5);
#720=TOROIDAL_SURFACE('',#790,2.,0.5);
#721=TOROIDAL_SURFACE('',#796,2.,0.5);
#722=TOROIDAL_SURFACE('',#800,25.5000007301568,0.5);
#723=TOROIDAL_SURFACE('',#806,2.,0.5);
#724=TOROIDAL_SURFACE('',#812,25.5000007301568,0.5);
#725=ADVANCED_FACE('',(#185),#719,.T.);
#726=ADVANCED_FACE('',(#186),#171,.T.);
#727=ADVANCED_FACE('',(#187),#720,.T.);
#728=ADVANCED_FACE('',(#188),#172,.T.);
#729=ADVANCED_FACE('',(#189),#721,.T.);
#730=ADVANCED_FACE('',(#190),#41,.F.);
#731=ADVANCED_FACE('',(#191),#722,.T.);
#732=ADVANCED_FACE('',(#192),#173,.T.);
#733=ADVANCED_FACE('',(#193),#723,.T.);
#734=ADVANCED_FACE('',(#194),#174,.T.);
#735=ADVANCED_FACE('',(#195),#724,.T.);
#736=ADVANCED_FACE('',(#196),#42,.F.);
#737=ADVANCED_FACE('',(#197),#19,.T.);
#738=ADVANCED_FACE('',(#198),#175,.T.);
#739=ADVANCED_FACE('',(#199),#20,.T.);
#740=ADVANCED_FACE('',(#200),#176,.T.);
#741=ADVANCED_FACE('',(#201),#177,.F.);
#742=ADVANCED_FACE('',(#202),#21,.T.);
#743=ADVANCED_FACE('',(#203),#178,.F.);
#744=ADVANCED_FACE('',(#204),#179,.T.);
#745=ADVANCED_FACE('',(#205),#22,.T.);
#746=ADVANCED_FACE('',(#206),#23,.T.);
#747=ADVANCED_FACE('',(#207),#180,.T.);
#748=ADVANCED_FACE('',(#208,#16),#24,.F.);
#749=ADVANCED_FACE('',(#209),#25,.T.);
#750=ADVANCED_FACE('',(#210),#26,.T.);
#751=ADVANCED_FACE('',(#211),#27,.T.);
#752=ADVANCED_FACE('',(#212),#28,.T.);
#753=ADVANCED_FACE('',(#213),#29,.T.);
#754=ADVANCED_FACE('',(#214),#30,.T.);
#755=ADVANCED_FACE('',(#215),#31,.T.);
#756=ADVANCED_FACE('',(#216),#32,.T.);
#757=ADVANCED_FACE('',(#217),#33,.T.);
#758=ADVANCED_FACE('',(#218),#34,.T.);
#759=ADVANCED_FACE('',(#219),#15,.F.);
#760=ADVANCED_FACE('',(#220),#35,.T.);
#761=ADVANCED_FACE('',(#221),#181,.F.);
#762=ADVANCED_FACE('',(#222),#36,.T.);
#763=ADVANCED_FACE('',(#223),#182,.F.);
#764=ADVANCED_FACE('',(#224),#37,.T.);
#765=ADVANCED_FACE('',(#225),#183,.F.);
#766=ADVANCED_FACE('',(#226),#38,.T.);
#767=ADVANCED_FACE('',(#227),#184,.F.);
#768=ADVANCED_FACE('',(#228),#39,.T.);
#769=ADVANCED_FACE('',(#229,#17,#18),#40,.F.);
#770=CLOSED_SHELL('',(#725,#726,#727,#728,#729,#730,#731,#732,#733,#734,
#735,#736,#737,#738,#739,#740,#741,#742,#743,#744,#745,#746,#747,#748,#749,
#750,#751,#752,#753,#754,#755,#756,#757,#758,#759,#760,#761,#762,#763,#764,
#765,#766,#767,#768,#769));
#771=DERIVED_UNIT_ELEMENT(#773,1.);
#772=DERIVED_UNIT_ELEMENT(#1462,-3.);
#773=(
MASS_UNIT()
NAMED_UNIT(*)
SI_UNIT(.KILO.,.GRAM.)
);
#774=DERIVED_UNIT((#771,#772));
#775=MEASURE_REPRESENTATION_ITEM('density measure',
POSITIVE_RATIO_MEASURE(7850.),#774);
#776=PROPERTY_DEFINITION_REPRESENTATION(#781,#778);
#777=PROPERTY_DEFINITION_REPRESENTATION(#782,#779);
#778=REPRESENTATION('material name',(#780),#1459);
#779=REPRESENTATION('density',(#775),#1459);
#780=DESCRIPTIVE_REPRESENTATION_ITEM('Steel','Steel');
#781=PROPERTY_DEFINITION('material property','material name',#1469);
#782=PROPERTY_DEFINITION('material property','density of part',#1469);
#783=AXIS2_PLACEMENT_3D('',#1090,#864,#865);
#784=AXIS2_PLACEMENT_3D('',#1091,#866,#867);
#785=AXIS2_PLACEMENT_3D('',#1094,#868,#869);
#786=AXIS2_PLACEMENT_3D('',#1096,#870,#871);
#787=AXIS2_PLACEMENT_3D('',#1098,#872,#873);
#788=AXIS2_PLACEMENT_3D('',#1142,#874,#875);
#789=AXIS2_PLACEMENT_3D('',#1145,#876,#877);
#790=AXIS2_PLACEMENT_3D('',#1148,#880,#881);
#791=AXIS2_PLACEMENT_3D('',#1151,#882,#883);
#792=AXIS2_PLACEMENT_3D('',#1152,#884,#885);
#793=AXIS2_PLACEMENT_3D('',#1153,#886,#887);
#794=AXIS2_PLACEMENT_3D('',#1154,#888,#889);
#795=AXIS2_PLACEMENT_3D('',#1157,#890,#891);
#796=AXIS2_PLACEMENT_3D('',#1160,#894,#895);
#797=AXIS2_PLACEMENT_3D('',#1162,#896,#897);
#798=AXIS2_PLACEMENT_3D('',#1164,#898,#899);
#799=AXIS2_PLACEMENT_3D('',#1235,#900,#901);
#800=AXIS2_PLACEMENT_3D('',#1247,#902,#903);
#801=AXIS2_PLACEMENT_3D('',#1250,#904,#905);
#802=AXIS2_PLACEMENT_3D('',#1251,#906,#907);
#803=AXIS2_PLACEMENT_3D('',#1252,#908,#909);
#804=AXIS2_PLACEMENT_3D('',#1253,#910,#911);
#805=AXIS2_PLACEMENT_3D('',#1256,#912,#913);
#806=AXIS2_PLACEMENT_3D('',#1259,#916,#917);
#807=AXIS2_PLACEMENT_3D('',#1262,#918,#919);
#808=AXIS2_PLACEMENT_3D('',#1263,#920,#921);
#809=AXIS2_PLACEMENT_3D('',#1264,#922,#923);
#810=AXIS2_PLACEMENT_3D('',#1265,#924,#925);
#811=AXIS2_PLACEMENT_3D('',#1268,#926,#927);
#812=AXIS2_PLACEMENT_3D('',#1271,#930,#931);
#813=AXIS2_PLACEMENT_3D('',#1274,#932,#933);
#814=AXIS2_PLACEMENT_3D('',#1275,#934,#935);
#815=AXIS2_PLACEMENT_3D('',#1276,#936,#937);
#816=AXIS2_PLACEMENT_3D('',#1310,#938,#939);
#817=AXIS2_PLACEMENT_3D('',#1316,#943,#944);
#818=AXIS2_PLACEMENT_3D('',#1319,#946,#947);
#819=AXIS2_PLACEMENT_3D('',#1320,#948,#949);
#820=AXIS2_PLACEMENT_3D('',#1324,#952,#953);
#821=AXIS2_PLACEMENT_3D('',#1327,#955,#956);
#822=AXIS2_PLACEMENT_3D('',#1328,#957,#958);
#823=AXIS2_PLACEMENT_3D('',#1332,#960,#961);
#824=AXIS2_PLACEMENT_3D('',#1334,#963,#964);
#825=AXIS2_PLACEMENT_3D('',#1336,#966,#967);
#826=AXIS2_PLACEMENT_3D('',#1339,#969,#970);
#827=AXIS2_PLACEMENT_3D('',#1340,#971,#972);
#828=AXIS2_PLACEMENT_3D('',#1342,#973,#974);
#829=AXIS2_PLACEMENT_3D('',#1344,#976,#977);
#830=AXIS2_PLACEMENT_3D('',#1345,#978,#979);
#831=AXIS2_PLACEMENT_3D('',#1346,#980,#981);
#832=AXIS2_PLACEMENT_3D('',#1350,#984,#985);
#833=AXIS2_PLACEMENT_3D('',#1352,#986,#987);
#834=AXIS2_PLACEMENT_3D('',#1354,#989,#990);
#835=AXIS2_PLACEMENT_3D('',#1358,#992,#993);
#836=AXIS2_PLACEMENT_3D('',#1362,#995,#996);
#837=AXIS2_PLACEMENT_3D('',#1366,#998,#999);
#838=AXIS2_PLACEMENT_3D('',#1370,#1001,#1002);
#839=AXIS2_PLACEMENT_3D('',#1372,#1004,#1005);
#840=AXIS2_PLACEMENT_3D('',#1381,#1010,#1011);
#841=AXIS2_PLACEMENT_3D('',#1387,#1015,#1016);
#842=AXIS2_PLACEMENT_3D('',#1393,#1020,#1021);
#843=AXIS2_PLACEMENT_3D('',#1396,#1024,#1025);
#844=AXIS2_PLACEMENT_3D('',#1397,#1026,#1027);
#845=AXIS2_PLACEMENT_3D('',#1406,#1032,#1033);
#846=AXIS2_PLACEMENT_3D('',#1412,#1037,#1038);
#847=AXIS2_PLACEMENT_3D('',#1418,#1042,#1043);
#848=AXIS2_PLACEMENT_3D('',#1421,#1046,#1047);
#849=AXIS2_PLACEMENT_3D('',#1422,#1048,#1049);
#850=AXIS2_PLACEMENT_3D('',#1423,#1050,#1051);
#851=AXIS2_PLACEMENT_3D('',#1429,#1055,#1056);
#852=AXIS2_PLACEMENT_3D('',#1431,#1057,#1058);
#853=AXIS2_PLACEMENT_3D('',#1433,#1060,#1061);
#854=AXIS2_PLACEMENT_3D('',#1437,#1064,#1065);
#855=AXIS2_PLACEMENT_3D('',#1439,#1066,#1067);
#856=AXIS2_PLACEMENT_3D('',#1441,#1069,#1070);
#857=AXIS2_PLACEMENT_3D('',#1445,#1073,#1074);
#858=AXIS2_PLACEMENT_3D('',#1447,#1075,#1076);
#859=AXIS2_PLACEMENT_3D('',#1449,#1078,#1079);
#860=AXIS2_PLACEMENT_3D('',#1453,#1082,#1083);
#861=AXIS2_PLACEMENT_3D('',#1454,#1084,#1085);
#862=AXIS2_PLACEMENT_3D('',#1455,#1086,#1087);
#863=AXIS2_PLACEMENT_3D('',#1456,#1088,#1089);
#864=DIRECTION('axis',(0.,0.,1.));
#865=DIRECTION('refdir',(1.,0.,0.));
#866=DIRECTION('center_axis',(0.,0.,-1.));
#867=DIRECTION('ref_axis',(-1.,0.,0.));
#868=DIRECTION('center_axis',(0.,0.,-1.));
#869=DIRECTION('ref_axis',(-0.774596682707605,-0.632455515541113,0.));
#870=DIRECTION('center_axis',(0.,-1.,0.));
#871=DIRECTION('ref_axis',(0.,0.,1.));
#872=DIRECTION('center_axis',(0.,0.,1.));
#873=DIRECTION('ref_axis',(-0.774596682707605,-0.632455515541113,0.));
#874=DIRECTION('center_axis',(0.,-1.,0.));
#875=DIRECTION('ref_axis',(-0.707106781186548,0.,0.707106781186547));
#876=DIRECTION('center_axis',(0.,-1.,0.));
#877=DIRECTION('ref_axis',(0.,0.,1.));
#878=DIRECTION('',(0.,-1.,0.));
#879=DIRECTION('',(0.,1.,0.));
#880=DIRECTION('center_axis',(0.,0.,-1.));
#881=DIRECTION('ref_axis',(-1.,0.,0.));
#882=DIRECTION('center_axis',(-1.,0.,0.));
#883=DIRECTION('ref_axis',(0.,0.,1.));
#884=DIRECTION('center_axis',(0.,0.,1.));
#885=DIRECTION('ref_axis',(-0.707106781186547,0.707106781186547,0.));
#886=DIRECTION('center_axis',(0.,0.,-1.));
#887=DIRECTION('ref_axis',(-0.707106781186547,0.707106781186547,0.));
#888=DIRECTION('center_axis',(-1.,0.,0.));
#889=DIRECTION('ref_axis',(0.,0.707106781186548,0.707106781186547));
#890=DIRECTION('center_axis',(-1.,0.,0.));
#891=DIRECTION('ref_axis',(0.,0.,1.));
#892=DIRECTION('',(-1.,0.,0.));
#893=DIRECTION('',(1.,0.,0.));
#894=DIRECTION('center_axis',(0.,0.,-1.));
#895=DIRECTION('ref_axis',(-1.,0.,0.));
#896=DIRECTION('center_axis',(0.,0.,1.));
#897=DIRECTION('ref_axis',(0.63245551554111,0.774596682707607,0.));
#898=DIRECTION('center_axis',(0.,0.,-1.));
#899=DIRECTION('ref_axis',(0.63245551554111,0.774596682707607,0.));
#900=DIRECTION('center_axis',(-2.82998017781594E-16,0.96696690435053,0.254901953485556));
#901=DIRECTION('ref_axis',(0.,-0.254901953485556,0.96696690435053));
#902=DIRECTION('center_axis',(-1.,-4.44089209850063E-16,0.));
#903=DIRECTION('ref_axis',(0.,0.,1.));
#904=DIRECTION('center_axis',(0.,1.,4.93432455388934E-16));
#905=DIRECTION('ref_axis',(0.,-4.93432455388934E-16,1.));
#906=DIRECTION('center_axis',(1.,4.44089209850063E-16,0.));
#907=DIRECTION('ref_axis',(-5.82344575965038E-17,0.131132340765869,-0.991364871883841));
#908=DIRECTION('center_axis',(-1.,-4.44089209850063E-16,0.));
#909=DIRECTION('ref_axis',(-5.82867070904833E-17,0.131132340765869,-0.991364871883841));
#910=DIRECTION('center_axis',(4.44089209850063E-16,-1.,0.));
#911=DIRECTION('ref_axis',(0.707106781186548,0.,0.707106781186547));
#912=DIRECTION('center_axis',(0.,1.,0.));
#913=DIRECTION('ref_axis',(0.,0.,1.));
#914=DIRECTION('',(-4.44089209850063E-16,1.,0.));
#915=DIRECTION('',(4.44089209850063E-16,-1.,0.));
#916=DIRECTION('center_axis',(0.,0.,-1.));
#917=DIRECTION('ref_axis',(-1.,0.,0.));
#918=DIRECTION('center_axis',(1.,0.,0.));
#919=DIRECTION('ref_axis',(0.,0.,1.));
#920=DIRECTION('center_axis',(0.,0.,1.));
#921=DIRECTION('ref_axis',(0.707106781186548,-0.707106781186547,0.));
#922=DIRECTION('center_axis',(0.,0.,-1.));
#923=DIRECTION('ref_axis',(0.707106781186548,-0.707106781186547,0.));
#924=DIRECTION('center_axis',(-1.,-4.44089209850063E-16,0.));
#925=DIRECTION('ref_axis',(0.,-0.707106781186548,0.707106781186547));
#926=DIRECTION('center_axis',(1.,0.,4.93432455388978E-16));
#927=DIRECTION('ref_axis',(-4.93432455388978E-16,0.,1.));
#928=DIRECTION('',(1.,4.44089209850063E-16,0.));
#929=DIRECTION('',(-1.,-4.44089209850063E-16,0.));
#930=DIRECTION('center_axis',(-4.44089209850063E-16,1.,0.));
#931=DIRECTION('ref_axis',(0.,0.,1.));
#932=DIRECTION('center_axis',(0.96696690435053,1.72260081584854E-15,-0.254901953485557));
#933=DIRECTION('ref_axis',(0.254901953485557,0.,0.96696690435053));
#934=DIRECTION('center_axis',(4.44089209850063E-16,-1.,0.));
#935=DIRECTION('ref_axis',(-0.13113234076587,-5.82344575965042E-17,-0.991364871883841));
#936=DIRECTION('center_axis',(-4.44089209850063E-16,1.,0.));
#937=DIRECTION('ref_axis',(-0.13113234076587,-5.82867070904833E-17,-0.991364871883841));
#938=DIRECTION('center_axis',(1.,4.44089209850063E-16,0.));
#939=DIRECTION('ref_axis',(-4.44089209850063E-16,1.,0.));
#940=DIRECTION('',(0.,0.,1.));
#941=DIRECTION('',(4.44089209850063E-16,-1.,0.));
#942=DIRECTION('',(0.,0.,-1.));
#943=DIRECTION('center_axis',(0.,0.,1.));
#944=DIRECTION('ref_axis',(0.707106781186548,-0.707106781186547,0.));
#945=DIRECTION('',(0.,0.,-1.));
#946=DIRECTION('center_axis',(0.,0.,1.));
#947=DIRECTION('ref_axis',(0.707106781186548,-0.707106781186547,0.));
#948=DIRECTION('center_axis',(4.44089209850063E-16,-1.,0.));
#949=DIRECTION('ref_axis',(1.,4.44089209850063E-16,0.));
#950=DIRECTION('',(0.,0.,1.));
#951=DIRECTION('',(-1.,-4.44089209850063E-16,0.));
#952=DIRECTION('center_axis',(0.,0.,1.));
#953=DIRECTION('ref_axis',(-0.707106781186547,-0.707106781186547,0.));
#954=DIRECTION('',(0.,0.,-1.));
#955=DIRECTION('center_axis',(0.,0.,1.));
#956=DIRECTION('ref_axis',(-0.707106781186547,-0.707106781186547,0.));
#957=DIRECTION('center_axis',(4.93432455388958E-16,-1.,0.));
#958=DIRECTION('ref_axis',(-0.279999995994568,-1.38161085532498E-16,-0.960000001168251));
#959=DIRECTION('',(-4.93432455388958E-16,1.,0.));
#960=DIRECTION('center_axis',(4.44089209850063E-16,-1.,0.));
#961=DIRECTION('ref_axis',(-0.279999995994568,-1.24344976979249E-16,-0.960000001168251));
#962=DIRECTION('',(0.,1.,0.));
#963=DIRECTION('center_axis',(0.,0.,1.));
#964=DIRECTION('ref_axis',(-1.,0.,0.));
#965=DIRECTION('',(-1.,-4.93432455388958E-16,0.));
#966=DIRECTION('center_axis',(1.,4.93432455388958E-16,0.));
#967=DIRECTION('ref_axis',(-1.38161085532498E-16,0.279999995994568,-0.960000001168251));
#968=DIRECTION('',(1.,0.,0.));
#969=DIRECTION('center_axis',(-1.,-5.0532154980743E-16,0.));
#970=DIRECTION('ref_axis',(-1.4149003192205E-16,0.279999995994568,-0.960000001168251));
#971=DIRECTION('center_axis',(0.,0.,1.));
#972=DIRECTION('ref_axis',(0.707106781186547,0.707106781186547,0.));
#973=DIRECTION('center_axis',(0.,0.,1.));
#974=DIRECTION('ref_axis',(0.707106781186547,0.707106781186547,0.));
#975=DIRECTION('',(0.,0.,1.));
#976=DIRECTION('center_axis',(0.,0.,1.));
#977=DIRECTION('ref_axis',(1.,0.,0.));
#978=DIRECTION('center_axis',(0.,0.,-1.));
#979=DIRECTION('ref_axis',(-1.,0.,0.));
#980=DIRECTION('center_axis',(0.,1.,0.));
#981=DIRECTION('ref_axis',(-1.,0.,0.));
#982=DIRECTION('',(1.,0.,0.));
#983=DIRECTION('',(0.,0.,-1.));
#984=DIRECTION('center_axis',(0.,0.,1.));
#985=DIRECTION('ref_axis',(-0.707106781186547,0.707106781186547,0.));
#986=DIRECTION('center_axis',(0.,0.,1.));
#987=DIRECTION('ref_axis',(-0.707106781186547,0.707106781186547,0.));
#988=DIRECTION('',(0.,0.,1.));
#989=DIRECTION('center_axis',(0.,0.,1.));
#990=DIRECTION('ref_axis',(1.,0.,0.));
#991=DIRECTION('',(0.,1.,0.));
#992=DIRECTION('center_axis',(0.,0.,1.));
#993=DIRECTION('ref_axis',(0.,1.,0.));
#994=DIRECTION('',(0.,-1.,0.));
#995=DIRECTION('center_axis',(0.,0.,1.));
#996=DIRECTION('ref_axis',(-1.,-4.22942104619107E-15,0.));
#997=DIRECTION('',(1.,-8.54017711250121E-17,0.));
#998=DIRECTION('center_axis',(0.,0.,1.));
#999=DIRECTION('ref_axis',(3.1720657846433E-15,-1.,0.));
#1000=DIRECTION('',(8.54017711250123E-17,1.,0.));
#1001=DIRECTION('center_axis',(0.,0.,1.));
#1002=DIRECTION('ref_axis',(1.,2.11471052309553E-15,0.));
#1003=DIRECTION('',(-1.,0.,0.));
#1004=DIRECTION('center_axis',(0.,1.,0.));
#1005=DIRECTION('ref_axis',(1.,0.,0.));
#1006=DIRECTION('',(-1.,0.,0.));
#1007=DIRECTION('',(0.,0.,-1.));
#1008=DIRECTION('',(1.,0.,0.));
#1009=DIRECTION('',(0.,0.,-1.));
#1010=DIRECTION('center_axis',(-1.,0.,0.));
#1011=DIRECTION('ref_axis',(0.,1.,0.));
#1012=DIRECTION('',(0.,-1.,0.));
#1013=DIRECTION('',(0.,1.,0.));
#1014=DIRECTION('',(0.,0.,-1.));
#1015=DIRECTION('center_axis',(0.,-1.,0.));
#1016=DIRECTION('ref_axis',(-1.,0.,0.));
#1017=DIRECTION('',(1.,0.,0.));
#1018=DIRECTION('',(-1.,0.,0.));
#1019=DIRECTION('',(0.,0.,-1.));
#1020=DIRECTION('center_axis',(1.,0.,0.));
#1021=DIRECTION('ref_axis',(0.,-1.,0.));
#1022=DIRECTION('',(0.,1.,0.));
#1023=DIRECTION('',(0.,-1.,0.));
#1024=DIRECTION('center_axis',(0.,0.,-1.));
#1025=DIRECTION('ref_axis',(-1.,0.,0.));
#1026=DIRECTION('center_axis',(0.,1.,0.));
#1027=DIRECTION('ref_axis',(1.,0.,0.));
#1028=DIRECTION('',(-1.,0.,0.));
#1029=DIRECTION('',(0.,0.,-1.));
#1030=DIRECTION('',(1.,0.,0.));
#1031=DIRECTION('',(0.,0.,-1.));
#1032=DIRECTION('center_axis',(-1.,0.,0.));
#1033=DIRECTION('ref_axis',(0.,1.,0.));
#1034=DIRECTION('',(0.,-1.,0.));
#1035=DIRECTION('',(0.,1.,0.));
#1036=DIRECTION('',(0.,0.,-1.));
#1037=DIRECTION('center_axis',(0.,-1.,0.));
#1038=DIRECTION('ref_axis',(-1.,0.,0.));
#1039=DIRECTION('',(1.,0.,0.));
#1040=DIRECTION('',(-1.,0.,0.));
#1041=DIRECTION('',(0.,0.,-1.));
#1042=DIRECTION('center_axis',(1.,0.,0.));
#1043=DIRECTION('ref_axis',(0.,-1.,0.));
#1044=DIRECTION('',(0.,1.,0.));
#1045=DIRECTION('',(0.,-1.,0.));
#1046=DIRECTION('center_axis',(0.,0.,-1.));
#1047=DIRECTION('ref_axis',(-1.,0.,0.));
#1048=DIRECTION('center_axis',(6.12323399573676E-17,0.,1.));
#1049=DIRECTION('ref_axis',(1.,0.,0.));
#1050=DIRECTION('center_axis',(0.,-1.,0.));
#1051=DIRECTION('ref_axis',(-1.,0.,0.));
#1052=DIRECTION('',(1.,0.,0.));
#1053=DIRECTION('',(0.,0.,-1.));
#1054=DIRECTION('',(0.,0.,-1.));
#1055=DIRECTION('center_axis',(0.,0.,-1.));
#1056=DIRECTION('ref_axis',(1.,2.11471052309553E-15,0.));
#1057=DIRECTION('center_axis',(0.,0.,-1.));
#1058=DIRECTION('ref_axis',(1.,2.11471052309553E-15,0.));
#1059=DIRECTION('',(0.,0.,-1.));
#1060=DIRECTION('center_axis',(-1.,8.54017711250123E-17,0.));
#1061=DIRECTION('ref_axis',(8.54017711250123E-17,1.,0.));
#1062=DIRECTION('',(-8.54017711250123E-17,-1.,0.));
#1063=DIRECTION('',(0.,0.,-1.));
#1064=DIRECTION('center_axis',(0.,0.,-1.));
#1065=DIRECTION('ref_axis',(3.1720657846433E-15,-1.,0.));
#1066=DIRECTION('center_axis',(0.,0.,-1.));
#1067=DIRECTION('ref_axis',(3.1720657846433E-15,-1.,0.));
#1068=DIRECTION('',(0.,0.,-1.));
#1069=DIRECTION('center_axis',(8.54017711250121E-17,1.,0.));
#1070=DIRECTION('ref_axis',(1.,-8.54017711250121E-17,0.));
#1071=DIRECTION('',(-1.,8.54017711250121E-17,0.));
#1072=DIRECTION('',(0.,0.,-1.));
#1073=DIRECTION('center_axis',(0.,0.,-1.));
#1074=DIRECTION('ref_axis',(-1.,-4.22942104619107E-15,0.));
#1075=DIRECTION('center_axis',(0.,0.,-1.));
#1076=DIRECTION('ref_axis',(-1.,-4.22942104619107E-15,0.));
#1077=DIRECTION('',(0.,0.,-1.));
#1078=DIRECTION('center_axis',(1.,0.,0.));
#1079=DIRECTION('ref_axis',(0.,-1.,0.));
#1080=DIRECTION('',(0.,1.,0.));
#1081=DIRECTION('',(0.,0.,-1.));
#1082=DIRECTION('center_axis',(0.,0.,-1.));
#1083=DIRECTION('ref_axis',(0.,1.,0.));
#1084=DIRECTION('center_axis',(0.,0.,-1.));
#1085=DIRECTION('ref_axis',(0.,1.,0.));
#1086=DIRECTION('center_axis',(-1.,0.,0.));
#1087=DIRECTION('ref_axis',(0.,-1.,0.));
#1088=DIRECTION('center_axis',(0.,0.,1.));
#1089=DIRECTION('ref_axis',(1.,0.,0.));
#1090=CARTESIAN_POINT('',(0.,0.,0.));
#1091=CARTESIAN_POINT('Origin',(-6.5,-6.49999999999998,1.5));
#1092=CARTESIAN_POINT('',(-7.00569641961933,-8.4350119201659,2.));
#1093=CARTESIAN_POINT('',(-8.5,-6.49999999999998,2.));
#1094=CARTESIAN_POINT('Origin',(-6.5,-6.49999999999998,2.));
#1095=CARTESIAN_POINT('',(-9.,-6.49999999999998,1.5));
#1096=CARTESIAN_POINT('Origin',(-8.5,-6.49999999999998,1.5));
#1097=CARTESIAN_POINT('',(-7.21383489390656,-8.89592148123459,1.5));
#1098=CARTESIAN_POINT('Origin',(-6.5,-6.49999999999998,1.5));
#1099=CARTESIAN_POINT('Ctrl Pts',(-7.21383196381647,-8.89591393262517,1.50000212655518));
#1100=CARTESIAN_POINT('Ctrl Pts',(-7.21369067416061,-8.89595597312542,1.50108310697652));
#1101=CARTESIAN_POINT('Ctrl Pts',(-7.21354833604963,-8.89599450458464,1.50216410554359));
#1102=CARTESIAN_POINT('Ctrl Pts',(-7.21340495386384,-8.89602953402525,1.50324510535733));
#1103=CARTESIAN_POINT('Ctrl Pts',(-7.20993097195963,-8.89687825621555,1.52943646079414));
#1104=CARTESIAN_POINT('Ctrl Pts',(-7.20585204260777,-8.895673797477,1.55557730070592));
#1105=CARTESIAN_POINT('Ctrl Pts',(-7.20123046486637,-8.89251294595316,1.58142771797794));
#1106=CARTESIAN_POINT('Ctrl Pts',(-7.19993643256387,-8.89162791399998,1.58866578187186));
#1107=CARTESIAN_POINT('Ctrl Pts',(-7.19859978549879,-8.89058919582035,1.59588105611738));
#1108=CARTESIAN_POINT('Ctrl Pts',(-7.19722174434339,-8.88939821565895,1.60306816373793));
#1109=CARTESIAN_POINT('Ctrl Pts',(-7.19227227148339,-8.88512060467281,1.62888190229752));
#1110=CARTESIAN_POINT('Ctrl Pts',(-7.18680861322808,-8.8788990100465,1.65423432365315));
#1111=CARTESIAN_POINT('Ctrl Pts',(-7.18089128562896,-8.87081268995795,1.67887854200265));
#1112=CARTESIAN_POINT('Ctrl Pts',(-7.17926572302231,-8.86859127846075,1.68564861162416));
#1113=CARTESIAN_POINT('Ctrl Pts',(-7.17760587718589,-8.86622885421367,1.6923651523803));
#1114=CARTESIAN_POINT('Ctrl Pts',(-7.1759129176665,-8.86372642192991,1.69902279797175));
#1115=CARTESIAN_POINT('Ctrl Pts',(-7.16977395690928,-8.85465217448831,1.72316455951613));
#1116=CARTESIAN_POINT('Ctrl Pts',(-7.16323657804966,-8.84379138610828,1.74639716615037));
#1117=CARTESIAN_POINT('Ctrl Pts',(-7.15636015222889,-8.83122476665179,1.76848088055565));
#1118=CARTESIAN_POINT('Ctrl Pts',(-7.15029817417703,-8.82014654472127,1.78794898731888));
#1119=CARTESIAN_POINT('Ctrl Pts',(-7.14397237081089,-8.80774175054642,1.80652470280948));
#1120=CARTESIAN_POINT('Ctrl Pts',(-7.13742166947405,-8.79403629709211,1.82402748037961));
#1121=CARTESIAN_POINT('Ctrl Pts',(-7.1330204998295,-8.78482811882139,1.83578693778362));
#1122=CARTESIAN_POINT('Ctrl Pts',(-7.12851775746348,-8.77503218147743,1.84706165088392));
#1123=CARTESIAN_POINT('Ctrl Pts',(-7.12392710060903,-8.76469003105651,1.85783036920467));
#1124=CARTESIAN_POINT('Ctrl Pts',(-7.11624768283657,-8.747389305634,1.87584467292652));
#1125=CARTESIAN_POINT('Ctrl Pts',(-7.10838029107783,-8.72869146877826,1.89231052575845));
#1126=CARTESIAN_POINT('Ctrl Pts',(-7.10038806981053,-8.7088295259646,1.90716416269476));
#1127=CARTESIAN_POINT('Ctrl Pts',(-7.09226956644205,-8.68865375201586,1.92225249639682));
#1128=CARTESIAN_POINT('Ctrl Pts',(-7.08402174859218,-8.66727572670928,1.93567787287274));
#1129=CARTESIAN_POINT('Ctrl Pts',(-7.07571950802335,-8.64490516714922,1.94733450597301));
#1130=CARTESIAN_POINT('Ctrl Pts',(-7.07193352149991,-8.63470374786803,1.9526501620854));
#1131=CARTESIAN_POINT('Ctrl Pts',(-7.06813638323054,-8.62429555714829,1.95759741469511));
#1132=CARTESIAN_POINT('Ctrl Pts',(-7.06433623565265,-8.61369909228499,1.96216306108298));
#1133=CARTESIAN_POINT('Ctrl Pts',(-7.05601604255602,-8.590498773877,1.97215926748799));
#1134=CARTESIAN_POINT('Ctrl Pts',(-7.04774536560255,-8.56657820017613,1.98025126078993));
#1135=CARTESIAN_POINT('Ctrl Pts',(-7.03959936676895,-8.5421556407732,1.98635084264646));
#1136=CARTESIAN_POINT('Ctrl Pts',(-7.0316219632286,-8.51823854775302,1.99232418328779));
#1137=CARTESIAN_POINT('Ctrl Pts',(-7.02376374092961,-8.49383886452251,1.99638703862879));
#1138=CARTESIAN_POINT('Ctrl Pts',(-7.01611070382518,-8.46914507582238,1.99841324754174));
#1139=CARTESIAN_POINT('Ctrl Pts',(-7.01259815465134,-8.45781125554762,1.99934322584265));
#1140=CARTESIAN_POINT('Ctrl Pts',(-7.00912908085627,-8.44641535370789,1.99984353338564));
#1141=CARTESIAN_POINT('Ctrl Pts',(-7.00571325761663,-8.43497539881289,1.99989853796425));
#1142=CARTESIAN_POINT('Origin',(-8.5,4.49999999999999,1.5));
#1143=CARTESIAN_POINT('',(-8.5,6.49999999999998,2.));
#1144=CARTESIAN_POINT('',(-9.,6.49999999999998,1.5));
#1145=CARTESIAN_POINT('Origin',(-8.5,6.49999999999998,1.5));
#1146=CARTESIAN_POINT('',(-9.,4.49999999999999,1.5));
#1147=CARTESIAN_POINT('',(-8.5,4.49999999999999,2.));
#1148=CARTESIAN_POINT('Origin',(-6.5,6.49999999999998,1.5));
#1149=CARTESIAN_POINT('',(-6.5,8.49999999999998,2.));
#1150=CARTESIAN_POINT('',(-6.5,8.99999999999998,1.5));
#1151=CARTESIAN_POINT('Origin',(-6.5,8.49999999999998,1.5));
#1152=CARTESIAN_POINT('Origin',(-6.5,6.49999999999998,1.5));
#1153=CARTESIAN_POINT('Origin',(-6.5,6.49999999999998,2.));
#1154=CARTESIAN_POINT('Origin',(4.5,8.49999999999998,1.5));
#1155=CARTESIAN_POINT('',(6.49999999999999,8.49999999999998,2.));
#1156=CARTESIAN_POINT('',(6.49999999999999,8.99999999999998,1.5));
#1157=CARTESIAN_POINT('Origin',(6.49999999999999,8.49999999999998,1.5));
#1158=CARTESIAN_POINT('',(4.5,8.99999999999998,1.5));
#1159=CARTESIAN_POINT('',(4.5,8.49999999999998,2.));
#1160=CARTESIAN_POINT('Origin',(6.49999999999999,6.49999999999998,1.5));
#1161=CARTESIAN_POINT('',(8.89592148123458,7.21383489390659,1.5));
#1162=CARTESIAN_POINT('Origin',(6.49999999999999,6.49999999999998,1.5));
#1163=CARTESIAN_POINT('',(8.4350119201659,7.00569641961935,2.));
#1164=CARTESIAN_POINT('Origin',(6.49999999999999,6.49999999999998,2.));
#1165=CARTESIAN_POINT('Ctrl Pts',(8.43497539881289,7.00571325761665,1.99989853796425));
#1166=CARTESIAN_POINT('Ctrl Pts',(8.45979853257876,7.01312512575568,1.99977918556949));
#1167=CARTESIAN_POINT('Ctrl Pts',(8.48441425887852,7.02078630859845,1.9975664307875));
#1168=CARTESIAN_POINT('Ctrl Pts',(8.50863844444662,7.02860274448104,1.99340671567513));
#1169=CARTESIAN_POINT('Ctrl Pts',(8.53347613833151,7.03661714154619,1.98914165048567));
#1170=CARTESIAN_POINT('Ctrl Pts',(8.55790339152302,7.0447951344635,1.98282946716149));
#1171=CARTESIAN_POINT('Ctrl Pts',(8.5817121598213,7.05305490848213,1.97457860575739));
#1172=CARTESIAN_POINT('Ctrl Pts',(8.59250891714479,7.0568005359127,1.97083702000319));
#1173=CARTESIAN_POINT('Ctrl Pts',(8.6031782490472,7.06056320781148,1.96669612475523));
#1174=CARTESIAN_POINT('Ctrl Pts',(8.613699092285,7.06433623565268,1.96216306108298));
#1175=CARTESIAN_POINT('Ctrl Pts',(8.63690660860954,7.0726590100956,1.95216375334728));
#1176=CARTESIAN_POINT('Ctrl Pts',(8.65921218082551,7.0809662791004,1.94033712803315));
#1177=CARTESIAN_POINT('Ctrl Pts',(8.68041691023616,7.08917695878483,1.92680905611056));
#1178=CARTESIAN_POINT('Ctrl Pts',(8.70139364567064,7.09729935696035,1.91342643848016));
#1179=CARTESIAN_POINT('Ctrl Pts',(8.72129415622395,7.10532773627409,1.89837817728625));
#1180=CARTESIAN_POINT('Ctrl Pts',(8.73990028079706,7.11319529268822,1.88174505523566));
#1181=CARTESIAN_POINT('Ctrl Pts',(8.74844494748461,7.11680838508368,1.87410646917023));
#1182=CARTESIAN_POINT('Ctrl Pts',(8.75671617172179,7.1203876769378,1.86613311492099));
#1183=CARTESIAN_POINT('Ctrl Pts',(8.76469003105653,7.12392710060906,1.85783036920464));
#1184=CARTESIAN_POINT('Ctrl Pts',(8.77503218147744,7.12851775746351,1.8470616508839));
#1185=CARTESIAN_POINT('Ctrl Pts',(8.78482811882139,7.13302049982953,1.83578693778361));
#1186=CARTESIAN_POINT('Ctrl Pts',(8.79403629709211,7.13742166947408,1.82402748037961));
#1187=CARTESIAN_POINT('Ctrl Pts',(8.80958312573654,7.14485248024763,1.80417314395859));
#1188=CARTESIAN_POINT('Ctrl Pts',(8.82345713257583,7.15199390718005,1.78293879215613));
#1189=CARTESIAN_POINT('Ctrl Pts',(8.83561790605151,7.15878911360243,1.76058605683932));
#1190=CARTESIAN_POINT('Ctrl Pts',(8.84633835062908,7.16477949192746,1.74088079215362));
#1191=CARTESIAN_POINT('Ctrl Pts',(8.85572693349481,7.17050105889841,1.72030519560527));
#1192=CARTESIAN_POINT('Ctrl Pts',(8.86372642192993,7.17591291766654,1.6990227979717));
#1193=CARTESIAN_POINT('Ctrl Pts',(8.87283570603666,7.1820755816249,1.67478782243679));
#1194=CARTESIAN_POINT('Ctrl Pts',(8.88009345845706,7.18779992124251,1.64977398708989));
#1195=CARTESIAN_POINT('Ctrl Pts',(8.88543390601985,7.19302745820002,1.62423253524438));
#1196=CARTESIAN_POINT('Ctrl Pts',(8.88690099259164,7.19446352684103,1.61721598455534));
#1197=CARTESIAN_POINT('Ctrl Pts',(8.8882231033555,7.195862063327,1.61015951493319));
#1198=CARTESIAN_POINT('Ctrl Pts',(8.88939821565896,7.19722174434341,1.60306816373789));
#1199=CARTESIAN_POINT('Ctrl Pts',(8.89365174732378,7.20214335586965,1.57739973462956));
#1200=CARTESIAN_POINT('Ctrl Pts',(8.89596693333906,7.20653774152469,1.55137274338458));
#1201=CARTESIAN_POINT('Ctrl Pts',(8.89626115489481,7.21034578870066,1.52522852059827));
#1202=CARTESIAN_POINT('Ctrl Pts',(8.89634353632993,7.21141203413785,1.51790819157751));
#1203=CARTESIAN_POINT('Ctrl Pts',(8.89626717450475,7.21243224602717,1.51057863138422));
#1204=CARTESIAN_POINT('Ctrl Pts',(8.89602953402545,7.21340495386317,1.50324510535717));
#1205=CARTESIAN_POINT('Ctrl Pts',(8.89599450458492,7.21354833604873,1.50216410554336));
#1206=CARTESIAN_POINT('Ctrl Pts',(8.89595597312541,7.21369067416064,1.50108310697655));
#1207=CARTESIAN_POINT('Ctrl Pts',(8.89591393262516,7.2138319638165,1.50000212655518));
#1208=CARTESIAN_POINT('Ctrl Pts',(8.3948350506176,7.00000010430814,2.));
#1209=CARTESIAN_POINT('Ctrl Pts',(8.46425877984852,6.79848893007611,1.94122590842795));
#1210=CARTESIAN_POINT('Ctrl Pts',(8.49999999999999,6.58592121584992,1.88207441664087));
#1211=CARTESIAN_POINT('Ctrl Pts',(8.49999999999999,6.3725490232572,1.82582741535605));
#1212=CARTESIAN_POINT('Ctrl Pts',(8.54526893910546,7.04682715250641,2.01365788884583));
#1213=CARTESIAN_POINT('Ctrl Pts',(8.61687653436831,6.82943739711581,1.94967363691961));
#1214=CARTESIAN_POINT('Ctrl Pts',(8.65229865831937,6.60116743334893,1.88620604820728));
#1215=CARTESIAN_POINT('Ctrl Pts',(8.64959965017093,6.3725490232572,1.82582741535605));
#1216=CARTESIAN_POINT('Ctrl Pts',(8.80511649652838,7.16725615319867,1.901671126162));
#1217=CARTESIAN_POINT('Ctrl Pts',(8.88091465881637,6.91995401759756,1.83436862524678));
#1218=CARTESIAN_POINT('Ctrl Pts',(8.91567845378854,6.66173930716536,1.7673845441052));
#1219=CARTESIAN_POINT('Ctrl Pts',(8.90868308219414,6.40453802480371,1.70447759682498));
#1220=CARTESIAN_POINT('Ctrl Pts',(8.87865297204974,7.27007015081565,1.63432382914212));
#1221=CARTESIAN_POINT('Ctrl Pts',(8.96202514585024,7.01238995324116,1.57218487493733));
#1222=CARTESIAN_POINT('Ctrl Pts',(9.00314163568284,6.74203751645777,1.50985668230605));
#1223=CARTESIAN_POINT('Ctrl Pts',(8.99999999999999,6.47140006769798,1.45083739614408));
#1224=CARTESIAN_POINT('Ctrl Pts',(8.868543813272,7.30000012788179,1.51999999941588));
#1225=CARTESIAN_POINT('Ctrl Pts',(8.95532347481065,7.04307338088308,1.46005042604672));
#1226=CARTESIAN_POINT('Ctrl Pts',(8.99999999999999,6.77204954539989,1.39971590445844));
#1227=CARTESIAN_POINT('Ctrl Pts',(8.99999999999999,6.49999999999998,1.34234396318079));
#1228=CARTESIAN_POINT('',(8.39483505062471,7.00000010429781,1.99999999999699));
#1229=CARTESIAN_POINT('',(8.49999999999999,6.37254902325721,1.82582741535605));
#1230=CARTESIAN_POINT('Ctrl Pts',(8.3948350506176,7.00000010430814,2.));
#1231=CARTESIAN_POINT('Ctrl Pts',(8.46425877984852,6.79848893007611,1.94122590842795));
#1232=CARTESIAN_POINT('Ctrl Pts',(8.49999999999999,6.58592121584992,1.88207441664087));
#1233=CARTESIAN_POINT('Ctrl Pts',(8.49999999999999,6.3725490232572,1.82582741535605));
#1234=CARTESIAN_POINT('',(8.99999999999999,6.49999999999999,1.34234396318079));
#1235=CARTESIAN_POINT('Origin',(8.49999999999999,6.49999999999999,1.34234396318079));
#1236=CARTESIAN_POINT('Ctrl Pts',(8.99999999999999,6.49999999999998,1.34234396318079));
#1237=CARTESIAN_POINT('Ctrl Pts',(8.99999999999999,6.74181429422295,1.39333965761528));
#1238=CARTESIAN_POINT('Ctrl Pts',(8.96470222605336,6.98281820141108,1.44667601058712));
#1239=CARTESIAN_POINT('Ctrl Pts',(8.89591388269647,7.21383213149356,1.50000216526095));
#1240=CARTESIAN_POINT('Ctrl Pts',(8.43497539881289,7.00571325761665,1.99989853796425));
#1241=CARTESIAN_POINT('Ctrl Pts',(8.43308461650547,7.00514870176467,1.99990763100714));
#1242=CARTESIAN_POINT('Ctrl Pts',(8.43117791674645,7.00462533523203,1.99991625641544));
#1243=CARTESIAN_POINT('Ctrl Pts',(8.42925528818729,7.00414347070829,1.99992436093794));
#1244=CARTESIAN_POINT('Ctrl Pts',(8.4179768843396,7.00131678706588,1.99997190318282));
#1245=CARTESIAN_POINT('Ctrl Pts',(8.40647932900001,7.00000010430052,1.99999999999778));
#1246=CARTESIAN_POINT('Ctrl Pts',(8.3948350506215,7.00000010429681,1.99999999999669));
#1247=CARTESIAN_POINT('Origin',(8.49999999999999,3.13946399741225E-14,26.0000007301568));
#1248=CARTESIAN_POINT('',(8.49999999999999,3.13946399741225E-14,1.));
#1249=CARTESIAN_POINT('',(8.99999999999999,3.1641356201817E-14,0.500000000000002));
#1250=CARTESIAN_POINT('Origin',(8.49999999999999,3.1641356201817E-14,0.500000000000002));
#1251=CARTESIAN_POINT('Origin',(8.99999999999999,3.16166845790475E-14,26.0000007301568));
#1252=CARTESIAN_POINT('Origin',(8.49999999999999,3.13946399741225E-14,26.0000007301568));
#1253=CARTESIAN_POINT('Origin',(8.5,-4.99999997392295,0.5));
#1254=CARTESIAN_POINT('',(8.5,-6.49999999999998,1.));
#1255=CARTESIAN_POINT('',(9.,-6.49999999999998,0.5));
#1256=CARTESIAN_POINT('Origin',(8.5,-6.49999999999998,0.5));
#1257=CARTESIAN_POINT('',(9.,-4.99999997392295,0.5));
#1258=CARTESIAN_POINT('',(8.5,-4.99999997392295,1.));
#1259=CARTESIAN_POINT('Origin',(6.5,-6.49999999999998,0.5));
#1260=CARTESIAN_POINT('',(6.5,-8.49999999999998,1.));
#1261=CARTESIAN_POINT('',(6.5,-8.99999999999998,0.5));
#1262=CARTESIAN_POINT('Origin',(6.5,-8.49999999999998,0.5));
#1263=CARTESIAN_POINT('Origin',(6.5,-6.49999999999998,0.5));
#1264=CARTESIAN_POINT('Origin',(6.5,-6.49999999999998,1.));
#1265=CARTESIAN_POINT('Origin',(-4.00000002607703,-8.49999999999998,0.5));
#1266=CARTESIAN_POINT('',(-7.46316588775801E-15,-8.49999999999998,1.));
#1267=CARTESIAN_POINT('',(-7.21644966006352E-15,-8.99999999999998,0.5));
#1268=CARTESIAN_POINT('Origin',(-7.21644966006352E-15,-8.49999999999998,
0.5));
#1269=CARTESIAN_POINT('',(-4.00000002607703,-8.99999999999998,0.5));
#1270=CARTESIAN_POINT('',(-4.00000002607703,-8.49999999999998,1.));
#1271=CARTESIAN_POINT('Origin',(-7.46316588775801E-15,-8.49999999999998,
26.0000007301568));
#1272=CARTESIAN_POINT('',(-6.37254902325722,-8.49999999999998,1.82582741535606));
#1273=CARTESIAN_POINT('',(-6.5,-8.99999999999998,1.3423439631808));
#1274=CARTESIAN_POINT('Origin',(-6.5,-8.49999999999998,1.3423439631808));
#1275=CARTESIAN_POINT('Origin',(-7.24112128283298E-15,-8.99999999999998,
26.0000007301568));
#1276=CARTESIAN_POINT('Origin',(-7.46316588775801E-15,-8.49999999999998,
26.0000007301568));
#1277=CARTESIAN_POINT('Ctrl Pts',(-6.37254902325721,-8.49999999999998,1.82582741535606));
#1278=CARTESIAN_POINT('Ctrl Pts',(-6.58592121584992,-8.49999999999998,1.88207441664088));
#1279=CARTESIAN_POINT('Ctrl Pts',(-6.7984889300761,-8.46425877984852,1.94122590842795));
#1280=CARTESIAN_POINT('Ctrl Pts',(-7.00000010430812,-8.3948350506176,2.));
#1281=CARTESIAN_POINT('Ctrl Pts',(-6.37254902325721,-8.64959965017092,1.82582741535606));
#1282=CARTESIAN_POINT('Ctrl Pts',(-6.60116743334892,-8.65229865831936,1.88620604820728));
#1283=CARTESIAN_POINT('Ctrl Pts',(-6.8294373971158,-8.61687653436831,1.94967363691961));
#1284=CARTESIAN_POINT('Ctrl Pts',(-7.04682715250638,-8.54526893910546,2.01365788884583));
#1285=CARTESIAN_POINT('Ctrl Pts',(-6.40453802480372,-8.90868308219414,1.70447759682498));
#1286=CARTESIAN_POINT('Ctrl Pts',(-6.66173930716533,-8.91567845378852,1.7673845441052));
#1287=CARTESIAN_POINT('Ctrl Pts',(-6.91995401759754,-8.88091465881637,1.83436862524679));
#1288=CARTESIAN_POINT('Ctrl Pts',(-7.16725615319864,-8.80511649652839,1.901671126162));
#1289=CARTESIAN_POINT('Ctrl Pts',(-6.47140006769799,-8.99999999999998,1.45083739614409));
#1290=CARTESIAN_POINT('Ctrl Pts',(-6.74203751645773,-9.00314163568283,1.50985668230605));
#1291=CARTESIAN_POINT('Ctrl Pts',(-7.01238995324114,-8.96202514585023,1.57218487493733));
#1292=CARTESIAN_POINT('Ctrl Pts',(-7.27007015081562,-8.87865297204975,1.63432382914212));
#1293=CARTESIAN_POINT('Ctrl Pts',(-6.49999999999999,-8.99999999999998,1.3423439631808));
#1294=CARTESIAN_POINT('Ctrl Pts',(-6.77204954539985,-8.99999999999998,1.39971590445844));
#1295=CARTESIAN_POINT('Ctrl Pts',(-7.04307338088306,-8.95532347481065,1.46005042604672));
#1296=CARTESIAN_POINT('Ctrl Pts',(-7.30000012788176,-8.868543813272,1.51999999941588));
#1297=CARTESIAN_POINT('Ctrl Pts',(-7.21383213149339,-8.89591388269651,1.50000216526092));
#1298=CARTESIAN_POINT('Ctrl Pts',(-6.98281820141575,-8.96470222605337,1.44667601058811));
#1299=CARTESIAN_POINT('Ctrl Pts',(-6.74181429426596,-8.99999999999998,1.39333965762436));
#1300=CARTESIAN_POINT('Ctrl Pts',(-6.50000000038769,-8.99999999999998,1.34234396326256));
#1301=CARTESIAN_POINT('',(-7.00000010430478,-8.3948350506199,1.99999999999903));
#1302=CARTESIAN_POINT('Ctrl Pts',(-6.37254902325721,-8.49999999999998,1.82582741535606));
#1303=CARTESIAN_POINT('Ctrl Pts',(-6.58592121584992,-8.49999999999998,1.88207441664088));
#1304=CARTESIAN_POINT('Ctrl Pts',(-6.7984889300761,-8.46425877984852,1.94122590842795));
#1305=CARTESIAN_POINT('Ctrl Pts',(-7.00000010430812,-8.3948350506176,2.));
#1306=CARTESIAN_POINT('Ctrl Pts',(-7.00000010430446,-8.39483505061886,1.99999999999893));
#1307=CARTESIAN_POINT('Ctrl Pts',(-7.00000010430534,-8.40859795247621,1.99999999999919));
#1308=CARTESIAN_POINT('Ctrl Pts',(-7.00183976118255,-8.42200153974219,1.99996100493123));
#1309=CARTESIAN_POINT('Ctrl Pts',(-7.00571325761662,-8.43497539881289,1.99989853796425));
#1310=CARTESIAN_POINT('Origin',(9.,-8.99999999999998,0.));
#1311=CARTESIAN_POINT('',(9.,-6.49999999999998,-3.));
#1312=CARTESIAN_POINT('',(9.,-6.49999999999998,0.));
#1313=CARTESIAN_POINT('',(8.99999999999999,6.49999999999998,-3.));
#1314=CARTESIAN_POINT('',(9.,-6.49999999999998,-3.));
#1315=CARTESIAN_POINT('',(8.99999999999999,6.49999999999998,0.));
#1316=CARTESIAN_POINT('Origin',(6.5,-6.49999999999998,0.));
#1317=CARTESIAN_POINT('',(6.5,-8.99999999999998,-3.));
#1318=CARTESIAN_POINT('',(6.5,-8.99999999999998,0.));
#1319=CARTESIAN_POINT('Origin',(6.5,-6.49999999999998,-3.));
#1320=CARTESIAN_POINT('Origin',(-9.,-8.99999999999998,0.));
#1321=CARTESIAN_POINT('',(-6.5,-8.99999999999998,-3.));
#1322=CARTESIAN_POINT('',(-6.5,-8.99999999999998,0.));
#1323=CARTESIAN_POINT('',(-6.5,-8.99999999999998,-3.));
#1324=CARTESIAN_POINT('Origin',(-6.5,-6.49999999999998,0.));
#1325=CARTESIAN_POINT('',(-9.,-6.49999999999998,-3.));
#1326=CARTESIAN_POINT('',(-9.,-6.49999999999998,0.));
#1327=CARTESIAN_POINT('Origin',(-6.5,-6.49999999999998,-3.));
#1328=CARTESIAN_POINT('Origin',(-1.16573417585642E-14,2.1094237467878E-14,
26.0000007301568));
#1329=CARTESIAN_POINT('',(-8.88178419700126E-15,2.1094237467878E-14,1.));
#1330=CARTESIAN_POINT('',(-1.16573417585642E-14,2.1125077009207E-14,1.));
#1331=CARTESIAN_POINT('',(-7.00000010430813,0.,2.));
#1332=CARTESIAN_POINT('Origin',(-1.16573417585642E-14,2.1094237467878E-14,
26.0000007301568));
#1333=CARTESIAN_POINT('',(-7.00000010430813,-4.49999999999999,2.));
#1334=CARTESIAN_POINT('Origin',(0.999999947845935,-0.999999947845928,1.));
#1335=CARTESIAN_POINT('',(-5.52027558179672E-15,2.72004641033163E-14,1.));
#1336=CARTESIAN_POINT('Origin',(-5.55111512312579E-15,2.72004641033163E-14,
26.0000007301568));
#1337=CARTESIAN_POINT('',(0.,7.00000010430813,2.));
#1338=CARTESIAN_POINT('',(0.,7.00000010430813,2.));
#1339=CARTESIAN_POINT('Origin',(-5.55111512312579E-15,2.72004641033163E-14,
26.0000007301568));
#1340=CARTESIAN_POINT('Origin',(6.49999999999999,6.49999999999998,0.));
#1341=CARTESIAN_POINT('',(6.49999999999999,8.99999999999998,-3.));
#1342=CARTESIAN_POINT('Origin',(6.49999999999999,6.49999999999998,-3.));
#1343=CARTESIAN_POINT('',(6.49999999999999,8.99999999999998,0.));
#1344=CARTESIAN_POINT('Origin',(0.,0.,2.));
#1345=CARTESIAN_POINT('Origin',(0.,0.,2.));
#1346=CARTESIAN_POINT('Origin',(9.,8.99999999999998,0.));
#1347=CARTESIAN_POINT('',(-6.5,8.99999999999998,-3.));
#1348=CARTESIAN_POINT('',(6.5,8.99999999999998,-3.));
#1349=CARTESIAN_POINT('',(-6.5,8.99999999999998,0.));
#1350=CARTESIAN_POINT('Origin',(-6.5,6.49999999999998,0.));
#1351=CARTESIAN_POINT('',(-9.,6.49999999999998,-3.));
#1352=CARTESIAN_POINT('Origin',(-6.5,6.49999999999998,-3.));
#1353=CARTESIAN_POINT('',(-9.,6.49999999999998,0.));
#1354=CARTESIAN_POINT('Origin',(0.,0.,-3.));
#1355=CARTESIAN_POINT('',(-9.,6.49999999999998,-3.));
#1356=CARTESIAN_POINT('',(-6.5,7.54999999999998,-3.));
#1357=CARTESIAN_POINT('',(-7.55,6.49999999999998,-3.));
#1358=CARTESIAN_POINT('Origin',(-6.5,6.49999999999998,-3.));
#1359=CARTESIAN_POINT('',(-7.55,-6.49999999999999,-3.));
#1360=CARTESIAN_POINT('',(-7.55,6.49999999999998,-3.));
#1361=CARTESIAN_POINT('',(-6.5,-7.54999999999998,-3.));
#1362=CARTESIAN_POINT('Origin',(-6.5,-6.49999999999998,-3.));
#1363=CARTESIAN_POINT('',(6.5,-7.54999999999998,-3.));
#1364=CARTESIAN_POINT('',(-6.5,-7.54999999999998,-3.));
#1365=CARTESIAN_POINT('',(7.55,-6.49999999999998,-3.));
#1366=CARTESIAN_POINT('Origin',(6.5,-6.49999999999998,-3.));
#1367=CARTESIAN_POINT('',(7.55,6.49999999999998,-3.));
#1368=CARTESIAN_POINT('',(7.55,-6.49999999999998,-3.));
#1369=CARTESIAN_POINT('',(6.5,7.54999999999998,-3.));
#1370=CARTESIAN_POINT('Origin',(6.5,6.49999999999998,-3.));
#1371=CARTESIAN_POINT('',(6.5,7.54999999999998,-3.));
#1372=CARTESIAN_POINT('Origin',(2.275,1.425,0.));
#1373=CARTESIAN_POINT('',(3.425,1.425,0.));
#1374=CARTESIAN_POINT('',(2.275,1.425,0.));
#1375=CARTESIAN_POINT('',(1.1375,1.425,0.));
#1376=CARTESIAN_POINT('',(3.425,1.425,-3.));
#1377=CARTESIAN_POINT('',(3.425,1.425,0.));
#1378=CARTESIAN_POINT('',(2.275,1.425,-3.));
#1379=CARTESIAN_POINT('',(2.275,1.425,-3.));
#1380=CARTESIAN_POINT('',(2.275,1.425,0.));
#1381=CARTESIAN_POINT('Origin',(2.275,-1.425,0.));
#1382=CARTESIAN_POINT('',(2.275,-1.425,0.));
#1383=CARTESIAN_POINT('',(2.275,-0.7125,0.));
#1384=CARTESIAN_POINT('',(2.275,-1.425,-3.));
#1385=CARTESIAN_POINT('',(2.275,-1.425,-3.));
#1386=CARTESIAN_POINT('',(2.275,-1.425,0.));
#1387=CARTESIAN_POINT('Origin',(3.425,-1.425,0.));
#1388=CARTESIAN_POINT('',(3.425,-1.425,0.));
#1389=CARTESIAN_POINT('',(1.7125,-1.425,0.));
#1390=CARTESIAN_POINT('',(3.425,-1.425,-3.));
#1391=CARTESIAN_POINT('',(3.425,-1.425,-3.));
#1392=CARTESIAN_POINT('',(3.425,-1.425,0.));
#1393=CARTESIAN_POINT('Origin',(3.425,1.425,0.));
#1394=CARTESIAN_POINT('',(3.425,0.7125,0.));
#1395=CARTESIAN_POINT('',(3.425,1.425,-3.));
#1396=CARTESIAN_POINT('Origin',(2.85,0.,-3.));
#1397=CARTESIAN_POINT('Origin',(-3.425,1.475,0.));
#1398=CARTESIAN_POINT('',(-2.275,1.475,0.));
#1399=CARTESIAN_POINT('',(-3.425,1.475,0.));
#1400=CARTESIAN_POINT('',(-1.7125,1.475,0.));
#1401=CARTESIAN_POINT('',(-2.275,1.475,-3.));
#1402=CARTESIAN_POINT('',(-2.275,1.475,0.));
#1403=CARTESIAN_POINT('',(-3.425,1.475,-3.));
#1404=CARTESIAN_POINT('',(-3.425,1.475,-3.));
#1405=CARTESIAN_POINT('',(-3.425,1.475,0.));
#1406=CARTESIAN_POINT('Origin',(-3.425,-1.475,0.));
#1407=CARTESIAN_POINT('',(-3.425,-1.475,0.));
#1408=CARTESIAN_POINT('',(-3.425,-0.7375,0.));
#1409=CARTESIAN_POINT('',(-3.425,-1.475,-3.));
#1410=CARTESIAN_POINT('',(-3.425,-1.475,-3.));
#1411=CARTESIAN_POINT('',(-3.425,-1.475,0.));
#1412=CARTESIAN_POINT('Origin',(-2.275,-1.475,0.));
#1413=CARTESIAN_POINT('',(-2.275,-1.475,0.));
#1414=CARTESIAN_POINT('',(-1.1375,-1.475,0.));
#1415=CARTESIAN_POINT('',(-2.275,-1.475,-3.));
#1416=CARTESIAN_POINT('',(-2.275,-1.475,-3.));
#1417=CARTESIAN_POINT('',(-2.275,-1.475,0.));
#1418=CARTESIAN_POINT('Origin',(-2.275,1.475,0.));
#1419=CARTESIAN_POINT('',(-2.275,0.7375,0.));
#1420=CARTESIAN_POINT('',(-2.275,1.475,-3.));
#1421=CARTESIAN_POINT('Origin',(-2.85,0.,-3.));
#1422=CARTESIAN_POINT('Origin',(-1.16573417585642E-14,2.1094237467878E-14,
26.0000007301568));
#1423=CARTESIAN_POINT('Origin',(6.5,7.54999999999998,0.));
#1424=CARTESIAN_POINT('',(-6.5,7.54999999999998,0.));
#1425=CARTESIAN_POINT('',(6.5,7.54999999999998,0.));
#1426=CARTESIAN_POINT('',(3.25,7.54999999999998,0.));
#1427=CARTESIAN_POINT('',(-6.5,7.54999999999998,0.));
#1428=CARTESIAN_POINT('',(6.5,7.54999999999998,0.));
#1429=CARTESIAN_POINT('Origin',(6.5,6.49999999999998,0.));
#1430=CARTESIAN_POINT('',(7.55,6.49999999999998,0.));
#1431=CARTESIAN_POINT('Origin',(6.5,6.49999999999998,0.));
#1432=CARTESIAN_POINT('',(7.55,6.49999999999998,0.));
#1433=CARTESIAN_POINT('Origin',(7.55,-6.49999999999998,0.));
#1434=CARTESIAN_POINT('',(7.55,-6.49999999999998,0.));
#1435=CARTESIAN_POINT('',(7.55,-3.24999999999999,0.));
#1436=CARTESIAN_POINT('',(7.55,-6.49999999999998,0.));
#1437=CARTESIAN_POINT('Origin',(6.5,-6.49999999999998,0.));
#1438=CARTESIAN_POINT('',(6.5,-7.54999999999998,0.));
#1439=CARTESIAN_POINT('Origin',(6.5,-6.49999999999998,0.));
#1440=CARTESIAN_POINT('',(6.5,-7.54999999999998,0.));
#1441=CARTESIAN_POINT('Origin',(-6.5,-7.54999999999998,0.));
#1442=CARTESIAN_POINT('',(-6.5,-7.54999999999998,0.));
#1443=CARTESIAN_POINT('',(-3.25,-7.54999999999998,0.));
#1444=CARTESIAN_POINT('',(-6.5,-7.54999999999998,0.));
#1445=CARTESIAN_POINT('Origin',(-6.5,-6.49999999999998,0.));
#1446=CARTESIAN_POINT('',(-7.55,-6.49999999999999,0.));
#1447=CARTESIAN_POINT('Origin',(-6.5,-6.49999999999998,0.));
#1448=CARTESIAN_POINT('',(-7.55,-6.49999999999999,0.));
#1449=CARTESIAN_POINT('Origin',(-7.55,6.49999999999998,0.));
#1450=CARTESIAN_POINT('',(-7.55,6.49999999999998,0.));
#1451=CARTESIAN_POINT('',(-7.55,3.24999999999999,0.));
#1452=CARTESIAN_POINT('',(-7.55,6.49999999999998,0.));
#1453=CARTESIAN_POINT('Origin',(-6.5,6.49999999999998,0.));
#1454=CARTESIAN_POINT('Origin',(-6.5,6.49999999999998,0.));
#1455=CARTESIAN_POINT('Origin',(-9.,8.99999999999998,0.));
#1456=CARTESIAN_POINT('Origin',(0.,0.,0.));
#1457=UNCERTAINTY_MEASURE_WITH_UNIT(LENGTH_MEASURE(0.01),#1461,
'DISTANCE_ACCURACY_VALUE',
'Maximum model space distance between geometric entities at asserted c
onnectivities');
#1458=UNCERTAINTY_MEASURE_WITH_UNIT(LENGTH_MEASURE(0.01),#1461,
'DISTANCE_ACCURACY_VALUE',
'Maximum model space distance between geometric entities at asserted c
onnectivities');
#1459=(
GEOMETRIC_REPRESENTATION_CONTEXT(3)
GLOBAL_UNCERTAINTY_ASSIGNED_CONTEXT((#1457))
GLOBAL_UNIT_ASSIGNED_CONTEXT((#1461,#1463,#1464))
REPRESENTATION_CONTEXT('','3D')
);
#1460=(
GEOMETRIC_REPRESENTATION_CONTEXT(3)
GLOBAL_UNCERTAINTY_ASSIGNED_CONTEXT((#1458))
GLOBAL_UNIT_ASSIGNED_CONTEXT((#1461,#1463,#1464))
REPRESENTATION_CONTEXT('','3D')
);
#1461=(
LENGTH_UNIT()
NAMED_UNIT(*)
SI_UNIT(.MILLI.,.METRE.)
);
#1462=(
LENGTH_UNIT()
NAMED_UNIT(*)
SI_UNIT($,.METRE.)
);
#1463=(
NAMED_UNIT(*)
PLANE_ANGLE_UNIT()
SI_UNIT($,.RADIAN.)
);
#1464=(
NAMED_UNIT(*)
SI_UNIT($,.STERADIAN.)
SOLID_ANGLE_UNIT()
);
#1465=SHAPE_DEFINITION_REPRESENTATION(#1466,#1467);
#1466=PRODUCT_DEFINITION_SHAPE('',$,#1469);
#1467=SHAPE_REPRESENTATION('',(#783),#1459);
#1468=PRODUCT_DEFINITION_CONTEXT('part definition',#1473,'design');
#1469=PRODUCT_DEFINITION('OrthusKeycapAltTLBR','OrthusKeycapAltTLBR v2',
#1470,#1468);
#1470=PRODUCT_DEFINITION_FORMATION('',$,#1475);
#1471=PRODUCT_RELATED_PRODUCT_CATEGORY('OrthusKeycapAltTLBR v2',
'OrthusKeycapAltTLBR v2',(#1475));
#1472=APPLICATION_PROTOCOL_DEFINITION('international standard',
'ap242_managed_model_based_3d_engineering',2011,#1473);
#1473=APPLICATION_CONTEXT('Managed model based 3d engineering');
#1474=PRODUCT_CONTEXT('part definition',#1473,'mechanical');
#1475=PRODUCT('OrthusKeycapAltTLBR','OrthusKeycapAltTLBR v2',$,(#1474));
#1476=PRESENTATION_STYLE_ASSIGNMENT((#1477));
#1477=SURFACE_STYLE_USAGE(.BOTH.,#1478);
#1478=SURFACE_SIDE_STYLE('',(#1479));
#1479=SURFACE_STYLE_FILL_AREA(#1480);
#1480=FILL_AREA_STYLE('Steel - Satin',(#1481));
#1481=FILL_AREA_STYLE_COLOUR('Steel - Satin',#1482);
#1482=COLOUR_RGB('Steel - Satin',0.627450980392157,0.627450980392157,0.627450980392157);
ENDSEC;
END-ISO-10303-21;
