ISO-10303-21;
HEADER;
/* Generated by software containing ST-Developer
 * from STEP Tools, Inc. (www.steptools.com) 
 */

FILE_DESCRIPTION(
/* description */ ('',
'CAx-IF Rec.Pracs.---Representation and Presentation of Product Manufa
cturing Information (PMI)---4.0---2014-10-13'),
/* implementation_level */ '2;1');

FILE_NAME(
/* name */ 'OrthusTrackpad v31.step',
/* time_stamp */ '2025-09-02T14:12:53-07:00',
/* author */ (''),
/* organization */ (''),
/* preprocessor_version */ 'ST-DEVELOPER v20',
/* originating_system */ 'Autodesk Translation Framework v13.20.0.188',

/* authorisation */ '');

FILE_SCHEMA (('AP242_MANAGED_MODEL_BASED_3D_ENGINEERING_MIM_LF { 1 0 10303 442 1 1 4 }'));
ENDSEC;

DATA;
#10=MECHANICAL_DESIGN_GEOMETRIC_PRESENTATION_REPRESENTATION('',(#13),#829);
#11=SHAPE_REPRESENTATION_RELATIONSHIP('SRR','None',#836,#12);
#12=ADVANCED_BREP_SHAPE_REPRESENTATION('',(#14),#828);
#13=STYLED_ITEM('',(#845),#14);
#14=MANIFOLD_SOLID_BREP('Body1',#457);
#15=FACE_BOUND('',#80,.T.);
#16=PLANE('',#493);
#17=PLANE('',#496);
#18=PLANE('',#497);
#19=PLANE('',#498);
#20=PLANE('',#502);
#21=PLANE('',#506);
#22=PLANE('',#510);
#23=PLANE('',#514);
#24=PLANE('',#517);
#25=PLANE('',#519);
#26=PLANE('',#521);
#27=(
BOUNDED_SURFACE()
B_SPLINE_SURFACE(2,2,((#672,#673,#674),(#675,#676,#677),(#678,#679,#680)),
 .UNSPECIFIED.,.F.,.F.,.F.)
B_SPLINE_SURFACE_WITH_KNOTS((3,3),(3,3),(0.,1.5707963267949),(4.4408920985006E-15,
1.5707963267949),.UNSPECIFIED.)
GEOMETRIC_REPRESENTATION_ITEM()
RATIONAL_B_SPLINE_SURFACE(((1.,0.707106781186549,1.),(0.70710678118655,
0.500000000000003,0.70710678118655),(1.,0.707106781186549,1.)))
REPRESENTATION_ITEM('')
SURFACE()
);
#28=(
BOUNDED_SURFACE()
B_SPLINE_SURFACE(2,2,((#692,#693,#694),(#695,#696,#697),(#698,#699,#700)),
 .UNSPECIFIED.,.F.,.F.,.F.)
B_SPLINE_SURFACE_WITH_KNOTS((3,3),(3,3),(0.,1.5707963267949),(1.57079632679485,
3.14159265358986),.UNSPECIFIED.)
GEOMETRIC_REPRESENTATION_ITEM()
RATIONAL_B_SPLINE_SURFACE(((1.,0.707106781186509,1.),(0.70710678118655,
0.499999999999975,0.70710678118655),(1.,0.707106781186509,1.)))
REPRESENTATION_ITEM('')
SURFACE()
);
#29=(
BOUNDED_SURFACE()
B_SPLINE_SURFACE(2,2,((#712,#713,#714),(#715,#716,#717),(#718,#719,#720)),
 .UNSPECIFIED.,.F.,.F.,.F.)
B_SPLINE_SURFACE_WITH_KNOTS((3,3),(3,3),(0.,1.5707963267949),(-3.14159265358979,
-1.57079632679486),.UNSPECIFIED.)
GEOMETRIC_REPRESENTATION_ITEM()
RATIONAL_B_SPLINE_SURFACE(((1.,0.707106781186535,1.),(0.707106781186558,
0.499999999999998,0.707106781186558),(1.,0.707106781186535,1.)))
REPRESENTATION_ITEM('')
SURFACE()
);
#30=(
BOUNDED_SURFACE()
B_SPLINE_SURFACE(2,2,((#732,#733,#734),(#735,#736,#737),(#738,#739,#740)),
 .UNSPECIFIED.,.F.,.F.,.F.)
B_SPLINE_SURFACE_WITH_KNOTS((3,3),(3,3),(0.,1.5707963267949),(-1.57079632679491,
-4.4408920985006E-15),.UNSPECIFIED.)
GEOMETRIC_REPRESENTATION_ITEM()
RATIONAL_B_SPLINE_SURFACE(((1.,0.707106781186543,1.),(0.707106781186552,
0.5,0.707106781186552),(1.,0.707106781186543,1.)))
REPRESENTATION_ITEM('')
SURFACE()
);
#31=FACE_OUTER_BOUND('',#58,.T.);
#32=FACE_OUTER_BOUND('',#59,.T.);
#33=FACE_OUTER_BOUND('',#60,.T.);
#34=FACE_OUTER_BOUND('',#61,.T.);
#35=FACE_OUTER_BOUND('',#62,.T.);
#36=FACE_OUTER_BOUND('',#63,.T.);
#37=FACE_OUTER_BOUND('',#64,.T.);
#38=FACE_OUTER_BOUND('',#65,.T.);
#39=FACE_OUTER_BOUND('',#66,.T.);
#40=FACE_OUTER_BOUND('',#67,.T.);
#41=FACE_OUTER_BOUND('',#68,.T.);
#42=FACE_OUTER_BOUND('',#69,.T.);
#43=FACE_OUTER_BOUND('',#70,.T.);
#44=FACE_OUTER_BOUND('',#71,.T.);
#45=FACE_OUTER_BOUND('',#72,.T.);
#46=FACE_OUTER_BOUND('',#73,.T.);
#47=FACE_OUTER_BOUND('',#74,.T.);
#48=FACE_OUTER_BOUND('',#75,.T.);
#49=FACE_OUTER_BOUND('',#76,.T.);
#50=FACE_OUTER_BOUND('',#77,.T.);
#51=FACE_OUTER_BOUND('',#78,.T.);
#52=FACE_OUTER_BOUND('',#79,.T.);
#53=FACE_OUTER_BOUND('',#81,.T.);
#54=FACE_OUTER_BOUND('',#82,.T.);
#55=FACE_OUTER_BOUND('',#83,.T.);
#56=FACE_OUTER_BOUND('',#84,.T.);
#57=FACE_OUTER_BOUND('',#85,.T.);
#58=EDGE_LOOP('',(#290,#291,#292,#293));
#59=EDGE_LOOP('',(#294,#295,#296,#297));
#60=EDGE_LOOP('',(#298,#299,#300,#301));
#61=EDGE_LOOP('',(#302,#303,#304,#305));
#62=EDGE_LOOP('',(#306,#307,#308,#309));
#63=EDGE_LOOP('',(#310,#311,#312,#313));
#64=EDGE_LOOP('',(#314,#315,#316,#317));
#65=EDGE_LOOP('',(#318,#319,#320,#321));
#66=EDGE_LOOP('',(#322,#323,#324,#325));
#67=EDGE_LOOP('',(#326,#327,#328,#329));
#68=EDGE_LOOP('',(#330,#331,#332,#333));
#69=EDGE_LOOP('',(#334,#335,#336,#337));
#70=EDGE_LOOP('',(#338,#339,#340,#341,#342,#343,#344,#345));
#71=EDGE_LOOP('',(#346,#347,#348,#349));
#72=EDGE_LOOP('',(#350,#351,#352,#353));
#73=EDGE_LOOP('',(#354,#355,#356,#357));
#74=EDGE_LOOP('',(#358,#359,#360,#361));
#75=EDGE_LOOP('',(#362,#363,#364,#365));
#76=EDGE_LOOP('',(#366,#367,#368,#369));
#77=EDGE_LOOP('',(#370,#371,#372,#373));
#78=EDGE_LOOP('',(#374,#375,#376,#377));
#79=EDGE_LOOP('',(#378,#379,#380,#381,#382,#383,#384,#385));
#80=EDGE_LOOP('',(#386,#387,#388,#389,#390,#391,#392,#393));
#81=EDGE_LOOP('',(#394,#395,#396,#397));
#82=EDGE_LOOP('',(#398,#399,#400,#401));
#83=EDGE_LOOP('',(#402,#403,#404,#405));
#84=EDGE_LOOP('',(#406,#407,#408,#409));
#85=EDGE_LOOP('',(#410,#411,#412,#413,#414,#415,#416,#417));
#86=LINE('',#668,#122);
#87=LINE('',#671,#123);
#88=LINE('',#690,#124);
#89=LINE('',#691,#125);
#90=LINE('',#710,#126);
#91=LINE('',#711,#127);
#92=LINE('',#730,#128);
#93=LINE('',#731,#129);
#94=LINE('',#745,#130);
#95=LINE('',#748,#131);
#96=LINE('',#751,#132);
#97=LINE('',#752,#133);
#98=LINE('',#755,#134);
#99=LINE('',#759,#135);
#100=LINE('',#760,#136);
#101=LINE('',#765,#137);
#102=LINE('',#767,#138);
#103=LINE('',#769,#139);
#104=LINE('',#770,#140);
#105=LINE('',#776,#141);
#106=LINE('',#779,#142);
#107=LINE('',#781,#143);
#108=LINE('',#782,#144);
#109=LINE('',#788,#145);
#110=LINE('',#791,#146);
#111=LINE('',#793,#147);
#112=LINE('',#794,#148);
#113=LINE('',#800,#149);
#114=LINE('',#803,#150);
#115=LINE('',#805,#151);
#116=LINE('',#806,#152);
#117=LINE('',#814,#153);
#118=LINE('',#817,#154);
#119=LINE('',#819,#155);
#120=LINE('',#821,#156);
#121=LINE('',#823,#157);
#122=VECTOR('',#528,10.);
#123=VECTOR('',#531,10.);
#124=VECTOR('',#542,10.);
#125=VECTOR('',#543,10.);
#126=VECTOR('',#554,10.);
#127=VECTOR('',#555,10.);
#128=VECTOR('',#566,10.);
#129=VECTOR('',#567,10.);
#130=VECTOR('',#574,10.);
#131=VECTOR('',#577,10.);
#132=VECTOR('',#580,10.);
#133=VECTOR('',#581,10.);
#134=VECTOR('',#584,10.);
#135=VECTOR('',#589,10.);
#136=VECTOR('',#590,10.);
#137=VECTOR('',#595,10.);
#138=VECTOR('',#596,10.);
#139=VECTOR('',#597,10.);
#140=VECTOR('',#598,10.);
#141=VECTOR('',#605,10.);
#142=VECTOR('',#608,10.);
#143=VECTOR('',#609,10.);
#144=VECTOR('',#610,10.);
#145=VECTOR('',#617,10.);
#146=VECTOR('',#620,10.);
#147=VECTOR('',#621,10.);
#148=VECTOR('',#622,10.);
#149=VECTOR('',#629,10.);
#150=VECTOR('',#632,10.);
#151=VECTOR('',#633,10.);
#152=VECTOR('',#634,10.);
#153=VECTOR('',#645,10.);
#154=VECTOR('',#648,10.);
#155=VECTOR('',#651,10.);
#156=VECTOR('',#654,10.);
#157=VECTOR('',#657,10.);
#158=CIRCLE('',#472,0.25);
#159=CIRCLE('',#473,0.249999999999999);
#160=CIRCLE('',#474,0.249999999999999);
#161=CIRCLE('',#475,0.250000000000003);
#162=CIRCLE('',#476,0.500000000000003);
#163=CIRCLE('',#478,0.249999999999999);
#164=CIRCLE('',#479,0.249999999999999);
#165=CIRCLE('',#480,0.249999999999972);
#166=CIRCLE('',#481,0.499999999999972);
#167=CIRCLE('',#483,0.249999999999999);
#168=CIRCLE('',#484,0.250000000000001);
#169=CIRCLE('',#485,0.249999999999985);
#170=CIRCLE('',#486,0.499999999999985);
#171=CIRCLE('',#488,0.249999999999999);
#172=CIRCLE('',#489,0.250000000000003);
#173=CIRCLE('',#490,0.500000000000003);
#174=CIRCLE('',#492,0.499999999999972);
#175=CIRCLE('',#495,0.500000000000003);
#176=CIRCLE('',#500,0.199999999999998);
#177=CIRCLE('',#501,0.199999999999998);
#178=CIRCLE('',#504,0.199999999999998);
#179=CIRCLE('',#505,0.199999999999998);
#180=CIRCLE('',#508,0.199999999999998);
#181=CIRCLE('',#509,0.199999999999998);
#182=CIRCLE('',#512,0.199999999999998);
#183=CIRCLE('',#513,0.199999999999998);
#184=CIRCLE('',#515,0.499999999999985);
#185=CIRCLE('',#516,0.500000000000003);
#186=VERTEX_POINT('',#664);
#187=VERTEX_POINT('',#665);
#188=VERTEX_POINT('',#667);
#189=VERTEX_POINT('',#669);
#190=VERTEX_POINT('',#681);
#191=VERTEX_POINT('',#682);
#192=VERTEX_POINT('',#687);
#193=VERTEX_POINT('',#688);
#194=VERTEX_POINT('',#701);
#195=VERTEX_POINT('',#702);
#196=VERTEX_POINT('',#707);
#197=VERTEX_POINT('',#708);
#198=VERTEX_POINT('',#721);
#199=VERTEX_POINT('',#722);
#200=VERTEX_POINT('',#727);
#201=VERTEX_POINT('',#728);
#202=VERTEX_POINT('',#744);
#203=VERTEX_POINT('',#746);
#204=VERTEX_POINT('',#750);
#205=VERTEX_POINT('',#754);
#206=VERTEX_POINT('',#758);
#207=VERTEX_POINT('',#763);
#208=VERTEX_POINT('',#764);
#209=VERTEX_POINT('',#766);
#210=VERTEX_POINT('',#768);
#211=VERTEX_POINT('',#772);
#212=VERTEX_POINT('',#774);
#213=VERTEX_POINT('',#778);
#214=VERTEX_POINT('',#780);
#215=VERTEX_POINT('',#784);
#216=VERTEX_POINT('',#786);
#217=VERTEX_POINT('',#790);
#218=VERTEX_POINT('',#792);
#219=VERTEX_POINT('',#796);
#220=VERTEX_POINT('',#798);
#221=VERTEX_POINT('',#802);
#222=VERTEX_POINT('',#804);
#223=VERTEX_POINT('',#811);
#224=VERTEX_POINT('',#812);
#225=VERTEX_POINT('',#815);
#226=EDGE_CURVE('',#186,#187,#158,.T.);
#227=EDGE_CURVE('',#187,#188,#86,.T.);
#228=EDGE_CURVE('',#188,#189,#159,.T.);
#229=EDGE_CURVE('',#189,#186,#87,.T.);
#230=EDGE_CURVE('',#190,#191,#160,.T.);
#231=EDGE_CURVE('',#191,#189,#161,.T.);
#232=EDGE_CURVE('',#188,#190,#162,.T.);
#233=EDGE_CURVE('',#192,#193,#163,.T.);
#234=EDGE_CURVE('',#193,#191,#88,.T.);
#235=EDGE_CURVE('',#190,#192,#89,.T.);
#236=EDGE_CURVE('',#194,#195,#164,.T.);
#237=EDGE_CURVE('',#195,#193,#165,.T.);
#238=EDGE_CURVE('',#192,#194,#166,.T.);
#239=EDGE_CURVE('',#196,#197,#167,.T.);
#240=EDGE_CURVE('',#197,#195,#90,.T.);
#241=EDGE_CURVE('',#194,#196,#91,.T.);
#242=EDGE_CURVE('',#198,#199,#168,.T.);
#243=EDGE_CURVE('',#199,#197,#169,.T.);
#244=EDGE_CURVE('',#196,#198,#170,.T.);
#245=EDGE_CURVE('',#200,#201,#171,.T.);
#246=EDGE_CURVE('',#201,#199,#92,.T.);
#247=EDGE_CURVE('',#198,#200,#93,.T.);
#248=EDGE_CURVE('',#186,#201,#172,.T.);
#249=EDGE_CURVE('',#200,#187,#173,.T.);
#250=EDGE_CURVE('',#202,#192,#94,.T.);
#251=EDGE_CURVE('',#203,#202,#174,.T.);
#252=EDGE_CURVE('',#203,#194,#95,.T.);
#253=EDGE_CURVE('',#204,#190,#96,.T.);
#254=EDGE_CURVE('',#202,#204,#97,.T.);
#255=EDGE_CURVE('',#205,#188,#98,.T.);
#256=EDGE_CURVE('',#204,#205,#175,.T.);
#257=EDGE_CURVE('',#206,#187,#99,.T.);
#258=EDGE_CURVE('',#205,#206,#100,.T.);
#259=EDGE_CURVE('',#207,#208,#101,.T.);
#260=EDGE_CURVE('',#207,#209,#102,.T.);
#261=EDGE_CURVE('',#210,#209,#103,.T.);
#262=EDGE_CURVE('',#208,#210,#104,.T.);
#263=EDGE_CURVE('',#208,#211,#176,.T.);
#264=EDGE_CURVE('',#212,#210,#177,.T.);
#265=EDGE_CURVE('',#211,#212,#105,.T.);
#266=EDGE_CURVE('',#211,#213,#106,.T.);
#267=EDGE_CURVE('',#214,#212,#107,.T.);
#268=EDGE_CURVE('',#213,#214,#108,.T.);
#269=EDGE_CURVE('',#213,#215,#178,.T.);
#270=EDGE_CURVE('',#216,#214,#179,.T.);
#271=EDGE_CURVE('',#215,#216,#109,.T.);
#272=EDGE_CURVE('',#215,#217,#110,.T.);
#273=EDGE_CURVE('',#218,#216,#111,.T.);
#274=EDGE_CURVE('',#217,#218,#112,.T.);
#275=EDGE_CURVE('',#217,#219,#180,.T.);
#276=EDGE_CURVE('',#220,#218,#181,.T.);
#277=EDGE_CURVE('',#219,#220,#113,.T.);
#278=EDGE_CURVE('',#219,#221,#114,.T.);
#279=EDGE_CURVE('',#222,#220,#115,.T.);
#280=EDGE_CURVE('',#221,#222,#116,.T.);
#281=EDGE_CURVE('',#221,#207,#182,.T.);
#282=EDGE_CURVE('',#209,#222,#183,.T.);
#283=EDGE_CURVE('',#223,#224,#184,.T.);
#284=EDGE_CURVE('',#224,#203,#117,.T.);
#285=EDGE_CURVE('',#206,#225,#185,.T.);
#286=EDGE_CURVE('',#225,#223,#118,.T.);
#287=EDGE_CURVE('',#196,#224,#119,.T.);
#288=EDGE_CURVE('',#225,#200,#120,.T.);
#289=EDGE_CURVE('',#223,#198,#121,.T.);
#290=ORIENTED_EDGE('',*,*,#226,.T.);
#291=ORIENTED_EDGE('',*,*,#227,.T.);
#292=ORIENTED_EDGE('',*,*,#228,.T.);
#293=ORIENTED_EDGE('',*,*,#229,.T.);
#294=ORIENTED_EDGE('',*,*,#230,.T.);
#295=ORIENTED_EDGE('',*,*,#231,.T.);
#296=ORIENTED_EDGE('',*,*,#228,.F.);
#297=ORIENTED_EDGE('',*,*,#232,.T.);
#298=ORIENTED_EDGE('',*,*,#233,.T.);
#299=ORIENTED_EDGE('',*,*,#234,.T.);
#300=ORIENTED_EDGE('',*,*,#230,.F.);
#301=ORIENTED_EDGE('',*,*,#235,.T.);
#302=ORIENTED_EDGE('',*,*,#236,.T.);
#303=ORIENTED_EDGE('',*,*,#237,.T.);
#304=ORIENTED_EDGE('',*,*,#233,.F.);
#305=ORIENTED_EDGE('',*,*,#238,.T.);
#306=ORIENTED_EDGE('',*,*,#239,.T.);
#307=ORIENTED_EDGE('',*,*,#240,.T.);
#308=ORIENTED_EDGE('',*,*,#236,.F.);
#309=ORIENTED_EDGE('',*,*,#241,.T.);
#310=ORIENTED_EDGE('',*,*,#242,.T.);
#311=ORIENTED_EDGE('',*,*,#243,.T.);
#312=ORIENTED_EDGE('',*,*,#239,.F.);
#313=ORIENTED_EDGE('',*,*,#244,.T.);
#314=ORIENTED_EDGE('',*,*,#245,.T.);
#315=ORIENTED_EDGE('',*,*,#246,.T.);
#316=ORIENTED_EDGE('',*,*,#242,.F.);
#317=ORIENTED_EDGE('',*,*,#247,.T.);
#318=ORIENTED_EDGE('',*,*,#226,.F.);
#319=ORIENTED_EDGE('',*,*,#248,.T.);
#320=ORIENTED_EDGE('',*,*,#245,.F.);
#321=ORIENTED_EDGE('',*,*,#249,.T.);
#322=ORIENTED_EDGE('',*,*,#238,.F.);
#323=ORIENTED_EDGE('',*,*,#250,.F.);
#324=ORIENTED_EDGE('',*,*,#251,.F.);
#325=ORIENTED_EDGE('',*,*,#252,.T.);
#326=ORIENTED_EDGE('',*,*,#235,.F.);
#327=ORIENTED_EDGE('',*,*,#253,.F.);
#328=ORIENTED_EDGE('',*,*,#254,.F.);
#329=ORIENTED_EDGE('',*,*,#250,.T.);
#330=ORIENTED_EDGE('',*,*,#232,.F.);
#331=ORIENTED_EDGE('',*,*,#255,.F.);
#332=ORIENTED_EDGE('',*,*,#256,.F.);
#333=ORIENTED_EDGE('',*,*,#253,.T.);
#334=ORIENTED_EDGE('',*,*,#227,.F.);
#335=ORIENTED_EDGE('',*,*,#257,.F.);
#336=ORIENTED_EDGE('',*,*,#258,.F.);
#337=ORIENTED_EDGE('',*,*,#255,.T.);
#338=ORIENTED_EDGE('',*,*,#229,.F.);
#339=ORIENTED_EDGE('',*,*,#231,.F.);
#340=ORIENTED_EDGE('',*,*,#234,.F.);
#341=ORIENTED_EDGE('',*,*,#237,.F.);
#342=ORIENTED_EDGE('',*,*,#240,.F.);
#343=ORIENTED_EDGE('',*,*,#243,.F.);
#344=ORIENTED_EDGE('',*,*,#246,.F.);
#345=ORIENTED_EDGE('',*,*,#248,.F.);
#346=ORIENTED_EDGE('',*,*,#259,.F.);
#347=ORIENTED_EDGE('',*,*,#260,.T.);
#348=ORIENTED_EDGE('',*,*,#261,.F.);
#349=ORIENTED_EDGE('',*,*,#262,.F.);
#350=ORIENTED_EDGE('',*,*,#263,.F.);
#351=ORIENTED_EDGE('',*,*,#262,.T.);
#352=ORIENTED_EDGE('',*,*,#264,.F.);
#353=ORIENTED_EDGE('',*,*,#265,.F.);
#354=ORIENTED_EDGE('',*,*,#266,.F.);
#355=ORIENTED_EDGE('',*,*,#265,.T.);
#356=ORIENTED_EDGE('',*,*,#267,.F.);
#357=ORIENTED_EDGE('',*,*,#268,.F.);
#358=ORIENTED_EDGE('',*,*,#269,.F.);
#359=ORIENTED_EDGE('',*,*,#268,.T.);
#360=ORIENTED_EDGE('',*,*,#270,.F.);
#361=ORIENTED_EDGE('',*,*,#271,.F.);
#362=ORIENTED_EDGE('',*,*,#272,.F.);
#363=ORIENTED_EDGE('',*,*,#271,.T.);
#364=ORIENTED_EDGE('',*,*,#273,.F.);
#365=ORIENTED_EDGE('',*,*,#274,.F.);
#366=ORIENTED_EDGE('',*,*,#275,.F.);
#367=ORIENTED_EDGE('',*,*,#274,.T.);
#368=ORIENTED_EDGE('',*,*,#276,.F.);
#369=ORIENTED_EDGE('',*,*,#277,.F.);
#370=ORIENTED_EDGE('',*,*,#278,.F.);
#371=ORIENTED_EDGE('',*,*,#277,.T.);
#372=ORIENTED_EDGE('',*,*,#279,.F.);
#373=ORIENTED_EDGE('',*,*,#280,.F.);
#374=ORIENTED_EDGE('',*,*,#281,.F.);
#375=ORIENTED_EDGE('',*,*,#280,.T.);
#376=ORIENTED_EDGE('',*,*,#282,.F.);
#377=ORIENTED_EDGE('',*,*,#260,.F.);
#378=ORIENTED_EDGE('',*,*,#283,.T.);
#379=ORIENTED_EDGE('',*,*,#284,.T.);
#380=ORIENTED_EDGE('',*,*,#251,.T.);
#381=ORIENTED_EDGE('',*,*,#254,.T.);
#382=ORIENTED_EDGE('',*,*,#256,.T.);
#383=ORIENTED_EDGE('',*,*,#258,.T.);
#384=ORIENTED_EDGE('',*,*,#285,.T.);
#385=ORIENTED_EDGE('',*,*,#286,.T.);
#386=ORIENTED_EDGE('',*,*,#282,.T.);
#387=ORIENTED_EDGE('',*,*,#279,.T.);
#388=ORIENTED_EDGE('',*,*,#276,.T.);
#389=ORIENTED_EDGE('',*,*,#273,.T.);
#390=ORIENTED_EDGE('',*,*,#270,.T.);
#391=ORIENTED_EDGE('',*,*,#267,.T.);
#392=ORIENTED_EDGE('',*,*,#264,.T.);
#393=ORIENTED_EDGE('',*,*,#261,.T.);
#394=ORIENTED_EDGE('',*,*,#241,.F.);
#395=ORIENTED_EDGE('',*,*,#252,.F.);
#396=ORIENTED_EDGE('',*,*,#284,.F.);
#397=ORIENTED_EDGE('',*,*,#287,.F.);
#398=ORIENTED_EDGE('',*,*,#249,.F.);
#399=ORIENTED_EDGE('',*,*,#288,.F.);
#400=ORIENTED_EDGE('',*,*,#285,.F.);
#401=ORIENTED_EDGE('',*,*,#257,.T.);
#402=ORIENTED_EDGE('',*,*,#247,.F.);
#403=ORIENTED_EDGE('',*,*,#289,.F.);
#404=ORIENTED_EDGE('',*,*,#286,.F.);
#405=ORIENTED_EDGE('',*,*,#288,.T.);
#406=ORIENTED_EDGE('',*,*,#244,.F.);
#407=ORIENTED_EDGE('',*,*,#287,.T.);
#408=ORIENTED_EDGE('',*,*,#283,.F.);
#409=ORIENTED_EDGE('',*,*,#289,.T.);
#410=ORIENTED_EDGE('',*,*,#259,.T.);
#411=ORIENTED_EDGE('',*,*,#263,.T.);
#412=ORIENTED_EDGE('',*,*,#266,.T.);
#413=ORIENTED_EDGE('',*,*,#269,.T.);
#414=ORIENTED_EDGE('',*,*,#272,.T.);
#415=ORIENTED_EDGE('',*,*,#275,.T.);
#416=ORIENTED_EDGE('',*,*,#278,.T.);
#417=ORIENTED_EDGE('',*,*,#281,.T.);
#418=CYLINDRICAL_SURFACE('',#471,0.25);
#419=CYLINDRICAL_SURFACE('',#477,0.25);
#420=CYLINDRICAL_SURFACE('',#482,0.25);
#421=CYLINDRICAL_SURFACE('',#487,0.25);
#422=CYLINDRICAL_SURFACE('',#491,0.499999999999972);
#423=CYLINDRICAL_SURFACE('',#494,0.500000000000003);
#424=CYLINDRICAL_SURFACE('',#499,0.199999999999998);
#425=CYLINDRICAL_SURFACE('',#503,0.199999999999998);
#426=CYLINDRICAL_SURFACE('',#507,0.199999999999998);
#427=CYLINDRICAL_SURFACE('',#511,0.199999999999998);
#428=CYLINDRICAL_SURFACE('',#518,0.500000000000003);
#429=CYLINDRICAL_SURFACE('',#520,0.499999999999985);
#430=ADVANCED_FACE('',(#31),#418,.T.);
#431=ADVANCED_FACE('',(#32),#27,.F.);
#432=ADVANCED_FACE('',(#33),#419,.T.);
#433=ADVANCED_FACE('',(#34),#28,.F.);
#434=ADVANCED_FACE('',(#35),#420,.T.);
#435=ADVANCED_FACE('',(#36),#29,.F.);
#436=ADVANCED_FACE('',(#37),#421,.T.);
#437=ADVANCED_FACE('',(#38),#30,.F.);
#438=ADVANCED_FACE('',(#39),#422,.T.);
#439=ADVANCED_FACE('',(#40),#16,.T.);
#440=ADVANCED_FACE('',(#41),#423,.T.);
#441=ADVANCED_FACE('',(#42),#17,.T.);
#442=ADVANCED_FACE('',(#43),#18,.T.);
#443=ADVANCED_FACE('',(#44),#19,.T.);
#444=ADVANCED_FACE('',(#45),#424,.F.);
#445=ADVANCED_FACE('',(#46),#20,.T.);
#446=ADVANCED_FACE('',(#47),#425,.F.);
#447=ADVANCED_FACE('',(#48),#21,.T.);
#448=ADVANCED_FACE('',(#49),#426,.F.);
#449=ADVANCED_FACE('',(#50),#22,.T.);
#450=ADVANCED_FACE('',(#51),#427,.F.);
#451=ADVANCED_FACE('',(#52,#15),#23,.F.);
#452=ADVANCED_FACE('',(#53),#24,.T.);
#453=ADVANCED_FACE('',(#54),#428,.T.);
#454=ADVANCED_FACE('',(#55),#25,.T.);
#455=ADVANCED_FACE('',(#56),#429,.T.);
#456=ADVANCED_FACE('',(#57),#26,.F.);
#457=CLOSED_SHELL('',(#430,#431,#432,#433,#434,#435,#436,#437,#438,#439,
#440,#441,#442,#443,#444,#445,#446,#447,#448,#449,#450,#451,#452,#453,#454,
#455,#456));
#458=DERIVED_UNIT_ELEMENT(#460,1.);
#459=DERIVED_UNIT_ELEMENT(#831,-3.);
#460=(
MASS_UNIT()
NAMED_UNIT(*)
SI_UNIT(.KILO.,.GRAM.)
);
#461=DERIVED_UNIT((#458,#459));
#462=MEASURE_REPRESENTATION_ITEM('density measure',
POSITIVE_RATIO_MEASURE(7850.),#461);
#463=PROPERTY_DEFINITION_REPRESENTATION(#468,#465);
#464=PROPERTY_DEFINITION_REPRESENTATION(#469,#466);
#465=REPRESENTATION('material name',(#467),#828);
#466=REPRESENTATION('density',(#462),#828);
#467=DESCRIPTIVE_REPRESENTATION_ITEM('Steel','Steel');
#468=PROPERTY_DEFINITION('material property','material name',#838);
#469=PROPERTY_DEFINITION('material property','density of part',#838);
#470=AXIS2_PLACEMENT_3D('',#662,#522,#523);
#471=AXIS2_PLACEMENT_3D('',#663,#524,#525);
#472=AXIS2_PLACEMENT_3D('',#666,#526,#527);
#473=AXIS2_PLACEMENT_3D('',#670,#529,#530);
#474=AXIS2_PLACEMENT_3D('',#683,#532,#533);
#475=AXIS2_PLACEMENT_3D('',#684,#534,#535);
#476=AXIS2_PLACEMENT_3D('',#685,#536,#537);
#477=AXIS2_PLACEMENT_3D('',#686,#538,#539);
#478=AXIS2_PLACEMENT_3D('',#689,#540,#541);
#479=AXIS2_PLACEMENT_3D('',#703,#544,#545);
#480=AXIS2_PLACEMENT_3D('',#704,#546,#547);
#481=AXIS2_PLACEMENT_3D('',#705,#548,#549);
#482=AXIS2_PLACEMENT_3D('',#706,#550,#551);
#483=AXIS2_PLACEMENT_3D('',#709,#552,#553);
#484=AXIS2_PLACEMENT_3D('',#723,#556,#557);
#485=AXIS2_PLACEMENT_3D('',#724,#558,#559);
#486=AXIS2_PLACEMENT_3D('',#725,#560,#561);
#487=AXIS2_PLACEMENT_3D('',#726,#562,#563);
#488=AXIS2_PLACEMENT_3D('',#729,#564,#565);
#489=AXIS2_PLACEMENT_3D('',#741,#568,#569);
#490=AXIS2_PLACEMENT_3D('',#742,#570,#571);
#491=AXIS2_PLACEMENT_3D('',#743,#572,#573);
#492=AXIS2_PLACEMENT_3D('',#747,#575,#576);
#493=AXIS2_PLACEMENT_3D('',#749,#578,#579);
#494=AXIS2_PLACEMENT_3D('',#753,#582,#583);
#495=AXIS2_PLACEMENT_3D('',#756,#585,#586);
#496=AXIS2_PLACEMENT_3D('',#757,#587,#588);
#497=AXIS2_PLACEMENT_3D('',#761,#591,#592);
#498=AXIS2_PLACEMENT_3D('',#762,#593,#594);
#499=AXIS2_PLACEMENT_3D('',#771,#599,#600);
#500=AXIS2_PLACEMENT_3D('',#773,#601,#602);
#501=AXIS2_PLACEMENT_3D('',#775,#603,#604);
#502=AXIS2_PLACEMENT_3D('',#777,#606,#607);
#503=AXIS2_PLACEMENT_3D('',#783,#611,#612);
#504=AXIS2_PLACEMENT_3D('',#785,#613,#614);
#505=AXIS2_PLACEMENT_3D('',#787,#615,#616);
#506=AXIS2_PLACEMENT_3D('',#789,#618,#619);
#507=AXIS2_PLACEMENT_3D('',#795,#623,#624);
#508=AXIS2_PLACEMENT_3D('',#797,#625,#626);
#509=AXIS2_PLACEMENT_3D('',#799,#627,#628);
#510=AXIS2_PLACEMENT_3D('',#801,#630,#631);
#511=AXIS2_PLACEMENT_3D('',#807,#635,#636);
#512=AXIS2_PLACEMENT_3D('',#808,#637,#638);
#513=AXIS2_PLACEMENT_3D('',#809,#639,#640);
#514=AXIS2_PLACEMENT_3D('',#810,#641,#642);
#515=AXIS2_PLACEMENT_3D('',#813,#643,#644);
#516=AXIS2_PLACEMENT_3D('',#816,#646,#647);
#517=AXIS2_PLACEMENT_3D('',#818,#649,#650);
#518=AXIS2_PLACEMENT_3D('',#820,#652,#653);
#519=AXIS2_PLACEMENT_3D('',#822,#655,#656);
#520=AXIS2_PLACEMENT_3D('',#824,#658,#659);
#521=AXIS2_PLACEMENT_3D('',#825,#660,#661);
#522=DIRECTION('axis',(0.,0.,1.));
#523=DIRECTION('refdir',(1.,0.,0.));
#524=DIRECTION('center_axis',(6.06679248429047E-17,1.,0.));
#525=DIRECTION('ref_axis',(0.707106781186546,0.,0.707106781186549));
#526=DIRECTION('center_axis',(0.,1.,0.));
#527=DIRECTION('ref_axis',(0.,0.,1.));
#528=DIRECTION('',(6.06679248429047E-17,1.,0.));
#529=DIRECTION('center_axis',(0.,-1.,0.));
#530=DIRECTION('ref_axis',(1.,0.,0.));
#531=DIRECTION('',(-6.06679248429047E-17,-1.,0.));
#532=DIRECTION('center_axis',(1.,-8.88178419700128E-15,0.));
#533=DIRECTION('ref_axis',(8.88178419700128E-15,1.,0.));
#534=DIRECTION('center_axis',(0.,0.,-1.));
#535=DIRECTION('ref_axis',(0.707106781186548,0.707106781186548,0.));
#536=DIRECTION('center_axis',(0.,0.,1.));
#537=DIRECTION('ref_axis',(0.707106781186548,0.707106781186548,0.));
#538=DIRECTION('center_axis',(-1.,6.06679248429047E-17,0.));
#539=DIRECTION('ref_axis',(0.,0.707106781186546,0.707106781186549));
#540=DIRECTION('center_axis',(1.,0.,0.));
#541=DIRECTION('ref_axis',(0.,1.,0.));
#542=DIRECTION('',(1.,-6.06679248429047E-17,0.));
#543=DIRECTION('',(-1.,6.06679248429047E-17,0.));
#544=DIRECTION('center_axis',(-6.2172489379009E-14,1.,0.));
#545=DIRECTION('ref_axis',(-1.,-6.2172489379009E-14,0.));
#546=DIRECTION('center_axis',(0.,0.,-1.));
#547=DIRECTION('ref_axis',(-0.707106781186559,0.707106781186536,0.));
#548=DIRECTION('center_axis',(0.,0.,1.));
#549=DIRECTION('ref_axis',(-0.707106781186559,0.707106781186536,0.));
#550=DIRECTION('center_axis',(0.,-1.,0.));
#551=DIRECTION('ref_axis',(-0.707106781186546,0.,0.707106781186549));
#552=DIRECTION('center_axis',(0.,1.,0.));
#553=DIRECTION('ref_axis',(-1.,0.,0.));
#554=DIRECTION('',(0.,1.,0.));
#555=DIRECTION('',(0.,-1.,0.));
#556=DIRECTION('center_axis',(-1.,-2.66453525910036E-14,0.));
#557=DIRECTION('ref_axis',(2.66453525910036E-14,-1.,0.));
#558=DIRECTION('center_axis',(0.,0.,-1.));
#559=DIRECTION('ref_axis',(-0.707106781186541,-0.707106781186554,0.));
#560=DIRECTION('center_axis',(0.,0.,1.));
#561=DIRECTION('ref_axis',(-0.707106781186541,-0.707106781186554,0.));
#562=DIRECTION('center_axis',(1.,0.,0.));
#563=DIRECTION('ref_axis',(0.,-0.707106781186546,0.707106781186549));
#564=DIRECTION('center_axis',(-1.,-8.88178419700128E-15,0.));
#565=DIRECTION('ref_axis',(8.88178419700128E-15,-1.,0.));
#566=DIRECTION('',(-1.,0.,0.));
#567=DIRECTION('',(1.,0.,0.));
#568=DIRECTION('center_axis',(0.,0.,-1.));
#569=DIRECTION('ref_axis',(0.707106781186543,-0.707106781186552,0.));
#570=DIRECTION('center_axis',(0.,0.,1.));
#571=DIRECTION('ref_axis',(0.707106781186543,-0.707106781186552,0.));
#572=DIRECTION('center_axis',(0.,0.,1.));
#573=DIRECTION('ref_axis',(2.22044604925044E-14,1.,0.));
#574=DIRECTION('',(0.,0.,1.));
#575=DIRECTION('center_axis',(0.,0.,-1.));
#576=DIRECTION('ref_axis',(2.22044604925044E-14,1.,0.));
#577=DIRECTION('',(0.,0.,1.));
#578=DIRECTION('center_axis',(6.06679248429047E-17,1.,0.));
#579=DIRECTION('ref_axis',(-1.,6.06679248429047E-17,0.));
#580=DIRECTION('',(0.,0.,1.));
#581=DIRECTION('',(1.,-6.06679248429047E-17,0.));
#582=DIRECTION('center_axis',(0.,0.,1.));
#583=DIRECTION('ref_axis',(1.,4.4408920985006E-15,0.));
#584=DIRECTION('',(0.,0.,1.));
#585=DIRECTION('center_axis',(0.,0.,-1.));
#586=DIRECTION('ref_axis',(1.,4.4408920985006E-15,0.));
#587=DIRECTION('center_axis',(1.,-6.06679248429047E-17,0.));
#588=DIRECTION('ref_axis',(6.06679248429047E-17,1.,0.));
#589=DIRECTION('',(0.,0.,1.));
#590=DIRECTION('',(-6.06679248429047E-17,-1.,0.));
#591=DIRECTION('center_axis',(0.,0.,1.));
#592=DIRECTION('ref_axis',(1.,0.,0.));
#593=DIRECTION('center_axis',(1.,0.,0.));
#594=DIRECTION('ref_axis',(0.,-1.,0.));
#595=DIRECTION('',(0.,1.,0.));
#596=DIRECTION('',(0.,0.,-1.));
#597=DIRECTION('',(0.,-1.,0.));
#598=DIRECTION('',(0.,0.,-1.));
#599=DIRECTION('center_axis',(0.,0.,-1.));
#600=DIRECTION('ref_axis',(3.3306690738755E-14,1.,0.));
#601=DIRECTION('center_axis',(0.,0.,-1.));
#602=DIRECTION('ref_axis',(3.3306690738755E-14,1.,0.));
#603=DIRECTION('center_axis',(0.,0.,1.));
#604=DIRECTION('ref_axis',(3.3306690738755E-14,1.,0.));
#605=DIRECTION('',(0.,0.,-1.));
#606=DIRECTION('center_axis',(0.,-1.,0.));
#607=DIRECTION('ref_axis',(-1.,0.,0.));
#608=DIRECTION('',(1.,0.,0.));
#609=DIRECTION('',(-1.,0.,0.));
#610=DIRECTION('',(0.,0.,-1.));
#611=DIRECTION('center_axis',(0.,0.,-1.));
#612=DIRECTION('ref_axis',(1.,-3.3306690738755E-14,0.));
#613=DIRECTION('center_axis',(0.,0.,-1.));
#614=DIRECTION('ref_axis',(1.,-3.3306690738755E-14,0.));
#615=DIRECTION('center_axis',(0.,0.,1.));
#616=DIRECTION('ref_axis',(1.,-3.3306690738755E-14,0.));
#617=DIRECTION('',(0.,0.,-1.));
#618=DIRECTION('center_axis',(-1.,0.,0.));
#619=DIRECTION('ref_axis',(0.,1.,0.));
#620=DIRECTION('',(0.,-1.,0.));
#621=DIRECTION('',(0.,1.,0.));
#622=DIRECTION('',(0.,0.,-1.));
#623=DIRECTION('center_axis',(0.,0.,-1.));
#624=DIRECTION('ref_axis',(-1.11022302462517E-14,-1.,0.));
#625=DIRECTION('center_axis',(0.,0.,-1.));
#626=DIRECTION('ref_axis',(-1.11022302462517E-14,-1.,0.));
#627=DIRECTION('center_axis',(0.,0.,1.));
#628=DIRECTION('ref_axis',(-1.11022302462517E-14,-1.,0.));
#629=DIRECTION('',(0.,0.,-1.));
#630=DIRECTION('center_axis',(0.,1.,0.));
#631=DIRECTION('ref_axis',(1.,0.,0.));
#632=DIRECTION('',(-1.,0.,0.));
#633=DIRECTION('',(1.,0.,0.));
#634=DIRECTION('',(0.,0.,-1.));
#635=DIRECTION('center_axis',(0.,0.,-1.));
#636=DIRECTION('ref_axis',(-1.,3.3306690738755E-14,0.));
#637=DIRECTION('center_axis',(0.,0.,-1.));
#638=DIRECTION('ref_axis',(-1.,3.3306690738755E-14,0.));
#639=DIRECTION('center_axis',(0.,0.,1.));
#640=DIRECTION('ref_axis',(-1.,3.3306690738755E-14,0.));
#641=DIRECTION('center_axis',(0.,0.,1.));
#642=DIRECTION('ref_axis',(1.,0.,0.));
#643=DIRECTION('center_axis',(0.,0.,-1.));
#644=DIRECTION('ref_axis',(-1.,1.33226762955023E-14,0.));
#645=DIRECTION('',(0.,1.,0.));
#646=DIRECTION('center_axis',(0.,0.,-1.));
#647=DIRECTION('ref_axis',(-4.4408920985006E-15,-1.,0.));
#648=DIRECTION('',(-1.,0.,0.));
#649=DIRECTION('center_axis',(-1.,0.,0.));
#650=DIRECTION('ref_axis',(0.,-1.,0.));
#651=DIRECTION('',(0.,0.,-1.));
#652=DIRECTION('center_axis',(0.,0.,1.));
#653=DIRECTION('ref_axis',(-4.4408920985006E-15,-1.,0.));
#654=DIRECTION('',(0.,0.,1.));
#655=DIRECTION('center_axis',(0.,-1.,0.));
#656=DIRECTION('ref_axis',(1.,0.,0.));
#657=DIRECTION('',(0.,0.,1.));
#658=DIRECTION('center_axis',(0.,0.,1.));
#659=DIRECTION('ref_axis',(-1.,1.33226762955023E-14,0.));
#660=DIRECTION('center_axis',(0.,0.,1.));
#661=DIRECTION('ref_axis',(1.,0.,0.));
#662=CARTESIAN_POINT('',(0.,0.,0.));
#663=CARTESIAN_POINT('Origin',(18.55,-9.15,0.75));
#664=CARTESIAN_POINT('',(18.55,-18.3,1.));
#665=CARTESIAN_POINT('',(18.8,-18.3,0.75));
#666=CARTESIAN_POINT('Origin',(18.55,-18.3,0.75));
#667=CARTESIAN_POINT('',(18.8,18.3,0.75));
#668=CARTESIAN_POINT('',(18.8,-9.15,0.75));
#669=CARTESIAN_POINT('',(18.55,18.3,1.));
#670=CARTESIAN_POINT('Origin',(18.55,18.3,0.75));
#671=CARTESIAN_POINT('',(18.55,-9.15,1.));
#672=CARTESIAN_POINT('Ctrl Pts',(18.8,18.3,0.75));
#673=CARTESIAN_POINT('Ctrl Pts',(18.8,18.8,0.75));
#674=CARTESIAN_POINT('Ctrl Pts',(18.3,18.8,0.75));
#675=CARTESIAN_POINT('Ctrl Pts',(18.8,18.3,1.));
#676=CARTESIAN_POINT('Ctrl Pts',(18.8,18.8,1.));
#677=CARTESIAN_POINT('Ctrl Pts',(18.3,18.8,1.));
#678=CARTESIAN_POINT('Ctrl Pts',(18.55,18.3,1.));
#679=CARTESIAN_POINT('Ctrl Pts',(18.55,18.55,1.));
#680=CARTESIAN_POINT('Ctrl Pts',(18.3,18.55,1.));
#681=CARTESIAN_POINT('',(18.3,18.8,0.75));
#682=CARTESIAN_POINT('',(18.3,18.55,1.));
#683=CARTESIAN_POINT('Origin',(18.3,18.55,0.75));
#684=CARTESIAN_POINT('Origin',(18.3,18.3,1.));
#685=CARTESIAN_POINT('Origin',(18.3,18.3,0.75));
#686=CARTESIAN_POINT('Origin',(9.15,18.55,0.75));
#687=CARTESIAN_POINT('',(-18.3,18.8,0.75));
#688=CARTESIAN_POINT('',(-18.3,18.55,1.));
#689=CARTESIAN_POINT('Origin',(-18.3,18.55,0.75));
#690=CARTESIAN_POINT('',(9.15,18.55,1.));
#691=CARTESIAN_POINT('',(9.15,18.8,0.75));
#692=CARTESIAN_POINT('Ctrl Pts',(-18.3,18.8,0.75));
#693=CARTESIAN_POINT('Ctrl Pts',(-18.8,18.8,0.75));
#694=CARTESIAN_POINT('Ctrl Pts',(-18.8,18.3,0.75));
#695=CARTESIAN_POINT('Ctrl Pts',(-18.3,18.8,1.));
#696=CARTESIAN_POINT('Ctrl Pts',(-18.8,18.8,1.));
#697=CARTESIAN_POINT('Ctrl Pts',(-18.8,18.3,1.));
#698=CARTESIAN_POINT('Ctrl Pts',(-18.3,18.55,1.));
#699=CARTESIAN_POINT('Ctrl Pts',(-18.55,18.55,1.));
#700=CARTESIAN_POINT('Ctrl Pts',(-18.55,18.3,1.));
#701=CARTESIAN_POINT('',(-18.8,18.3,0.75));
#702=CARTESIAN_POINT('',(-18.55,18.3,1.));
#703=CARTESIAN_POINT('Origin',(-18.55,18.3,0.75));
#704=CARTESIAN_POINT('Origin',(-18.3,18.3,1.));
#705=CARTESIAN_POINT('Origin',(-18.3,18.3,0.75));
#706=CARTESIAN_POINT('Origin',(-18.55,9.15,0.75));
#707=CARTESIAN_POINT('',(-18.8,-18.3,0.75));
#708=CARTESIAN_POINT('',(-18.55,-18.3,1.));
#709=CARTESIAN_POINT('Origin',(-18.55,-18.3,0.75));
#710=CARTESIAN_POINT('',(-18.55,9.15,1.));
#711=CARTESIAN_POINT('',(-18.8,9.15,0.75));
#712=CARTESIAN_POINT('Ctrl Pts',(-18.8,-18.3,0.75));
#713=CARTESIAN_POINT('Ctrl Pts',(-18.8,-18.8,0.75));
#714=CARTESIAN_POINT('Ctrl Pts',(-18.3,-18.8,0.75));
#715=CARTESIAN_POINT('Ctrl Pts',(-18.8,-18.3,1.));
#716=CARTESIAN_POINT('Ctrl Pts',(-18.8,-18.8,1.));
#717=CARTESIAN_POINT('Ctrl Pts',(-18.3,-18.8,1.));
#718=CARTESIAN_POINT('Ctrl Pts',(-18.55,-18.3,1.));
#719=CARTESIAN_POINT('Ctrl Pts',(-18.55,-18.55,1.));
#720=CARTESIAN_POINT('Ctrl Pts',(-18.3,-18.55,1.));
#721=CARTESIAN_POINT('',(-18.3,-18.8,0.75));
#722=CARTESIAN_POINT('',(-18.3,-18.55,1.));
#723=CARTESIAN_POINT('Origin',(-18.3,-18.55,0.75));
#724=CARTESIAN_POINT('Origin',(-18.3,-18.3,1.));
#725=CARTESIAN_POINT('Origin',(-18.3,-18.3,0.75));
#726=CARTESIAN_POINT('Origin',(-9.15,-18.55,0.75));
#727=CARTESIAN_POINT('',(18.3,-18.8,0.75));
#728=CARTESIAN_POINT('',(18.3,-18.55,1.));
#729=CARTESIAN_POINT('Origin',(18.3,-18.55,0.75));
#730=CARTESIAN_POINT('',(-9.15,-18.55,1.));
#731=CARTESIAN_POINT('',(-9.15,-18.8,0.75));
#732=CARTESIAN_POINT('Ctrl Pts',(18.3,-18.8,0.75));
#733=CARTESIAN_POINT('Ctrl Pts',(18.8,-18.8,0.75));
#734=CARTESIAN_POINT('Ctrl Pts',(18.8,-18.3,0.75));
#735=CARTESIAN_POINT('Ctrl Pts',(18.3,-18.8,1.));
#736=CARTESIAN_POINT('Ctrl Pts',(18.8,-18.8,1.));
#737=CARTESIAN_POINT('Ctrl Pts',(18.8,-18.3,1.));
#738=CARTESIAN_POINT('Ctrl Pts',(18.3,-18.55,1.));
#739=CARTESIAN_POINT('Ctrl Pts',(18.55,-18.55,1.));
#740=CARTESIAN_POINT('Ctrl Pts',(18.55,-18.3,1.));
#741=CARTESIAN_POINT('Origin',(18.3,-18.3,1.));
#742=CARTESIAN_POINT('Origin',(18.3,-18.3,0.75));
#743=CARTESIAN_POINT('Origin',(-18.3,18.3,0.));
#744=CARTESIAN_POINT('',(-18.3,18.8,-3.));
#745=CARTESIAN_POINT('',(-18.3,18.8,0.));
#746=CARTESIAN_POINT('',(-18.8,18.3,-3.));
#747=CARTESIAN_POINT('Origin',(-18.3,18.3,-3.));
#748=CARTESIAN_POINT('',(-18.8,18.3,0.));
#749=CARTESIAN_POINT('Origin',(18.3,18.8,0.));
#750=CARTESIAN_POINT('',(18.3,18.8,-3.));
#751=CARTESIAN_POINT('',(18.3,18.8,0.));
#752=CARTESIAN_POINT('',(18.3,18.8,-3.));
#753=CARTESIAN_POINT('Origin',(18.3,18.3,0.));
#754=CARTESIAN_POINT('',(18.8,18.3,-3.));
#755=CARTESIAN_POINT('',(18.8,18.3,0.));
#756=CARTESIAN_POINT('Origin',(18.3,18.3,-3.));
#757=CARTESIAN_POINT('Origin',(18.8,-18.3,0.));
#758=CARTESIAN_POINT('',(18.8,-18.3,-3.));
#759=CARTESIAN_POINT('',(18.8,-18.3,0.));
#760=CARTESIAN_POINT('',(18.8,-18.3,-3.));
#761=CARTESIAN_POINT('Origin',(0.,2.22044604925031E-15,1.));
#762=CARTESIAN_POINT('Origin',(-18.3,18.1,0.));
#763=CARTESIAN_POINT('',(-18.3,-18.1,0.));
#764=CARTESIAN_POINT('',(-18.3,18.1,0.));
#765=CARTESIAN_POINT('',(-18.3,9.05,0.));
#766=CARTESIAN_POINT('',(-18.3,-18.1,-3.));
#767=CARTESIAN_POINT('',(-18.3,-18.1,0.));
#768=CARTESIAN_POINT('',(-18.3,18.1,-3.));
#769=CARTESIAN_POINT('',(-18.3,18.1,-3.));
#770=CARTESIAN_POINT('',(-18.3,18.1,0.));
#771=CARTESIAN_POINT('Origin',(-18.1,18.1,0.));
#772=CARTESIAN_POINT('',(-18.1,18.3,0.));
#773=CARTESIAN_POINT('Origin',(-18.1,18.1,0.));
#774=CARTESIAN_POINT('',(-18.1,18.3,-3.));
#775=CARTESIAN_POINT('Origin',(-18.1,18.1,-3.));
#776=CARTESIAN_POINT('',(-18.1,18.3,0.));
#777=CARTESIAN_POINT('Origin',(18.1,18.3,0.));
#778=CARTESIAN_POINT('',(18.1,18.3,0.));
#779=CARTESIAN_POINT('',(9.05,18.3,0.));
#780=CARTESIAN_POINT('',(18.1,18.3,-3.));
#781=CARTESIAN_POINT('',(18.1,18.3,-3.));
#782=CARTESIAN_POINT('',(18.1,18.3,0.));
#783=CARTESIAN_POINT('Origin',(18.1,18.1,0.));
#784=CARTESIAN_POINT('',(18.3,18.1,0.));
#785=CARTESIAN_POINT('Origin',(18.1,18.1,0.));
#786=CARTESIAN_POINT('',(18.3,18.1,-3.));
#787=CARTESIAN_POINT('Origin',(18.1,18.1,-3.));
#788=CARTESIAN_POINT('',(18.3,18.1,0.));
#789=CARTESIAN_POINT('Origin',(18.3,-18.1,0.));
#790=CARTESIAN_POINT('',(18.3,-18.1,0.));
#791=CARTESIAN_POINT('',(18.3,-9.05,0.));
#792=CARTESIAN_POINT('',(18.3,-18.1,-3.));
#793=CARTESIAN_POINT('',(18.3,-18.1,-3.));
#794=CARTESIAN_POINT('',(18.3,-18.1,0.));
#795=CARTESIAN_POINT('Origin',(18.1,-18.1,0.));
#796=CARTESIAN_POINT('',(18.1,-18.3,0.));
#797=CARTESIAN_POINT('Origin',(18.1,-18.1,0.));
#798=CARTESIAN_POINT('',(18.1,-18.3,-3.));
#799=CARTESIAN_POINT('Origin',(18.1,-18.1,-3.));
#800=CARTESIAN_POINT('',(18.1,-18.3,0.));
#801=CARTESIAN_POINT('Origin',(-18.1,-18.3,0.));
#802=CARTESIAN_POINT('',(-18.1,-18.3,0.));
#803=CARTESIAN_POINT('',(-9.05,-18.3,0.));
#804=CARTESIAN_POINT('',(-18.1,-18.3,-3.));
#805=CARTESIAN_POINT('',(-18.1,-18.3,-3.));
#806=CARTESIAN_POINT('',(-18.1,-18.3,0.));
#807=CARTESIAN_POINT('Origin',(-18.1,-18.1,0.));
#808=CARTESIAN_POINT('Origin',(-18.1,-18.1,0.));
#809=CARTESIAN_POINT('Origin',(-18.1,-18.1,-3.));
#810=CARTESIAN_POINT('Origin',(0.,2.22044604925031E-15,-3.));
#811=CARTESIAN_POINT('',(-18.3,-18.8,-3.));
#812=CARTESIAN_POINT('',(-18.8,-18.3,-3.));
#813=CARTESIAN_POINT('Origin',(-18.3,-18.3,-3.));
#814=CARTESIAN_POINT('',(-18.8,18.3,-3.));
#815=CARTESIAN_POINT('',(18.3,-18.8,-3.));
#816=CARTESIAN_POINT('Origin',(18.3,-18.3,-3.));
#817=CARTESIAN_POINT('',(-18.3,-18.8,-3.));
#818=CARTESIAN_POINT('Origin',(-18.8,18.3,0.));
#819=CARTESIAN_POINT('',(-18.8,-18.3,0.));
#820=CARTESIAN_POINT('Origin',(18.3,-18.3,0.));
#821=CARTESIAN_POINT('',(18.3,-18.8,0.));
#822=CARTESIAN_POINT('Origin',(-18.3,-18.8,0.));
#823=CARTESIAN_POINT('',(-18.3,-18.8,0.));
#824=CARTESIAN_POINT('Origin',(-18.3,-18.3,0.));
#825=CARTESIAN_POINT('Origin',(0.,2.22044604925031E-15,0.));
#826=UNCERTAINTY_MEASURE_WITH_UNIT(LENGTH_MEASURE(0.01),#830,
'DISTANCE_ACCURACY_VALUE',
'Maximum model space distance between geometric entities at asserted c
onnectivities');
#827=UNCERTAINTY_MEASURE_WITH_UNIT(LENGTH_MEASURE(0.01),#830,
'DISTANCE_ACCURACY_VALUE',
'Maximum model space distance between geometric entities at asserted c
onnectivities');
#828=(
GEOMETRIC_REPRESENTATION_CONTEXT(3)
GLOBAL_UNCERTAINTY_ASSIGNED_CONTEXT((#826))
GLOBAL_UNIT_ASSIGNED_CONTEXT((#830,#832,#833))
REPRESENTATION_CONTEXT('','3D')
);
#829=(
GEOMETRIC_REPRESENTATION_CONTEXT(3)
GLOBAL_UNCERTAINTY_ASSIGNED_CONTEXT((#827))
GLOBAL_UNIT_ASSIGNED_CONTEXT((#830,#832,#833))
REPRESENTATION_CONTEXT('','3D')
);
#830=(
LENGTH_UNIT()
NAMED_UNIT(*)
SI_UNIT(.MILLI.,.METRE.)
);
#831=(
LENGTH_UNIT()
NAMED_UNIT(*)
SI_UNIT($,.METRE.)
);
#832=(
NAMED_UNIT(*)
PLANE_ANGLE_UNIT()
SI_UNIT($,.RADIAN.)
);
#833=(
NAMED_UNIT(*)
SI_UNIT($,.STERADIAN.)
SOLID_ANGLE_UNIT()
);
#834=SHAPE_DEFINITION_REPRESENTATION(#835,#836);
#835=PRODUCT_DEFINITION_SHAPE('',$,#838);
#836=SHAPE_REPRESENTATION('',(#470),#828);
#837=PRODUCT_DEFINITION_CONTEXT('part definition',#842,'design');
#838=PRODUCT_DEFINITION('OrthusTrackpad','OrthusTrackpad v31',#839,#837);
#839=PRODUCT_DEFINITION_FORMATION('',$,#844);
#840=PRODUCT_RELATED_PRODUCT_CATEGORY('OrthusTrackpad v31',
'OrthusTrackpad v31',(#844));
#841=APPLICATION_PROTOCOL_DEFINITION('international standard',
'ap242_managed_model_based_3d_engineering',2011,#842);
#842=APPLICATION_CONTEXT('Managed model based 3d engineering');
#843=PRODUCT_CONTEXT('part definition',#842,'mechanical');
#844=PRODUCT('OrthusTrackpad','OrthusTrackpad v31',$,(#843));
#845=PRESENTATION_STYLE_ASSIGNMENT((#846));
#846=SURFACE_STYLE_USAGE(.BOTH.,#847);
#847=SURFACE_SIDE_STYLE('',(#848));
#848=SURFACE_STYLE_FILL_AREA(#849);
#849=FILL_AREA_STYLE('Steel - Satin',(#850));
#850=FILL_AREA_STYLE_COLOUR('Steel - Satin',#851);
#851=COLOUR_RGB('Steel - Satin',0.627450980392157,0.627450980392157,0.627450980392157);
ENDSEC;
END-ISO-10303-21;
