0
SECTION
2
HEADER
9
$INSUNITS
70
4
9
$ACADVER
1
AC1014
9
$HANDSEED
5
FFFF
0
ENDSEC
0
SECTION
2
TABLES
0
TABLE
2
VPORT
5
8
100
AcDbSymbolTable
0
ENDTAB
0
TABLE
2
LTYPE
5
5
100
AcDbSymbolTable
0
LTYPE
5
14
100
AcDbSymbolTableRecord
100
AcDbLinetypeTableRecord
2
BYBLOCK
70
0
0
LTYPE
5
15
100
AcDbSymbolTableRecord
100
AcDbLinetypeTableRecord
2
BYLAYER
70
0
0
LTYPE
5
16
100
AcDbSymbolTableRecord
100
AcDbLinetypeTableRecord
2
DASHED
70
0
3
Dashed __ __ __ __ __ __ __ __ __ __ __ __ __ _
72
65
73
2
40
0.75
49
0.5
74
0
49
-0.25
74
0
0
ENDTAB
0
TABLE
2
LAYER
5
2
100
AcDbSymbolTable
70
3
0
LAYER
5
50
100
AcDbSymbolTableRecord
100
AcDbLayerTableRecord
2
1
70
0
62
7
6
DASHED
0
LAYER
5
51
100
AcDbSymbolTableRecord
100
AcDbLayerTableRecord
2
0
70
0
62
7
6
CONTINUOUS
0
ENDTAB
0
TABLE
2
STYLE
5
3
100
AcDbSymbolTable
70
1
0
STYLE
5
11
100
AcDbSymbolTableRecord
100
AcDbTextStyleTableRecord
2
STANDARD
70
0
0
ENDTAB
0
TABLE
2
VIEW
5
6
100
AcDbSymbolTable
70
0
0
ENDTAB
0
TABLE
2
UCS
5
7
100
AcDbSymbolTable
70
0
0
ENDTAB
0
TABLE
2
APPID
5
9
100
AcDbSymbolTable
70
2
0
APPID
5
12
100
AcDbSymbolTableRecord
100
AcDbRegAppTableRecord
2
ACAD
70
0
0
ENDTAB
0
TABLE
2
DIMSTYLE
5
A
100
AcDbSymbolTable
70
1
0
ENDTAB
0
TABLE
2
BLOCK_RECORD
5
1
100
AcDbSymbolTable
70
1
0
BLOCK_RECORD
5
1F
100
AcDbSymbolTableRecord
100
AcDbBlockTableRecord
2
*MODEL_SPACE
0
BLOCK_RECORD
5
1B
100
AcDbSymbolTableRecord
100
AcDbBlockTableRecord
2
*PAPER_SPACE
0
ENDTAB
0
ENDSEC
0
SECTION
2
BLOCKS
0
BLOCK
5
20
100
AcDbEntity
100
AcDbBlockBegin
2
*MODEL_SPACE
0
ENDBLK
5
21
100
AcDbEntity
100
AcDbBlockEnd
0
BLOCK
5
1C
100
AcDbEntity
100
AcDbBlockBegin
2
*PAPER_SPACE
0
ENDBLK
5
1D
100
AcDbEntity
100
AcDbBlockEnd
0
ENDSEC
0
SECTION
2
ENTITIES
0
LWPOLYLINE
5
100
100
AcDbEntity
8
0
100
AcDbPolyline
90
8
70
1
43
0.0
10
-18.550000000000001
20
18.300000000000001
10
-18.550000000000001
20
-18.300000000000001
42
0.41421356237308721
10
-18.299999999999997
20
-18.550000000000001
10
18.300000000000022
20
-18.550000000000004
42
0.41421356237311585
10
18.550000000000001
20
-18.300000000000015
10
18.550000000000001
20
18.300000000000011
42
0.41421356237310802
10
18.300000000000008
20
18.550000000000004
10
-18.299999999999994
20
18.550000000000001
42
0.41421356237308721
0
CIRCLE
5
101
100
AcDbEntity
8
0
100
AcDbCircle
10
13.999999999999996
20
-2.4651903288156619e-31
30
0
40
0.50000000000000044
210
0
220
0
230
1
0
CIRCLE
5
102
100
AcDbEntity
8
0
100
AcDbCircle
10
7.9999999999999964
20
14.000000000000002
30
0
40
0.50000000000000044
210
0
220
0
230
1
0
CIRCLE
5
103
100
AcDbEntity
8
0
100
AcDbCircle
10
5.9999999999999964
20
14.000000000000002
30
0
40
0.50000000000000044
210
0
220
0
230
1
0
CIRCLE
5
104
100
AcDbEntity
8
0
100
AcDbCircle
10
3.9999999999999969
20
14.000000000000002
30
0
40
0.50000000000000044
210
0
220
0
230
1
0
CIRCLE
5
105
100
AcDbEntity
8
0
100
AcDbCircle
10
1.9999999999999951
20
14.000000000000002
30
0
40
0.50000000000000044
210
0
220
0
230
1
0
CIRCLE
5
106
100
AcDbEntity
8
0
100
AcDbCircle
10
-4.4408920985006262e-15
20
14.000000000000002
30
0
40
0.50000000000000044
210
0
220
0
230
1
0
CIRCLE
5
107
100
AcDbEntity
8
0
100
AcDbCircle
10
-2.000000000000004
20
14.000000000000002
30
0
40
0.50000000000000044
210
0
220
0
230
1
0
CIRCLE
5
108
100
AcDbEntity
8
0
100
AcDbCircle
10
-4.0000000000000036
20
14.000000000000002
30
0
40
0.50000000000000044
210
0
220
0
230
1
0
CIRCLE
5
109
100
AcDbEntity
8
0
100
AcDbCircle
10
-6.0000000000000036
20
14.000000000000002
30
0
40
0.50000000000000044
210
0
220
0
230
1
0
CIRCLE
5
110
100
AcDbEntity
8
0
100
AcDbCircle
10
-8.0000000000000053
20
14.000000000000002
30
0
40
0.50000000000000044
210
0
220
0
230
1
0
CIRCLE
5
111
100
AcDbEntity
8
0
100
AcDbCircle
10
11.999999999999996
20
12.000000000000002
30
0
40
0.50000000000000044
210
0
220
0
230
1
0
CIRCLE
5
112
100
AcDbEntity
8
0
100
AcDbCircle
10
9.9999999999999964
20
12.000000000000002
30
0
40
0.50000000000000044
210
0
220
0
230
1
0
CIRCLE
5
113
100
AcDbEntity
8
0
100
AcDbCircle
10
7.9999999999999964
20
12.000000000000002
30
0
40
0.50000000000000044
210
0
220
0
230
1
0
CIRCLE
5
114
100
AcDbEntity
8
0
100
AcDbCircle
10
5.9999999999999964
20
12.000000000000002
30
0
40
0.50000000000000044
210
0
220
0
230
1
0
CIRCLE
5
115
100
AcDbEntity
8
0
100
AcDbCircle
10
3.9999999999999969
20
12.000000000000002
30
0
40
0.50000000000000044
210
0
220
0
230
1
0
CIRCLE
5
116
100
AcDbEntity
8
0
100
AcDbCircle
10
1.9999999999999951
20
12.000000000000002
30
0
40
0.50000000000000044
210
0
220
0
230
1
0
CIRCLE
5
117
100
AcDbEntity
8
0
100
AcDbCircle
10
-4.4408920985006262e-15
20
12.000000000000002
30
0
40
0.50000000000000044
210
0
220
0
230
1
0
CIRCLE
5
118
100
AcDbEntity
8
0
100
AcDbCircle
10
-2.000000000000004
20
12.000000000000002
30
0
40
0.50000000000000044
210
0
220
0
230
1
0
CIRCLE
5
119
100
AcDbEntity
8
0
100
AcDbCircle
10
-4.0000000000000036
20
12.000000000000002
30
0
40
0.50000000000000044
210
0
220
0
230
1
0
CIRCLE
5
120
100
AcDbEntity
8
0
100
AcDbCircle
10
-6.0000000000000036
20
12.000000000000002
30
0
40
0.50000000000000044
210
0
220
0
230
1
0
CIRCLE
5
121
100
AcDbEntity
8
0
100
AcDbCircle
10
-8.0000000000000053
20
12.000000000000002
30
0
40
0.50000000000000044
210
0
220
0
230
1
0
CIRCLE
5
122
100
AcDbEntity
8
0
100
AcDbCircle
10
-10.000000000000007
20
12.000000000000002
30
0
40
0.50000000000000044
210
0
220
0
230
1
0
CIRCLE
5
123
100
AcDbEntity
8
0
100
AcDbCircle
10
-12.000000000000004
20
12.000000000000002
30
0
40
0.50000000000000044
210
0
220
0
230
1
0
CIRCLE
5
124
100
AcDbEntity
8
0
100
AcDbCircle
10
11.999999999999996
20
10
30
0
40
0.50000000000000044
210
0
220
0
230
1
0
CIRCLE
5
125
100
AcDbEntity
8
0
100
AcDbCircle
10
9.9999999999999964
20
10
30
0
40
0.50000000000000044
210
0
220
0
230
1
0
CIRCLE
5
126
100
AcDbEntity
8
0
100
AcDbCircle
10
7.9999999999999964
20
10
30
0
40
0.50000000000000044
210
0
220
0
230
1
0
CIRCLE
5
127
100
AcDbEntity
8
0
100
AcDbCircle
10
5.9999999999999964
20
10
30
0
40
0.50000000000000044
210
0
220
0
230
1
0
CIRCLE
5
128
100
AcDbEntity
8
0
100
AcDbCircle
10
3.9999999999999969
20
10
30
0
40
0.50000000000000044
210
0
220
0
230
1
0
CIRCLE
5
129
100
AcDbEntity
8
0
100
AcDbCircle
10
1.9999999999999951
20
10
30
0
40
0.50000000000000044
210
0
220
0
230
1
0
CIRCLE
5
130
100
AcDbEntity
8
0
100
AcDbCircle
10
-4.4408920985006262e-15
20
10
30
0
40
0.50000000000000044
210
0
220
0
230
1
0
CIRCLE
5
131
100
AcDbEntity
8
0
100
AcDbCircle
10
-2.000000000000004
20
10
30
0
40
0.50000000000000044
210
0
220
0
230
1
0
CIRCLE
5
132
100
AcDbEntity
8
0
100
AcDbCircle
10
-4.0000000000000036
20
10
30
0
40
0.50000000000000044
210
0
220
0
230
1
0
CIRCLE
5
133
100
AcDbEntity
8
0
100
AcDbCircle
10
-6.0000000000000036
20
10
30
0
40
0.50000000000000044
210
0
220
0
230
1
0
CIRCLE
5
134
100
AcDbEntity
8
0
100
AcDbCircle
10
-8.0000000000000053
20
10
30
0
40
0.50000000000000044
210
0
220
0
230
1
0
CIRCLE
5
135
100
AcDbEntity
8
0
100
AcDbCircle
10
-10.000000000000007
20
10
30
0
40
0.50000000000000044
210
0
220
0
230
1
0
CIRCLE
5
136
100
AcDbEntity
8
0
100
AcDbCircle
10
-12.000000000000004
20
10
30
0
40
0.50000000000000044
210
0
220
0
230
1
0
CIRCLE
5
137
100
AcDbEntity
8
0
100
AcDbCircle
10
13.999999999999996
20
8
30
0
40
0.50000000000000044
210
0
220
0
230
1
0
CIRCLE
5
138
100
AcDbEntity
8
0
100
AcDbCircle
10
11.999999999999996
20
8
30
0
40
0.50000000000000044
210
0
220
0
230
1
0
CIRCLE
5
139
100
AcDbEntity
8
0
100
AcDbCircle
10
9.9999999999999964
20
8
30
0
40
0.50000000000000044
210
0
220
0
230
1
0
CIRCLE
5
140
100
AcDbEntity
8
0
100
AcDbCircle
10
7.9999999999999964
20
8
30
0
40
0.50000000000000044
210
0
220
0
230
1
0
CIRCLE
5
141
100
AcDbEntity
8
0
100
AcDbCircle
10
5.9999999999999964
20
8
30
0
40
0.50000000000000044
210
0
220
0
230
1
0
CIRCLE
5
142
100
AcDbEntity
8
0
100
AcDbCircle
10
3.9999999999999969
20
8
30
0
40
0.50000000000000044
210
0
220
0
230
1
0
CIRCLE
5
143
100
AcDbEntity
8
0
100
AcDbCircle
10
1.9999999999999951
20
8
30
0
40
0.50000000000000044
210
0
220
0
230
1
0
CIRCLE
5
144
100
AcDbEntity
8
0
100
AcDbCircle
10
-4.4408920985006262e-15
20
8
30
0
40
0.50000000000000044
210
0
220
0
230
1
0
CIRCLE
5
145
100
AcDbEntity
8
0
100
AcDbCircle
10
-2.000000000000004
20
8
30
0
40
0.50000000000000044
210
0
220
0
230
1
0
CIRCLE
5
146
100
AcDbEntity
8
0
100
AcDbCircle
10
-4.0000000000000036
20
8
30
0
40
0.50000000000000044
210
0
220
0
230
1
0
CIRCLE
5
147
100
AcDbEntity
8
0
100
AcDbCircle
10
-6.0000000000000036
20
8
30
0
40
0.50000000000000044
210
0
220
0
230
1
0
CIRCLE
5
148
100
AcDbEntity
8
0
100
AcDbCircle
10
-8.0000000000000053
20
8
30
0
40
0.50000000000000044
210
0
220
0
230
1
0
CIRCLE
5
149
100
AcDbEntity
8
0
100
AcDbCircle
10
-10.000000000000007
20
8
30
0
40
0.50000000000000044
210
0
220
0
230
1
0
CIRCLE
5
150
100
AcDbEntity
8
0
100
AcDbCircle
10
-12.000000000000004
20
8
30
0
40
0.50000000000000044
210
0
220
0
230
1
0
CIRCLE
5
151
100
AcDbEntity
8
0
100
AcDbCircle
10
-14.000000000000005
20
8
30
0
40
0.50000000000000044
210
0
220
0
230
1
0
CIRCLE
5
152
100
AcDbEntity
8
0
100
AcDbCircle
10
13.999999999999996
20
6.0000000000000009
30
0
40
0.50000000000000044
210
0
220
0
230
1
0
CIRCLE
5
153
100
AcDbEntity
8
0
100
AcDbCircle
10
11.999999999999996
20
6.0000000000000009
30
0
40
0.50000000000000044
210
0
220
0
230
1
0
CIRCLE
5
154
100
AcDbEntity
8
0
100
AcDbCircle
10
9.9999999999999964
20
6.0000000000000009
30
0
40
0.50000000000000044
210
0
220
0
230
1
0
CIRCLE
5
155
100
AcDbEntity
8
0
100
AcDbCircle
10
7.9999999999999964
20
6.0000000000000009
30
0
40
0.50000000000000044
210
0
220
0
230
1
0
CIRCLE
5
156
100
AcDbEntity
8
0
100
AcDbCircle
10
5.9999999999999964
20
6.0000000000000009
30
0
40
0.50000000000000044
210
0
220
0
230
1
0
CIRCLE
5
157
100
AcDbEntity
8
0
100
AcDbCircle
10
3.9999999999999969
20
6.0000000000000009
30
0
40
0.50000000000000044
210
0
220
0
230
1
0
CIRCLE
5
158
100
AcDbEntity
8
0
100
AcDbCircle
10
1.9999999999999951
20
6.0000000000000009
30
0
40
0.50000000000000044
210
0
220
0
230
1
0
CIRCLE
5
159
100
AcDbEntity
8
0
100
AcDbCircle
10
-4.4408920985006262e-15
20
6.0000000000000009
30
0
40
0.50000000000000044
210
0
220
0
230
1
0
CIRCLE
5
160
100
AcDbEntity
8
0
100
AcDbCircle
10
-2.000000000000004
20
6.0000000000000009
30
0
40
0.50000000000000044
210
0
220
0
230
1
0
CIRCLE
5
161
100
AcDbEntity
8
0
100
AcDbCircle
10
-4.0000000000000036
20
6.0000000000000009
30
0
40
0.50000000000000044
210
0
220
0
230
1
0
CIRCLE
5
162
100
AcDbEntity
8
0
100
AcDbCircle
10
-6.0000000000000036
20
6.0000000000000009
30
0
40
0.50000000000000044
210
0
220
0
230
1
0
CIRCLE
5
163
100
AcDbEntity
8
0
100
AcDbCircle
10
-8.0000000000000053
20
6.0000000000000009
30
0
40
0.50000000000000044
210
0
220
0
230
1
0
CIRCLE
5
164
100
AcDbEntity
8
0
100
AcDbCircle
10
-10.000000000000007
20
6.0000000000000009
30
0
40
0.50000000000000044
210
0
220
0
230
1
0
CIRCLE
5
165
100
AcDbEntity
8
0
100
AcDbCircle
10
-12.000000000000004
20
6.0000000000000009
30
0
40
0.50000000000000044
210
0
220
0
230
1
0
CIRCLE
5
166
100
AcDbEntity
8
0
100
AcDbCircle
10
-14.000000000000005
20
6.0000000000000009
30
0
40
0.50000000000000044
210
0
220
0
230
1
0
CIRCLE
5
167
100
AcDbEntity
8
0
100
AcDbCircle
10
13.999999999999996
20
4
30
0
40
0.50000000000000044
210
0
220
0
230
1
0
CIRCLE
5
168
100
AcDbEntity
8
0
100
AcDbCircle
10
11.999999999999996
20
4
30
0
40
0.50000000000000044
210
0
220
0
230
1
0
CIRCLE
5
169
100
AcDbEntity
8
0
100
AcDbCircle
10
9.9999999999999964
20
4
30
0
40
0.50000000000000044
210
0
220
0
230
1
0
CIRCLE
5
170
100
AcDbEntity
8
0
100
AcDbCircle
10
7.9999999999999964
20
4
30
0
40
0.50000000000000044
210
0
220
0
230
1
0
CIRCLE
5
171
100
AcDbEntity
8
0
100
AcDbCircle
10
5.9999999999999964
20
4
30
0
40
0.50000000000000044
210
0
220
0
230
1
0
CIRCLE
5
172
100
AcDbEntity
8
0
100
AcDbCircle
10
3.9999999999999969
20
4
30
0
40
0.50000000000000044
210
0
220
0
230
1
0
CIRCLE
5
173
100
AcDbEntity
8
0
100
AcDbCircle
10
1.9999999999999951
20
4
30
0
40
0.50000000000000044
210
0
220
0
230
1
0
CIRCLE
5
174
100
AcDbEntity
8
0
100
AcDbCircle
10
-4.4408920985006262e-15
20
4
30
0
40
0.50000000000000044
210
0
220
0
230
1
0
CIRCLE
5
175
100
AcDbEntity
8
0
100
AcDbCircle
10
-2.000000000000004
20
4
30
0
40
0.50000000000000044
210
0
220
0
230
1
0
CIRCLE
5
176
100
AcDbEntity
8
0
100
AcDbCircle
10
-4.0000000000000036
20
4
30
0
40
0.50000000000000044
210
0
220
0
230
1
0
CIRCLE
5
177
100
AcDbEntity
8
0
100
AcDbCircle
10
-6.0000000000000036
20
4
30
0
40
0.50000000000000044
210
0
220
0
230
1
0
CIRCLE
5
178
100
AcDbEntity
8
0
100
AcDbCircle
10
-8.0000000000000053
20
4
30
0
40
0.50000000000000044
210
0
220
0
230
1
0
CIRCLE
5
179
100
AcDbEntity
8
0
100
AcDbCircle
10
-10.000000000000007
20
4
30
0
40
0.50000000000000044
210
0
220
0
230
1
0
CIRCLE
5
180
100
AcDbEntity
8
0
100
AcDbCircle
10
-12.000000000000004
20
4
30
0
40
0.50000000000000044
210
0
220
0
230
1
0
CIRCLE
5
181
100
AcDbEntity
8
0
100
AcDbCircle
10
-14.000000000000005
20
4
30
0
40
0.50000000000000044
210
0
220
0
230
1
0
CIRCLE
5
182
100
AcDbEntity
8
0
100
AcDbCircle
10
13.999999999999996
20
2
30
0
40
0.50000000000000044
210
0
220
0
230
1
0
CIRCLE
5
183
100
AcDbEntity
8
0
100
AcDbCircle
10
11.999999999999996
20
2
30
0
40
0.50000000000000044
210
0
220
0
230
1
0
CIRCLE
5
184
100
AcDbEntity
8
0
100
AcDbCircle
10
9.9999999999999964
20
2
30
0
40
0.50000000000000044
210
0
220
0
230
1
0
CIRCLE
5
185
100
AcDbEntity
8
0
100
AcDbCircle
10
7.9999999999999964
20
2
30
0
40
0.50000000000000044
210
0
220
0
230
1
0
CIRCLE
5
186
100
AcDbEntity
8
0
100
AcDbCircle
10
5.9999999999999964
20
2
30
0
40
0.50000000000000044
210
0
220
0
230
1
0
CIRCLE
5
187
100
AcDbEntity
8
0
100
AcDbCircle
10
3.9999999999999969
20
2
30
0
40
0.50000000000000044
210
0
220
0
230
1
0
CIRCLE
5
188
100
AcDbEntity
8
0
100
AcDbCircle
10
1.9999999999999951
20
2
30
0
40
0.50000000000000044
210
0
220
0
230
1
0
CIRCLE
5
189
100
AcDbEntity
8
0
100
AcDbCircle
10
-4.4408920985006262e-15
20
2
30
0
40
0.50000000000000044
210
0
220
0
230
1
0
CIRCLE
5
190
100
AcDbEntity
8
0
100
AcDbCircle
10
-2.000000000000004
20
2
30
0
40
0.50000000000000044
210
0
220
0
230
1
0
CIRCLE
5
191
100
AcDbEntity
8
0
100
AcDbCircle
10
-4.0000000000000036
20
2
30
0
40
0.50000000000000044
210
0
220
0
230
1
0
CIRCLE
5
192
100
AcDbEntity
8
0
100
AcDbCircle
10
-6.0000000000000036
20
2
30
0
40
0.50000000000000044
210
0
220
0
230
1
0
CIRCLE
5
193
100
AcDbEntity
8
0
100
AcDbCircle
10
-8.0000000000000053
20
2
30
0
40
0.50000000000000044
210
0
220
0
230
1
0
CIRCLE
5
194
100
AcDbEntity
8
0
100
AcDbCircle
10
-10.000000000000007
20
2
30
0
40
0.50000000000000044
210
0
220
0
230
1
0
CIRCLE
5
195
100
AcDbEntity
8
0
100
AcDbCircle
10
-12.000000000000004
20
2
30
0
40
0.50000000000000044
210
0
220
0
230
1
0
CIRCLE
5
196
100
AcDbEntity
8
0
100
AcDbCircle
10
-14.000000000000005
20
2
30
0
40
0.50000000000000044
210
0
220
0
230
1
0
CIRCLE
5
197
100
AcDbEntity
8
0
100
AcDbCircle
10
11.999999999999996
20
-2.4651903288156619e-31
30
0
40
0.50000000000000044
210
0
220
0
230
1
0
CIRCLE
5
198
100
AcDbEntity
8
0
100
AcDbCircle
10
9.9999999999999964
20
-2.4651903288156619e-31
30
0
40
0.50000000000000044
210
0
220
0
230
1
0
CIRCLE
5
199
100
AcDbEntity
8
0
100
AcDbCircle
10
7.9999999999999964
20
-2.4651903288156619e-31
30
0
40
0.50000000000000044
210
0
220
0
230
1
0
CIRCLE
5
200
100
AcDbEntity
8
0
100
AcDbCircle
10
5.9999999999999964
20
-2.4651903288156619e-31
30
0
40
0.50000000000000044
210
0
220
0
230
1
0
CIRCLE
5
201
100
AcDbEntity
8
0
100
AcDbCircle
10
3.9999999999999969
20
-2.4651903288156619e-31
30
0
40
0.50000000000000044
210
0
220
0
230
1
0
CIRCLE
5
202
100
AcDbEntity
8
0
100
AcDbCircle
10
1.9999999999999951
20
-2.4651903288156619e-31
30
0
40
0.50000000000000044
210
0
220
0
230
1
0
CIRCLE
5
203
100
AcDbEntity
8
0
100
AcDbCircle
10
-4.4408920985006262e-15
20
-2.4651903288156619e-31
30
0
40
0.50000000000000044
210
0
220
0
230
1
0
CIRCLE
5
204
100
AcDbEntity
8
0
100
AcDbCircle
10
-2.000000000000004
20
-2.4651903288156619e-31
30
0
40
0.50000000000000044
210
0
220
0
230
1
0
CIRCLE
5
205
100
AcDbEntity
8
0
100
AcDbCircle
10
-4.0000000000000036
20
-2.4651903288156619e-31
30
0
40
0.50000000000000044
210
0
220
0
230
1
0
CIRCLE
5
206
100
AcDbEntity
8
0
100
AcDbCircle
10
-6.0000000000000036
20
-2.4651903288156619e-31
30
0
40
0.50000000000000044
210
0
220
0
230
1
0
CIRCLE
5
207
100
AcDbEntity
8
0
100
AcDbCircle
10
-8.0000000000000053
20
-2.4651903288156619e-31
30
0
40
0.50000000000000044
210
0
220
0
230
1
0
CIRCLE
5
208
100
AcDbEntity
8
0
100
AcDbCircle
10
-10.000000000000007
20
-2.4651903288156619e-31
30
0
40
0.50000000000000044
210
0
220
0
230
1
0
CIRCLE
5
209
100
AcDbEntity
8
0
100
AcDbCircle
10
-12.000000000000004
20
-2.4651903288156619e-31
30
0
40
0.50000000000000044
210
0
220
0
230
1
0
CIRCLE
5
210
100
AcDbEntity
8
0
100
AcDbCircle
10
-14.000000000000005
20
-2.4651903288156619e-31
30
0
40
0.50000000000000044
210
0
220
0
230
1
0
CIRCLE
5
211
100
AcDbEntity
8
0
100
AcDbCircle
10
13.999999999999996
20
-2
30
0
40
0.50000000000000044
210
0
220
0
230
1
0
CIRCLE
5
212
100
AcDbEntity
8
0
100
AcDbCircle
10
11.999999999999996
20
-2
30
0
40
0.50000000000000044
210
0
220
0
230
1
0
CIRCLE
5
213
100
AcDbEntity
8
0
100
AcDbCircle
10
9.9999999999999964
20
-2
30
0
40
0.50000000000000044
210
0
220
0
230
1
0
CIRCLE
5
214
100
AcDbEntity
8
0
100
AcDbCircle
10
7.9999999999999964
20
-2
30
0
40
0.50000000000000044
210
0
220
0
230
1
0
CIRCLE
5
215
100
AcDbEntity
8
0
100
AcDbCircle
10
5.9999999999999964
20
-2
30
0
40
0.50000000000000044
210
0
220
0
230
1
0
CIRCLE
5
216
100
AcDbEntity
8
0
100
AcDbCircle
10
3.9999999999999969
20
-2
30
0
40
0.50000000000000044
210
0
220
0
230
1
0
CIRCLE
5
217
100
AcDbEntity
8
0
100
AcDbCircle
10
1.9999999999999951
20
-2
30
0
40
0.50000000000000044
210
0
220
0
230
1
0
CIRCLE
5
218
100
AcDbEntity
8
0
100
AcDbCircle
10
-4.4408920985006262e-15
20
-2
30
0
40
0.50000000000000044
210
0
220
0
230
1
0
CIRCLE
5
219
100
AcDbEntity
8
0
100
AcDbCircle
10
-2.000000000000004
20
-2
30
0
40
0.50000000000000044
210
0
220
0
230
1
0
CIRCLE
5
220
100
AcDbEntity
8
0
100
AcDbCircle
10
-4.0000000000000036
20
-2
30
0
40
0.50000000000000044
210
0
220
0
230
1
0
CIRCLE
5
221
100
AcDbEntity
8
0
100
AcDbCircle
10
-6.0000000000000036
20
-2
30
0
40
0.50000000000000044
210
0
220
0
230
1
0
CIRCLE
5
222
100
AcDbEntity
8
0
100
AcDbCircle
10
-8.0000000000000053
20
-2
30
0
40
0.50000000000000044
210
0
220
0
230
1
0
CIRCLE
5
223
100
AcDbEntity
8
0
100
AcDbCircle
10
-10.000000000000007
20
-2
30
0
40
0.50000000000000044
210
0
220
0
230
1
0
CIRCLE
5
224
100
AcDbEntity
8
0
100
AcDbCircle
10
-12.000000000000004
20
-2
30
0
40
0.50000000000000044
210
0
220
0
230
1
0
CIRCLE
5
225
100
AcDbEntity
8
0
100
AcDbCircle
10
-14.000000000000005
20
-2
30
0
40
0.50000000000000044
210
0
220
0
230
1
0
CIRCLE
5
226
100
AcDbEntity
8
0
100
AcDbCircle
10
13.999999999999996
20
-4
30
0
40
0.50000000000000044
210
0
220
0
230
1
0
CIRCLE
5
227
100
AcDbEntity
8
0
100
AcDbCircle
10
11.999999999999996
20
-4
30
0
40
0.50000000000000044
210
0
220
0
230
1
0
CIRCLE
5
228
100
AcDbEntity
8
0
100
AcDbCircle
10
9.9999999999999964
20
-4
30
0
40
0.50000000000000044
210
0
220
0
230
1
0
CIRCLE
5
229
100
AcDbEntity
8
0
100
AcDbCircle
10
7.9999999999999964
20
-4
30
0
40
0.50000000000000044
210
0
220
0
230
1
0
CIRCLE
5
230
100
AcDbEntity
8
0
100
AcDbCircle
10
5.9999999999999964
20
-4
30
0
40
0.50000000000000044
210
0
220
0
230
1
0
CIRCLE
5
231
100
AcDbEntity
8
0
100
AcDbCircle
10
3.9999999999999969
20
-4
30
0
40
0.50000000000000044
210
0
220
0
230
1
0
CIRCLE
5
232
100
AcDbEntity
8
0
100
AcDbCircle
10
1.9999999999999951
20
-4
30
0
40
0.50000000000000044
210
0
220
0
230
1
0
CIRCLE
5
233
100
AcDbEntity
8
0
100
AcDbCircle
10
-4.4408920985006262e-15
20
-4
30
0
40
0.50000000000000044
210
0
220
0
230
1
0
CIRCLE
5
234
100
AcDbEntity
8
0
100
AcDbCircle
10
-2.000000000000004
20
-4
30
0
40
0.50000000000000044
210
0
220
0
230
1
0
CIRCLE
5
235
100
AcDbEntity
8
0
100
AcDbCircle
10
-4.0000000000000036
20
-4
30
0
40
0.50000000000000044
210
0
220
0
230
1
0
CIRCLE
5
236
100
AcDbEntity
8
0
100
AcDbCircle
10
-6.0000000000000036
20
-4
30
0
40
0.50000000000000044
210
0
220
0
230
1
0
CIRCLE
5
237
100
AcDbEntity
8
0
100
AcDbCircle
10
-8.0000000000000053
20
-4
30
0
40
0.50000000000000044
210
0
220
0
230
1
0
CIRCLE
5
238
100
AcDbEntity
8
0
100
AcDbCircle
10
-10.000000000000007
20
-4
30
0
40
0.50000000000000044
210
0
220
0
230
1
0
CIRCLE
5
239
100
AcDbEntity
8
0
100
AcDbCircle
10
-12.000000000000004
20
-4
30
0
40
0.50000000000000044
210
0
220
0
230
1
0
CIRCLE
5
240
100
AcDbEntity
8
0
100
AcDbCircle
10
-14.000000000000005
20
-4
30
0
40
0.50000000000000044
210
0
220
0
230
1
0
CIRCLE
5
241
100
AcDbEntity
8
0
100
AcDbCircle
10
13.999999999999996
20
-6.0000000000000009
30
0
40
0.50000000000000044
210
0
220
0
230
1
0
CIRCLE
5
242
100
AcDbEntity
8
0
100
AcDbCircle
10
11.999999999999996
20
-6.0000000000000009
30
0
40
0.50000000000000044
210
0
220
0
230
1
0
CIRCLE
5
243
100
AcDbEntity
8
0
100
AcDbCircle
10
9.9999999999999964
20
-6.0000000000000009
30
0
40
0.50000000000000044
210
0
220
0
230
1
0
CIRCLE
5
244
100
AcDbEntity
8
0
100
AcDbCircle
10
7.9999999999999964
20
-6.0000000000000009
30
0
40
0.50000000000000044
210
0
220
0
230
1
0
CIRCLE
5
245
100
AcDbEntity
8
0
100
AcDbCircle
10
5.9999999999999964
20
-6.0000000000000009
30
0
40
0.50000000000000044
210
0
220
0
230
1
0
CIRCLE
5
246
100
AcDbEntity
8
0
100
AcDbCircle
10
3.9999999999999969
20
-6.0000000000000009
30
0
40
0.50000000000000044
210
0
220
0
230
1
0
CIRCLE
5
247
100
AcDbEntity
8
0
100
AcDbCircle
10
1.9999999999999951
20
-6.0000000000000009
30
0
40
0.50000000000000044
210
0
220
0
230
1
0
CIRCLE
5
248
100
AcDbEntity
8
0
100
AcDbCircle
10
-4.4408920985006262e-15
20
-6.0000000000000009
30
0
40
0.50000000000000044
210
0
220
0
230
1
0
CIRCLE
5
249
100
AcDbEntity
8
0
100
AcDbCircle
10
-2.000000000000004
20
-6.0000000000000009
30
0
40
0.50000000000000044
210
0
220
0
230
1
0
CIRCLE
5
250
100
AcDbEntity
8
0
100
AcDbCircle
10
-4.0000000000000036
20
-6.0000000000000009
30
0
40
0.50000000000000044
210
0
220
0
230
1
0
CIRCLE
5
251
100
AcDbEntity
8
0
100
AcDbCircle
10
-6.0000000000000036
20
-6.0000000000000009
30
0
40
0.50000000000000044
210
0
220
0
230
1
0
CIRCLE
5
252
100
AcDbEntity
8
0
100
AcDbCircle
10
-8.0000000000000053
20
-6.0000000000000009
30
0
40
0.50000000000000044
210
0
220
0
230
1
0
CIRCLE
5
253
100
AcDbEntity
8
0
100
AcDbCircle
10
-10.000000000000007
20
-6.0000000000000009
30
0
40
0.50000000000000044
210
0
220
0
230
1
0
CIRCLE
5
254
100
AcDbEntity
8
0
100
AcDbCircle
10
-12.000000000000004
20
-6.0000000000000009
30
0
40
0.50000000000000044
210
0
220
0
230
1
0
CIRCLE
5
255
100
AcDbEntity
8
0
100
AcDbCircle
10
-14.000000000000005
20
-6.0000000000000009
30
0
40
0.50000000000000044
210
0
220
0
230
1
0
CIRCLE
5
256
100
AcDbEntity
8
0
100
AcDbCircle
10
13.999999999999996
20
-8
30
0
40
0.50000000000000044
210
0
220
0
230
1
0
CIRCLE
5
257
100
AcDbEntity
8
0
100
AcDbCircle
10
11.999999999999996
20
-8
30
0
40
0.50000000000000044
210
0
220
0
230
1
0
CIRCLE
5
258
100
AcDbEntity
8
0
100
AcDbCircle
10
9.9999999999999964
20
-8
30
0
40
0.50000000000000044
210
0
220
0
230
1
0
CIRCLE
5
259
100
AcDbEntity
8
0
100
AcDbCircle
10
7.9999999999999964
20
-8
30
0
40
0.50000000000000044
210
0
220
0
230
1
0
CIRCLE
5
260
100
AcDbEntity
8
0
100
AcDbCircle
10
5.9999999999999964
20
-8
30
0
40
0.50000000000000044
210
0
220
0
230
1
0
CIRCLE
5
261
100
AcDbEntity
8
0
100
AcDbCircle
10
3.9999999999999969
20
-8
30
0
40
0.50000000000000044
210
0
220
0
230
1
0
CIRCLE
5
262
100
AcDbEntity
8
0
100
AcDbCircle
10
1.9999999999999951
20
-8
30
0
40
0.50000000000000044
210
0
220
0
230
1
0
CIRCLE
5
263
100
AcDbEntity
8
0
100
AcDbCircle
10
-4.4408920985006262e-15
20
-8
30
0
40
0.50000000000000044
210
0
220
0
230
1
0
CIRCLE
5
264
100
AcDbEntity
8
0
100
AcDbCircle
10
-2.000000000000004
20
-8
30
0
40
0.50000000000000044
210
0
220
0
230
1
0
CIRCLE
5
265
100
AcDbEntity
8
0
100
AcDbCircle
10
-4.0000000000000036
20
-8
30
0
40
0.50000000000000044
210
0
220
0
230
1
0
CIRCLE
5
266
100
AcDbEntity
8
0
100
AcDbCircle
10
-6.0000000000000036
20
-8
30
0
40
0.50000000000000044
210
0
220
0
230
1
0
CIRCLE
5
267
100
AcDbEntity
8
0
100
AcDbCircle
10
-8.0000000000000053
20
-8
30
0
40
0.50000000000000044
210
0
220
0
230
1
0
CIRCLE
5
268
100
AcDbEntity
8
0
100
AcDbCircle
10
-10.000000000000007
20
-8
30
0
40
0.50000000000000044
210
0
220
0
230
1
0
CIRCLE
5
269
100
AcDbEntity
8
0
100
AcDbCircle
10
-12.000000000000004
20
-8
30
0
40
0.50000000000000044
210
0
220
0
230
1
0
CIRCLE
5
270
100
AcDbEntity
8
0
100
AcDbCircle
10
-14.000000000000005
20
-8
30
0
40
0.50000000000000044
210
0
220
0
230
1
0
CIRCLE
5
271
100
AcDbEntity
8
0
100
AcDbCircle
10
11.999999999999996
20
-10
30
0
40
0.50000000000000044
210
0
220
0
230
1
0
CIRCLE
5
272
100
AcDbEntity
8
0
100
AcDbCircle
10
9.9999999999999964
20
-10
30
0
40
0.50000000000000044
210
0
220
0
230
1
0
CIRCLE
5
273
100
AcDbEntity
8
0
100
AcDbCircle
10
7.9999999999999964
20
-10
30
0
40
0.50000000000000044
210
0
220
0
230
1
0
CIRCLE
5
274
100
AcDbEntity
8
0
100
AcDbCircle
10
5.9999999999999964
20
-10
30
0
40
0.50000000000000044
210
0
220
0
230
1
0
CIRCLE
5
275
100
AcDbEntity
8
0
100
AcDbCircle
10
3.9999999999999969
20
-10
30
0
40
0.50000000000000044
210
0
220
0
230
1
0
CIRCLE
5
276
100
AcDbEntity
8
0
100
AcDbCircle
10
1.9999999999999951
20
-10
30
0
40
0.50000000000000044
210
0
220
0
230
1
0
CIRCLE
5
277
100
AcDbEntity
8
0
100
AcDbCircle
10
-4.4408920985006262e-15
20
-10
30
0
40
0.50000000000000044
210
0
220
0
230
1
0
CIRCLE
5
278
100
AcDbEntity
8
0
100
AcDbCircle
10
-2.000000000000004
20
-10
30
0
40
0.50000000000000044
210
0
220
0
230
1
0
CIRCLE
5
279
100
AcDbEntity
8
0
100
AcDbCircle
10
-4.0000000000000036
20
-10
30
0
40
0.50000000000000044
210
0
220
0
230
1
0
CIRCLE
5
280
100
AcDbEntity
8
0
100
AcDbCircle
10
-6.0000000000000036
20
-10
30
0
40
0.50000000000000044
210
0
220
0
230
1
0
CIRCLE
5
281
100
AcDbEntity
8
0
100
AcDbCircle
10
-8.0000000000000053
20
-10
30
0
40
0.50000000000000044
210
0
220
0
230
1
0
CIRCLE
5
282
100
AcDbEntity
8
0
100
AcDbCircle
10
-10.000000000000007
20
-10
30
0
40
0.50000000000000044
210
0
220
0
230
1
0
CIRCLE
5
283
100
AcDbEntity
8
0
100
AcDbCircle
10
-12.000000000000004
20
-10
30
0
40
0.50000000000000044
210
0
220
0
230
1
0
CIRCLE
5
284
100
AcDbEntity
8
0
100
AcDbCircle
10
11.999999999999996
20
-12.000000000000002
30
0
40
0.50000000000000044
210
0
220
0
230
1
0
CIRCLE
5
285
100
AcDbEntity
8
0
100
AcDbCircle
10
9.9999999999999964
20
-12.000000000000002
30
0
40
0.50000000000000044
210
0
220
0
230
1
0
CIRCLE
5
286
100
AcDbEntity
8
0
100
AcDbCircle
10
7.9999999999999964
20
-12.000000000000002
30
0
40
0.50000000000000044
210
0
220
0
230
1
0
CIRCLE
5
287
100
AcDbEntity
8
0
100
AcDbCircle
10
5.9999999999999964
20
-12.000000000000002
30
0
40
0.50000000000000044
210
0
220
0
230
1
0
CIRCLE
5
288
100
AcDbEntity
8
0
100
AcDbCircle
10
3.9999999999999969
20
-12.000000000000002
30
0
40
0.50000000000000044
210
0
220
0
230
1
0
CIRCLE
5
289
100
AcDbEntity
8
0
100
AcDbCircle
10
1.9999999999999951
20
-12.000000000000002
30
0
40
0.50000000000000044
210
0
220
0
230
1
0
CIRCLE
5
290
100
AcDbEntity
8
0
100
AcDbCircle
10
-4.4408920985006262e-15
20
-12.000000000000002
30
0
40
0.50000000000000044
210
0
220
0
230
1
0
CIRCLE
5
291
100
AcDbEntity
8
0
100
AcDbCircle
10
-2.000000000000004
20
-12.000000000000002
30
0
40
0.50000000000000044
210
0
220
0
230
1
0
CIRCLE
5
292
100
AcDbEntity
8
0
100
AcDbCircle
10
-4.0000000000000036
20
-12.000000000000002
30
0
40
0.50000000000000044
210
0
220
0
230
1
0
CIRCLE
5
293
100
AcDbEntity
8
0
100
AcDbCircle
10
-6.0000000000000036
20
-12.000000000000002
30
0
40
0.50000000000000044
210
0
220
0
230
1
0
CIRCLE
5
294
100
AcDbEntity
8
0
100
AcDbCircle
10
-8.0000000000000053
20
-12.000000000000002
30
0
40
0.50000000000000044
210
0
220
0
230
1
0
CIRCLE
5
295
100
AcDbEntity
8
0
100
AcDbCircle
10
-10.000000000000007
20
-12.000000000000002
30
0
40
0.50000000000000044
210
0
220
0
230
1
0
CIRCLE
5
296
100
AcDbEntity
8
0
100
AcDbCircle
10
-12.000000000000004
20
-12.000000000000002
30
0
40
0.50000000000000044
210
0
220
0
230
1
0
CIRCLE
5
297
100
AcDbEntity
8
0
100
AcDbCircle
10
7.9999999999999964
20
-14.000000000000002
30
0
40
0.50000000000000044
210
0
220
0
230
1
0
CIRCLE
5
298
100
AcDbEntity
8
0
100
AcDbCircle
10
5.9999999999999964
20
-14.000000000000002
30
0
40
0.50000000000000044
210
0
220
0
230
1
0
CIRCLE
5
299
100
AcDbEntity
8
0
100
AcDbCircle
10
3.9999999999999969
20
-14.000000000000002
30
0
40
0.50000000000000044
210
0
220
0
230
1
0
CIRCLE
5
300
100
AcDbEntity
8
0
100
AcDbCircle
10
1.9999999999999951
20
-14.000000000000002
30
0
40
0.50000000000000044
210
0
220
0
230
1
0
CIRCLE
5
301
100
AcDbEntity
8
0
100
AcDbCircle
10
-4.4408920985006262e-15
20
-14.000000000000002
30
0
40
0.50000000000000044
210
0
220
0
230
1
0
CIRCLE
5
302
100
AcDbEntity
8
0
100
AcDbCircle
10
-2.000000000000004
20
-14.000000000000002
30
0
40
0.50000000000000044
210
0
220
0
230
1
0
CIRCLE
5
303
100
AcDbEntity
8
0
100
AcDbCircle
10
-4.0000000000000036
20
-14.000000000000002
30
0
40
0.50000000000000044
210
0
220
0
230
1
0
CIRCLE
5
304
100
AcDbEntity
8
0
100
AcDbCircle
10
-6.0000000000000036
20
-14.000000000000002
30
0
40
0.50000000000000044
210
0
220
0
230
1
0
CIRCLE
5
305
100
AcDbEntity
8
0
100
AcDbCircle
10
-8.0000000000000053
20
-14.000000000000002
30
0
40
0.50000000000000044
210
0
220
0
230
1
0
ENDSEC
0
SECTION
2
OBJECTS
0
DICTIONARY
5
C
100
AcDbDictionary
3
ACAD_GROUP
350
D
3
ACAD_MLINESTYLE
350
17
0
DICTIONARY
5
D
100
AcDbDictionary
0
DICTIONARY
5
1A
330
C
100
AcDbDictionary
0
DICTIONARY
5
17
100
AcDbDictionary
0
ENDSEC
0
EOF
